<svg xmlns="http://www.w3.org/2000/svg" viewBox="0.0 0.0 512.0 512.0" height="512.0px" width="512.0px"><path fill="#3FCEBA" fill-opacity="1.0"  filling="0" d="M133.332275390625 240.32794189453125 C139.3021240234375 234.4583740234375 121.564453125 232.8875732421875 121.22442626953125 238.683349609375 C120.8824462890625 244.468994140625 125.3245849609375 248.1943359375 133.332275390625 240.32794189453125 Z"></path>
<path fill="#3FCEBA" fill-opacity="1.0"  filling="0" d="M341.2615966796875 282.5946044921875 C341.21856689453125 294.34600830078125 333.44439697265625 303.8466796875 323.89453125 303.8077392578125 L241.286376953125 303.4964599609375 C231.736572265625 303.4595947265625 224.0361328125 293.901611328125 224.0811767578125 282.150146484375 L224.09552001953125 278.6051025390625 C224.136474609375 266.8536376953125 231.91064453125 257.3570556640625 241.4625244140625 257.3939208984375 L324.06658935546875 257.7052001953125 C333.6204833984375 257.744140625 341.3250732421875 267.298095703125 341.280029296875 279.0474853515625 L341.2615966796875 282.5946044921875 Z"></path>
<path fill="#3FCEBA" fill-opacity="1.0"  filling="0" d="M225.322265625 278.41455078125 C216.0242919921875 281.4251708984375 206.55026245117188 277.8780517578125 204.158203125 270.5010986328125 L193.10513305664062 236.35693359375 C190.71719360351562 228.97381591796875 196.31646728515625 220.5504150390625 205.62051391601562 217.539794921875 L209.35809326171875 216.3294677734375 C218.6580810546875 213.31689453125 228.1341552734375 216.85986328125 230.53033447265625 224.23681640625 L241.581298828125 258.38720703125 C243.96923828125 265.7681884765625 238.365966796875 274.1875 229.06396484375 277.1981201171875 L225.322265625 278.41455078125 Z"></path>
<path fill="#3FCEBA" fill-opacity="1.0"  filling="0" d="M378.71337890625 334.2451171875 C382.31378173828125 343.08837890625 378.0682373046875 353.1748046875 369.22296142578125 356.779296875 L363.8837890625 358.95220947265625 C355.046630859375 362.5526123046875 344.95001220703125 358.3050537109375 341.3516845703125 349.459716796875 L321.791259765625 301.4197998046875 C318.1846923828125 292.58062744140625 322.4364013671875 282.488037109375 331.28369140625 278.8897705078125 L336.6229248046875 276.71270751953125 C345.4599609375 273.1123046875 355.5504150390625 277.35986328125 359.15289306640625 286.207275390625 L378.71337890625 334.2451171875 Z"></path>
<path fill="#3FCEBA" fill-opacity="1.0"  filling="0" d="M185.7548828125 333.5098876953125 C182.09100341796875 342.33477783203125 186.25869750976562 352.44775390625 195.0753173828125 356.11572265625 L200.3980712890625 358.3316650390625 C209.21270751953125 361.9996337890625 219.3338623046875 357.82781982421875 223.00189208984375 349.0133056640625 L242.9268798828125 301.122802734375 C246.596923828125 292.30413818359375 242.4210205078125 282.1849365234375 233.602294921875 278.51702880859375 L228.28363037109375 276.30718994140625 C219.4649658203125 272.633056640625 209.34783935546875 276.8089599609375 205.67782592773438 285.6256103515625 L185.7548828125 333.5098876953125 Z"></path>
<path fill="#3FCEBA" fill-opacity="1.0"  filling="0" d="M321.9837646484375 250.940673828125 C318.31378173828125 259.763427734375 322.48345947265625 269.880615234375 331.3021240234375 273.550537109375 L336.6248779296875 275.7645263671875 C345.4375 279.430419921875 355.55865478515625 275.2607421875 359.22869873046875 266.43994140625 L379.15570068359375 218.5556640625 C382.82373046875 209.7369384765625 378.6478271484375 199.61782836914062 369.8311767578125 195.951904296875 L364.5166015625 193.7359619140625 C355.69384765625 190.07000732421875 345.57464599609375 194.24383544921875 341.90673828125 203.056396484375 L321.9837646484375 250.940673828125 Z"></path>
<path fill="#3FCEBA" fill-opacity="1.0"  filling="0" d="M191.58758544921875 204.02713012695312 C190.95889282226562 213.5565185546875 198.171875 221.7894287109375 207.69921875 222.418212890625 L213.45208740234375 222.79913330078125 C222.977294921875 223.42578125 231.2164306640625 216.2127685546875 231.84307861328125 206.681396484375 L235.2489013671875 154.92633056640625 C235.8837890625 145.40106201171875 228.66455078125 137.1640625 219.13525390625 136.53738403320312 L213.386474609375 136.158447265625 C203.86334228515625 135.5277099609375 195.62213134765625 142.74688720703125 194.99749755859375 152.2762451171875 L191.58758544921875 204.02713012695312 Z"></path>
<path fill="#3FCEBA" fill-opacity="1.0"  filling="0" d="M143.18927001953125 214.3797607421875 C133.95074462890625 216.79644775390625 128.41500854492188 226.235595703125 130.82550048828125 235.4742431640625 L132.2816162109375 241.0509033203125 C134.68798828125 250.29144287109375 144.13751220703125 255.8333740234375 153.37600708007812 253.42083740234375 L196.34918212890625 243.17877197265625 C205.58978271484375 240.76824951171875 211.12551879882812 231.3228759765625 208.7109375 222.08233642578125 L207.25482177734375 216.505615234375 C204.84432983398438 207.2650146484375 195.40093994140625 201.729248046875 186.16244506835938 204.1397705078125 L143.18927001953125 214.3797607421875 Z"></path>
<path fill="#3FCEBA" fill-opacity="1.0"  filling="0" d="M365.6778564453125 194.31756591796875 C367.9920654296875 187.42401123046875 374.4842529296875 171.5643310546875 376.843505859375 172.014892578125 C379.2008056640625 172.47564697265625 381.375732421875 173.87237548828125 377.0872802734375 180.87039184570312 C372.794677734375 187.86639404296875 370.5889892578125 196.73834228515625 367.96337890625 197.68856811523438 C365.333740234375 198.64907836914062 365.6778564453125 194.31756591796875 365.6778564453125 194.31756591796875 Z"></path>
<path fill="#FFFFFF" fill-opacity="1.0"  filling="0" d="M200.58038330078125 155.12088012695312 L200.75653076171875 151.3546142578125 C200.852783203125 149.3087158203125 200.852783203125 149.3087158203125 202.898681640625 149.40496826171875 C204.94464111328125 149.50119018554688 204.94464111328125 149.50119018554688 204.848388671875 151.547119140625 L204.6722412109375 155.31344604492188 C204.57601928710938 157.359375 204.57601928710938 157.359375 202.53009033203125 157.26312255859375 C200.484130859375 157.1668701171875 200.484130859375 157.1668701171875 200.58038330078125 155.12088012695312 Z"></path>
<path fill="#FFFFFF" fill-opacity="1.0"  filling="0" d="M198.87844848632812 196.74444580078125 L200.56805419921875 160.71194458007812 C200.664306640625 158.666015625 200.664306640625 158.666015625 202.71026611328125 158.76226806640625 C204.75625610351562 158.8585205078125 204.75625610351562 158.8585205078125 204.65994262695312 160.90444946289062 L202.97039794921875 196.93695068359375 C202.8741455078125 198.98297119140625 202.8741455078125 198.98297119140625 200.82818603515625 198.88665771484375 C198.78219604492188 198.7904052734375 198.78219604492188 198.7904052734375 198.87844848632812 196.74444580078125 Z"></path>
<path fill="#FFFFFF" fill-opacity="1.0"  filling="0" d="M205.61431884765625 299.779296875 L207.01107788085938 296.27520751953125 C207.76882934570312 294.3726806640625 207.76882934570312 294.3726806640625 209.67144775390625 295.13037109375 C211.57400512695312 295.88818359375 211.57400512695312 295.88818359375 210.8162841796875 297.790771484375 L209.41949462890625 301.294921875 C208.6617431640625 303.19744873046875 208.6617431640625 303.19744873046875 206.75921630859375 302.439697265625 C204.8565673828125 301.68194580078125 204.8565673828125 301.68194580078125 205.61431884765625 299.779296875 Z"></path>
<path fill="#FFFFFF" fill-opacity="1.0"  filling="0" d="M190.45709228515625 338.580810546875 L203.78958129882812 305.0611572265625 C204.54525756835938 303.15850830078125 204.54525756835938 303.15850830078125 206.449951171875 303.91632080078125 C208.35250854492188 304.6719970703125 208.35250854492188 304.6719970703125 207.59475708007812 306.57666015625 L194.26226806640625 340.0963134765625 C193.506591796875 341.9989013671875 193.506591796875 341.9989013671875 191.6019287109375 341.2410888671875 C189.6993408203125 340.4853515625 189.6993408203125 340.4853515625 190.45709228515625 338.580810546875 Z"></path>
<path fill="#FFFFFF" fill-opacity="1.0"  filling="0" d="M249.4989013671875 267.7384033203125 L245.7244873046875 267.7486572265625 C243.67645263671875 267.7547607421875 243.67645263671875 267.7547607421875 243.6702880859375 265.706787109375 C243.66412353515625 263.65875244140625 243.66412353515625 263.65875244140625 245.712158203125 263.65264892578125 L249.486572265625 263.64239501953125 C251.5345458984375 263.63623046875 251.5345458984375 263.63623046875 251.540771484375 265.68426513671875 C251.546875 267.7322998046875 251.546875 267.7322998046875 249.4989013671875 267.7384033203125 Z"></path>
<path fill="#FFFFFF" fill-opacity="1.0"  filling="0" d="M316.388671875 267.5130615234375 L255.0694580078125 267.482421875 C253.021484375 267.482421875 253.021484375 267.482421875 253.021484375 265.43438720703125 C253.021484375 263.3863525390625 253.021484375 263.3863525390625 255.0694580078125 263.3863525390625 L316.390625 263.4171142578125 C318.4385986328125 263.4171142578125 318.4385986328125 263.4171142578125 318.4385986328125 265.465087890625 C318.4366455078125 267.5130615234375 318.4366455078125 267.5130615234375 316.388671875 267.5130615234375 Z"></path>
<path fill="#FFFFFF" fill-opacity="1.0"  filling="0" d="M347.9114990234375 206.6383056640625 L349.42083740234375 203.18338012695312 C350.239990234375 201.30538940429688 350.239990234375 201.30538940429688 352.115966796875 202.1265869140625 C353.9940185546875 202.94583129882812 353.9940185546875 202.94583129882812 353.1727294921875 204.82177734375 L351.66339111328125 208.27676391601562 C350.84423828125 210.15475463867188 350.84423828125 210.15475463867188 348.96820068359375 209.33349609375 C347.0902099609375 208.51434326171875 347.0902099609375 208.51434326171875 347.9114990234375 206.6383056640625 Z"></path>
<path fill="#FFFFFF" fill-opacity="1.0"  filling="0" d="M331.4271240234375 244.8887939453125 L345.90234375 211.84637451171875 C346.72357177734375 209.970458984375 346.72357177734375 209.970458984375 348.599609375 210.79168701171875 C350.47552490234375 211.61294555664062 350.47552490234375 211.61294555664062 349.654296875 213.4888916015625 L335.17901611328125 246.5313720703125 C334.3577880859375 248.4073486328125 334.3577880859375 248.4073486328125 332.4818115234375 247.5860595703125 C330.6058349609375 246.76483154296875 330.6058349609375 246.76483154296875 331.4271240234375 244.8887939453125 Z"></path>
<path fill="#6bf0de" fill-opacity="1.0"  filling="0" d="M211.78701782226562 277.86572265625 C206.17138671875 279.80517578125 222.74993896484375 273.560791015625 231.85943603515625 282.760498046875 C230.72283935546875 282.6273193359375 225.6314697265625 272.4979248046875 229.57183837890625 266.14300537109375 C229.3916015625 265.66375732421875 224.3699951171875 273.507568359375 211.78701782226562 277.86572265625 Z"></path>
<path fill="#6bf0de" fill-opacity="1.0"  filling="0" d="M347.5592041015625 276.2109375 C353.285400390625 276.2027587890625 337.3150634765625 275.066162109375 332.748046875 268.5657958984375 C332.594482421875 268.8934326171875 336.38330078125 276.2314453125 333.4832763671875 284.6630859375 C333.4832763671875 284.6630859375 339.38153076171875 276.2191162109375 347.5592041015625 276.2109375 Z"></path>
<path fill="#6bf0de" fill-opacity="1.0"  filling="0" d="M225.83221435546875 218.14404296875 C232.81591796875 218.3447265625 216.24755859375 217.306396484375 213.3516845703125 215.3709716796875 C213.44183349609375 215.610595703125 216.663330078125 217.6995849609375 216.4605712890625 221.5948486328125 C216.37249755859375 221.35321044921875 220.321044921875 217.9945068359375 225.83221435546875 218.14404296875 Z"></path></svg>