<svg xmlns="http://www.w3.org/2000/svg" viewBox="0.0 0.0 512.0 512.0" height="512.0px" width="512.0px"><path fill="#911A1D" fill-opacity="1.0"  filling="0" d="M280.811767578125 283.3770446777344 C293.82611083984375 286.60693359375 293.3311767578125 306.8160095214844 293.46240234375 317.1050720214844 C293.5594482421875 324.6293029785156 293.205322265625 332.150390625 293.24591064453125 339.6746826171875 C293.2757568359375 345.4090881347656 293.3515625 351.28961181640625 295.0634765625 356.81170654296875 C297.33544921875 364.1397399902344 301.4752197265625 370.309326171875 307.9306640625 374.52264404296875 C313.6693115234375 378.2677307128906 320.239990234375 380.3701171875 325.6522216796875 384.6741027832031 C333.1307373046875 390.62078857421875 335.19793701171875 400.1247863769531 336.31573486328125 409.1498718261719 C337.421875 418.08319091796875 337.18499755859375 427.1061096191406 337.7003173828125 436.077880859375 C337.734375 436.6431884765625 337.77490234375 437.2085266113281 337.8218994140625 437.77276611328125 C338.01605224609375 440.30401611328125 341.9061279296875 439.7525329589844 341.7130126953125 437.24267578125 C340.4405517578125 420.69122314453125 343.15521240234375 400.9322509765625 332.9952392578125 386.59197998046875 C328.92474365234375 380.846923828125 322.234619140625 377.5263977050781 316.0938720703125 374.51519775390625 C308.85650634765625 370.96746826171875 303.384521484375 366.7210693359375 300.0810546875 359.14453125 C297.54022216796875 353.31732177734375 297.2406005859375 347.07305908203125 297.14990234375 340.80426025390625 C297.0389404296875 333.205322265625 297.4005126953125 325.6053161621094 297.3653564453125 318.0053405761719 C297.3109130859375 306.4981384277344 297.48052978515625 290.7424011230469 287.858154296875 282.5546569824219 C285.9808349609375 280.9578552246094 283.6597900390625 280.0661315917969 281.30126953125 279.4804992675781 C278.840576171875 278.87042236328125 278.3883056640625 282.77545166015625 280.811767578125 283.3770446777344 L280.811767578125 283.3770446777344 Z"></path>
<path fill="#F5D30C" fill-opacity="1.0"  filling="0" d="M234.28692626953125 79.20318603515625 C231.3408203125 77.859130859375 228.06719970703125 77.36102294921875 224.7584228515625 77.55413818359375 C216.6954345703125 78.0245361328125 208.416015625 82.708251953125 204.0938720703125 90.04693603515625 C202.9696044921875 92.80108642578125 202.21551513671875 95.96905517578125 201.80804443359375 99.25653076171875 C201.4005126953125 102.54290771484375 201.3408203125 105.94989013671875 201.5936279296875 109.18829345703125 C201.76104736328125 111.34716796875 202.06829833984375 113.43255615234375 202.50341796875 115.36102294921875 C207.3172607421875 133.74185180664062 218.66351318359375 150.40634155273438 235.306640625 158.45651245117188 L240.2239990234375 158.10879516601562 L251.9093017578125 157.283203125 C253.505126953125 147.00369262695312 254.6837158203125 134.8021240234375 254.1461181640625 122.81494140625 C254.01171875 119.81869506835938 253.76641845703125 116.8394775390625 253.371826171875 113.922119140625 C251.09765625 100.89599609375 247.141357421875 85.36529541015625 234.28692626953125 79.20318603515625 Z"></path>
<path fill="#F3BB18" fill-opacity="1.0"  filling="0" d="M234.28692626953125 79.20318603515625 C231.3408203125 77.859130859375 228.06719970703125 77.36102294921875 224.7584228515625 77.55413818359375 C239.44427490234375 80.75091552734375 243.609619140625 105.5882568359375 246.7264404296875 119.17868041992188 C247.18292236328125 122.45758056640625 247.4549560546875 125.72372436523438 247.49542236328125 128.94717407226562 C247.6181640625 138.61972045898438 245.656494140625 147.92529296875 240.8363037109375 156.03305053710938 C240.59197998046875 156.70718383789062 240.40106201171875 157.40692138671875 240.221923828125 158.10879516601562 L251.9072265625 157.283203125 C253.5029296875 147.00369262695312 254.68157958984375 134.8021240234375 254.14404296875 122.81494140625 C254.00958251953125 119.81869506835938 253.7642822265625 116.8394775390625 253.36962890625 113.922119140625 C251.09765625 100.89599609375 247.141357421875 85.36529541015625 234.28692626953125 79.20318603515625 Z"></path>
<path fill="#FDE75A" fill-opacity="1.0"  filling="0" d="M216.789306640625 87.50189208984375 C206.30291748046875 86.2762451171875 204.840576171875 100.13543701171875 204.93017578125 107.57330322265625 C205.0250244140625 115.45916748046875 221.41552734375 151.27682495117188 229.19146728515625 135.176513671875 C232.8245849609375 127.6533203125 231.017578125 117.6864013671875 229.6181640625 109.7471923828125 C228.39788818359375 102.82666015625 225.595703125 88.5322265625 216.789306640625 87.50189208984375 Z"></path>
<path fill="#F5D30C" fill-opacity="1.0"  filling="0" d="M193.43145751953125 146.61758422851562 C187.8603515625 137.75039672851562 181.75042724609375 129.4293212890625 173.072021484375 123.4176025390625 C167.6981201171875 119.69598388671875 161.3302001953125 119.29278564453125 157.014404296875 123.23306274414062 C155.7620849609375 124.37649536132812 154.68157958984375 125.881591796875 153.85064697265625 127.78024291992188 C149.875244140625 136.86080932617188 150.598388671875 146.52264404296875 154.50341796875 155.31304931640625 C160.32965087890625 168.42987060546875 169.2010498046875 180.77972412109375 180.7530517578125 189.17971801757812 C184.581298828125 191.9637451171875 188.7584228515625 194.75201416015625 192.8800048828125 196.79360961914062 C195.3099365234375 197.996826171875 198.5067138671875 198.29440307617188 201.15838623046875 198.97708129882812 C202.505615234375 199.32369995117188 203.7152099609375 199.76852416992188 204.6058349609375 200.4853515625 L209.40478515625 186.8597412109375 C208.3455810546875 173.75466918945312 200.36907958984375 157.6575927734375 193.43145751953125 146.61758422851562 Z"></path>
<path fill="#FDE75A" fill-opacity="1.0"  filling="0" d="M160.140869140625 132.06082153320312 C150.4544677734375 132.09170532226562 152.9696044921875 145.62451171875 155.0997314453125 152.7861328125 C157.3568115234375 160.37863159179688 181.8399658203125 193.01654052734375 184.3349609375 176.59304809570312 C185.50079345703125 168.91836547851562 181.14239501953125 159.51785278320312 177.707763671875 152.02450561523438 C174.7125244140625 145.49331665039062 168.27520751953125 132.03408813476562 160.140869140625 132.06082153320312 Z"></path>
<path fill="#F3BB18" fill-opacity="1.0"  filling="0" d="M193.43145751953125 146.61758422851562 C187.8603515625 137.75039672851562 181.75042724609375 129.4293212890625 173.072021484375 123.4176025390625 C167.6981201171875 119.69598388671875 161.3302001953125 119.29278564453125 157.014404296875 123.23306274414062 C170.08642578125 120.55255126953125 178.801025390625 132.5333251953125 184.98345947265625 143.36639404296875 C193.8709716796875 158.94082641601562 207.4068603515625 174.33493041992188 202.5301513671875 193.47732543945312 C202.05548095703125 195.33865356445312 201.6693115234375 197.17440795898438 201.15838623046875 198.97708129882812 C202.505615234375 199.32369995117188 203.7152099609375 199.76852416992188 204.6058349609375 200.4853515625 L209.40478515625 186.8597412109375 C208.3455810546875 173.75466918945312 200.36907958984375 157.6575927734375 193.43145751953125 146.61758422851562 Z"></path>
<path fill="#F3BB18" fill-opacity="1.0"  filling="0" d="M282.97705078125 280.0671691894531 L275.73760986328125 283.7269287109375 C274.2197265625 286.87042236328125 274.9664306640625 291.4570617675781 276.06719970703125 294.5418701171875 C278.49072265625 294.7008056640625 282.3797607421875 292.6346435546875 284.716796875 291.8570556640625 C288.0511474609375 290.7466735839844 290.1578369140625 288.76904296875 292.93231201171875 286.9813537597656 C289.294921875 285.12530517578125 285.5914306640625 281.9615783691406 282.97705078125 280.0671691894531 Z"></path>
<path fill="#F79D2B" fill-opacity="1.0"  filling="0" d="M274.2559814453125 285.27679443359375 C274.07037353515625 285.1658630371094 273.8837890625 285.0623779296875 273.6981201171875 284.9525451660156 C273.65869140625 284.9514465332031 273.621337890625 284.9557189941406 273.58184814453125 284.95465087890625 L274.2559814453125 285.27679443359375 Z"></path>
<path fill="#F5D30C" fill-opacity="1.0"  filling="0" d="M284.08428955078125 167.46237182617188 C282.53228759765625 165.49221801757812 280.82989501953125 163.7152099609375 279.002685546875 162.13442993164062 C268.0384521484375 152.65060424804688 252.5238037109375 150.24212646484375 240.31573486328125 157.0421142578125 C239.76104736328125 157.28854370117188 239.21282958984375 157.55734252929688 238.66455078125 157.82290649414062 C237.621337890625 158.32748413085938 236.58343505859375 158.852294921875 235.5594482421875 159.418701171875 C233.216064453125 160.71463012695312 230.92266845703125 162.15679931640625 228.67095947265625 163.6778564453125 C224.4437255859375 166.63571166992188 220.2091064453125 169.75680541992188 216.1973876953125 173.135986328125 C214.1920166015625 174.8255615234375 212.245361328125 176.5823974609375 210.40533447265625 178.42874145507812 C202.4671630859375 185.0538330078125 197.24481201171875 195.026123046875 195.50079345703125 205.84854125976562 C195.0645751953125 208.5535888671875 194.84906005859375 211.31198120117188 194.93548583984375 214.07998657226562 C195.066650390625 216.94827270507812 195.4698486328125 219.69708251953125 196.1109619140625 222.33383178710938 C196.7520751953125 224.97174072265625 197.6298828125 227.4986572265625 198.7093505859375 229.92425537109375 C204.274169921875 239.09011840820312 211.4581298828125 246.90774536132812 219.54559326171875 253.7589111328125 C221.56689453125 255.47198486328125 223.64697265625 257.1231689453125 225.77813720703125 258.7178649902344 C234.94189453125 265.41119384765625 244.84906005859375 270.21331787109375 254.7872314453125 275.0677185058594 C261.1402587890625 278.170654296875 267.505126953125 281.2970886230469 273.69708251953125 284.9514465332031 C287.4058837890625 285.19464111328125 287.714111328125 267.592529296875 291.9818115234375 257.4709167480469 C292.62506103515625 255.1328125 293.2021484375 252.75836181640625 293.7152099609375 250.35946655273438 C300.2080078125 224.2933349609375 301.3056640625 191.5999755859375 284.08428955078125 167.46237182617188 Z"></path>
<path fill="#F3BB18" fill-opacity="1.0"  filling="0" d="M284.08428955078125 167.46237182617188 C282.53228759765625 165.49221801757812 280.8309326171875 163.7152099609375 279.002685546875 162.13442993164062 C268.0384521484375 152.65060424804688 252.5238037109375 150.24212646484375 240.31573486328125 157.0421142578125 C239.76104736328125 157.28854370117188 239.21282958984375 157.55734252929688 238.66455078125 157.82186889648438 C238.9696044921875 157.80368041992188 239.27783203125 157.78024291992188 239.581787109375 157.76638793945312 C260.6143798828125 156.8192138671875 273.5146484375 182.60263061523438 279.4464111328125 202.31463623046875 C282.12481689453125 211.21383666992188 283.9700927734375 220.26239013671875 284.82666015625 229.436767578125 C285.2906494140625 234.40316772460938 285.777099609375 239.494384765625 285.548828125 244.39361572265625 C285.4122314453125 247.33758544921875 285.9306640625 250.47250366210938 285.3077392578125 253.31198120117188 C284.7264404296875 255.96478271484375 284.0821533203125 258.3807678222656 283.6832275390625 261.17864990234375 C282.54937744140625 269.1328125 275.0155029296875 275.560546875 268.05230712890625 276.7839660644531 C264.88427734375 277.34075927734375 261.800537109375 277.5391845703125 258.4725341796875 276.4554748535156 C257.222412109375 276.0480041503906 256.01068115234375 275.5413513183594 254.788330078125 275.0677185058594 C261.141357421875 278.1717224121094 267.50616455078125 281.2970886230469 273.6981201171875 284.9514465332031 C287.4068603515625 285.1957092285156 287.7152099609375 267.592529296875 291.98291015625 257.4709167480469 C292.6260986328125 255.1328125 293.20318603515625 252.75836181640625 293.71624755859375 250.35946655273438 C300.2080078125 224.2933349609375 301.3056640625 191.5999755859375 284.08428955078125 167.46237182617188 Z"></path>
<path fill="#FDE75A" fill-opacity="1.0"  filling="0" d="M229.6202392578125 253.418701171875 C241.3504638671875 264.75091552734375 260.716796875 271.5178527832031 267.927490234375 254.23788452148438 C273.640625 240.63674926757812 270.7093505859375 226.5364990234375 267.8101806640625 212.16107177734375 C267.31201171875 210.2847900390625 266.7552490234375 208.4234619140625 266.141845703125 206.58560180664062 C265.528564453125 204.74664306640625 264.858642578125 202.93014526367188 264.13232421875 201.14239501953125 C259.9285888671875 190.78720092773438 255.0517578125 179.6458740234375 244.78515625 174.87466430664062 C238.7562255859375 172.07357788085938 232.800048828125 171.63409423828125 227.12750244140625 173.19888305664062 C225.2373046875 173.72052001953125 223.3770751953125 174.46502685546875 221.55517578125 175.421875 C216.4266357421875 179.10931396484375 211.92431640625 183.9871826171875 208.62188720703125 189.714111328125 C207.5211181640625 191.62344360351562 206.55255126953125 193.62664794921875 205.7386474609375 195.71197509765625 C202.3424072265625 203.4090576171875 201.985107421875 211.70986938476562 203.8741455078125 219.6575927734375 C204.50457763671875 222.309326171875 205.3856201171875 224.92160034179688 206.49072265625 227.46771240234375 C211.5125732421875 238.93118286132812 219.9520263671875 247.32583618164062 229.0965576171875 252.95468139648438 C229.2703857421875 253.1114501953125 229.4453125 253.26614379882812 229.6202392578125 253.418701171875 Z"></path>
<path fill="#FCB813" fill-opacity="1.0"  filling="0" d="M285.3599853515625 279.5935974121094 C281.2095947265625 281.2959899902344 276.840576171875 282.3946533203125 272.90240478515625 284.59197998046875 C271.68218994140625 285.27252197265625 272.65814208984375 287.2149353027344 273.8826904296875 286.53118896484375 C277.8187255859375 284.33489990234375 282.19091796875 283.234130859375 286.3402099609375 281.5328063964844 C287.6373291015625 281.0005187988281 286.6474609375 279.0655822753906 285.3599853515625 279.5935974121094 L285.3599853515625 279.5935974121094 Z"></path>
<path fill="#911A1D" fill-opacity="1.0"  filling="0" d="M273.46563720703125 287.9658508300781 C278.0042724609375 285.9498596191406 282.1663818359375 283.16265869140625 286.705078125 281.1455993652344 C289.0166015625 280.1183776855469 287.4752197265625 276.50775146484375 285.1605224609375 277.5359802246094 C280.62078857421875 279.5519714355469 276.4598388671875 282.33917236328125 271.921142578125 284.35626220703125 C269.609619140625 285.3834533691406 271.15093994140625 288.994140625 273.46563720703125 287.9658508300781 L273.46563720703125 287.9658508300781 Z"></path></svg>