<svg xmlns="http://www.w3.org/2000/svg" viewBox="0.0 0.0 512.0 512.0" height="512.0px" width="512.0px"><path fill="#FFE500" fill-opacity="1.0"  filling="0" d="M419.03558349609375 214.44732666015625 C423.18914794921875 214.0390167236328 425.8912353515625 212.75389099121094 428.89410400390625 209.6812744140625 C431.98468017578125 206.5183868408203 433.88677978515625 202.48892211914062 434.91204833984375 198.23104858398438 C436.7276611328125 190.6885986328125 435.29864501953125 179.85855102539062 426.46466064453125 177.69024658203125 C424.94342041015625 177.31649780273438 423.80157470703125 178.62973022460938 424.07366943359375 180.08187866210938 C425.026611328125 185.1776123046875 426.7276611328125 190.49722290039062 425.81634521484375 195.7235107421875 C424.8397216796875 201.32479858398438 421.38372802734375 206.2643280029297 417.17822265625 209.96157836914062 C415.5296630859375 211.40928649902344 416.76806640625 214.67005920410156 419.03558349609375 214.44732666015625 L419.03558349609375 214.44732666015625 Z"></path>
<path fill="#9CCD00" fill-opacity="1.0"  filling="0" d="M177.46307373046875 318.21185302734375 C178.26812744140625 315.9257507324219 180.24444580078125 313.910400390625 181.60382080078125 311.9154968261719 C182.9388427734375 309.95709228515625 184.11651611328125 307.9027099609375 185.48291015625 305.9596862792969 C188.08642578125 302.2579345703125 192.97662353515625 297.836181640625 192.08447265625 292.9772644042969 C191.891845703125 291.92767333984375 190.78277587890625 291.2627258300781 189.79327392578125 291.232666015625 C184.69952392578125 291.0783996582031 180.453125 297.78173828125 177.947509765625 301.55517578125 C176.45758056640625 303.79840087890625 175.055419921875 306.2553405761719 174.40826416015625 308.88189697265625 C173.64031982421875 311.9993896484375 174.28094482421875 314.67779541015625 174.421142578125 317.7996826171875 C174.50244140625 319.5865478515625 176.8837890625 319.85601806640625 177.46307373046875 318.21185302734375 L177.46307373046875 318.21185302734375 Z"></path>
<path fill="#5AA612" fill-opacity="1.0"  filling="0" d="M420.967041015625 286.93182373046875 C417.78814697265625 288.32513427734375 414.4627685546875 289.2172546386719 411.1219482421875 289.41888427734375 C382.76934814453125 291.1289367675781 346.58306884765625 268.28863525390625 361.4482421875 237.58334350585938 C370.5504150390625 218.78396606445312 394.451904296875 198.95358276367188 416.5906982421875 207.1078338623047 C439.8221435546875 215.66397094726562 452.6630859375 252.656005859375 438.41790771484375 272.5395202636719 C434.2105712890625 278.4115295410156 427.93927001953125 283.87646484375 420.967041015625 286.93182373046875 Z"></path>
<path fill="#9CCD00" fill-opacity="1.0"  filling="0" d="M416.2528076171875 277.6217346191406 C416.10565185546875 280.3827209472656 417.00677490234375 283.0848083496094 417.67431640625 285.74395751953125 C418.429443359375 288.7532958984375 418.603515625 291.739501953125 418.58306884765625 294.8275146484375 C418.56195068359375 298.0716857910156 416.8697509765625 309.1142578125 422.7418212890625 308.5017395019531 C424.04095458984375 308.3660888671875 425.62493896484375 307.8636474609375 426.19970703125 306.5184020996094 C427.3555908203125 303.81182861328125 428.6790771484375 301.4732666015625 428.97344970703125 298.458251953125 C429.29925537109375 295.12384033203125 429.1021728515625 292.0179443359375 428.5997314453125 288.7110595703125 C427.81317138671875 283.533447265625 424.6982421875 276.45245361328125 418.8505859375 275.64349365234375 C417.496337890625 275.455322265625 416.3309326171875 276.16448974609375 416.2528076171875 277.6217346191406 L416.2528076171875 277.6217346191406 Z"></path>
<path fill="#9CCD00" fill-opacity="1.0"  filling="0" d="M404.3238525390625 268.12799072265625 C392.43450927734375 296.3392333984375 354.3641357421875 304.04608154296875 332.252197265625 281.70172119140625 C300.58563232421875 249.70303344726562 345.775390625 203.2467041015625 382.8115234375 213.39389038085938 C402.8831787109375 218.89791870117188 411.7191162109375 250.5760040283203 404.3238525390625 268.12799072265625 Z"></path>
<path fill="#5AA612" fill-opacity="1.0"  filling="0" d="M360.600341796875 272.8780822753906 C348.29632568359375 302.9612731933594 297.9500732421875 303.90142822265625 281.775390625 276.9926452636719 C257.4847412109375 236.5817413330078 310.462158203125 191.46624755859375 347.63970947265625 219.82334899902344 C364.25726318359375 232.49855041503906 368.0224609375 254.72959899902344 360.600341796875 272.8780822753906 Z"></path>
<path fill="#9CCD00" fill-opacity="1.0"  filling="0" d="M310.837158203125 229.07327270507812 C324.96319580078125 249.77342224121094 319.4207763671875 277.30877685546875 301.8880615234375 290.5343933105469 C295.01251220703125 295.720947265625 286.29248046875 298.70654296875 276.19134521484375 298.2169494628906 C263.00225830078125 297.57763671875 254.01470947265625 293.7728271484375 243.962890625 285.2838134765625 C197.3453369140625 245.90335083007812 278.1971435546875 181.24029541015625 310.837158203125 229.07327270507812 Z"></path>
<path fill="#5AA612" fill-opacity="1.0"  filling="0" d="M239.484130859375 312.10498046875 C235.883544921875 313.6831970214844 232.118408203125 314.693115234375 228.3341064453125 314.92156982421875 C196.2239990234375 316.8582458496094 155.24224853515625 290.9906921386719 172.07745361328125 256.21630859375 C182.385986328125 234.92543029785156 209.4547119140625 212.46717834472656 234.52740478515625 221.7017364501953 C260.837158203125 231.39198303222656 275.3804931640625 273.286376953125 259.2474365234375 295.8048095703125 C254.48193359375 302.45562744140625 247.3798828125 308.64447021484375 239.484130859375 312.10498046875 Z"></path>
<path fill="#9CCD00" fill-opacity="1.0"  filling="0" d="M218.70721435546875 256.909423828125 C220.28289794921875 232.2099151611328 206.1209716796875 208.6079864501953 182.4761962890625 198.07937622070312 C160.95556640625 188.49661254882812 121.34783935546875 184.23870849609375 111.621826171875 212.5516815185547 C103.21539306640625 237.0220489501953 101.44195556640625 272.12542724609375 128.8800048828125 285.82012939453125 C151.9334716796875 297.32672119140625 195.7471923828125 312.32958984375 211.964111328125 280.9376220703125 C216.019287109375 273.0860900878906 218.19525146484375 264.93951416015625 218.70721435546875 256.909423828125 Z"></path>
<path fill="#000000" fill-opacity="1.0"  filling="0" d="M189.3311767578125 230.05502319335938 C186.4044189453125 229.5090789794922 184.31103515625 231.5174102783203 183.075927734375 233.99485778808594 C181.5845947265625 236.98365783691406 181.85406494140625 240.08126831054688 183.4835205078125 242.95999145507812 C184.6719970703125 245.0592041015625 187.7509765625 246.0204620361328 189.8323974609375 244.62464904785156 C192.5184326171875 242.8230438232422 193.97821044921875 240.48190307617188 194.2105712890625 237.24349975585938 C194.3341064453125 235.5218963623047 193.5718994140625 234.04095458984375 193.3287353515625 232.41404724121094 C193.014404296875 230.31105041503906 190.60614013671875 228.84608459472656 188.6419677734375 228.84608459472656 C185.998779296875 228.84608459472656 183.7740478515625 231.05662536621094 183.7818603515625 233.70623779296875 C183.78564453125 234.97152709960938 184.1644287109375 236.0306854248047 184.515869140625 237.2057342529297 C184.5760498046875 237.41824340820312 184.6265869140625 237.63327026367188 184.66748046875 237.8502197265625 C184.35845947265625 236.390380859375 184.44677734375 238.41021728515625 184.672607421875 237.02334594726562 C184.52734375 237.52127075195312 184.54913330078125 237.4956512451172 184.7373046875 236.94717407226562 C185.12762451171875 236.1958465576172 184.4090576171875 237.17694091796875 184.2093505859375 237.33694458007812 C186.6387939453125 237.64991760253906 189.0675048828125 237.96287536621094 191.4969482421875 238.27584838867188 C191.271728515625 237.9647979736328 191.07452392578125 237.636474609375 190.9049072265625 237.29214477539062 C191.2269287109375 237.88479614257812 190.849365234375 236.3385467529297 190.931884765625 237.36318969726562 C190.95361328125 236.8364715576172 190.94140625 236.81280517578125 190.89599609375 237.29151916503906 C190.9676513671875 236.89215087890625 191.1156005859375 236.50433349609375 191.25189208984375 236.12413024902344 C191.9609375 234.15167236328125 192.0455322265625 230.56126403808594 189.3311767578125 230.05502319335938 L189.3311767578125 230.05502319335938 Z"></path>
<path fill="#000000" fill-opacity="1.0"  filling="0" d="M124.6636962890625 209.63136291503906 C123.91558837890625 211.1295928955078 122.487060546875 211.97439575195312 121.484130859375 213.27615356445312 C120.0499267578125 215.1385498046875 120.3763427734375 217.49632263183594 121.22369384765625 219.5321502685547 C122.52093505859375 222.64767456054688 126.86276245117188 222.27389526367188 127.14688110351562 218.730224609375 C127.072021484375 219.6607666015625 127.1199951171875 218.938232421875 127.16610717773438 218.7212677001953 C127.24032592773438 218.3743896484375 127.3465576171875 218.03326416015625 127.45025634765625 217.6940460205078 C127.65570068359375 217.0201416015625 127.90277099609375 216.35902404785156 128.12286376953125 215.68959045410156 C128.31875610351562 215.09310913085938 128.53118896484375 214.5023651123047 128.74749755859375 213.91358947753906 C128.8140869140625 213.73245239257812 128.882568359375 213.55264282226562 128.95172119140625 213.372802734375 C129.28579711914062 212.49855041503906 129.18212890625 213.59295654296875 128.31484985351562 214.33090209960938 C126.54974365234375 213.3036651611328 124.78463745117188 212.27584838867188 123.01953125 211.2486114501953 C122.7398681640625 212.12350463867188 122.82882690429688 213.17501831054688 123.34213256835938 213.94686889648438 C123.2044677734375 213.43807983398438 123.06689453125 212.92929077148438 122.9293212890625 212.4204559326172 C122.95556640625 213.36767578125 123.27484130859375 213.93983459472656 123.66781616210938 214.76220703125 C124.03131103515625 215.52381896972656 125.19171142578125 216.01600646972656 125.98782348632812 215.70623779296875 C126.798095703125 215.39068603515625 127.46368408203125 215.2166290283203 128.09219360351562 214.55870056152344 C127.6473388671875 214.81793212890625 127.20257568359375 215.0771026611328 126.75775146484375 215.33631896972656 C127.9769287109375 215.01693725585938 128.75909423828125 214.0908966064453 129.1302490234375 212.93312072753906 C130.16900634765625 209.68702697753906 126.0889892578125 207.9334259033203 123.8355712890625 209.85089111328125 C122.91455078125 210.6342315673828 122.489013671875 212.61053466796875 122.108154296875 213.7235107421875 C121.5718994140625 215.29151916503906 121.0950927734375 217.0630340576172 121.1162109375 218.73089599609375 C122.98944091796875 218.2233428955078 124.86276245117188 217.7164764404297 126.73602294921875 217.20892333984375 C126.40444946289062 216.58303833007812 126.2476806640625 216.02496337890625 126.21954345703125 215.63902282714844 C126.2528076171875 216.08767700195312 126.2618408203125 215.46876525878906 126.31298828125 215.31198120117188 C126.16961669921875 215.74655151367188 126.54595947265625 214.95230102539062 126.54461669921875 214.95358276367188 C127.27297973632812 213.69920349121094 128.05120849609375 212.66046142578125 128.41470336914062 211.21279907226562 C128.96578979492188 209.0163116455078 125.73251342773438 207.49183654785156 124.6636962890625 209.63136291503906 L124.6636962890625 209.63136291503906 Z"></path>
<path fill="#000000" fill-opacity="1.0"  filling="0" d="M127.71392822265625 248.0825653076172 C123.825927734375 256.6988525390625 129.32415771484375 266.03009033203125 137.11038208007812 270.3142395019531 C144.75909423828125 274.52288818359375 157.52828979492188 273.5225830078125 161.61468505859375 264.70526123046875 C162.00640869140625 263.8598327636719 162.23486328125 262.7142333984375 161.61468505859375 261.8873291015625 C159.3062744140625 258.8109130859375 156.2752685546875 262.0089111328125 153.9859619140625 263.47454833984375 C150.6400146484375 265.61663818359375 147.3203125 266.57281494140625 143.356201171875 265.7279968261719 C134.92352294921875 263.93212890625 131.48931884765625 255.94815063476562 129.885498046875 248.3660888671875 C129.68255615234375 247.4086151123047 128.13632202148438 247.14686584472656 127.71392822265625 248.0825653076172 L127.71392822265625 248.0825653076172 Z"></path>
<path fill="#FFE500" fill-opacity="1.0"  filling="0" d="M153.0572509765625 197.325439453125 C152.73788452148438 196.118408203125 153.37469482421875 194.10302734375 153.232666015625 192.75137329101562 C152.97344970703125 190.2899169921875 152.31298828125 187.60574340820312 151.41058349609375 185.3043212890625 C149.88870239257812 181.42398071289062 148.07037353515625 174.28030395507812 143.21859741210938 173.4815673828125 C140.04290771484375 172.95870971679688 137.3824462890625 174.2745361328125 136.30532836914062 177.40670776367188 C134.8819580078125 181.546875 138.87423706054688 186.30593872070312 140.76412963867188 189.79263305664062 C141.78369140625 191.67294311523438 143.10214233398438 193.39517211914062 144.29315185546875 195.17245483398438 C145.32736206054688 196.71615600585938 147.61468505859375 197.76638793945312 148.45120239257812 199.26718139648438 C149.8604736328125 201.79647827148438 153.78182983398438 200.0678253173828 153.0572509765625 197.325439453125 L153.0572509765625 197.325439453125 Z"></path>
<path fill="#FFE500" fill-opacity="1.0"  filling="0" d="M186.337890625 213.07968139648438 C190.4288330078125 213.44126892089844 194.5875244140625 209.92510986328125 197.6646728515625 207.63902282714844 C201.0438232421875 205.12892150878906 207.823974609375 200.7059326171875 204.8621826171875 195.64990234375 C201.71588134765625 190.27902221679688 194.903076171875 195.69406127929688 191.8963623046875 198.23486328125 C188.74114990234375 200.90110778808594 183.7369384765625 204.23167419433594 182.901123046875 208.56829833984375 C182.4371337890625 210.97792053222656 183.91748046875 212.86526489257812 186.337890625 213.07968139648438 L186.337890625 213.07968139648438 Z"></path>
<path fill="#5AA612" fill-opacity="1.0"  filling="0" d="M375.3804931640625 279.90655517578125 C376.8026123046875 284.9030456542969 378.4998779296875 289.56610107421875 378.6593017578125 294.8140563964844 C378.824951171875 300.2611083984375 375.267822265625 305.6544189453125 376.4627685546875 311.0290832519531 C376.71746826171875 312.1734313964844 378.05316162109375 313.32159423828125 379.27490234375 313.169921875 C387.21539306640625 312.18365478515625 389.1328125 302.5113525390625 389.18597412109375 295.9033508300781 C389.244140625 288.7110595703125 386.2457275390625 280.1785583496094 379.5577392578125 276.69500732421875 C377.40289306640625 275.57183837890625 374.6688232421875 277.4067077636719 375.3804931640625 279.90655517578125 L375.3804931640625 279.90655517578125 Z"></path>
<path fill="#5AA612" fill-opacity="1.0"  filling="0" d="M282.97088623046875 287.4950256347656 C282.33538818359375 290.1055908203125 283.12060546875 293.10205078125 283.775390625 295.6524658203125 C284.5709228515625 298.7532958984375 283.7919921875 302.3686218261719 283.0291748046875 305.3932800292969 C281.41888427734375 311.7760009765625 274.78851318359375 318.8780822753906 276.3846435546875 325.61151123046875 C276.8505859375 327.5763244628906 278.7763671875 328.22015380859375 280.5472412109375 327.97503662109375 C285.0374755859375 327.3548583984375 288.23486328125 322.1190185546875 290.2764892578125 318.5010986328125 C292.60552978515625 314.3737487792969 294.2796630859375 309.475830078125 294.828125 304.7698974609375 C295.570556640625 298.39935302734375 293.0201416015625 284.96575927734375 283.9013671875 286.56451416015625 C283.4669189453125 286.640625 283.072021484375 287.080322265625 282.97088623046875 287.4950256347656 L282.97088623046875 287.4950256347656 Z"></path>
<path fill="#9CCD00" fill-opacity="1.0"  filling="0" d="M231.5897216796875 301.12701416015625 C229.76123046875 306.12860107421875 229.94183349609375 311.7369384765625 228.2227783203125 316.86334228515625 C227.292236328125 319.6383972167969 225.85089111328125 322.202880859375 224.680908203125 324.8748779296875 C223.5596923828125 327.43426513671875 221.6173095703125 330.7507019042969 222.76226806640625 333.53216552734375 C223.28900146484375 334.8115234375 224.1024169921875 335.4924621582031 225.504638671875 335.6204528808594 C228.8677978515625 335.9270324707031 231.6627197265625 332.48638916015625 233.461181640625 330.0076904296875 C235.7113037109375 326.90557861328125 237.181396484375 323.28961181640625 238.263671875 319.63262939453125 C240.1746826171875 313.17437744140625 240.6041259765625 304.29888916015625 234.6041259765625 299.90203857421875 C233.4541015625 299.05792236328125 232.001953125 300.0 231.5897216796875 301.12701416015625 L231.5897216796875 301.12701416015625 Z"></path>
<path fill="#9CCD00" fill-opacity="1.0"  filling="0" d="M329.5418701171875 287.2332763671875 C330.1881103515625 291.3554992675781 331.36767578125 295.31585693359375 331.31390380859375 299.512939453125 C331.2537841796875 304.231689453125 328.0550537109375 308.532470703125 328.318115234375 313.19232177734375 C328.380126953125 314.29052734375 329.1884765625 315.2064208984375 330.3341064453125 315.20831298828125 C337.4765625 315.22174072265625 340.6502685546875 306.40576171875 340.8863525390625 300.532470703125 C341.1456298828125 294.10235595703125 338.165771484375 287.267822265625 332.0218505859375 284.7526550292969 C330.4326171875 284.10235595703125 329.335693359375 285.9180908203125 329.5418701171875 287.2332763671875 L329.5418701171875 287.2332763671875 Z"></path></svg>