<svg xmlns="http://www.w3.org/2000/svg" viewBox="0.0 0.0 512.0 512.0" height="512.0px" width="512.0px"><path fill="#FFF9F5" fill-opacity="1.0"  filling="0" d="M275.4892578125 237.49566650390625 C326.12841796875 252.78118896484375 349.1802978515625 213.70684814453125 410.5904541015625 238.2828369140625 C463.872314453125 259.63909912109375 480.521728515625 294.4456481933594 480.521728515625 294.4456481933594 C429.8663330078125 266.4584045410156 380.47412109375 279.26019287109375 351.31494140625 291.9603271484375 C313.047607421875 308.59881591796875 287.30908203125 296.4227294921875 287.30908203125 296.4227294921875 C280.1337890625 312.53564453125 264.68988037109375 324.4091796875 245.7825927734375 326.0986328125 C227.74627685546875 327.7140197753906 211.087158203125 319.6047668457031 200.933837890625 306.1292419433594 C191.576416015625 317.319580078125 177.92999267578125 324.9056091308594 162.30169677734375 326.3114013671875 C133.50677490234375 328.9101867675781 107.8212890625 309.603515625 101.570068359375 282.1568603515625 C99.12969970703125 283.1946716308594 96.45367431640625 283.8912353515625 93.6861572265625 284.13079833984375 C79.0830078125 285.44830322265625 66.2269287109375 274.7370910644531 64.909423828125 260.134765625 C63.7454833984375 246.70651245117188 72.77587890625 234.71871948242188 85.7030029296875 231.94580078125 C85.80145263671875 231.88589477539062 85.85198974609375 231.88119506835938 85.9552001953125 231.87252807617188 C85.171142578125 229.9781494140625 84.5367431640625 228.01922607421875 84.0513916015625 225.99566650390625 C83.90478515625 225.49209594726562 83.80474853515625 224.93264770507812 83.70855712890625 224.42437744140625 C83.236572265625 222.55526733398438 82.96942138671875 220.66720581054688 82.80078125 218.71929931640625 C80.4510498046875 192.79425048828125 99.582763671875 169.86117553710938 125.563720703125 167.55789184570312 C138.0140380859375 166.4271240234375 149.71185302734375 170.31906127929688 158.8526611328125 177.47872924804688 C165.3370361328125 162.92294311523438 179.2845458984375 152.2645263671875 196.193359375 150.74758911132812 C218.58197021484375 148.70352172851562 238.5394287109375 163.29168701171875 244.1295166015625 184.28860473632812 C273.84014892578125 174.38113403320312 293.83935546875 188.86215209960938 298.823486328125 208.82681274414062 C301.932861328125 221.46701049804688 294.254638671875 234.16400146484375 281.6702880859375 237.31991577148438 C279.595703125 237.8116455078125 277.486083984375 237.89120483398438 275.4892578125 237.49566650390625 Z"></path>
<path fill="#E30F00" fill-opacity="1.0"  filling="0" d="M200.933837890625 308.4562072753906 C200.36187744140625 308.4562072753906 199.785888671875 308.2442321777344 199.33819580078125 307.8202819824219 C198.40283203125 306.9393310546875 198.3603515625 305.4681396484375 199.2445068359375 304.53515625 C204.46807861328125 299.00579833984375 207.220458984375 291.77197265625 206.992919921875 284.16546630859375 C206.76898193359375 276.5959777832031 203.6131591796875 269.5765075683594 198.10888671875 264.40252685546875 C191.22027587890625 257.895263671875 180.35302734375 258.1828918457031 173.8787841796875 265.0321350097656 C170.07928466796875 269.05328369140625 170.254150390625 275.41241455078125 174.26971435546875 279.2121276855469 C175.2027587890625 280.09625244140625 175.24127197265625 281.5682067871094 174.3603515625 282.50042724609375 C173.47943115234375 283.43341064453125 172.0106201171875 283.4759826660156 171.07196044921875 282.5918273925781 C165.19525146484375 277.0293884277344 164.9375 267.7215576171875 170.5 261.83837890625 C178.72662353515625 253.1302490234375 192.54327392578125 252.75753784179688 201.2972412109375 261.01495361328125 C207.70758056640625 267.0431213378906 211.38037109375 275.2162170410156 211.644287109375 284.0275573730469 C211.9044189453125 292.8783264160156 208.70123291015625 301.2964782714844 202.62408447265625 307.7273254394531 C202.1656494140625 308.2103576660156 201.55096435546875 308.4562072753906 200.933837890625 308.4562072753906 Z"></path>
<path fill="#E30F00" fill-opacity="1.0"  filling="0" d="M121.6947021484375 259.1395263671875 C104.9622802734375 259.1395263671875 89.5137939453125 248.75921630859375 83.52734375 232.75979614257812 C82.69439697265625 230.60382080078125 82.09478759765625 228.44473266601562 81.7559814453125 226.37069702148438 C81.66845703125 226.1287841796875 81.5589599609375 225.56539916992188 81.4588623046875 225.03823852539062 C81.21612548828125 223.77508544921875 82.02783203125 222.470947265625 83.291015625 222.23138427734375 C84.55963134765625 221.983154296875 85.75579833984375 222.73095703125 85.99224853515625 223.98782348632812 C85.99224853515625 223.99093627929688 86.02850341796875 224.16909790039062 86.02850341796875 224.16909790039062 C86.1016845703125 224.55673217773438 86.1766357421875 224.97122192382812 86.28607177734375 225.35028076171875 C86.6343994140625 227.37936401367188 87.14898681640625 229.22564697265625 87.87237548828125 231.1065673828125 C93.84381103515625 247.06423950195312 110.38226318359375 256.68963623046875 127.27203369140625 254.052978515625 C139.22357177734375 252.1783447265625 147.42034912109375 240.88714599609375 145.5394287109375 228.88442993164062 C144.9886474609375 225.43853759765625 143.1258544921875 222.4110107421875 140.30169677734375 220.36383056640625 C137.47906494140625 218.3134765625 134.02447509765625 217.48373413085938 130.575439453125 218.0439453125 C128.61639404296875 218.3465576171875 126.8994140625 219.40090942382812 125.72760009765625 221.00527954101562 C124.55596923828125 222.61276245117188 124.0775146484375 224.57489013671875 124.38018798828125 226.52520751953125 C124.5771484375 227.79702758789062 123.70794677734375 228.98373413085938 122.43939208984375 229.18072509765625 C121.17620849609375 229.38714599609375 119.98406982421875 228.508544921875 119.78375244140625 227.23989868164062 C119.2935791015625 224.060302734375 120.069091796875 220.875244140625 121.9696044921875 218.26779174804688 C123.87420654296875 215.65158081054688 126.67236328125 213.94400024414062 129.84881591796875 213.45074462890625 C134.52716064453125 212.70611572265625 139.202392578125 213.823486328125 143.03289794921875 216.596435546875 C146.86322021484375 219.37332153320312 149.38555908203125 223.47879028320312 150.133544921875 228.15399169921875 C152.4107666015625 242.70034790039062 142.47576904296875 256.3775939941406 127.99310302734375 258.6485900878906 C125.8861083984375 258.978759765625 123.7781982421875 259.1395263671875 121.6947021484375 259.1395263671875 Z"></path>
<path fill="#E30F00" fill-opacity="1.0"  filling="0" d="M157.203369140625 328.8676452636719 C130.71490478515625 328.8676452636719 107.03326416015625 310.98175048828125 99.94769287109375 285.2379150390625 C97.9736328125 285.8651428222656 95.94232177734375 286.27020263671875 93.88555908203125 286.4490661621094 C86.2576904296875 287.16064453125 78.733154296875 284.817138671875 72.82867431640625 279.8898010253906 C66.921142578125 274.9664001464844 63.2877197265625 268.0265197753906 62.59429931640625 260.3443603515625 C61.41064453125 246.70333862304688 70.0069580078125 234.19473266601562 82.87255859375 230.27999877929688 C82.45806884765625 229.05935668945312 82.093994140625 227.80880737304688 81.7890625 226.5401611328125 C81.62274169921875 225.97122192382812 81.453369140625 225.3353271484375 81.39263916015625 224.62686157226562 C80.9931640625 223.17303466796875 80.6866455078125 221.24166870117188 80.484130859375 218.92178344726562 C79.29107666015625 205.7685546875 83.3004150390625 192.93295288085938 91.77532958984375 182.78903198242188 C100.2501220703125 172.64205932617188 112.17816162109375 166.41058349609375 125.35882568359375 165.24200439453125 C136.91015625 164.20657348632812 148.3951416015625 167.27423095703125 157.9786376953125 173.944580078125 C165.44573974609375 159.57080078125 179.76202392578125 149.88787841796875 195.98541259765625 148.43087768554688 C218.43133544921875 146.43881225585938 238.894775390625 160.13104248046875 245.6920166015625 181.36041259765625 C259.5513916015625 177.23922729492188 272.23797607421875 178.0240478515625 282.5096435546875 183.66140747070312 C291.800048828125 188.76364135742188 298.394775390625 197.49853515625 301.080322265625 208.26336669921875 C304.477294921875 222.07376098632812 296.023681640625 236.117431640625 282.23681640625 239.57827758789062 C279.73583984375 240.16534423828125 277.3253173828125 240.23233032226562 275.033935546875 239.77529907226562 C273.7738037109375 239.52713012695312 272.95672607421875 238.30413818359375 273.20819091796875 237.04095458984375 C273.45941162109375 235.78097534179688 274.6943359375 234.98825073242188 275.941650390625 235.21517944335938 C277.5711669921875 235.53903198242188 279.3212890625 235.49017333984375 281.1376953125 235.0576171875 C292.416259765625 232.2294921875 299.3505859375 220.705078125 296.5650634765625 209.38076782226562 C294.197265625 199.89724731445312 288.410888671875 192.20953369140625 280.271728515625 187.74002075195312 C270.60064697265625 182.428955078125 258.35821533203125 182.00186157226562 244.86553955078125 186.49893188476562 C244.259521484375 186.69833374023438 243.5904541015625 186.64395141601562 243.02789306640625 186.33819580078125 C242.46136474609375 186.03244018554688 242.0467529296875 185.50845336914062 241.88360595703125 184.890625 C236.4638671875 164.5367431640625 217.33843994140625 151.15023803710938 196.4061279296875 153.06353759765625 C180.89996337890625 154.45352172851562 167.325927734375 164.1734619140625 160.97943115234375 178.42593383789062 C160.68548583984375 179.08233642578125 160.1102294921875 179.5645751953125 159.41363525390625 179.73638916015625 C158.71392822265625 179.91207885742188 157.98193359375 179.7545166015625 157.41845703125 179.31240844726562 C148.343994140625 172.19683837890625 137.107177734375 168.85415649414062 125.77337646484375 169.87384033203125 C113.82818603515625 170.93365478515625 103.024658203125 176.57809448242188 95.344970703125 185.7708740234375 C87.66900634765625 194.96044921875 84.03558349609375 206.58493041992188 85.11669921875 218.50888061523438 C85.29559326171875 220.58291625976562 85.56512451171875 222.28182983398438 85.964599609375 223.85623168945312 C86.05841064453125 224.61666870117188 86.1734619140625 224.96102905273438 86.27349853515625 225.31011962890625 C86.7698974609375 227.35964965820312 87.37591552734375 229.22247314453125 88.104736328125 230.98129272460938 C88.38690185546875 231.66525268554688 88.329345703125 232.44381713867188 87.94482421875 233.07656860351562 C87.61468505859375 233.617919921875 87.0843505859375 233.99932861328125 86.472900390625 234.1387939453125 C86.38226318359375 234.168701171875 86.28851318359375 234.19631958007812 86.1915283203125 234.21759033203125 C74.32830810546875 236.76126098632812 66.17645263671875 247.8160400390625 67.22772216796875 259.9338073730469 C67.80841064453125 266.3685607910156 70.854736328125 272.18792724609375 75.8057861328125 276.3154602050781 C80.7559814453125 280.4453430175781 87.0394287109375 282.3830261230469 93.4765625 281.8140869140625 C95.94134521484375 281.60211181640625 98.35748291015625 280.99615478515625 100.65911865234375 280.015869140625 C101.300537109375 279.74639892578125 102.01849365234375 279.7739562988281 102.62677001953125 280.085205078125 C103.241455078125 280.3996276855469 103.68353271484375 280.9693603515625 103.83782958984375 281.63836669921875 C109.89361572265625 308.23321533203125 134.8951416015625 326.4311828613281 162.09295654296875 323.99310302734375 C176.64544677734375 322.6850280761719 189.80511474609375 315.8113708496094 199.14910888671875 304.6352233886719 C199.60369873046875 304.09307861328125 200.2183837890625 303.8180847167969 200.98980712890625 303.80230712890625 C201.701416015625 303.8204345703125 202.36090087890625 304.16241455078125 202.78802490234375 304.7289733886719 C212.9044189453125 318.1493225097656 228.90460205078125 325.2586364746094 245.576171875 323.7811279296875 C262.91998291015625 322.2311706542969 278.09912109375 311.3843994140625 285.181640625 295.4755554199219 C288.3486328125 288.5262145996094 289.760009765625 281.0986022949219 289.3817138671875 273.38330078125 C289.31787109375 272.09967041015625 290.308349609375 271.0098876953125 291.5888671875 270.946044921875 C292.869384765625 270.8971862792969 293.9622802734375 271.87274169921875 294.026123046875 273.1532287597656 C294.4351806640625 281.5012512207031 292.8426513671875 289.87921142578125 289.4234619140625 297.38250732421875 C281.66015625 314.81768798828125 265.01519775390625 326.7117004394531 245.98748779296875 328.4129943847656 C228.6492919921875 329.96612548828125 211.974609375 323.0230712890625 200.84320068359375 309.7516784667969 C190.85382080078125 320.618896484375 177.34686279296875 327.2892761230469 162.5096435546875 328.62493896484375 C160.73126220703125 328.7888488769531 158.962890625 328.8676452636719 157.203369140625 328.8676452636719 Z"></path>
<path fill="#E30F00" fill-opacity="1.0"  filling="0" d="M275.176513671875 239.745361328125 C275.0283203125 239.745361328125 274.8763427734375 239.73037719726562 274.724853515625 239.70361328125 C268.21527099609375 238.419189453125 262.9759521484375 233.43588256835938 261.38037109375 227.00115966796875 C259.8089599609375 220.72393798828125 263.63873291015625 214.329345703125 269.922119140625 212.7454833984375 C271.17279052734375 212.43661499023438 272.43572998046875 213.18756103515625 272.74700927734375 214.43179321289062 C273.05908203125 215.67919921875 272.30511474609375 216.9423828125 271.060791015625 217.25677490234375 C267.26031494140625 218.21337890625 264.941162109375 222.08010864257812 265.89227294921875 225.874267578125 C267.0577392578125 230.57073974609375 270.8763427734375 234.20419311523438 275.620849609375 235.13714599609375 C276.880859375 235.3853759765625 277.701171875 236.60916137695312 277.4561767578125 237.86834716796875 C277.23779296875 238.97628784179688 276.26318359375 239.745361328125 275.176513671875 239.745361328125 Z"></path>
<path fill="#E30F00" fill-opacity="1.0"  filling="0" d="M311.73876953125 303.09075927734375 C296.262451171875 303.09075927734375 286.9578857421875 298.8300476074219 286.3154296875 298.5242919921875 C285.1556396484375 297.9758605957031 284.662353515625 296.5953063964844 285.20751953125 295.4322204589844 C285.752197265625 294.2754211425781 287.1365966796875 293.7821350097656 288.2989501953125 294.3179931640625 C288.547119140625 294.4361877441406 313.655029296875 305.7904052734375 350.387451171875 289.82720947265625 C381.06103515625 276.4651794433594 426.7955322265625 265.8973693847656 474.1492919921875 288.54986572265625 C466.40087890625 277.4801025390625 447.2454833984375 255.47848510742188 409.7236328125 240.44198608398438 C376.9759521484375 227.33367919921875 355.2808837890625 232.74166870117188 334.30615234375 237.95901489257812 C316.707763671875 242.34103393554688 298.509033203125 246.87042236328125 274.84326171875 239.73037719726562 C274.6375732421875 239.68862915039062 274.44677734375 239.63351440429688 274.310546875 239.5791015625 C273.11737060546875 239.1031494140625 272.5360107421875 237.75018310546875 273.01422119140625 236.55712890625 C273.47137451171875 235.41534423828125 274.73681640625 234.83145141601562 275.872314453125 235.20333862304688 C275.96923828125 235.21835327148438 276.066162109375 235.23959350585938 276.159912109375 235.27032470703125 C298.615478515625 242.0526123046875 315.4114990234375 237.86834716796875 333.182373046875 233.444580078125 C354.8837890625 228.04519653320312 377.324462890625 222.4677734375 411.4525146484375 236.12374877929688 C464.962890625 257.57061767578125 481.922119140625 291.9870910644531 482.61865234375 293.44329833984375 C483.054443359375 294.35504150390625 482.851806640625 295.44482421875 482.1165771484375 296.1382751464844 C481.3837890625 296.8340759277344 480.2781982421875 296.97747802734375 479.397216796875 296.4802551269531 C431.061767578125 269.7798156738281 383.573974609375 280.4469299316406 352.243896484375 294.0910339355469 C336.3076171875 301.01910400390625 322.52490234375 303.09075927734375 311.73876953125 303.09075927734375 Z"></path></svg>