<svg xmlns="http://www.w3.org/2000/svg" viewBox="0.0 0.0 512.0 512.0" height="512.0px" width="512.0px"><path fill="#ED7FAA" fill-opacity="1.0"  filling="0" d="M335.4071044921875 205.69598388671875 C365.91094970703125 278.4593505859375 237.5587158203125 301.3836669921875 233.0418701171875 234.79498291015625 C229.53363037109375 183.06756591796875 314.1273193359375 154.9495849609375 335.4071044921875 205.69598388671875 Z"></path>
<path fill="#ED7FAA" fill-opacity="1.0"  filling="0" d="M239.247314453125 206.4014892578125 C232.86273193359375 208.438232421875 226.05718994140625 208.43206787109375 221.1881103515625 203.28753662109375 C217.28045654296875 199.15869140625 216.22674560546875 192.6788330078125 217.334716796875 187.273193359375 C218.57379150390625 181.22442626953125 222.81005859375 176.7823486328125 228.84552001953125 175.468505859375 C238.9432373046875 173.27099609375 249.913330078125 180.18402099609375 257.73150634765625 185.6204833984375 C259.23883056640625 186.66900634765625 261.78656005859375 185.29486083984375 261.5838623046875 183.40960693359375 C259.77447509765625 166.61395263671875 265.597900390625 145.833984375 284.59417724609375 142.3114013671875 C290.84466552734375 141.1522216796875 297.48834228515625 143.54534912109375 301.3570556640625 148.60797119140625 C307.29315185546875 156.37701416015625 306.3070068359375 167.4383544921875 304.2928466796875 176.364501953125 C303.68048095703125 179.07916259765625 307.66180419921875 181.06060791015625 308.971435546875 178.33673095703125 C314.9854736328125 165.834716796875 328.511474609375 151.110595703125 343.132080078125 161.0546875 C347.98895263671875 164.35809326171875 350.38714599609375 170.2584228515625 350.35235595703125 175.96612548828125 C350.299072265625 184.6998291015625 343.8150634765625 192.0859375 337.29327392578125 197.11175537109375 C334.98211669921875 198.89349365234375 336.301025390625 202.2860107421875 339.26544189453125 201.79046630859375 C348.9259033203125 200.17559814453125 361.90716552734375 201.77301025390625 364.24908447265625 213.2059326171875 C366.530517578125 224.3409423828125 353.95172119140625 230.724609375 344.94970703125 231.76910400390625 C342.42449951171875 232.0618896484375 341.45074462890625 235.02130126953125 343.657470703125 236.53985595703125 C354.36846923828125 243.906494140625 363.7298583984375 257.8104248046875 353.3834228515625 269.5946044921875 C343.8182373046875 280.4888916015625 329.10943603515625 275.06585693359375 321.6998291015625 264.86273193359375 C320.0777587890625 262.62933349609375 316.15283203125 263.87554931640625 317.02117919921875 266.83489990234375 C321.16015625 280.95068359375 315.90496826171875 296.9620361328125 301.138916015625 302.07586669921875 C297.07159423828125 303.48382568359375 291.31573486328125 303.8709716796875 288.4228515625 299.99822998046875 C284.17327880859375 294.308837890625 287.77569580078125 285.2156982421875 290.13397216796875 279.56524658203125 C288.4884033203125 279.11163330078125 286.84283447265625 278.65802001953125 285.197265625 278.20440673828125 C281.75152587890625 293.31756591796875 268.9525146484375 304.174072265625 253.2177734375 298.5594482421875 C247.6195068359375 296.56158447265625 243.169189453125 291.98431396484375 241.86572265625 286.15985107421875 C240.05322265625 278.06201171875 246.0272216796875 270.16082763671875 251.28546142578125 264.7828369140625 C253.34271240234375 262.67950439453125 250.7314453125 259.3607177734375 248.18377685546875 260.7625732421875 C239.34259033203125 265.62451171875 228.77996826171875 268.40057373046875 219.11859130859375 264.19403076171875 C211.58599853515625 260.9151611328125 206.28271484375 253.98883056640625 203.98687744140625 246.23406982421875 C201.8487548828125 239.0118408203125 202.693603515625 230.6416015625 207.657958984375 224.7506103515625 C214.4757080078125 216.65997314453125 226.41656494140625 216.2667236328125 236.0657958984375 217.70440673828125 C239.29443359375 218.18572998046875 240.6829833984375 213.2520751953125 237.4266357421875 212.7677001953125 C225.92303466796875 211.05352783203125 213.00323486328125 211.70782470703125 204.475341796875 220.64227294921875 C197.98724365234375 227.44061279296875 196.68780517578125 237.43896484375 198.70819091796875 246.29443359375 C200.84527587890625 255.65997314453125 207.29547119140625 264.0240478515625 215.8868408203125 268.3135986328125 C227.23681640625 273.98040771484375 240.1484375 271.02508544921875 250.767333984375 265.1842041015625 C249.73309326171875 263.84381103515625 248.6988525390625 262.50341796875 247.66558837890625 261.1639404296875 C240.86627197265625 268.11798095703125 235.4176025390625 276.7564697265625 236.8040771484375 286.82647705078125 C237.830078125 294.2822265625 243.916748046875 300.16094970703125 250.57073974609375 302.97698974609375 C258.0377197265625 306.1370849609375 266.34234619140625 305.8267822265625 273.68341064453125 302.50286865234375 C282.81854248046875 298.366943359375 287.99688720703125 288.944091796875 290.135009765625 279.56732177734375 C290.88970947265625 276.2587890625 286.43731689453125 275.23583984375 285.1983642578125 278.20648193359375 C282.12530517578125 285.57000732421875 278.98876953125 295.8704833984375 284.327880859375 303.01898193359375 C288.289794921875 308.3243408203125 295.257080078125 308.91009521484375 301.24542236328125 307.3924560546875 C319.61181640625 302.7353515625 326.88739013671875 282.282958984375 321.95989990234375 265.47711181640625 C320.40032958984375 266.13446044921875 318.8408203125 266.7918701171875 317.28118896484375 267.4493408203125 C326.689697265625 280.40496826171875 343.77423095703125 286.0277099609375 356.40216064453125 273.850341796875 C361.3603515625 269.06927490234375 363.77593994140625 261.8265380859375 362.85638427734375 255.03948974609375 C361.49957275390625 245.02880859375 354.2353515625 237.6181640625 346.24407958984375 232.122314453125 C345.81298828125 233.71258544921875 345.3828125 235.3028564453125 344.9517822265625 236.89312744140625 C357.29302978515625 235.46160888671875 370.9029541015625 227.49798583984375 369.3916015625 213.24896240234375 C367.75726318359375 197.8377685546875 350.41485595703125 194.7657470703125 337.90667724609375 196.85675048828125 C338.5640869140625 198.41632080078125 339.221435546875 199.97589111328125 339.87884521484375 201.53546142578125 C347.76470947265625 195.4580078125 354.072509765625 187.83740234375 355.35870361328125 177.7008056640625 C356.29461669921875 170.324951171875 353.00244140625 162.77398681640625 347.45855712890625 157.97760009765625 C341.77435302734375 153.05926513671875 334.0543212890625 151.678955078125 326.88330078125 153.56103515625 C316.22760009765625 156.35760498046875 309.06158447265625 166.37744140625 304.55084228515625 175.75518798828125 C306.1104736328125 176.41265869140625 307.66998291015625 177.07000732421875 309.22955322265625 177.72747802734375 C311.5478515625 167.4547119140625 312.2410888671875 155.7984619140625 306.19439697265625 146.61322021484375 C301.74920654296875 139.8609619140625 293.90130615234375 136.501220703125 285.96014404296875 137.02752685546875 C263.12396240234375 138.5419921875 254.3697509765625 163.98126220703125 256.46282958984375 183.4127197265625 C257.74688720703125 182.6754150390625 259.031005859375 181.93914794921875 260.3150634765625 181.201904296875 C250.8021240234375 174.58685302734375 238.84381103515625 168.0609130859375 226.84771728515625 170.67205810546875 C219.34588623046875 172.3043212890625 214.0855712890625 178.65826416015625 212.39703369140625 185.914306640625 C210.726806640625 193.08843994140625 212.51171875 200.83807373046875 217.1995849609375 206.4957275390625 C222.96160888671875 213.44866943359375 232.580078125 213.90234375 240.60821533203125 211.34124755859375 C243.74066162109375 210.3387451171875 242.40118408203125 205.3948974609375 239.247314453125 206.4014892578125 L239.247314453125 206.4014892578125 Z"></path>
<path fill="#ED7FAA" fill-opacity="1.0"  filling="0" d="M281.92254638671875 272.5201416015625 C275.409912109375 321.10076904296875 266.013671875 370.19439697265625 244.08160400390625 414.44146728515625 C242.62042236328125 417.3895263671875 247.03582763671875 419.984375 248.502197265625 417.02606201171875 C270.86737060546875 371.90545654296875 280.40191650390625 322.05718994140625 287.04144287109375 272.521240234375 C287.47979736328125 269.25567626953125 282.35467529296875 269.297607421875 281.92254638671875 272.5201416015625 L281.92254638671875 272.5201416015625 Z"></path>
<path fill="#ED7FAA" fill-opacity="1.0"  filling="0" d="M240.60821533203125 413.26483154296875 C230.1009521484375 411.378662109375 220.38006591796875 406.80645751953125 211.5972900390625 400.82427978515625 C202.96905517578125 394.94757080078125 193.71307373046875 386.0684814453125 191.162353515625 375.57147216796875 C189.37548828125 368.22222900390625 185.91741943359375 348.60748291015625 199.26318359375 350.65960693359375 C211.379150390625 352.523193359375 221.92840576171875 364.2203369140625 228.770751953125 373.50189208984375 C238.3984375 386.55999755859375 244.5311279296875 402.5538330078125 243.73248291015625 418.91632080078125 C243.6136474609375 421.35546875 247.45672607421875 422.56280517578125 248.5032958984375 420.2086181640625 C253.81170654296875 408.268798828125 266.08636474609375 398.57147216796875 276.03857421875 390.66925048828125 C287.25958251953125 381.75946044921875 301.57720947265625 371.3760986328125 316.248046875 369.67523193359375 C321.228759765625 369.09771728515625 325.85107421875 370.2752685546875 328.30047607421875 374.9376220703125 C331.4012451171875 380.83990478515625 330.68231201171875 389.9432373046875 327.27752685546875 395.45135498046875 C319.12646484375 408.63848876953125 298.4068603515625 412.43951416015625 284.3094482421875 413.624267578125 C278.35797119140625 414.12506103515625 272.22216796875 414.15167236328125 266.3270263671875 413.10308837890625 C264.61480712890625 412.7989501953125 258.5220947265625 411.8292236328125 258.40020751953125 409.3685302734375 C258.23638916015625 406.08251953125 253.1153564453125 406.067138671875 253.28021240234375 409.3685302734375 C253.8106689453125 420.021240234375 273.6322021484375 419.2132568359375 280.5196533203125 418.97161865234375 C295.93389892578125 418.42889404296875 312.7664794921875 414.730224609375 325.1732177734375 405.1424560546875 C335.183837890625 397.40618896484375 339.46417236328125 380.38726806640625 331.07452392578125 369.80633544921875 C323.51434326171875 360.269775390625 309.10772705078125 365.3734130859375 300.0565185546875 369.46124267578125 C287.426513671875 375.1658935546875 275.95159912109375 383.71636962890625 265.53546142578125 392.76434326171875 C257.630126953125 399.63134765625 248.42852783203125 407.8489990234375 244.0826416015625 417.6240234375 C245.67291259765625 418.05511474609375 247.26318359375 418.4852294921875 248.85345458984375 418.91632080078125 C249.73309326171875 400.9093017578125 242.677734375 383.4542236328125 231.9503173828125 369.25335693359375 C224.33380126953125 359.1700439453125 212.66839599609375 347.12884521484375 199.363525390625 345.5426025390625 C185.97271728515625 343.9451904296875 183.457763671875 357.71490478515625 184.63531494140625 368.09521484375 C187.242431640625 391.078857421875 206.0748291015625 406.2637939453125 226.44012451171875 414.53460693359375 C230.5648193359375 416.2098388671875 234.86968994140625 417.417236328125 239.247314453125 418.20257568359375 C242.4749755859375 418.7811279296875 243.85430908203125 413.8475341796875 240.60821533203125 413.26483154296875 L240.60821533203125 413.26483154296875 Z"></path>
<path fill="#ED7FAA" fill-opacity="1.0"  filling="0" d="M302.2857666015625 384.87957763671875 C283.92852783203125 395.64385986328125 262.4654541015625 400.2733154296875 242.42987060546875 406.898681640625 C239.31085205078125 407.92987060546875 240.64715576171875 412.875732421875 243.79083251953125 411.8353271484375 C264.2513427734375 405.06976318359375 286.11883544921875 400.29486083984375 304.870361328125 389.29913330078125 C307.71502685546875 387.632080078125 305.13970947265625 383.20635986328125 302.2857666015625 384.87957763671875 L302.2857666015625 384.87957763671875 Z"></path></svg>