<svg xmlns="http://www.w3.org/2000/svg" viewBox="0.0 0.0 512.0 512.0" height="512.0px" width="512.0px"><path fill="#FEE8D7" fill-opacity="1.0"  filling="0" d="M363.66796875 365.82806396484375 C354.2356872558594 361.8516845703125 348.25555419921875 348.9934997558594 338.1187438964844 350.40252685546875 C329.4385070800781 351.596923828125 326.2043151855469 362.2940368652344 325.1295166015625 370.9857482910156 C324.0547180175781 379.6774597167969 321.63153076171875 390.3500061035156 313.13153076171875 392.49957275390625 C304.01055908203125 394.8162841796875 296.65576171875 385.2054138183594 292.20257568359375 376.9200439453125 C287.76251220703125 368.6231689453125 280.66986083984375 358.91729736328125 271.4653625488281 360.89813232421875 C259.75408935546875 363.44091796875 255.69412231445312 381.111083984375 251.24093627929688 390.1353759765625 C248.02969360351562 396.6414489746094 242.13143920898438 402.92144775390625 234.88478088378906 402.5511779785156 C225.04620361328125 402.0498352050781 217.93228149414062 389.8486633300781 216.02188110351562 381.251953125 C215.26988220214844 377.8260803222656 214.94711303710938 374.3756103515625 214.91268920898438 370.88909912109375 C214.82913208007812 364.38299560546875 215.7237091064453 357.8048095703125 216.5003204345703 351.30859375 C217.01312255859375 346.9864501953125 217.4784393310547 342.65289306640625 217.88475036621094 338.307861328125 C219.51988220214844 320.4705810546875 219.47238159179688 302.94464111328125 217.873291015625 285.51531982421875 C215.8678741455078 284.85833740234375 213.89852905273438 283.6164245605469 212.17820739746094 282.38763427734375 C200.311279296875 273.92364501953125 188.24118041992188 265.26800537109375 179.42990112304688 253.62713623046875 C178.69094848632812 252.6473846435547 177.95037841796875 251.39401245117188 178.45175170898438 250.27171325683594 C178.84658813476562 249.36404418945312 179.89682006835938 248.98228454589844 180.85202026367188 248.69557189941406 C188.0986328125 246.59349060058594 195.692626953125 246.10525512695312 203.21287536621094 246.10525512695312 C205.66065979003906 246.10525512695312 208.5983123779297 245.91357421875 211.5818328857422 245.890625 C210.9133758544922 242.8939971923828 210.2088623046875 239.89736938476562 209.4453582763672 236.88925170898438 C203.27349853515625 212.46234130859375 190.90359497070312 183.84603881835938 198.70074462890625 158.90469360351562 C208.45413208007812 127.64892578125 245.39349365234375 116.4259033203125 275.132080078125 122.47976684570312 C305.95697021484375 128.74826049804688 323.591064453125 153.66343688964844 334.24066162109375 181.6604461669922 C337.49945068359375 190.2554931640625 340.0914001464844 199.04385375976562 342.57354736328125 207.85353088378906 C348.5078430175781 203.53143310546875 354.7632751464844 199.55667114257812 361.70025634765625 197.01223754882812 C362.619384765625 196.66653442382812 363.7056579589844 196.36834716796875 364.5657958984375 196.85658264160156 C365.62750244140625 197.4529571533203 365.77166748046875 198.92262268066406 365.7471008300781 200.1399383544922 C365.555419921875 214.72825622558594 360.9596862792969 228.85292053222656 356.4114990234375 242.71376037597656 C355.9576416015625 244.09820556640625 355.4087829589844 245.5547637939453 354.71575927734375 246.89169311523438 C362.5948181152344 267.283203125 372.14666748046875 286.99481201171875 382.1982727050781 306.40655517578125 C386.2926330566406 314.297119140625 390.51971435546875 322.3334655761719 392.32196044921875 331.0005798339844 C392.5119934082031 331.91973876953125 392.67913818359375 332.8388671875 392.81182861328125 333.7695007324219 C395.00726318359375 348.9820556640625 382.65045166015625 373.8152770996094 363.66796875 365.82806396484375 Z"></path>
<path fill="#FC7836" fill-opacity="1.0"  filling="0" d="M204.2811279296875 94.23538208007812 C206.3881072998047 93.8765869140625 208.47544860839844 93.11474609375 210.60208129882812 93.324462890625 C214.07875061035156 93.67013549804688 216.77883911132812 96.52423095703125 218.58436584472656 99.51596069335938 C223.1849822998047 107.13943481445312 224.05169677734375 116.3603515625 224.90365600585938 125.22409057617188 C224.9691925048828 125.90567016601562 225.07406616210938 126.66427612304688 225.60653686523438 127.09515380859375 C226.15374755859375 127.53915405273438 226.94183349609375 127.4703369140625 227.63816833496094 127.36383056640625 C234.04920959472656 126.37753295898438 240.2587432861328 124.10342407226562 245.7899932861328 120.71359252929688 C243.23573303222656 116.87478637695312 240.97637939453125 112.83941650390625 239.03977966308594 108.65496826171875 C237.00161743164062 104.25091552734375 235.28128051757812 99.61752319335938 232.2797393798828 95.80337524414062 C228.11328125 90.50967407226562 221.54331970214844 87.19027709960938 214.81112670898438 86.97726440429688 C212.98431396484375 86.919921875 211.1427459716797 87.08050537109375 209.3798370361328 87.56549072265625 C207.63983154296875 88.04388427734375 206.00308227539062 88.83193969726562 204.37779235839844 89.6151123046875 C203.87478637695312 89.85757446289062 203.36363220214844 90.093505859375 202.8540802001953 90.33108520507812 C200.68482971191406 91.34197998046875 201.66787719726562 94.63027954101562 204.03536987304688 94.27474975585938 C204.11563110351562 94.26327514648438 204.19920349121094 94.25015258789062 204.2811279296875 94.23538208007812 Z"></path>
<path fill="#FDC444" fill-opacity="1.0"  filling="0" d="M304.0138244628906 150.1064910888672 C303.099609375 150.59799194335938 302.1722412109375 151.0338134765625 301.2170715332031 151.43031311035156 C299.483642578125 152.16758728027344 297.68304443359375 152.75413513183594 295.86932373046875 153.27188110351562 C291.25885009765625 154.5547332763672 286.45672607421875 155.3051300048828 281.74957275390625 156.23245239257812 C277.8076171875 157.0106964111328 273.9049377441406 157.9380340576172 270.04486083984375 159.01608276367188 C268.05255126953125 159.5747833251953 266.0619201660156 160.1613311767578 264.09747314453125 160.8166961669922 C254.35719299316406 163.92637634277344 244.90199279785156 167.9928741455078 235.92518615722656 172.94412231445312 C234.09674072265625 173.92718505859375 232.2830352783203 174.96263122558594 230.4955291748047 176.0538330078125 C227.235107421875 178.00515747070312 224.0435028076172 180.07774353027344 220.93218994140625 182.26173400878906 C217.74058532714844 184.49978637695312 214.58828735351562 186.88694763183594 211.2590789794922 188.86448669433594 C209.51254272460938 189.91468811035156 207.72503662109375 190.85675048828125 205.842529296875 191.62025451660156 C205.1199951171875 191.906982421875 204.39581298828125 192.16583251953125 203.64706420898438 192.3984832763672 C197.24911499023438 194.3907928466797 189.4044189453125 193.5437469482422 185.12002563476562 188.3876953125 C181.19113159179688 183.63961791992188 181.30093383789062 176.8058319091797 182.159423828125 170.7208251953125 C183.76837158203125 159.3978271484375 186.98941040039062 148.2796630859375 192.51412963867188 138.64752197265625 C194.20657348632812 135.70001220703125 196.10223388671875 132.90325927734375 198.25674438476562 130.2703857421875 C201.4630889892578 126.31362915039062 205.21499633789062 122.7664794921875 209.56658935546875 119.73873901367188 C211.64083862304688 118.29202270507812 213.74124145507812 116.92889404296875 215.84169006347656 115.64602661132812 C217.4784393310547 114.64990234375 219.12994384765625 113.70941162109375 220.79457092285156 112.82138061523438 C227.72499084472656 109.12350463867188 234.8192596435547 106.369384765625 242.2264862060547 104.60812377929688 C243.97299194335938 104.18539428710938 245.73263549804688 103.82989501953125 247.52012634277344 103.51693725585938 C254.06881713867188 102.38479614257812 260.8632507324219 102.0030517578125 268.02471923828125 102.37167358398438 C268.69317626953125 102.39950561523438 269.374755859375 102.44052124023438 270.0432434082031 102.49456787109375 C271.59808349609375 102.60433959960938 273.15289306640625 102.75341796875 274.72247314453125 102.93038940429688 C289.6335754394531 104.74407958984375 304.83135986328125 110.35232543945312 312.6612854003906 122.91558837890625 C314.325927734375 125.58944702148438 315.62188720703125 128.577880859375 315.8955078125 131.71542358398438 C316.552490234375 139.42575073242188 310.8492126464844 146.47744750976562 304.0138244628906 150.1064910888672 Z"></path>
<path fill="#FCA429" fill-opacity="1.0"  filling="0" d="M211.26071166992188 188.86448669433594 C209.51419067382812 189.91468811035156 207.7266845703125 190.85675048828125 205.8441619873047 191.62025451660156 C197.93234252929688 175.04458618164062 193.38900756835938 156.9271240234375 192.51577758789062 138.64752197265625 C194.208251953125 135.70001220703125 196.1038818359375 132.90325927734375 198.25836181640625 130.2703857421875 C198.57293701171875 150.44728088378906 202.91143798828125 170.2293243408203 211.26071166992188 188.86448669433594 Z"></path>
<path fill="#FCA429" fill-opacity="1.0"  filling="0" d="M235.92518615722656 172.94412231445312 C234.09674072265625 173.92718505859375 232.2830352783203 174.96263122558594 230.4955291748047 176.0538330078125 C225.81625366210938 166.80506896972656 222.22816467285156 157.0369110107422 220.0867919921875 146.62652587890625 C217.9994354248047 136.59951782226562 216.5396270751953 126.1497802734375 215.84332275390625 115.64437866210938 C217.48008728027344 114.64822387695312 219.13157653808594 113.707763671875 220.7961883544922 112.81976318359375 C221.6547393798828 123.228515625 222.9916229248047 133.59634399414062 225.257568359375 143.95098876953125 C227.53494262695312 154.4171142578125 231.35569763183594 163.84445190429688 235.92518615722656 172.94412231445312 Z"></path>
<path fill="#FCA429" fill-opacity="1.0"  filling="0" d="M270.04486083984375 159.0144500732422 C268.05255126953125 159.5731658935547 266.0619201660156 160.15969848632812 264.09747314453125 160.8150634765625 C261.3695373535156 151.64820861816406 258.4630126953125 142.507568359375 255.0928192138672 133.48983764648438 C251.4359130859375 123.70858764648438 247.3169708251953 114.06332397460938 242.3640899658203 104.8538818359375 C242.32313537597656 104.77191162109375 242.2690887451172 104.69000244140625 242.22811889648438 104.60812377929688 C243.97462463378906 104.18539428710938 245.73428344726562 103.82989501953125 247.5217742919922 103.51693725585938 C251.9274444580078 111.26492309570312 255.51718139648438 119.437255859375 258.8038330078125 127.74557495117188 C262.84246826171875 137.92333984375 266.7303771972656 148.37469482421875 270.04486083984375 159.0144500732422 Z"></path>
<path fill="#FCA429" fill-opacity="1.0"  filling="0" d="M301.21868896484375 151.43031311035156 C299.4852600097656 152.16758728027344 297.6846618652344 152.75413513183594 295.8709716796875 153.27188110351562 C289.4730224609375 135.04629516601562 280.045654296875 117.62518310546875 268.0279846191406 102.37167358398438 C268.69647216796875 102.39950561523438 269.3780517578125 102.44052124023438 270.0465087890625 102.49456787109375 C271.601318359375 102.60433959960938 273.15618896484375 102.75341796875 274.72576904296875 102.93038940429688 C277.97308349609375 106.913330078125 281.06964111328125 111.1158447265625 283.96142578125 115.60504150390625 C291.2178955078125 126.84609985351562 297.0162048339844 138.852294921875 301.21868896484375 151.43031311035156 Z"></path>
<path fill="#380B57" fill-opacity="1.0"  filling="0" d="M230.26451110839844 135.79013061523438 C230.13998413085938 133.50619506835938 229.25363159179688 131.3779296875 227.58407592773438 129.78048706054688 C224.10903930664062 126.4561767578125 218.7170867919922 126.78057861328125 215.2846221923828 129.97216796875 C212.62713623046875 132.44451904296875 211.5572509765625 136.45367431640625 212.6582489013672 139.912353515625 C214.09349060058594 144.41796875 218.57615661621094 147.13442993164062 223.22923278808594 146.01702880859375 C227.2531280517578 145.05038452148438 230.26451110839844 141.03463745117188 230.249755859375 136.9288330078125 C230.249755859375 136.87966918945312 230.23828125 136.8321533203125 230.23828125 136.78140258789062 C230.26779174804688 136.46023559570312 230.28253173828125 136.13092041015625 230.26451110839844 135.79013061523438 Z"></path>
<path fill="#380B57" fill-opacity="1.0"  filling="0" d="M252.78924560546875 117.65139770507812 C247.94613647460938 116.3292236328125 243.17507934570312 119.50442504882812 241.77919006347656 124.14114379882812 C241.65957641601562 124.53598022460938 241.6333770751953 125.03237915039062 241.58421325683594 125.40103149414062 C241.5399932861328 125.72708129882812 241.43020629882812 126.2628173828125 241.43020629882812 126.66427612304688 C241.43675231933594 128.23382568359375 241.80703735351562 129.54949951171875 242.52793884277344 130.924072265625 C243.28158569335938 132.35934448242188 244.51368713378906 133.53900146484375 245.94398498535156 134.34014892578125 C246.6632537841797 134.79888916015625 247.4529571533203 135.16751098632812 248.32460021972656 135.3985595703125 C250.6396484375 136.01296997070312 253.42657470703125 135.65740966796875 255.4237823486328 134.28607177734375 C257.9583740234375 132.54611206054688 259.5476379394531 129.99349975585938 259.6328125 126.87066650390625 C259.7442626953125 122.67147827148438 256.84100341796875 118.75732421875 252.78924560546875 117.65139770507812 Z"></path>
<path fill="#380B57" fill-opacity="1.0"  filling="0" d="M258.1009521484375 141.226318359375 C255.99232482910156 142.01931762695312 253.95741271972656 142.97125244140625 251.9470977783203 143.9755859375 C251.32614135742188 142.791015625 250.65931701660156 141.61627197265625 249.73526000976562 140.6856689453125 C248.97503662109375 139.91726684570312 247.7069091796875 140.51202392578125 247.6676025390625 141.54254150390625 C247.6151580810547 142.9532470703125 248.03623962402344 144.36224365234375 248.57362365722656 145.70083618164062 C246.86642456054688 146.5855712890625 245.15921020507812 147.47195434570312 243.4224853515625 148.29440307617188 C243.4192352294922 148.2960205078125 243.41432189941406 148.29769897460938 243.41104125976562 148.29931640625 C242.59510803222656 146.8116455078125 241.7922821044922 145.07003784179688 240.33248901367188 144.2164306640625 C239.8376922607422 143.92807006835938 239.04962158203125 144.17218017578125 238.9349365234375 144.78494262695312 C238.61216735839844 146.50363159179688 239.4264373779297 148.1829833984375 240.1145782470703 149.75094604492188 C238.2943115234375 150.50953674316406 236.45274353027344 151.20912170410156 234.59970092773438 151.8743133544922 C234.3965606689453 151.5286102294922 234.19337463378906 151.17962646484375 233.99188232421875 150.8372039794922 C233.66253662109375 150.27357482910156 231.98483276367188 147.15899658203125 230.87399291992188 148.74661254882812 C230.00399780273438 149.99017333984375 230.94773864746094 151.61708068847656 231.59654235839844 152.9310760498047 C229.456787109375 153.66998291015625 227.31048583984375 154.39581298828125 225.17236328125 155.1609344482422 C224.1876983642578 155.51319885253906 224.30728149414062 157.0106964111328 225.42469787597656 157.03036499023438 C227.91995239257812 157.0729522705078 230.48568725585938 156.78457641601562 233.0645294189453 156.2570343017578 C233.66419982910156 157.5808563232422 234.3064422607422 158.8899383544922 235.06338500976562 160.08761596679688 C236.03659057617188 161.62770080566406 238.880859375 160.6512451171875 238.15834045410156 158.783447265625 C237.7126922607422 157.63328552246094 237.163818359375 156.510986328125 236.58053588867188 155.4034423828125 C238.34674072265625 154.89553833007812 240.104736328125 154.2745819091797 241.84144592285156 153.5766143798828 C242.24449157714844 154.3695831298828 242.68031311035156 155.1412811279297 243.20458984375 155.83761596679688 C244.3907928466797 157.40882873535156 247.687255859375 156.56832885742188 246.75828552246094 154.33848571777344 C246.41586303710938 153.5143280029297 245.99806213378906 152.72793579101562 245.5573272705078 151.9529571533203 C247.1564178466797 151.189453125 248.7194366455078 150.36207580566406 250.23825073242188 149.49209594726562 C250.8428192138672 150.7831268310547 251.55880737304688 152.05946350097656 252.54347229003906 152.91798400878906 C253.9393768310547 154.13531494140625 256.2265625 152.98512268066406 255.72361755371094 151.0665740966797 C255.37954711914062 149.75094604492188 254.58819580078125 148.51889038085938 253.82142639160156 147.30972290039062 C255.785888671875 146.033447265625 257.6388854980469 144.69976806640625 259.3395690917969 143.35299682617188 C260.32586669921875 142.57315063476562 259.25927734375 140.79052734375 258.1009521484375 141.226318359375 Z"></path>
<path fill="#380B57" fill-opacity="1.0"  filling="0" d="M251.39988708496094 202.9563446044922 C246.70587158203125 193.87469482421875 234.74388122558594 196.60263061523438 232.30433654785156 205.90875244140625 C230.48568725585938 212.8489990234375 236.44456481933594 222.6024169921875 244.34494018554688 221.5784149169922 C252.7630157470703 220.48558044433594 254.66683959960938 209.27894592285156 251.39988708496094 202.9563446044922 Z"></path>
<path fill="#380B57" fill-opacity="1.0"  filling="0" d="M299.6147155761719 186.88363647460938 C294.92071533203125 177.8036346435547 282.958740234375 180.52993774414062 280.5191650390625 189.83602905273438 C278.6988830566406 196.7763214111328 284.65936279296875 206.5297088623047 292.55975341796875 205.5056915283203 C300.9778747558594 204.41452026367188 302.8817138671875 193.2078857421875 299.6147155761719 186.88363647460938 Z"></path>
<path fill="#380B57" fill-opacity="1.0"  filling="0" d="M284.0040283203125 214.189208984375 C284.0793762207031 214.7135009765625 284.1465759277344 215.24270629882812 284.1793212890625 215.77357482910156 C284.715087890625 221.4588165283203 283.6812744140625 227.26856994628906 281.2154846191406 232.4131317138672 C279.72943115234375 235.51136779785156 276.8917236328125 238.39004516601562 273.4953308105469 236.26174926757812 C269.77288818359375 233.93194580078125 266.75823974609375 229.71307373046875 264.19415283203125 226.22491455078125 C264.17938232421875 226.21998596191406 264.1761169433594 226.2085418701172 264.17120361328125 226.19869995117188 C262.0609436035156 223.31182861328125 259.6017150878906 218.6112518310547 261.0762634277344 215.34266662597656 C261.690673828125 213.99099731445312 262.8408203125 212.95223999023438 264.0270080566406 212.06094360351562 C267.57086181640625 209.38050842285156 275.6793212890625 206.27737426757812 280.16851806640625 207.8518829345703 C282.6261291503906 208.70875549316406 283.6435852050781 211.6152801513672 284.0040283203125 214.189208984375 Z"></path>
<path fill="#FF815A" fill-opacity="1.0"  filling="0" d="M284.1777038574219 215.77357482910156 C284.71343994140625 221.4588165283203 283.67962646484375 227.26856994628906 281.2138366699219 232.4131317138672 C279.7278137207031 235.51136779785156 276.89007568359375 238.39004516601562 273.49371337890625 236.26174926757812 C269.771240234375 233.93194580078125 266.756591796875 229.71307373046875 264.1925048828125 226.22491455078125 C269.5615234375 220.79196166992188 276.64599609375 217.03182983398438 284.1777038574219 215.77357482910156 Z"></path>
<path fill="#FF815A" fill-opacity="1.0"  filling="0" d="M249.10447692871094 232.958740234375 C249.1634521484375 228.05335998535156 244.11553955078125 225.4188232421875 239.75413513183594 225.83660888671875 C232.96949768066406 226.48541259765625 225.68353271484375 237.1841583251953 235.01258850097656 239.67454528808594 C239.52638244628906 240.87875366210938 249.03076171875 238.96673583984375 249.10447692871094 232.958740234375 Z"></path>
<path fill="#FF815A" fill-opacity="1.0"  filling="0" d="M317.6780700683594 209.38706970214844 C317.737060546875 204.481689453125 312.68914794921875 201.84715270996094 308.32769775390625 202.2649383544922 C301.5431213378906 202.91537475585938 294.2554931640625 213.6125030517578 303.586181640625 216.1028594970703 C308.09832763671875 217.3070831298828 317.60272216796875 215.39508056640625 317.6780700683594 209.38706970214844 Z"></path>
<path fill="#FFDEC7" fill-opacity="1.0"  filling="0" d="M363.66796875 365.82806396484375 C354.2356872558594 361.8516845703125 348.25555419921875 348.9934997558594 338.1187438964844 350.40252685546875 C329.4385070800781 351.596923828125 326.2043151855469 362.2940368652344 325.1295166015625 370.9857482910156 C324.0547180175781 379.6774597167969 321.63153076171875 390.3500061035156 313.13153076171875 392.49957275390625 C304.01055908203125 394.8162841796875 296.65576171875 385.2054138183594 292.20257568359375 376.9200439453125 C287.76251220703125 368.6231689453125 280.66986083984375 358.91729736328125 271.4653625488281 360.89813232421875 C259.75408935546875 363.44091796875 255.69412231445312 381.111083984375 251.24093627929688 390.1353759765625 C248.02969360351562 396.6414489746094 242.13143920898438 402.92144775390625 234.88478088378906 402.5511779785156 C225.04620361328125 402.0498352050781 217.93228149414062 389.8486633300781 216.02188110351562 381.251953125 C215.26988220214844 377.8260803222656 214.94711303710938 374.3756103515625 214.91268920898438 370.88909912109375 C219.318359375 374.565673828125 225.7294464111328 375.330810546875 231.22132873535156 373.64654541015625 C236.80828857421875 371.9393005371094 241.5006561279297 367.97601318359375 245.03469848632812 363.3311462402344 C249.65496826171875 357.26580810546875 253.10543823242188 349.47027587890625 260.22100830078125 346.701416015625 C268.82916259765625 343.3590393066406 278.0812072753906 349.12457275390625 285.4720458984375 354.6771240234375 C292.8612060546875 360.2411193847656 301.89862060546875 366.1868896484375 310.63787841796875 363.1885986328125 C324.16448974609375 358.55682373046875 325.59808349609375 336.3745422363281 339.5179443359375 333.1141357421875 C348.1490478515625 331.08416748046875 356.1607971191406 337.7950439453125 364.6968688964844 340.19366455078125 C374.6304931640625 342.99859619140625 386.0665283203125 339.08282470703125 392.3235778808594 331.0005798339844 C392.513671875 331.91973876953125 392.6807556152344 332.8388671875 392.8134765625 333.7695007324219 C395.00726318359375 348.9820556640625 382.65045166015625 373.8152770996094 363.66796875 365.82806396484375 Z"></path>
<path fill="#FFDEC7" fill-opacity="1.0"  filling="0" d="M263.90740966796875 309.3475036621094 C263.1209716796875 291.0711669921875 261.5906982421875 272.2786865234375 257.1883544921875 254.47911071777344 C256.95733642578125 253.5452423095703 255.42706298828125 253.7205352783203 255.48439025878906 254.7101287841797 C256.55755615234375 272.97174072265625 257.98297119140625 291.02691650390625 257.22601318359375 309.3475036621094 C256.470703125 327.6566162109375 254.17369079589844 345.79046630859375 252.2190704345703 363.9897766113281 C251.71607971191406 368.66741943359375 259.56402587890625 369.7373046875 260.4635009765625 365.10552978515625 C264.0188293457031 346.79150390625 264.70697021484375 327.95318603515625 263.90740966796875 309.3475036621094 Z"></path>
<path fill="#FFDEC7" fill-opacity="1.0"  filling="0" d="M326.753173828125 284.1816711425781 C323.9072570800781 275.60302734375 320.8696594238281 267.09149169921875 317.465087890625 258.7176513671875 C315.934814453125 254.95425415039062 314.39471435546875 251.33995056152344 312.4384765625 247.78298950195312 C312.9365234375 248.6890106201172 309.41070556640625 242.72686767578125 307.9312438964844 242.06495666503906 C307.932861328125 242.06332397460938 307.932861328125 242.0616912841797 307.93450927734375 242.06004333496094 C307.98529052734375 241.9945068359375 307.97711181640625 241.8765411376953 307.93450927734375 241.8093719482422 C307.48394775390625 241.10813903808594 307.57733154296875 241.1474609375 306.74176025390625 241.09666442871094 C306.59100341796875 241.0884552001953 306.4173583984375 241.18841552734375 306.34686279296875 241.32275390625 C305.6128845214844 242.74981689453125 306.08966064453125 243.1266326904297 306.4910888671875 244.65853881835938 C307.58880615234375 248.85775756835938 308.55218505859375 253.15367126464844 309.87274169921875 257.3119201660156 C312.70880126953125 266.2493896484375 315.4252624511719 275.2392883300781 317.9090881347656 284.27996826171875 C322.8636169433594 302.31549072265625 325.7750244140625 321.16693115234375 331.6290283203125 338.9107971191406 C332.98236083984375 343.0150146484375 339.8489074707031 342.59881591796875 339.5441589355469 337.83929443359375 C338.3825378417969 319.6940002441406 332.4482421875 301.34716796875 326.753173828125 284.1816711425781 Z"></path></svg>