<svg xmlns="http://www.w3.org/2000/svg" viewBox="0.0 0.0 512.0 512.0" height="512.0px" width="512.0px"><path fill="#269FD9" fill-opacity="1.0"  filling="0" d="M319.1057434082031 275.89569091796875 C315.82464599609375 271.8048095703125 311.369384765625 267.17376708984375 307.146240234375 264.0650634765625 C301.8658447265625 260.1781311035156 304.5657958984375 268.05181884765625 307.3937072753906 270.6365661621094 C310.1841125488281 273.18634033203125 312.461669921875 274.64129638671875 314.7161560058594 277.95562744140625 C318.77630615234375 283.9229736328125 321.20660400390625 290.6737060546875 322.54290771484375 296.6982421875 C325.85302734375 311.6221923828125 324.4910888671875 325.96673583984375 324.53973388671875 339.7881774902344 C324.62420654296875 364.030517578125 342.0808410644531 412.07830810546875 376.1792297363281 419.72418212890625 C381.72418212890625 420.96746826171875 387.3424987792969 422.85162353515625 392.180908203125 421.9675598144531 C395.7060546875 421.32415771484375 398.62188720703125 419.7839050292969 402.21783447265625 419.222412109375 C405.2377624511719 418.7505187988281 408.65283203125 418.4202880859375 412.3135986328125 420.2967834472656 C416.704833984375 422.5478515625 417.080322265625 425.4995422363281 419.6155700683594 428.8548583984375 C425.41912841796875 436.5364990234375 424.07257080078125 424.65643310546875 418.73577880859375 419.300048828125 C411.7683410644531 412.30615234375 405.1003723144531 411.42718505859375 398.4776611328125 412.3897399902344 C392.32257080078125 413.2840576171875 385.56329345703125 415.77069091796875 378.8450012207031 415.25439453125 C371.5626525878906 414.69464111328125 360.6229248046875 406.38482666015625 354.7801513671875 399.94903564453125 C346.6282958984375 390.97027587890625 341.78985595703125 381.741455078125 337.9302673339844 371.5406799316406 C335.4376525878906 364.95208740234375 333.18572998046875 358.2816162109375 332.7189636230469 352.0599365234375 C332.29486083984375 346.4091796875 333.1131896972656 341.1824951171875 332.4219970703125 335.350830078125 C330.7076110839844 320.89111328125 331.67022705078125 306.27777099609375 326.0458984375 290.99456787109375 C324.33660888671875 286.353271484375 322.55828857421875 280.20074462890625 319.1057434082031 275.89569091796875 Z"></path>
<path fill="#DE2427" fill-opacity="1.0"  filling="0" d="M242.38250732421875 198.55125427246094 C229.06280517578125 208.88766479492188 216.42494201660156 218.96041870117188 202.9901123046875 229.84213256835938 C200.082763671875 232.19647216796875 197.78390502929688 235.55093383789062 194.70249938964844 237.98291015625 C195.14962768554688 238.8106689453125 195.5686492919922 239.37557983398438 195.94667053222656 239.61453247070312 C201.97802734375 243.42636108398438 290.3577575683594 279.23480224609375 309.4161071777344 270.9847412109375 C287.3761901855469 247.58035278320312 266.6282958984375 223.30300903320312 244.042236328125 200.2672882080078 C243.48500061035156 199.69729614257812 242.93374633789062 199.12469482421875 242.38250732421875 198.55125427246094 Z"></path>
<path fill="#3BB24D" fill-opacity="1.0"  filling="0" d="M252.90838623046875 190.43692016601562 C249.33546447753906 193.17271423339844 245.83682250976562 195.87010192871094 242.38250732421875 198.55125427246094 C242.93374633789062 199.1238555908203 243.4858856201172 199.69729614257812 244.042236328125 200.26646423339844 C266.6282958984375 223.30218505859375 287.3761901855469 247.57952880859375 309.4161071777344 270.9839172363281 C311.562255859375 270.05462646484375 312.8294372558594 268.5672302246094 313.0018310546875 266.41259765625 C313.7288513183594 257.2751159667969 301.8436584472656 170.81875610351562 288.94635009765625 153.70176696777344 C275.93212890625 165.27635192871094 266.7213134765625 179.86239624023438 252.90838623046875 190.43692016601562 Z"></path>
<path fill="#269FD9" fill-opacity="1.0"  filling="0" d="M194.70166015625 237.98291015625 C197.78390502929688 235.5517578125 200.08192443847656 232.19647216796875 202.9892120361328 229.84213256835938 C216.4241180419922 218.9613037109375 229.06198120117188 208.88766479492188 242.3816680908203 198.55125427246094 C220.56619262695312 175.8909912109375 202.41151428222656 150.1903076171875 182.94613647460938 125.22346496582031 C171.64031982421875 135.64608764648438 187.3331298828125 224.35693359375 194.70166015625 237.98291015625 Z"></path>
<path fill="#E9E749" fill-opacity="1.0"  filling="0" d="M287.0587463378906 151.71348571777344 C269.1720275878906 137.87838745117188 193.53598022460938 116.2899169921875 183.095458984375 125.07754516601562 C183.0442657470703 125.12106323242188 182.99734497070312 125.17739868164062 182.9469757080078 125.22431945800781 C202.4123992919922 150.19114685058594 220.56703186035156 175.89181518554688 242.38250732421875 198.5520782470703 C245.83766174316406 195.87094116210938 249.33546447753906 193.17271423339844 252.90838623046875 190.43775939941406 C266.7213134765625 179.86322021484375 275.93212890625 165.27635192871094 288.9454650878906 153.7034912109375 C288.31829833984375 152.87062072753906 287.6893615722656 152.2007293701172 287.0587463378906 151.71348571777344 Z"></path>
<path fill="#DE2427" fill-opacity="1.0"  filling="0" d="M289.66912841796875 154.08660888671875 C302.43157958984375 155.61578369140625 299.2401123046875 178.9023895263672 312.451416015625 184.053955078125 C319.81396484375 186.92459106445312 324.15655517578125 184.13760375976562 328.48638916015625 192.65130615234375 C331.311767578125 198.20651245117188 333.09100341796875 204.98880004882812 334.8514099121094 210.64297485351562 C334.7421875 202.89474487304688 338.4234924316406 198.8857879638672 335.34808349609375 190.76885986328125 C332.4543762207031 183.12979125976562 326.88385009765625 178.01661682128906 319.2430725097656 175.4890594482422 C311.24822998046875 172.84457397460938 305.4114074707031 171.6541748046875 302.3556213378906 162.62759399414062 C300.9245910644531 158.40020751953125 301.89483642578125 154.31103515625 297.83551025390625 151.80734252929688 C294.51092529296875 149.75682067871094 289.0069274902344 151.516357421875 288.3805847167969 151.96864318847656"></path>
<path fill="#DE2427" fill-opacity="1.0"  filling="0" d="M195.6036376953125 238.59988403320312 C195.13088989257812 238.39938354492188 195.10952758789062 237.94281005859375 194.5028076171875 238.370361328125 C194.48916625976562 244.47848510742188 199.7516632080078 246.6075439453125 204.0089569091797 249.335693359375 C209.21005249023438 252.66796875 209.50015258789062 260.08001708984375 211.39369201660156 265.71368408203125 C213.29150390625 271.3601989746094 217.13406372070312 273.97314453125 220.0738067626953 278.8226013183594 C221.90338134765625 281.83917236328125 221.83421325683594 294.5316162109375 227.76318359375 292.3453674316406 C233.62646484375 290.18389892578125 227.7879638671875 281.9620361328125 225.17843627929688 279.65203857421875 C220.73171997070312 275.7138977050781 218.72296142578125 272.47979736328125 217.3960418701172 266.5755615234375 C216.20567321777344 261.2763671875 215.53150939941406 255.36532592773438 211.61984252929688 251.46817016601562 C208.1527557373047 248.01385498046875 203.57717895507812 245.88397216796875 200.72276306152344 241.54473876953125 C199.91635131835938 240.31936645507812 199.21151733398438 239.15032958984375 199.2097930908203 237.51614379882812"></path>
<path fill="#E9E749" fill-opacity="1.0"  filling="0" d="M200.88233947753906 251.7403564453125 C201.94818115234375 254.3447265625 201.08119201660156 257.31011962890625 201.46514892578125 260.0356140136719 C201.85853576660156 262.8311462402344 203.0472412109375 265.37579345703125 204.3221435546875 267.8333740234375 C205.40499877929688 269.9215087890625 207.08865356445312 272.138427734375 207.35572814941406 274.61138916015625 C207.6424560546875 277.26361083984375 205.99807739257812 279.1468811035156 205.84103393554688 281.6795959472656 C205.60385131835938 285.5075988769531 207.75082397460938 292.8130187988281 209.76979064941406 296.12396240234375 C210.8876495361328 297.9569396972656 213.86322021484375 299.458740234375 214.39317321777344 296.5523376464844 C214.63380432128906 295.2296447753906 212.91693115234375 291.0244140625 212.6335906982422 289.3331298828125 C212.22312927246094 286.8831787109375 211.33567810058594 284.382080078125 211.64541625976562 281.9099426269531 C211.97567749023438 279.27655029296875 212.87847900390625 277.33013916015625 212.46124267578125 274.5849609375 C212.02687072753906 271.7314147949219 210.43197631835938 269.6961975097656 208.94891357421875 267.42718505859375 C206.993896484375 264.4337158203125 207.24395751953125 262.22869873046875 206.99478149414062 258.7044372558594 C206.6466064453125 253.77557373046875 204.9817657470703 248.08724975585938 201.81161499023438 244.3001708984375 C199.83958435058594 241.9449462890625 198.03306579589844 240.23745727539062 197.00140380859375 237.36599731445312 C196.74624633789062 236.6568603515625 195.0148468017578 239.6136474609375 194.93292236328125 239.93365478515625 C194.5489044189453 241.42953491210938 195.10186767578125 242.92800903320312 195.73416137695312 244.25662231445312 C197.04150390625 247.006103515625 199.71926879882812 248.89962768554688 200.88233947753906 251.7403564453125 Z"></path>
<path fill="#269FD9" fill-opacity="1.0"  filling="0" d="M293.4963073730469 153.63348388671875 C295.1688537597656 155.08926391601562 295.6432800292969 158.20822143554688 296.24578857421875 160.26817321777344 C297.8705139160156 165.82167053222656 298.64105224609375 170.143798828125 302.7567138671875 174.62208557128906 C306.4866027832031 178.68141174316406 306.87744140625 182.49749755859375 309.3674621582031 187.1737518310547 C311.71246337890625 191.57781982421875 317.0807189941406 192.1000518798828 318.09027099609375 197.68344116210938 C318.6457824707031 200.75457763671875 317.8649597167969 204.20541381835938 319.731201171875 207.04620361328125 C321.40374755859375 209.59255981445312 322.3978576660156 210.54229736328125 323.28790283203125 213.61343383789062 C323.9466552734375 215.885009765625 325.1251220703125 217.99188232421875 324.7146911621094 220.390625 C324.0029602050781 224.55743408203125 322.03094482421875 222.58624267578125 320.4454345703125 219.98526000976562 C317.92041015625 215.84234619140625 315.7777099609375 210.90411376953125 314.11114501953125 206.21505737304688 C313.3499450683594 204.07489013671875 313.5385437011719 201.42526245117188 312.47869873046875 199.41822814941406 C311.2831726074219 197.1534881591797 308.64215087890625 196.196044921875 306.91326904296875 194.36224365234375 C304.02301025390625 191.29708862304688 303.94281005859375 187.80520629882812 302.6534423828125 184.13333129882812 C301.3128662109375 180.3180694580078 297.550537109375 179.06536865234375 296.0059814453125 175.04104614257812 C294.50494384765625 171.12937927246094 293.8641052246094 167.06494140625 292.586669921875 163.20364379882812 C291.81524658203125 160.86973571777344 289.0871276855469 159.35421752929688 288.3404541015625 157.00161743164062 C287.22259521484375 153.4773406982422 290.3791198730469 150.9207305908203 293.4963073730469 153.63348388671875 Z"></path></svg>