<svg xmlns="http://www.w3.org/2000/svg" viewBox="0.0 0.0 512.0 512.0" height="512.0px" width="512.0px"><path fill="#B0B0B0" fill-opacity="1.0"  filling="0" d="M246.9322052001953 263.64031982421875 C243.98617553710938 262.3839111328125 240.87014770507812 259.67950439453125 242.79014587402344 255.46673583984375 C243.83258056640625 253.18328857421875 246.70693969726562 250.87109375 252.78541564941406 253.28768920898438 C263.1329345703125 257.380615234375 269.3045654296875 261.02398681640625 284.4669189453125 267.23968505859375 C293.54058837890625 270.9619445800781 321.22955322265625 282.14813232421875 329.2249755859375 284.0179443359375 C330.24896240234375 287.06842041015625 327.35308837890625 292.2559814453125 328.36993408203125 295.3074951171875 C319.7447509765625 292.836669921875 297.7738342285156 283.7844543457031 286.234375 279.777587890625 C273.7364501953125 275.43988037109375 255.209228515625 267.15771484375 246.9322052001953 263.64031982421875 Z"></path>
<path fill="#B0B0B0" fill-opacity="1.0"  filling="0" d="M243.80596923828125 340.9573974609375 C255.5952606201172 343.5225830078125 267.7890625 352.5511474609375 274.7215270996094 364.84326171875 C279.4104309082031 373.1571044921875 278.4724426269531 386.5008544921875 277.7945556640625 393.3626708984375 C281.72674560546875 393.380126953125 283.8187561035156 393.085205078125 287.7529602050781 392.63873291015625 C288.98382568359375 382.11810302734375 289.7098388671875 367.799560546875 281.86907958984375 355.89654541015625 C273.5941162109375 343.3310546875 262.49090576171875 333.881591796875 250.15065002441406 330.7440185546875 C250.15065002441406 330.7440185546875 242.2699432373047 328.58551025390625 240.7626190185547 333.9830322265625 C239.1395721435547 339.7911376953125 243.80596923828125 340.9573974609375 243.80596923828125 340.9573974609375 Z"></path>
<path fill="#0D1D33" fill-opacity="1.0"  filling="0" d="M302.429931640625 397.796630859375 C302.4483642578125 401.5198974609375 299.44293212890625 404.55499267578125 295.7186584472656 404.57135009765625 L281.3396301269531 404.9400634765625 C277.6153564453125 404.95843505859375 274.582275390625 401.95404052734375 274.56488037109375 398.229736328125 L274.56488037109375 398.229736328125 C274.54644775390625 394.50445556640625 277.55084228515625 391.4713134765625 281.275146484375 391.45599365234375 L295.6551818847656 391.0843505859375 C299.3804931640625 391.0689697265625 302.4114990234375 394.0743408203125 302.429931640625 397.796630859375 L302.429931640625 397.796630859375 Z"></path>
<path fill="#B0B0B0" fill-opacity="1.0"  filling="0" d="M450.6068420410156 235.540771484375 C450.80242919921875 235.951416015625 450.6273193359375 236.44287109375 450.21771240234375 236.6405029296875 L335.06689453125 290.38311767578125 C334.65728759765625 290.57769775390625 334.16473388671875 290.4066162109375 333.9681396484375 289.99395751953125 L333.9681396484375 289.99395751953125 C333.77154541015625 289.58233642578125 333.9466247558594 289.0908203125 334.3551940917969 288.8931884765625 L449.50604248046875 235.1536865234375 C449.91668701171875 234.95501708984375 450.40924072265625 235.1280517578125 450.6068420410156 235.540771484375 L450.6068420410156 235.540771484375 Z"></path>
<path fill="#0D1D33" fill-opacity="1.0"  filling="0" d="M341.4208068847656 286.56976318359375 C341.9942626953125 287.841552734375 341.427978515625 289.3406982421875 340.1551513671875 289.9151611328125 L318.0889587402344 299.5888671875 C316.81512451171875 300.16436767578125 315.31597900390625 299.5980224609375 314.7425537109375 298.3232421875 L314.7425537109375 298.3232421875 C314.16705322265625 297.0504150390625 314.7353515625 295.55224609375 316.0081787109375 294.97882080078125 L338.0743713378906 285.30303955078125 C339.34820556640625 284.72857666015625 340.8453369140625 285.29486083984375 341.4208068847656 286.56976318359375 L341.4208068847656 286.56976318359375 Z"></path>
<path fill="#0D1D33" fill-opacity="1.0"  filling="0" d="M333.69573974609375 278.7043762207031 L333.69573974609375 278.7043762207031 C336.5189208984375 277.29022216796875 339.9513854980469 278.4320068359375 341.3675537109375 281.254150390625 L345.6161193847656 289.7369384765625 C347.02923583984375 292.56219482421875 345.88751220703125 295.99462890625 343.0653381347656 297.40673828125 L343.0653381347656 297.40673828125 L333.69573974609375 278.7043762207031 Z"></path>
<path fill="#D9A570" fill-opacity="1.0"  filling="0" d="M320.02020263671875 294.8529052734375 C317.82989501953125 290.99444580078125 319.1825866699219 286.09051513671875 323.041015625 283.90020751953125 L323.041015625 283.90020751953125 C326.9004821777344 281.70880126953125 331.805419921875 283.06146240234375 333.9947509765625 286.9209289550781 L335.12725830078125 288.917724609375 C337.317626953125 292.775146484375 333.6998291015625 293.6865234375 329.83935546875 295.8768310546875 L330.21826171875 296.54351806640625 C326.3587646484375 298.7327880859375 323.3441162109375 300.70703125 321.15277099609375 296.84967041015625 L320.02020263671875 294.8529052734375 Z"></path>
<path fill="#FFC489" fill-opacity="1.0"  filling="0" d="M319.79290771484375 294.451416015625 C319.24713134765625 293.48687744140625 319.583984375 292.2601318359375 320.5475769042969 291.71124267578125 L320.5475769042969 291.71124267578125 C321.5132141113281 291.1633605957031 322.73895263671875 291.50335693359375 323.2857666015625 292.46795654296875 L326.63934326171875 298.371337890625 C327.1861572265625 299.3380126953125 326.8492736816406 300.56365966796875 325.8836669921875 301.111572265625 L325.8836669921875 301.111572265625 C324.91802978515625 301.6583251953125 323.6922607421875 301.3194580078125 323.1454772949219 300.35687255859375 L319.79290771484375 294.451416015625 Z"></path>
<path fill="#EDB47B" fill-opacity="1.0"  filling="0" d="M325.1197509765625 289.3683166503906 C323.7864990234375 287.02032470703125 324.37835693359375 283.2652282714844 327.08685302734375 282.6324157714844 C331.0364074707031 281.7098388671875 334.92144775390625 284.42138671875 337.07086181640625 288.205078125 C338.40411376953125 290.55413818359375 334.33270263671875 289.759521484375 331.9139709472656 291.1336669921875 C329.4932556152344 292.5068359375 326.45196533203125 291.7164001464844 325.1197509765625 289.3683166503906 Z"></path>
<path fill="#FFC489" fill-opacity="1.0"  filling="0" d="M330.2735290527344 288.50201416015625 C329.7267150878906 287.53741455078125 330.0636291503906 286.31170654296875 331.02923583984375 285.764892578125 L331.02923583984375 285.764892578125 C331.99285888671875 285.21600341796875 333.2196044921875 285.553955078125 333.7674560546875 286.5195617675781 L337.117919921875 292.426025390625 C337.66680908203125 293.3895263671875 337.32989501953125 294.6163330078125 336.3632507324219 295.1641845703125 L336.3632507324219 295.1641845703125 C335.3996887207031 295.7099609375 334.1729431152344 295.373046875 333.62713623046875 294.4095458984375 L330.2735290527344 288.50201416015625 Z"></path>
<path fill="#FFC489" fill-opacity="1.0"  filling="0" d="M323.2857666015625 292.468994140625 C322.7379150390625 291.5043640136719 323.0758361816406 290.2766418457031 324.0414733886719 289.7308349609375 L324.0414733886719 289.7308349609375 C325.0040283203125 289.1829833984375 326.23077392578125 289.5198974609375 326.77862548828125 290.4845275878906 L330.1322021484375 296.388916015625 C330.6800537109375 297.3544921875 330.34112548828125 298.58123779296875 329.3764953613281 299.1290283203125 L329.3764953613281 299.1290283203125 C328.41290283203125 299.67694091796875 327.1851806640625 299.3389892578125 326.6383361816406 298.37237548828125 L323.2857666015625 292.468994140625 Z"></path>
<path fill="#FFC489" fill-opacity="1.0"  filling="0" d="M326.7796630859375 290.4855041503906 C326.23077392578125 289.5208740234375 326.57073974609375 288.29412841796875 327.536376953125 287.7473449707031 L327.536376953125 287.7473449707031 C328.4999694824219 287.2015380859375 329.7267150878906 287.53741455078125 330.2735290527344 288.50201416015625 L333.6261291503906 294.408447265625 C334.1729431152344 295.3720703125 333.8360290527344 296.59881591796875 332.8714599609375 297.14453125 L332.8714599609375 297.14453125 C331.90679931640625 297.6923828125 330.68109130859375 297.3544921875 330.13323974609375 296.388916015625 L326.7796630859375 290.4855041503906 Z"></path>
<path fill="#EDB47B" fill-opacity="1.0"  filling="0" d="M328.3084716796875 293.1776123046875 C327.8333435058594 292.34100341796875 328.12725830078125 291.2760925292969 328.9648742675781 290.802978515625 L334.69415283203125 287.5517578125 C335.53076171875 287.0755615234375 336.5936584472656 287.367431640625 337.06982421875 288.205078125 L337.06982421875 288.205078125 C337.54595947265625 289.04473876953125 337.2520751953125 290.107666015625 336.4144592285156 290.5817565917969 L330.68414306640625 293.833984375 C329.84857177734375 294.3111572265625 328.7825927734375 294.0162353515625 328.3084716796875 293.1776123046875 L328.3084716796875 293.1776123046875 Z"></path>
<path fill="#C7C7C7" fill-opacity="1.0"  filling="0" d="M248.74061584472656 328.07958984375 C248.74061584472656 337.1839599609375 243.2632293701172 344.56396484375 236.505859375 344.56396484375 L220.6543426513672 344.56396484375 C213.89697265625 344.56396484375 208.41751098632812 337.1839599609375 208.41751098632812 328.07958984375 L201.41748046875 261.62200927734375 C201.41748046875 252.51861572265625 208.79641723632812 248.11749267578125 217.90182495117188 248.11749267578125 L239.2583770751953 248.11749267578125 C248.36276245117188 248.11749267578125 255.7427215576172 255.49850463867188 255.7427215576172 264.60186767578125 L248.74061584472656 328.07958984375 Z"></path>
<path fill="#EDB47B" fill-opacity="1.0"  filling="0" d="M235.7091827392578 249.7425537109375 C235.7091827392578 253.68194580078125 232.51736450195312 256.8737487792969 228.57908630371094 256.8737487792969 L228.57908630371094 256.8737487792969 C224.64076232910156 256.8737487792969 221.44793701171875 253.68194580078125 221.44793701171875 249.7425537109375 L221.44793701171875 229.24310302734375 C221.44793701171875 225.3038330078125 224.64076232910156 222.11203002929688 228.57908630371094 222.11203002929688 L228.57908630371094 222.11203002929688 C232.51736450195312 222.11203002929688 235.7091827392578 225.3038330078125 235.7091827392578 229.24310302734375 L235.7091827392578 249.7425537109375 Z"></path>
<path fill="#FFC489" fill-opacity="1.0"  filling="0" d="M274.5638427734375 213.91082763671875 C274.5638427734375 230.82623291015625 260.85247802734375 244.53863525390625 243.9390869140625 244.53863525390625 L243.9390869140625 244.53863525390625 C227.02362060546875 244.53863525390625 213.312255859375 230.82623291015625 213.312255859375 213.91082763671875 L213.312255859375 190.42538452148438 C213.312255859375 173.51092529296875 227.02362060546875 159.79852294921875 243.9390869140625 159.79852294921875 L243.9390869140625 159.79852294921875 C260.85247802734375 159.79852294921875 274.5638427734375 173.51092529296875 274.5638427734375 190.42538452148438 L274.5638427734375 213.91082763671875 Z"></path>
<path fill="#26180A" fill-opacity="1.0"  filling="0" d="M242.19827270507812 201.518310546875 C242.19827270507812 203.21710205078125 240.82406616210938 204.59237670898438 239.12525939941406 204.59237670898438 L239.12525939941406 204.59237670898438 C237.4274444580078 204.59237670898438 236.05018615722656 203.21710205078125 236.05018615722656 201.518310546875 L236.05018615722656 197.57492065429688 C236.05018615722656 195.87811279296875 237.4274444580078 194.50189208984375 239.12525939941406 194.50189208984375 L239.12525939941406 194.50189208984375 C240.82305908203125 194.50189208984375 242.19827270507812 195.87811279296875 242.19827270507812 197.57492065429688 L242.19827270507812 201.518310546875 Z"></path>
<path fill="#26180A" fill-opacity="1.0"  filling="0" d="M268.77313232421875 201.518310546875 C268.77313232421875 203.21710205078125 267.3968505859375 204.59237670898438 265.69805908203125 204.59237670898438 L265.69805908203125 204.59237670898438 C264.00128173828125 204.59237670898438 262.6250305175781 203.21710205078125 262.6250305175781 201.518310546875 L262.6250305175781 197.57492065429688 C262.6250305175781 195.87811279296875 264.00128173828125 194.50189208984375 265.69805908203125 194.50189208984375 L265.69805908203125 194.50189208984375 C267.3968505859375 194.50189208984375 268.77313232421875 195.87811279296875 268.77313232421875 197.57492065429688 L268.77313232421875 201.518310546875 Z"></path>
<path fill="#ED997B" fill-opacity="1.0"  filling="0" d="M257.7999267578125 216.6766357421875 C257.7999267578125 218.36517333984375 256.4298095703125 219.736328125 254.73919677734375 219.736328125 L254.73919677734375 219.736328125 C253.05062866210938 219.736328125 251.67947387695312 218.36517333984375 251.67947387695312 216.6766357421875 L251.67947387695312 212.30718994140625 C251.67947387695312 210.62069702148438 253.04959106445312 209.24957275390625 254.73919677734375 209.24957275390625 L254.73919677734375 209.24957275390625 C256.42877197265625 209.24957275390625 257.7999267578125 210.62069702148438 257.7999267578125 212.30718994140625 L257.7999267578125 216.6766357421875 Z"></path>
<path fill="#FFFFFF" fill-opacity="1.0"  filling="0" d="M253.34861755371094 231.36895751953125 C252.0993194580078 235.19561767578125 247.9828338623047 237.28460693359375 244.15411376953125 236.03530883789062 C240.32742309570312 234.78497314453125 238.23744201660156 230.6705322265625 239.48776245117188 226.8408203125 L253.34861755371094 231.36895751953125 Z"></path>
<path fill="#523416" fill-opacity="1.0"  filling="0" d="M221.44894409179688 204.4459228515625 C221.44894409179688 205.68499755859375 220.4444122314453 206.68850708007812 219.20538330078125 206.68850708007812 L219.20538330078125 206.68850708007812 C217.96533203125 206.68850708007812 216.9617919921875 205.68499755859375 216.9617919921875 204.4459228515625 L216.9617919921875 184.4820556640625 C216.9617919921875 183.24301147460938 217.96533203125 182.2374267578125 219.20538330078125 182.2374267578125 L219.20538330078125 182.2374267578125 C220.4444122314453 182.2374267578125 221.44894409179688 183.24301147460938 221.44894409179688 184.4820556640625 L221.44894409179688 204.4459228515625 Z"></path>
<path fill="#523416" fill-opacity="1.0"  filling="0" d="M210.02520751953125 203.68719482421875 C210.02520751953125 203.68719482421875 218.80294799804688 204.6497802734375 219.41119384765625 195.06198120117188 C220.02049255371094 185.47531127929688 238.1749725341797 174.6639404296875 256.53326416015625 182.41455078125 C274.8915100097656 190.166259765625 287.33416748046875 181.39569091796875 285.2943420410156 164.2601318359375 C285.2943420410156 164.2601318359375 281.01092529296875 169.97195434570312 272.2393798828125 163.64874267578125 C265.60076904296875 158.86053466796875 246.61886596679688 146.56741333007812 226.54847717285156 157.69927978515625 C206.63168334960938 168.75030517578125 206.55792236328125 185.5889892578125 210.02520751953125 203.68719482421875 Z"></path>
<path fill="#FFC489" fill-opacity="1.0"  filling="0" d="M216.96075439453125 207.14520263671875 C216.96075439453125 209.998046875 214.64859008789062 212.30828857421875 211.7967529296875 212.30828857421875 L211.7967529296875 212.30828857421875 C208.94387817382812 212.30828857421875 206.63168334960938 209.998046875 206.63168334960938 207.14520263671875 L206.63168334960938 200.22607421875 C206.63168334960938 197.375244140625 208.94284057617188 195.06198120117188 211.7967529296875 195.06198120117188 L211.7967529296875 195.06198120117188 C214.64959716796875 195.06198120117188 216.96075439453125 197.375244140625 216.96075439453125 200.22607421875 L216.96075439453125 207.14520263671875 Z"></path>
<path fill="#B0B0B0" fill-opacity="1.0"  filling="0" d="M217.9683837890625 340.9573974609375 C206.1790771484375 343.5225830078125 191.673095703125 352.654541015625 181.25799560546875 364.84326171875 C171.49517822265625 376.2711181640625 163.70870971679688 389.134521484375 160.47897338867188 393.3626708984375 C156.54681396484375 393.380126953125 154.45480346679688 393.085205078125 150.52056884765625 392.63873291015625 C154.14450073242188 381.7576904296875 166.72128295898438 364.28924560546875 176.47280883789062 354.63916015625 C187.16751098632812 344.053955078125 199.283447265625 333.881591796875 211.62368774414062 330.7451171875 C211.62368774414062 330.7451171875 219.50439453125 328.58648681640625 221.01377868652344 333.9840087890625 C222.6357879638672 339.7911376953125 217.9683837890625 340.9573974609375 217.9683837890625 340.9573974609375 Z"></path>
<path fill="#0D1D33" fill-opacity="1.0"  filling="0" d="M135.84255981445312 397.796630859375 C135.8240966796875 401.5198974609375 138.83059692382812 404.55499267578125 142.55386352539062 404.57135009765625 L156.93289184570312 404.9400634765625 C160.65716552734375 404.95843505859375 163.69024658203125 401.95404052734375 163.70767211914062 398.229736328125 L163.70767211914062 398.229736328125 C163.72607421875 394.50445556640625 160.7216796875 391.4713134765625 156.99636840820312 391.45599365234375 L142.61630249023438 391.0843505859375 C138.89306640625 391.0689697265625 135.86099243164062 394.0743408203125 135.84255981445312 397.796630859375 L135.84255981445312 397.796630859375 Z"></path>
<path fill="#D9D9D9" fill-opacity="1.0"  filling="0" d="M134.06692504882812 256.31976318359375 C139.73583984375 261.0301513671875 144.14926147460938 264.86810302734375 151.24862670898438 267.79571533203125 C170.12200927734375 275.5811767578125 191.23892211914062 274.1988220214844 202.41995239257812 257.1195068359375 C204.17202758789062 254.44580078125 207.78982543945312 253.7198486328125 210.46246337890625 255.47186279296875 C213.1361083984375 257.22296142578125 213.88571166992188 260.8079833984375 212.13156127929688 263.47955322265625 C197.44024658203125 285.923583984375 168.82766723632812 290.1926574707031 144.8885498046875 277.50836181640625 C139.04974365234375 274.41583251953125 136.12313842773438 271.89483642578125 127.22357177734375 266.0220947265625 C128.49945068359375 262.35931396484375 132.61801147460938 259.9089050292969 134.06692504882812 256.31976318359375 Z"></path>
<path fill="#D9A570" fill-opacity="1.0"  filling="0" d="M118.46224975585938 265.8849182128906 C122.382080078125 269.65118408203125 128.61209106445312 269.5262451171875 132.37628173828125 265.6084289550781 L132.37628173828125 265.6084289550781 C136.1395263671875 261.68548583984375 136.0135498046875 255.45550537109375 132.09677124023438 251.69427490234375 L130.06619262695312 249.7425537109375 C126.14730834960938 245.9814453125 123.97543334960938 250.002685546875 120.210205078125 253.91952514648438 L119.53433227539062 253.27337646484375 C115.76806640625 257.18914794921875 112.51583862304688 260.174072265625 116.43569946289062 263.94036865234375 L118.46224975585938 265.8849182128906 Z"></path>
<path fill="#FFC489" fill-opacity="1.0"  filling="0" d="M118.87179565429688 266.27813720703125 C119.85073852539062 267.21710205078125 121.40521240234375 267.19049072265625 122.34930419921875 266.2105407714844 L122.34930419921875 266.2105407714844 C123.2913818359375 265.22955322265625 123.26068115234375 263.66998291015625 122.27862548828125 262.72894287109375 L116.28005981445312 256.9658508300781 C115.30215454101562 256.0289306640625 113.74566650390625 256.05657958984375 112.80255126953125 257.03656005859375 L112.80255126953125 257.03656005859375 C111.86148071289062 258.0185852050781 111.89117431640625 259.573974609375 112.8721923828125 260.51507568359375 L118.87179565429688 266.27813720703125 Z"></path>
<path fill="#EDB47B" fill-opacity="1.0"  filling="0" d="M126.51290893554688 261.4909362792969 C128.89776611328125 263.7816162109375 133.533447265625 264.21270751953125 135.10324096679688 261.18988037109375 C137.3887939453125 256.779541015625 135.34487915039062 251.34716796875 131.49874877929688 247.65264892578125 C129.11489868164062 245.364990234375 128.82818603515625 250.4368896484375 126.46578979492188 252.89239501953125 C124.10650634765625 255.3489990234375 124.126953125 259.19818115234375 126.51290893554688 261.4909362792969 Z"></path>
<path fill="#FFC489" fill-opacity="1.0"  filling="0" d="M129.09542846679688 255.63165283203125 C130.076416015625 256.5757751464844 131.63082885742188 256.54498291015625 132.57498168945312 255.56405639648438 L132.57498168945312 255.56405639648438 C133.5150146484375 254.58612060546875 133.48223876953125 253.02655029296875 132.50430297851562 252.08648681640625 L126.50570678710938 246.32241821289062 C125.52471923828125 245.3834228515625 123.96722412109375 245.41107177734375 123.02719116210938 246.39413452148438 L123.02719116210938 246.39413452148438 C122.0841064453125 247.373046875 122.11785888671875 248.9305419921875 123.09683227539062 249.87054443359375 L129.09542846679688 255.63165283203125 Z"></path>
<path fill="#FFC489" fill-opacity="1.0"  filling="0" d="M122.27862548828125 262.72894287109375 C123.26068115234375 263.66998291015625 124.81817626953125 263.64031982421875 125.755126953125 262.6644287109375 L125.755126953125 262.6644287109375 C126.69723510742188 261.67938232421875 126.66754150390625 260.1239013671875 125.6844482421875 259.1828918457031 L119.68896484375 253.42083740234375 C118.708984375 252.48077392578125 117.1514892578125 252.50946044921875 116.20941162109375 253.490478515625 L116.20941162109375 253.490478515625 C115.26937866210938 254.471435546875 115.30215454101562 256.0289306640625 116.28005981445312 256.9669494628906 L122.27862548828125 262.72894287109375 Z"></path>
<path fill="#FFC489" fill-opacity="1.0"  filling="0" d="M125.6844482421875 259.1817932128906 C126.66650390625 260.1239013671875 128.22503662109375 260.09320068359375 129.1650390625 259.1121826171875 L129.1650390625 259.1121826171875 C130.10711669921875 258.13226318359375 130.07534790039062 256.5757751464844 129.09542846679688 255.63262939453125 L123.09786987304688 249.87265014648438 C122.11785888671875 248.93157958984375 120.5614013671875 248.96124267578125 119.61929321289062 249.94329833984375 L119.61929321289062 249.94329833984375 C118.68032836914062 250.92327880859375 118.71002197265625 252.48077392578125 119.69000244140625 253.42083740234375 L125.6844482421875 259.1817932128906 Z"></path>
<path fill="#EDB47B" fill-opacity="1.0"  filling="0" d="M122.95144653320312 256.5531921386719 C123.80133056640625 257.369384765625 125.15200805664062 257.34271240234375 125.96914672851562 256.49176025390625 L131.55816650390625 250.67236328125 C132.37734985351562 249.82241821289062 132.34970092773438 248.47280883789062 131.49771118164062 247.65264892578125 L131.49771118164062 247.65264892578125 C130.64675903320312 246.83648681640625 129.296142578125 246.86517333984375 128.47894287109375 247.715087890625 L122.88894653320312 253.5355224609375 C122.07180786132812 254.38742065429688 122.10150146484375 255.737060546875 122.95144653320312 256.5531921386719 L122.95144653320312 256.5531921386719 Z"></path>
<path fill="#214C85" fill-opacity="1.0"  filling="0" d="M276.6200256347656 230.53546142578125 C276.6200256347656 242.33599853515625 267.05279541015625 251.90423583984375 255.25018310546875 251.90423583984375 L248.10879516601562 251.90423583984375 C236.30618286132812 251.90423583984375 226.7389373779297 242.33599853515625 226.7389373779297 230.53546142578125 L226.7389373779297 187.9656982421875 C226.7389373779297 176.16302490234375 236.30618286132812 166.59478759765625 248.10879516601562 166.59478759765625 L255.25018310546875 166.59478759765625 C267.05279541015625 166.59478759765625 276.6200256347656 176.16302490234375 276.6200256347656 187.9656982421875 L276.6200256347656 230.53546142578125 Z"></path>
<path fill="#D9D9D9" fill-opacity="1.0"  filling="0" d="M276.50738525390625 228.52020263671875 C276.50738525390625 239.20663452148438 267.84539794921875 247.86764526367188 257.1589050292969 247.86764526367188 L250.69439697265625 247.86764526367188 C240.0079345703125 247.86764526367188 231.34591674804688 239.20663452148438 231.34591674804688 228.52020263671875 L231.34591674804688 189.9788818359375 C231.34591674804688 179.29241943359375 240.0079345703125 170.63241577148438 250.69439697265625 170.63241577148438 L257.1589050292969 170.63241577148438 C267.84539794921875 170.63241577148438 276.50738525390625 179.29345703125 276.50738525390625 189.9788818359375 L276.50738525390625 228.52020263671875 Z"></path>
<path fill="#0D1D33" fill-opacity="1.0"  filling="0" d="M233.03756713867188 172.81768798828125 L215.50054931640625 166.50469970703125 L211.19052124023438 172.81768798828125 L228.57908630371094 178.4425048828125 L233.03756713867188 172.81768798828125 Z"></path>
<path fill="#0D1D33" fill-opacity="1.0"  filling="0" d="M227.088134765625 212.30828857421875 L212.84939575195312 217.28997802734375 L214.98446655273438 223.88967895507812 L226.4409637451172 219.73736572265625 L227.088134765625 212.30828857421875 Z"></path></svg>