<svg xmlns="http://www.w3.org/2000/svg" viewBox="0.0 0.0 512.0 512.0" height="512.0px" width="512.0px"><path fill="#53291B" fill-opacity="1.0"  filling="0" d="M277.2131652832031 432.0502014160156 C284.9742736816406 433.9696044921875 292.67144775390625 436.140869140625 300.291259765625 438.5616455078125 C301.6060791015625 438.97943115234375 302.9381103515625 439.4144287109375 304.07720947265625 440.1922607421875 C305.83685302734375 441.3940124511719 306.9894714355469 443.3318176269531 307.63702392578125 445.36181640625 C308.28460693359375 447.39300537109375 308.47509765625 449.5360412597656 308.63482666015625 451.60162353515625 C293.2318115234375 451.4075012207031 277.82879638671875 451.21331787109375 262.6297607421875 450.7943115234375 C262.8165283203125 445.41094970703125 263.0021057128906 440.027587890625 263.1888732910156 434.64300537109375 C263.202392578125 434.2534484863281 263.2208251953125 433.845458984375 263.42236328125 433.5124816894531 C263.6300048828125 433.16839599609375 263.9998779296875 432.95953369140625 264.36114501953125 432.7825927734375 C267.9775085449219 431.01556396484375 272.23162841796875 430.8189392089844 277.2131652832031 432.0502014160156 Z"></path>
<path fill="#2F1207" fill-opacity="1.0"  filling="0" d="M293.18511962890625 436.3829345703125 C293.91748046875 436.5992431640625 294.64984130859375 436.81793212890625 295.3797607421875 437.03912353515625 C294.69287109375 438.2445983886719 294.0612487792969 439.48077392578125 293.4886474609375 440.74517822265625 C293.140869140625 441.51446533203125 292.7992858886719 442.31561279296875 292.1922607421875 442.9017639160156 C292.09271240234375 442.99755859375 291.97967529296875 443.09100341796875 291.84326171875 443.1131286621094 C291.5876770019531 443.1561279296875 291.359130859375 442.9386291503906 291.2362365722656 442.70880126953125 C290.80126953125 441.8978271484375 291.11090087890625 440.9012451171875 291.4586486816406 440.0496826171875 C291.9686279296875 438.79876708984375 292.5448913574219 437.5736999511719 293.18511962890625 436.3829345703125 Z"></path>
<path fill="#2F1207" fill-opacity="1.0"  filling="0" d="M288.01434326171875 434.8961181640625 C288.8167419433594 435.1197509765625 289.61669921875 435.3470764160156 290.4178466796875 435.576904296875 C289.3770751953125 437.1767578125 288.36083984375 438.7926330566406 287.36798095703125 440.42327880859375 C287.36798095703125 440.42327880859375 286.83221435546875 440.8471984863281 286.953857421875 440.8890075683594 C286.69830322265625 441.06591796875 286.435302734375 441.24658203125 286.1318054199219 441.31414794921875 C285.8282775878906 441.38177490234375 285.47314453125 441.3079833984375 285.29132080078125 441.05731201171875 C285.1426086425781 440.85089111328125 285.14385986328125 440.59039306640625 285.14508056640625 440.31390380859375 C285.14630126953125 440.1713562011719 285.14752197265625 440.02386474609375 285.12786865234375 439.877685546875 C285.97943115234375 438.328125 286.83221435546875 436.77862548828125 287.769775390625 435.2795104980469 C287.84967041015625 435.1517028808594 287.9307556152344 435.022705078125 288.01434326171875 434.8961181640625 Z"></path>
<path fill="#2F1207" fill-opacity="1.0"  filling="0" d="M308.3165588378906 448.4547119140625 C308.4664611816406 449.50775146484375 308.5549621582031 450.5645751953125 308.63482666015625 451.60162353515625 C293.2318115234375 451.4075012207031 277.82879638671875 451.21331787109375 262.6297607421875 450.7943115234375 L262.7379150390625 447.66705322265625 C277.9307861328125 447.886962890625 293.1249084472656 448.14996337890625 308.3165588378906 448.4547119140625 Z"></path>
<path fill="#53291B" fill-opacity="1.0"  filling="0" d="M203.8894500732422 432.0502014160156 C196.12832641601562 433.9696044921875 188.43113708496094 436.140869140625 180.8113555908203 438.5616455078125 C179.4965362548828 438.97943115234375 178.16452026367188 439.4144287109375 177.02540588378906 440.1922607421875 C175.26576232910156 441.3940124511719 174.1131591796875 443.3318176269531 173.46681213378906 445.36181640625 C172.81922912597656 447.39300537109375 172.62876892089844 449.5360412597656 172.46902465820312 451.60162353515625 C187.87203979492188 451.4075012207031 203.27503967285156 451.21331787109375 218.47406005859375 450.7943115234375 C218.28729248046875 445.41094970703125 218.10052490234375 440.027587890625 217.91497802734375 434.64300537109375 C217.9014434814453 434.2534484863281 217.88302612304688 433.845458984375 217.68148803710938 433.5124816894531 C217.47381591796875 433.16839599609375 217.1039581298828 432.95953369140625 216.74267578125 432.7825927734375 C213.12510681152344 431.01556396484375 208.87100219726562 430.8189392089844 203.8894500732422 432.0502014160156 Z"></path>
<path fill="#2F1207" fill-opacity="1.0"  filling="0" d="M190.68475341796875 435.576904296875 C191.48594665527344 435.3470764160156 192.285888671875 435.1197509765625 193.08828735351562 434.8961181640625 C193.17184448242188 435.022705078125 193.25294494628906 435.1517028808594 193.33282470703125 435.2795104980469 C194.27040100097656 436.77862548828125 195.12318420410156 438.328125 195.9747314453125 439.877685546875 C195.955078125 440.02264404296875 195.95631408691406 440.1689147949219 195.95753479003906 440.31146240234375 C195.95875549316406 440.589111328125 195.9612274169922 440.8496398925781 195.81129455566406 441.05731201171875 C195.6294403076172 441.3079833984375 195.27432250976562 441.38177490234375 194.9708251953125 441.31414794921875 C194.6672821044922 441.24658203125 194.4043426513672 441.06591796875 194.14874267578125 440.8890075683594 C194.27040100097656 440.8471984863281 193.73463439941406 440.42327880859375 193.73463439941406 440.42327880859375 C192.74176025390625 438.7926330566406 191.72555541992188 437.1767578125 190.68475341796875 435.576904296875 Z"></path>
<path fill="#2F1207" fill-opacity="1.0"  filling="0" d="M185.72286987304688 437.03912353515625 C186.45277404785156 436.81793212890625 187.18515014648438 436.5992431640625 187.91751098632812 436.3829345703125 C188.5576934814453 437.5736999511719 189.13401794433594 438.79876708984375 189.64395141601562 440.0496826171875 C189.99172973632812 440.9012451171875 190.3013458251953 441.8978271484375 189.8663787841797 442.70880126953125 C189.74349975585938 442.9386291503906 189.5149383544922 443.1561279296875 189.2593536376953 443.1131286621094 C189.12295532226562 443.09100341796875 189.00990295410156 442.99755859375 188.91036987304688 442.9017639160156 C188.30332946777344 442.31561279296875 187.9629669189453 441.51446533203125 187.61398315429688 440.74517822265625 C187.04136657714844 439.48077392578125 186.40975952148438 438.2445983886719 185.72286987304688 437.03912353515625 Z"></path>
<path fill="#2F1207" fill-opacity="1.0"  filling="0" d="M218.36593627929688 447.66705322265625 L218.47406005859375 450.7943115234375 C203.27503967285156 451.21331787109375 187.87203979492188 451.4075012207031 172.46902465820312 451.60162353515625 C172.54888916015625 450.5645751953125 172.6373748779297 449.50775146484375 172.78729248046875 448.4547119140625 C187.97894287109375 448.14874267578125 203.17181396484375 447.886962890625 218.36593627929688 447.66705322265625 Z"></path>
<path fill="#2E3E47" fill-opacity="1.0"  filling="0" d="M225.1009979248047 264.145751953125 C221.78321838378906 276.971923828125 218.46546936035156 289.79693603515625 215.2521514892578 302.6501770019531 C204.81103515625 344.4244689941406 195.4844512939453 386.47772216796875 186.91357421875 428.44854736328125 C197.79212951660156 432.5589599609375 209.2605438232422 435.1062316894531 220.72030639648438 435.3765869140625 C224.50131225585938 418.7828369140625 224.86383056640625 414.094970703125 228.5416259765625 401.1065673828125 C231.80409240722656 389.5853576660156 233.08082580566406 377.5959167480469 235.76329040527344 365.926025390625 C242.2476806640625 337.7201232910156 248.73081970214844 309.5155029296875 254.9325714111328 282.14398193359375 C257.7145690917969 304.65069580078125 258.09796142578125 327.3760986328125 258.4776611328125 350.0499267578125 C258.9593505859375 378.7792663574219 259.4398193359375 407.50738525390625 259.57867431640625 436.140869140625 C270.5235595703125 436.4751281738281 281.51763916015625 435.17138671875 291.8666076660156 432.21856689453125 C291.62945556640625 380.5081787109375 290.3011169433594 328.803955078125 287.881591796875 277.1501159667969 C287.6358642578125 271.9105224609375 287.3409423828125 266.5136413574219 285.0946960449219 261.7729187011719 C280.4117431640625 251.89584350585938 268.74920654296875 247.6036376953125 257.9971923828125 245.6326446533203 C251.81631469726562 244.49969482421875 245.30862426757812 243.83982849121094 239.35630798339844 245.85260009765625 C233.40399169921875 247.8641357421875 227.95057678222656 253.12954711914062 225.1009979248047 264.145751953125 Z"></path>
<path fill="#12191C" fill-opacity="1.0"  filling="0" d="M250.03701782226562 262.5335693359375 C250.01368713378906 264.85845947265625 250.06405639648438 267.0530700683594 250.44622802734375 269.22930908203125 C250.52362060546875 269.7674865722656 250.63914489746094 270.3278503417969 250.7620086669922 270.8341064453125 C250.86892700195312 271.3379211425781 251.05938720703125 271.6291198730469 251.43173217773438 271.89208984375 C252.20216369628906 272.39959716796875 253.53665161132812 272.41064453125 254.53689575195312 273.0447082519531 C253.38674926757812 272.8837585449219 252.3004913330078 273.25238037109375 250.9868927001953 272.742431640625 C250.3184356689453 272.4991149902344 249.8170928955078 271.7667541503906 249.64627075195312 271.1658630371094 C249.4631805419922 270.5736083984375 249.34152221679688 270.0169372558594 249.23463439941406 269.4295654296875 C248.86105346679688 267.1071472167969 249.0589141845703 264.65814208984375 250.03701782226562 262.5335693359375 Z"></path>
<path fill="#12191C" fill-opacity="1.0"  filling="0" d="M255.80133056640625 262.82232666015625 C256.1589050292969 265.78375244140625 256.1405029296875 268.7279357910156 256.0335693359375 271.669677734375 C255.8885498046875 274.6090087890625 255.65264892578125 277.5445556640625 255.03823852539062 280.4642028808594 C254.67820739746094 277.5027770996094 254.6966552734375 274.5573425292969 254.80601501464844 271.6168518066406 C254.95469665527344 268.6763000488281 255.18939208984375 265.74072265625 255.80133056640625 262.82232666015625 Z"></path>
<path fill="#9E2D2D" fill-opacity="1.0"  filling="0" d="M246.4452362060547 152.2708740234375 L270.616943359375 154.73092651367188 L271.9784851074219 159.23077392578125 L257.2328796386719 160.0552978515625 L242.5364227294922 157.84837341308594 Z"></path>
<path fill="#FFFFFF" fill-opacity="1.0"  filling="0" d="M250.00755310058594 158.90884399414062 C248.00460815429688 157.16641235351562 244.63031005859375 158.61761474609375 243.40643310546875 160.97323608398438 C242.1825408935547 163.32884216308594 242.41233825683594 166.13540649414062 242.47129821777344 168.78961181640625 C242.59295654296875 174.2442626953125 241.86305236816406 179.67678833007812 241.2756805419922 185.1007080078125 C238.54037475585938 210.36854553222656 238.87831115722656 235.85752868652344 238.67431640625 260.91278076171875 C245.45852661132812 262.1673583984375 252.42828369140625 261.7532958984375 259.315673828125 261.33544921875 C261.5484313964844 261.2003173828125 263.7823791503906 261.06390380859375 266.7290344238281 260.78985595703125 C266.13922119140625 253.33108520507812 267.52410888671875 245.87840270996094 268.39410400390625 238.4466094970703 C269.5172119140625 228.85337829589844 269.78631591796875 219.18150329589844 270.0529479980469 209.5268096923828 C270.3343505859375 199.380615234375 270.614501953125 189.23440551757812 270.82586669921875 179.08575439453125 C270.9425964355469 173.49961853027344 270.8774719238281 167.41583251953125 267.4097900390625 163.03392028808594 C265.205322265625 160.2494659423828 261.85687255859375 158.5438995361328 258.3990173339844 157.734130859375 C254.93994140625 156.92556762695312 251.346923828125 156.93783569335938 250.00755310058594 158.90884399414062 Z"></path>
<path fill="#2E3E47" fill-opacity="1.0"  filling="0" d="M243.36341857910156 105.48674011230469 C242.03018188476562 106.20315551757812 240.60108947753906 106.73890686035156 239.30714416503906 107.52531433105469 C238.01321411132812 108.311767578125 236.82742309570312 109.40908813476562 236.34449768066406 110.84431457519531 C235.86158752441406 112.27957153320312 236.26710510253906 114.07975769042969 237.5585479736328 114.87110900878906 C237.83628845214844 115.04191589355469 238.1791229248047 115.202880859375 238.24916076660156 115.52236938476562 C238.3253173828125 115.86888122558594 238.0328826904297 116.17486572265625 237.78221130371094 116.425537109375 C235.33074951171875 118.88558959960938 234.86256408691406 122.85214233398438 235.94760131835938 126.15147399902344 C237.03143310546875 129.45082092285156 239.43495178222656 132.16156005859375 242.09283447265625 134.39549255371094 C244.750732421875 136.6294708251953 247.71212768554688 138.4812774658203 250.1304168701172 140.2679443359375 C251.40467834472656 141.13302612304688 252.9517364501953 141.47830200195312 254.45704650878906 141.806396484375 C258.7983703613281 142.75259399414062 263.3314208984375 143.6962890625 267.6371154785156 142.5940704345703 C268.79217529296875 142.29791259765625 269.9116516113281 141.8580322265625 271.08514404296875 141.64053344726562 C272.5203857421875 141.37387084960938 273.99371337890625 141.44760131835938 275.4510498046875 141.37017822265625 C277.284423828125 141.27186584472656 279.12518310546875 140.9241180419922 280.7865295410156 140.14260864257812 C284.85260009765625 138.23182678222656 287.4527587890625 133.59063720703125 286.9587707519531 129.12518310546875 C286.88751220703125 128.4763641357422 286.75726318359375 127.81159973144531 286.91943359375 127.17999267578125 C287.3778076171875 125.38102722167969 289.82928466796875 124.80963134765625 290.5862121582031 123.11387634277344 C291.24237060546875 121.64302062988281 290.3760986328125 119.95954895019531 289.4225158691406 118.66317749023438 C288.4677734375 117.36557006835938 287.3385009765625 115.98561096191406 287.431884765625 114.37835693359375 C287.47735595703125 113.57839965820312 287.83123779296875 112.82884216308594 287.9836120605469 112.04118347167969 C288.395263671875 109.90675354003906 287.248779296875 107.70596313476562 285.58868408203125 106.30390930175781 C283.9285888671875 104.90061950683594 281.8248596191406 104.15226745605469 279.7506408691406 103.50224304199219 C278.0794677734375 102.97879028320312 276.16375732421875 102.29066467285156 275.59234619140625 100.63545227050781 C275.390869140625 100.05299377441406 275.39208984375 99.42140197753906 275.240966796875 98.82418823242188 C274.86737060546875 97.345947265625 273.578369140625 96.22531127929688 272.14434814453125 95.70796203613281 C270.71038818359375 95.19062805175781 269.14239501953125 95.1943359375 267.62359619140625 95.32582092285156 C263.3302001953125 95.6968994140625 259.1227722167969 97.0498046875 255.41917419433594 99.2530517578125 C254.06748962402344 97.23411560058594 251.44891357421875 96.15156555175781 249.06626892089844 96.62835693359375 C246.68362426757812 97.10511779785156 244.6831512451172 99.11174011230469 244.2125244140625 101.49562072753906 C243.88442993164062 103.15817260742188 244.0232696533203 105.13287353515625 243.36341857910156 105.48674011230469 Z"></path>
<path fill="#12181B" fill-opacity="1.0"  filling="0" d="M246.6713409423828 116.17362976074219 C246.38995361328125 115.21270751953125 246.4219207763672 114.17683410644531 246.66273498535156 113.20606994628906 C246.90359497070312 112.23410034179688 247.345947265625 111.32234191894531 247.8694305419922 110.46954345703125 C247.59786987304688 112.22181701660156 246.67994689941406 113.8892822265625 246.6713409423828 116.17362976074219 Z"></path>
<path fill="#12181B" fill-opacity="1.0"  filling="0" d="M279.67816162109375 123.26502990722656 C280.26922607421875 120.52850341796875 280.62677001953125 117.74034118652344 280.7435302734375 114.94236755371094 C280.84674072265625 116.29774475097656 280.951171875 117.65924072265625 280.8565673828125 119.01585388183594 C280.764404296875 120.3712158203125 280.464599609375 121.73272705078125 279.67816162109375 123.26502990722656 Z"></path>
<path fill="#995049" fill-opacity="1.0"  filling="0" d="M250.495361328125 145.43997192382812 C250.49781799316406 147.24505615234375 250.30860900878906 149.0513916015625 249.93258666992188 150.8172149658203 C249.70648193359375 151.88009643554688 249.382080078125 152.98233032226562 248.606689453125 153.74542236328125 C247.58311462402344 154.75180053710938 246.0176239013672 154.93612670898438 244.58238220214844 154.91278076171875 C243.7762908935547 154.89927673339844 242.79693603515625 154.92752075195312 242.40127563476562 155.63165283203125 C242.16165161132812 156.0580291748047 242.24151611328125 156.58639526367188 242.34474182128906 157.06564331054688 C243.05499267578125 160.3489990234375 244.7052764892578 163.59056091308594 247.54380798339844 165.3870849609375 C248.89793395996094 166.24478149414062 250.4474639892578 166.7313690185547 251.98098754882812 167.19464111328125 C253.0070343017578 167.50552368164062 254.0392303466797 167.81027221679688 255.10214233398438 167.9528045654297 C256.9268798828125 168.1973419189453 258.7774963378906 167.9564971923828 260.60345458984375 167.7168731689453 C261.5201721191406 167.59646606445312 262.4405517578125 167.4748077392578 263.3277282714844 167.2143096923828 C265.60101318359375 166.54827880859375 267.5572814941406 164.97543334960938 268.88433837890625 163.0142822265625 C270.21270751953125 161.05308532714844 273.08441162109375 159.07965087890625 273.3301696777344 156.72402954101562 C272.1357727050781 156.587646484375 269.8674011230469 156.4500274658203 268.6730041503906 156.31362915039062 C267.95416259765625 156.2312774658203 266.4476623535156 155.7532958984375 265.985595703125 155.1966552734375 C265.7767333984375 154.94595336914062 265.30364990234375 154.63137817382812 265.21392822265625 154.31805419921875 C264.6535949707031 152.34214782714844 265.019775390625 150.23721313476562 264.9755554199219 148.18386840820312 C264.97186279296875 148.01797485351562 264.9644775390625 147.84718322753906 264.89813232421875 147.69482421875 C264.80841064453125 147.49331665039062 264.6253356933594 147.35073852539062 264.4471435546875 147.22048950195312 C260.7066955566406 144.4974822998047 255.6870574951172 143.62380981445312 250.495361328125 145.43997192382812 Z"></path>
<path fill="#B3685C" fill-opacity="1.0"  filling="0" d="M279.6756896972656 124.71868896484375 C279.6756896972656 124.71868896484375 281.51763916015625 124.35989379882812 282.4540100097656 125.34049987792969 C283.14337158203125 126.061767578125 283.49359130859375 127.04481506347656 283.66558837890625 128.02662658691406 C283.986328125 129.84527587890625 283.69879150390625 131.8703155517578 282.46014404296875 133.24044799804688 C281.2215270996094 134.61053466796875 278.8978576660156 135.04063415527344 277.4871826171875 133.84869384765625 C277.01409912109375 136.4033660888672 276.1858825683594 138.9150390625 275.0639953613281 141.28662109375 C274.14483642578125 143.2305908203125 273.0143737792969 145.09957885742188 271.501708984375 146.62945556640625 C266.49188232421875 151.69580078125 257.71087646484375 151.918212890625 251.87039184570312 147.83737182617188 C246.02992248535156 143.75653076171875 243.19137573242188 136.1613006591797 243.91268920898438 129.0723419189453 C242.56715393066406 129.47662353515625 240.8284149169922 128.86590576171875 239.83184814453125 127.61375427246094 C238.6448211669922 126.12077331542969 238.58583068847656 124.0023193359375 239.02450561523438 122.14683532714844 C239.3599853515625 120.723876953125 240.0124969482422 119.29232788085938 241.2191619873047 118.46780395507812 C242.42584228515625 117.64328002929688 244.28134155273438 117.65924072265625 245.1832733154297 118.68898010253906 C245.79275512695312 118.10406494140625 246.24618530273438 117.35820007324219 246.69468688964844 116.52383422851562 C248.2724609375 116.49311828613281 249.71017456054688 115.64524841308594 251.00286865234375 114.7408447265625 C253.45555114746094 113.02545166015625 255.69810485839844 111.00897216796875 257.78460693359375 108.60791015625 C258.78729248046875 111.39729309082031 260.4449462890625 113.94950866699219 262.5855407714844 115.9991455078125 C263.4039306640625 116.78311157226562 264.32305908203125 117.51181030273438 265.4080810546875 117.83865356445312 C266.49310302734375 118.16552734375 267.7796630859375 118.02052307128906 268.5943603515625 117.23162841796875 C269.7432861328125 116.11955261230469 269.58233642578125 114.26652526855469 269.3390197753906 112.66049194335938 C270.3380432128906 115.13038635253906 271.35791015625 117.63589477539062 273.0020751953125 119.73222351074219 C274.40411376953125 121.52012634277344 279.69659423828125 123.68650817871094 279.69659423828125 123.68650817871094 L279.6756896972656 124.71868896484375 Z"></path>
<path fill="#8F3E37" fill-opacity="1.0"  filling="0" d="M244.47915649414062 120.55799865722656 C244.23587036132812 119.97306823730469 243.47769165039062 119.78875732421875 242.85101318359375 119.87846374511719 C241.6639862060547 120.04803466796875 240.5764923095703 121.05072021484375 240.54086303710938 122.24882507324219 C240.53961181640625 122.26724243164062 240.53961181640625 122.28691101074219 240.5457763671875 122.30412292480469 C240.58633422851562 122.42330932617188 240.76451110839844 122.315185546875 240.825927734375 122.20458984375 C241.120849609375 121.67005920410156 241.54110717773438 121.12202453613281 242.14442443847656 121.02983093261719 C242.66912841796875 120.94874572753906 243.17543029785156 121.23626708984375 243.70132446289062 121.30386352539062 C243.86106872558594 121.32475280761719 244.02821350097656 121.32351684570312 244.17442321777344 121.25595092773438 C244.3181915283203 121.18959045410156 244.66592407226562 121.00895690917969 244.47915649414062 120.55799865722656 Z"></path>
<path fill="#8F3E37" fill-opacity="1.0"  filling="0" d="M279.23699951171875 127.35693359375 C279.48028564453125 126.77201843261719 280.23846435546875 126.58770751953125 280.8651428222656 126.67741394042969 C282.05218505859375 126.84700012207031 283.1396789550781 127.84968566894531 283.1765441894531 129.0477752685547 C283.1765441894531 129.0662078857422 283.1777648925781 129.08584594726562 283.171630859375 129.1030731201172 C283.1310729980469 129.22225952148438 282.952880859375 129.11289978027344 282.8914489746094 129.00230407714844 C282.5965576171875 128.4677734375 282.17626953125 127.92095947265625 281.57293701171875 127.82756042480469 C281.04949951171875 127.7464599609375 280.5419921875 128.03402709960938 280.01605224609375 128.10159301757812 C279.8563232421875 128.1224822998047 279.689208984375 128.1212615966797 279.54296875 128.0536651611328 C279.39794921875 127.98855590820312 279.05023193359375 127.80792236328125 279.23699951171875 127.35693359375 Z"></path>
<path fill="#2E3E47" fill-opacity="1.0"  filling="0" d="M249.10804748535156 121.76589965820312 C251.12452697753906 120.59361267089844 253.6300506591797 120.88975524902344 255.9500274658203 121.11953735351562 C256.5091247558594 121.17485046386719 257.13458251953125 121.20433044433594 257.56341552734375 120.84184265136719 C258.08197021484375 120.40193176269531 258.0500183105469 119.53684997558594 257.643310546875 118.99127197265625 C257.236572265625 118.4456787109375 256.5644226074219 118.16552734375 255.9033203125 118.00576782226562 C253.1532745361328 117.33976745605469 250.05299377441406 118.49604797363281 248.40887451171875 120.79884338378906 C248.2122802734375 121.07408142089844 248.02793884277344 121.41323852539062 248.1287078857422 121.73641967773438 C248.23068237304688 122.0595703125 248.6435546875 122.03500366210938 249.10804748535156 121.76589965820312 Z"></path>
<path fill="#2E3E47" fill-opacity="1.0"  filling="0" d="M272.71575927734375 125.65995788574219 C271.1134033203125 123.9666748046875 268.6263427734375 123.54151916503906 266.3358154296875 123.10530090332031 C265.78411865234375 123.00083923339844 265.17462158203125 122.85214233398438 264.8662109375 122.38273620605469 C264.49261474609375 121.81382751464844 264.76788330078125 120.99421691894531 265.312255859375 120.58502197265625 C265.8565979003906 120.17706298828125 266.5803527832031 120.09841918945312 267.2598876953125 120.13160705566406 C270.08612060546875 120.27044677734375 272.73297119140625 122.25617980957031 273.65826416015625 124.93006896972656 C273.76885986328125 125.24955749511719 273.84991455078125 125.62680053710938 273.66192626953125 125.90940856933594 C273.47393798828125 126.18959045410156 273.08441162109375 126.04949951171875 272.71575927734375 125.65995788574219 Z"></path>
<path fill="#8F3E37" fill-opacity="1.0"  filling="0" d="M261.2904052734375 123.20974731445312 C260.164794921875 125.04801940917969 259.58111572265625 125.87255859375 258.61895751953125 127.38273620605469 C257.87554931640625 128.5488739013672 257.124755859375 129.7334442138672 256.716796875 131.0543975830078 C256.308837890625 132.3765869140625 256.2805480957031 133.87449645996094 256.95025634765625 135.08485412597656 C257.6199645996094 136.2952423095703 258.56488037109375 136.82362365722656 260.42529296875 136.72776794433594 C260.95245361328125 136.7007293701172 261.8851318359375 136.38125610351562 261.93182373046875 136.6552734375 C262.0387268066406 137.284423828125 259.46929931640625 137.54124450683594 258.1679992675781 137.1357421875 C257.83624267578125 137.0325164794922 257.3606872558594 136.76708984375 257.0829772949219 136.55941772460938 C256.7352294921875 136.29891967773438 256.494384765625 135.9216766357422 256.2952880859375 135.5358428955078 C255.78411865234375 134.54664611816406 255.49534606933594 133.42967224121094 255.5604705810547 132.31759643554688 C255.67108154296875 130.45352172851562 256.7364501953125 128.80078125 257.7686462402344 127.2451171875 C258.74920654296875 125.76689147949219 259.72979736328125 124.28985595703125 260.71038818359375 122.81161499023438 C260.82098388671875 122.64450073242188 260.93896484375 122.47122192382812 261.1122131347656 122.36924743652344 C261.28546142578125 122.26724243164062 261.5324401855469 122.2598876953125 261.6688537597656 122.40733337402344 C261.80645751953125 122.55355834960938 261.4058837890625 123.0205078125 261.2904052734375 123.20974731445312 Z"></path>
<path fill="#2E3E47" fill-opacity="1.0"  filling="0" d="M254.2284698486328 138.48373413085938 C255.77554321289062 140.34658813476562 258.36090087890625 141.28414916992188 260.7423400878906 140.84793090820312 C261.2989807128906 140.74594116210938 261.8531494140625 140.5702362060547 262.315185546875 140.23968505859375 C262.5941162109375 140.04061889648438 262.83251953125 139.78993225097656 263.07830810546875 139.55032348632812 C263.166748046875 139.46307373046875 263.26995849609375 139.37338256835938 263.3928527832031 139.36968994140625 C263.5968322753906 139.36477661132812 263.73077392578125 139.61544799804688 263.682861328125 139.81451416015625 C263.63494873046875 140.01358032226562 263.47027587890625 140.15982055664062 263.3080749511719 140.28514099121094 C262.0952453613281 141.22149658203125 260.54449462890625 141.694580078125 259.013427734375 141.64175415039062 C257.4823303222656 141.59014892578125 255.9819793701172 141.02120971679688 254.77037048339844 140.0823974609375 C254.36610412597656 139.76904296875 253.99008178710938 139.41270446777344 253.7037811279297 138.98751831054688 C253.5759735107422 138.79705810546875 253.4653778076172 138.55007934570312 253.57106018066406 138.34609985351562 C253.67674255371094 138.14212036132812 254.01834106445312 138.2305908203125 254.2284698486328 138.48373413085938 Z"></path>
<path fill="#2E3E47" fill-opacity="1.0"  filling="0" d="M253.5563201904297 124.78384399414062 C253.2564697265625 124.52455139160156 252.75022888183594 124.69659423828125 252.5388641357422 125.03205871582031 C252.3693084716797 125.3011474609375 252.3397979736328 125.63417053222656 252.3287353515625 125.95120239257812 C252.3176727294922 126.27682495117188 252.3262939453125 126.61965942382812 252.49095153808594 126.89984130859375 C252.65562438964844 127.17999267578125 253.02792358398438 127.36430358886719 253.31793212890625 127.21685791015625 C253.5182342529297 127.1148681640625 253.6239013671875 126.8924560546875 253.69271850585938 126.67863464355469 C253.86105346679688 126.1539306640625 254.21493530273438 125.35153198242188 253.5563201904297 124.78384399414062 Z"></path>
<path fill="#2E3E47" fill-opacity="1.0"  filling="0" d="M267.43804931640625 127.69732666015625 C267.243896484375 127.48226928710938 266.8666687011719 127.54495239257812 266.6614685058594 127.75016784667969 C266.45501708984375 127.95536804199219 266.3763732910156 128.25149536132812 266.30511474609375 128.53289794921875 C266.17608642578125 129.04408264160156 266.0679626464844 129.65234375 266.4206237792969 130.04432678222656 C266.499267578125 130.1328125 266.60491943359375 130.20407104492188 266.7216796875 130.2151336669922 C266.90228271484375 130.23110961914062 267.06329345703125 130.10330200195312 267.1837158203125 129.9681396484375 C267.6604919433594 129.43975830078125 268.1446533203125 128.4800567626953 267.43804931640625 127.69732666015625 Z"></path>
<path fill="#A6564E" fill-opacity="1.0"  filling="0" d="M276.4119873046875 137.95779418945312 C276.0273742675781 139.0907440185547 275.576416015625 140.20281982421875 275.0639953613281 141.28662109375 C274.14483642578125 143.2305908203125 273.0143737792969 145.09957885742188 271.501708984375 146.62945556640625 C269.8563232421875 148.29446411132812 267.80303955078125 149.43603515625 265.58135986328125 150.0737762451172 C265.3183898925781 149.72970581054688 265.10455322265625 149.3463134765625 264.9227294921875 148.95309448242188 C263.83642578125 146.60118103027344 263.8647155761719 143.7626495361328 264.9976806640625 141.43283081054688 C266.130615234375 139.10305786132812 268.34613037109375 137.3286590576172 270.8676452636719 136.73146057128906 C272.25128173828125 136.4033660888672 273.75286865234375 136.4267120361328 275.04803466796875 137.0153045654297 C275.55181884765625 137.24386596679688 276.0187683105469 137.56581115722656 276.4119873046875 137.95779418945312 Z"></path>
<path fill="#A6564E" fill-opacity="1.0"  filling="0" d="M248.99867248535156 145.3011016845703 C245.3503875732422 141.28048706054688 243.54405212402344 135.60586547851562 243.83282470703125 130.1156005859375 C244.90554809570312 130.0787353515625 245.99305725097656 130.3466033935547 246.9736328125 130.80126953125 C249.3255615234375 131.88876342773438 251.14292907714844 134.0698699951172 251.78807067871094 136.57908630371094 C252.43441772460938 139.08828735351562 251.8961944580078 141.87521362304688 250.36268615722656 143.96295166015625 C249.9841766357422 144.48028564453125 249.53811645507812 144.96075439453125 248.99867248535156 145.3011016845703 Z"></path>
<path fill="#B3685C" fill-opacity="1.0"  filling="0" d="M299.66705322265625 274.4639587402344 C298.7945861816406 277.5372314453125 299.27996826171875 280.8365173339844 298.7183837890625 283.98101806640625 C298.23919677734375 286.6573791503906 297.02020263671875 289.13336181640625 296.0605163574219 291.677001953125 C295.1007995605469 294.22064208984375 294.38812255859375 296.9891052246094 294.9791564941406 299.643310546875 C295.1376953125 300.35479736328125 295.621826171875 301.19775390625 296.3406982421875 301.0736389160156 C296.72406005859375 301.00732421875 296.9992980957031 300.6767578125 297.22540283203125 300.3597106933594 C298.40875244140625 298.70330810546875 299.2677001953125 296.8171081542969 299.69036865234375 295.1471252441406 C299.81817626953125 296.415283203125 299.9459533691406 297.6956787109375 299.7874755859375 298.9600830078125 C299.6277160644531 300.22454833984375 299.1534118652344 301.489013671875 298.2366943359375 302.37371826171875 C297.66534423828125 302.9242248535156 296.9231262207031 303.33587646484375 296.55816650390625 304.03997802734375 C296.16864013671875 304.7907409667969 296.33941650390625 305.791015625 296.955078125 306.3710021972656 C297.5706787109375 306.9509582519531 298.57952880859375 307.0615539550781 299.439697265625 306.6916809082031 C298.8572692871094 306.82440185546875 298.5599060058594 307.6304931640625 298.916259765625 308.1097412109375 C299.104248046875 308.3628845214844 299.41143798828125 308.50048828125 299.7174377441406 308.58282470703125 C300.50140380859375 308.79296875 301.36279296875 308.6995544433594 302.140625 308.08392333984375 C302.15289306640625 308.83966064453125 302.9823303222656 309.3840026855469 303.735595703125 309.3336486816406 C304.4900817871094 309.28326416015625 305.14501953125 308.80157470703125 305.513671875 308.41082763671875 C306.7510681152344 309.0854187011719 308.30548095703125 308.4439697265625 309.40283203125 307.55926513671875 C311.107177734375 306.1854248046875 312.30401611328125 304.2402648925781 312.957763671875 302.15130615234375 C313.6114501953125 300.0623474121094 313.74169921875 297.83331298828125 313.47015380859375 295.98394775390625 C312.4600830078125 290.5072021484375 311.9771423339844 284.933349609375 312.03369140625 279.3656921386719 C312.0533447265625 277.3799133300781 312.00543212890625 275.08453369140625 310.4472961425781 273.8532409667969 C309.853759765625 273.3838806152344 309.11407470703125 273.1454772949219 308.3902893066406 272.92181396484375 C306.87762451171875 272.4536437988281 305.326904296875 272.005126953125 303.7441711425781 272.04937744140625 C302.1614990234375 272.0923767089844 300.2003479003906 272.58270263671875 299.66705322265625 274.4639587402344 Z"></path>
<path fill="#8F3E37" fill-opacity="1.0"  filling="0" d="M299.401611328125 295.2442321777344 C299.37579345703125 293.5853576660156 299.42987060546875 291.92523193359375 299.5675048828125 290.2712707519531 C300.0086669921875 291.94610595703125 299.8869934082031 293.7622375488281 299.401611328125 295.2442321777344 Z"></path>
<path fill="#8F3E37" fill-opacity="1.0"  filling="0" d="M298.6200866699219 306.7273864746094 C300.3797607421875 305.7209777832031 301.7289733886719 304.0768127441406 302.5682373046875 302.2311706542969 C303.4075012207031 300.385498046875 303.7577209472656 298.344482421875 303.79827880859375 296.31817626953125 C304.2504577636719 298.3923645019531 303.98626708984375 300.6153259277344 303.05853271484375 302.52362060546875 C302.1307678222656 304.4344482421875 300.546875 306.015869140625 298.6200866699219 306.7273864746094 Z"></path>
<path fill="#8F3E37" fill-opacity="1.0"  filling="0" d="M302.19219970703125 307.95367431640625 C305.1499328613281 305.41986083984375 306.94891357421875 301.5823669433594 307.00421142578125 297.68829345703125 C307.46990966796875 301.81829833984375 305.4903259277344 306.13262939453125 302.19219970703125 307.95367431640625 Z"></path>
<path fill="#8F3E37" fill-opacity="1.0"  filling="0" d="M305.58001708984375 308.2276916503906 C308.550048828125 305.7221984863281 310.43133544921875 301.96820068359375 310.6611022949219 298.0888977050781 C310.9412841796875 300.67059326171875 310.21136474609375 303.349365234375 308.6606140136719 305.4334411621094 C307.88525390625 306.4754333496094 306.923095703125 307.3626708984375 305.58001708984375 308.2276916503906 Z"></path>
<path fill="#DB6A5D" fill-opacity="1.0"  filling="0" d="M272.40118408203125 156.87518310546875 C267.6150207519531 165.04794311523438 264.3660888671875 174.11770629882812 262.8730773925781 183.47010803222656 C261.78314208984375 190.30099487304688 261.6233825683594 197.24249267578125 261.5177001953125 204.15940856933594 C261.1675109863281 227.06546020507812 261.37640380859375 249.97891235351562 262.0755920410156 272.8837585449219 C271.4083251953125 272.7866516113281 280.7423095703125 272.6908264160156 290.13153076171875 272.1181945800781 C289.1546325683594 259.1396179199219 288.618896484375 246.12783813476562 288.48126220703125 233.2315673828125 C288.2330322265625 223.5400390625 287.9848327636719 213.84849548339844 287.64813232421875 204.18890380859375 C290.35888671875 219.06106567382812 293.0708312988281 233.94674682617188 294.76904296875 248.9688262939453 C295.8479309082031 258.515380859375 296.51641845703125 268.1049499511719 297.0325012207031 277.6834411621094 C303.13714599609375 278.2167053222656 309.28363037109375 278.2806396484375 315.24700927734375 278.2081298828125 C314.8832702636719 251.11923217773438 312.4269104003906 224.057373046875 307.9073791503906 197.34571838378906 C306.80389404296875 190.82815551757812 305.56158447265625 184.27252197265625 303.0093688964844 178.17396545410156 C300.4559326171875 172.07666015625 296.474609375 166.40084838867188 290.8835754394531 162.87295532226562 C285.8209228515625 159.67808532714844 279.7973327636719 158.43206787109375 272.40118408203125 156.87518310546875 Z"></path>
<path fill="#C14944" fill-opacity="1.0"  filling="0" d="M287.81402587890625 205.56884765625 C287.3274230957031 198.8042755126953 287.0865783691406 192.02255249023438 287.09271240234375 185.24081420898438 C288.1175537109375 191.93899536132812 288.3571472167969 198.75637817382812 287.81402587890625 205.56884765625 Z"></path>
<path fill="#CB534C" fill-opacity="1.0"  filling="0" d="M270.616943359375 154.73092651367188 C267.5179443359375 161.4794921875 264.38818359375 168.3238983154297 263.1225280761719 175.64141845703125 C262.648193359375 178.38656616210938 262.4405517578125 181.20172119140625 262.89764404296875 183.930908203125 C263.7258605957031 180.63894653320312 265.5150146484375 177.67874145507812 267.38397216796875 174.84515380859375 C271.37884521484375 168.79208374023438 275.8602600097656 163.06097412109375 280.86395263671875 157.86068725585938 C276.38494873046875 154.955810546875 270.8652038574219 154.79727172851562 270.616943359375 154.73092651367188 Z"></path>
<path fill="#B3685C" fill-opacity="1.0"  filling="0" d="M181.4011688232422 127.66046142578125 C181.86073303222656 119.57986450195312 181.3458709716797 111.44520568847656 179.78407287597656 103.863525390625 C179.61572265625 101.11470031738281 178.63021850585938 98.49365234375 177.89784240722656 95.83946228027344 C177.58944702148438 94.72367858886719 177.32400512695312 93.57232666015625 177.42355346679688 92.419677734375 C177.4911346435547 91.64186096191406 177.8413543701172 90.76203918457031 178.59580993652344 90.56422424316406 C179.1512451171875 90.41920471191406 179.7459716796875 90.71168518066406 180.12075805664062 91.14668273925781 C180.49554443359375 91.58164978027344 180.69337463378906 92.13584899902344 180.88385009765625 92.677734375 C181.9442901611328 95.68708801269531 183.0047607421875 98.69517517089844 184.35520935058594 101.4771728515625 C183.92144775390625 97.61506652832031 183.4876708984375 93.72100830078125 183.84033203125 89.85148620605469 C183.90792846679688 89.11544799804688 184.0172882080078 88.34500122070312 184.4596405029297 87.75392150878906 C184.90325927734375 87.16290283203125 185.78553771972656 86.83723449707031 186.4060821533203 87.23786926269531 C186.9246368408203 87.57330322265625 187.0733184814453 88.25283813476562 187.17160034179688 88.86231994628906 C187.84991455078125 93.05989074707031 188.23573303222656 97.306640625 188.43113708496094 101.97361755371094 C189.12171936035156 97.95542907714844 190.00030517578125 93.96922302246094 191.06321716308594 90.03337097167969 C191.2192840576172 89.45584106445312 191.3876190185547 88.86231994628906 191.7599639892578 88.39291381835938 C192.13229370117188 87.92474365234375 192.76266479492188 87.60894775390625 193.33526611328125 87.783447265625 C194.0553436279297 88.00338745117188 194.36624145507812 88.84880065917969 194.45960998535156 89.59469604492188 C194.5898895263672 90.62442016601562 194.50509643554688 91.66766357421875 194.41415405273438 92.70108032226562 C194.1291046142578 95.90827941894531 193.77272033691406 99.10926818847656 193.24803161621094 102.53273010253906 C194.35394287109375 98.53544616699219 195.7523193359375 94.61801147460938 197.42962646484375 90.82470703125 C197.8253173828125 89.93013000488281 198.5183563232422 88.88197326660156 199.48171997070312 89.05033874511719 C200.07278442382812 89.15354919433594 200.4918212890625 89.7274169921875 200.60609436035156 90.31721496582031 C200.72035217285156 90.90705871582031 200.59503173828125 91.51283264160156 200.46969604492188 92.1002197265625 C199.27528381347656 97.69371032714844 198.07968139648438 103.28721618652344 196.81524658203125 109.12770080566406 C198.0120849609375 107.33978271484375 199.37973022460938 105.66615295410156 200.8936309814453 104.13630676269531 C201.46255493164062 103.56124877929688 202.0855712890625 102.98612976074219 202.8658447265625 102.7711181640625 C203.64614868164062 102.55485534667969 204.61810302734375 102.82148742675781 204.94866943359375 103.55999755859375 C205.25709533691406 104.24688720703125 204.9277801513672 105.03700256347656 204.59107971191406 105.71040344238281 C202.7282257080078 109.4410400390625 200.5274658203125 113.00210571289062 198.0231475830078 116.33583068847656 C197.10400390625 117.55848693847656 196.13323974609375 118.77130126953125 195.54344177246094 120.18196105957031 C194.9253387451172 121.66146850585938 194.75575256347656 123.28591918945312 194.65992736816406 124.88705444335938 C194.61691284179688 125.60221862792969 194.56285095214844 126.38003540039062 194.08729553222656 126.91580200195312 C193.84890747070312 127.18368530273438 193.52696228027344 127.36184692382812 193.2062530517578 127.5216064453125 C189.90692138671875 129.16818237304688 185.9575653076172 129.46925354003906 181.4011688232422 127.66046142578125 Z"></path>
<path fill="#DB6A5D" fill-opacity="1.0"  filling="0" d="M179.0308074951172 122.88165283203125 C184.67222595214844 123.12373352050781 190.32717895507812 123.03770446777344 195.95753479003906 122.62483215332031 C196.2205047607422 122.60516357421875 196.5928192138672 122.6875 196.3311004638672 123.37071228027344 C196.5719451904297 137.44786071777344 197.8769073486328 151.50656127929688 200.5618438720703 165.5984344482422 C214.5222625732422 162.3126220703125 228.55882263183594 154.4949951171875 242.40127563476562 155.15609741210938 C247.69248962402344 177.2843017578125 244.86129760742188 201.1119842529297 244.14492797851562 223.8533935546875 C243.6509552001953 239.5193634033203 243.8365020751953 255.1976318359375 243.36219787597656 271.5332946777344 C233.7971954345703 272.0555114746094 224.19044494628906 271.8306579589844 215.07644653320312 271.4890441894531 C216.92822265625 252.99684143066406 218.77882385253906 234.50584411621094 220.09976196289062 216.81114196777344 C221.86309814453125 205.46192932128906 223.28236389160156 194.05990600585938 224.45712280273438 182.6259002685547 C213.61293029785156 185.51849365234375 202.39276123046875 187.00411987304688 191.1688995361328 187.03115844726562 C188.4077911376953 187.0373077392578 185.44761657714844 186.89108276367188 183.284912109375 184.89181518554688 C180.7007598876953 184.05255126953125 178.8083953857422 181.7325897216797 177.83642578125 179.19509887695312 C176.8644256591797 176.65762329101562 176.6813507080078 173.8965301513672 176.5511016845703 171.18209838867188 C175.81259155273438 155.63656616210938 176.50439453125 140.02340698242188 179.0308074951172 122.88165283203125 Z"></path>
<path fill="#C14944" fill-opacity="1.0"  filling="0" d="M224.01841735839844 182.34205627441406 C224.09584045410156 180.69915771484375 224.47799682617188 179.0709991455078 225.1390838623047 177.5644989013672 C225.12925720214844 179.2000274658203 224.8269805908203 180.83309936523438 224.01841735839844 182.34205627441406 Z"></path>
<path fill="#CB534C" fill-opacity="1.0"  filling="0" d="M234.99774169921875 154.54415893554688 C237.34104919433594 159.21359252929688 239.54920959472656 163.95184326171875 241.6185302734375 168.75030517578125 C243.2946014404297 172.63699340820312 244.8944854736328 176.6244659423828 245.50765991210938 180.92526245117188 C246.54598999023438 171.41680908203125 246.86058044433594 161.82847595214844 246.4452362060547 152.2708740234375 C242.54505920410156 151.91574096679688 238.55636596679688 152.5817413330078 234.99774169921875 154.54415893554688 Z"></path></svg>