<svg xmlns="http://www.w3.org/2000/svg" viewBox="0.0 0.0 512.0 512.0" height="512.0px" width="512.0px"><path fill="#EDB47B" fill-opacity="1.0"  filling="0" d="M253.39520263671875 250.97024536132812 C257.06365966796875 250.63101196289062 261.42718505859375 248.76223754882812 260.80511474609375 243.47329711914062 C260.46466064453125 240.60482788085938 258.1299133300781 237.06304931640625 250.62144470214844 237.57376098632812 C237.85089111328125 238.421142578125 229.80992126464844 240.24258422851562 211.0156707763672 241.72222900390625 C199.77090454101562 242.60931396484375 165.50909423828125 245.130859375 156.0947265625 244.36801147460938 C153.90078735351562 247.34915161132812 155.2499237060547 254.0499267578125 153.0636749267578 257.03619384765625 C163.38046264648438 257.3600158691406 190.62527465820312 255.16610717773438 204.67327880859375 254.83456420898438 C219.88992309570312 254.47488403320312 243.09375 251.91616821289062 253.39520263671875 250.97024536132812 Z"></path>
<path fill="#D9D9D9" fill-opacity="1.0"  filling="0" d="M257.617919921875 339.0214538574219 C244.05633544921875 341.9718322753906 230.02879333496094 352.35906982421875 222.05313110351562 366.49920654296875 C216.66046142578125 376.0633544921875 217.73953247070312 391.41314697265625 218.5177764892578 399.3043212890625 C213.99551391601562 399.3235168457031 211.58786010742188 398.985595703125 207.06304931640625 398.47235107421875 C205.64608764648438 386.36865234375 204.81024169921875 369.8975830078125 213.83038330078125 356.20672607421875 C223.35231018066406 341.7516784667969 236.12159729003906 330.8819274902344 250.3193817138672 327.2723388671875 C250.3193817138672 327.2723388671875 259.38433837890625 324.7904052734375 261.1199951171875 330.9984130859375 C262.9849548339844 337.6787109375 257.617919921875 339.0214538574219 257.617919921875 339.0214538574219 Z"></path>
<path fill="#2D3742" fill-opacity="1.0"  filling="0" d="M190.17984008789062 404.40643310546875 C190.1593780517578 408.68927001953125 193.61793518066406 412.17987060546875 197.8995361328125 412.19903564453125 L214.44097900390625 412.6240234375 C218.72511291503906 412.645751953125 222.21441650390625 409.1884765625 222.2335968017578 404.9043273925781 L222.2335968017578 404.9043273925781 C222.25535583496094 400.62017822265625 218.79937744140625 397.1308898925781 214.51519775390625 397.11297607421875 L197.9724578857422 396.68670654296875 C193.68832397460938 396.6662292480469 190.2003173828125 400.12353515625 190.17984008789062 404.40643310546875 L190.17984008789062 404.40643310546875 Z"></path>
<path fill="#E6E6E6" fill-opacity="1.0"  filling="0" d="M251.94113159179688 324.2080078125 C251.94113159179688 334.68096923828125 258.239990234375 343.17120361328125 266.0160217285156 343.17120361328125 L284.2534484863281 343.17120361328125 C292.02557373046875 343.17120361328125 298.32830810546875 334.68096923828125 298.32830810546875 324.2080078125 L306.3807678222656 247.75872802734375 C306.3807678222656 237.28704833984375 297.8905334472656 232.22207641601562 287.4188537597656 232.22207641601562 L262.8518371582031 232.22207641601562 C252.3788604736328 232.22207641601562 243.8886260986328 240.71234130859375 243.8886260986328 251.18399047851562 L251.94113159179688 324.2080078125 Z"></path>
<path fill="#D9D9D9" fill-opacity="1.0"  filling="0" d="M250.8544158935547 314.3571472167969 L251.94113159179688 324.20672607421875 C251.94113159179688 334.6796875 258.239990234375 343.169921875 266.0160217285156 343.169921875 L284.2534484863281 343.169921875 C292.02557373046875 343.169921875 298.32830810546875 334.6796875 298.32830810546875 324.20672607421875 L299.3651123046875 314.3571472167969 L250.8544158935547 314.3571472167969 Z"></path>
<path fill="#EDB47B" fill-opacity="1.0"  filling="0" d="M266.9324645996094 234.09344482421875 C266.9324645996094 238.62338256835938 270.60223388671875 242.29571533203125 275.13214111328125 242.29571533203125 L275.13214111328125 242.29571533203125 C279.6646423339844 242.29571533203125 283.3369445800781 238.62338256835938 283.3369445800781 234.09344482421875 L283.3369445800781 210.51071166992188 C283.3369445800781 205.98080444335938 279.6646423339844 202.30718994140625 275.13214111328125 202.30718994140625 L275.13214111328125 202.30718994140625 C270.60223388671875 202.30718994140625 266.9324645996094 205.98080444335938 266.9324645996094 210.51071166992188 L266.9324645996094 234.09344482421875 Z"></path>
<path fill="#FFC489" fill-opacity="1.0"  filling="0" d="M222.23617553710938 192.87359619140625 C222.23617553710938 212.3321533203125 238.00831604003906 228.10430908203125 257.4630432128906 228.10430908203125 L257.4630432128906 228.10430908203125 C276.9228820800781 228.10430908203125 292.6950378417969 212.3321533203125 292.6950378417969 192.87359619140625 L292.6950378417969 165.85794067382812 C292.6950378417969 146.400634765625 276.9228820800781 130.627197265625 257.4630432128906 130.627197265625 L257.4630432128906 130.627197265625 C238.00831604003906 130.627197265625 222.23617553710938 146.400634765625 222.23617553710938 165.85794067382812 L222.23617553710938 192.87359619140625 Z"></path>
<path fill="#523416" fill-opacity="1.0"  filling="0" d="M259.4649658203125 178.61825561523438 C259.4649658203125 180.571533203125 261.0470275878906 182.15359497070312 263.00030517578125 182.15359497070312 L263.00030517578125 182.15359497070312 C264.9523010253906 182.15359497070312 266.5382385253906 180.571533203125 266.5382385253906 178.61825561523438 L266.5382385253906 174.0819091796875 C266.5382385253906 172.12994384765625 264.9535827636719 170.54656982421875 263.00030517578125 170.54656982421875 L263.00030517578125 170.54656982421875 C261.0483093261719 170.54656982421875 259.4649658203125 172.12863159179688 259.4649658203125 174.0819091796875 L259.4649658203125 178.61825561523438 Z"></path>
<path fill="#523416" fill-opacity="1.0"  filling="0" d="M228.8972625732422 178.61825561523438 C228.8972625732422 180.571533203125 230.4793701171875 182.15359497070312 232.43389892578125 182.15359497070312 L232.43389892578125 182.15359497070312 C234.38719177246094 182.15359497070312 235.96929931640625 180.571533203125 235.96929931640625 178.61825561523438 L235.96929931640625 174.0819091796875 C235.96929931640625 172.12994384765625 234.3884735107422 170.54656982421875 232.43389892578125 170.54656982421875 L232.43389892578125 170.54656982421875 C230.48062133789062 170.54656982421875 228.8972625732422 172.12863159179688 228.8972625732422 174.0819091796875 L228.8972625732422 178.61825561523438 Z"></path>
<path fill="#ED997B" fill-opacity="1.0"  filling="0" d="M239.67617797851562 197.27810668945312 C239.67617797851562 199.22244262695312 241.2518310546875 200.798095703125 243.19488525390625 200.798095703125 L243.19488525390625 200.798095703125 C245.13792419433594 200.798095703125 246.7148895263672 199.22244262695312 246.7148895263672 197.27810668945312 L246.7148895263672 192.2528076171875 C246.7148895263672 190.30978393554688 245.13792419433594 188.73281860351562 243.19488525390625 188.73281860351562 L243.19488525390625 188.73281860351562 C241.2518310546875 188.73281860351562 239.67617797851562 190.30978393554688 239.67617797851562 192.2528076171875 L239.67617797851562 197.27810668945312 Z"></path>
<path fill="#523416" fill-opacity="1.0"  filling="0" d="M253.5449676513672 218.01666259765625 C255.3280029296875 218.26626586914062 255.3280029296875 218.26626586914062 257.0163269042969 217.71713256835938 C261.17633056640625 216.35906982421875 261.17633056640625 216.35906982421875 262.11456298828125 212.302734375 C261.7677001953125 212.27456665039062 261.7677001953125 212.27456665039062 261.6307067871094 211.8419189453125 C261.533447265625 211.5360107421875 261.533447265625 211.5360107421875 261.6371154785156 211.33505249023438 C261.74078369140625 211.13406372070312 261.74078369140625 211.13406372070312 262.0454406738281 211.0380859375 C262.1785583496094 210.99588012695312 262.1785583496094 210.99588012695312 262.439697265625 210.91778564453125 C262.6342468261719 210.86016845703125 262.6342468261719 210.86016845703125 262.730224609375 210.83071899414062 C262.8646545410156 210.78976440429688 262.8646545410156 210.78976440429688 263.004150390625 210.80767822265625 C263.6377868652344 210.89215087890625 263.6377868652344 210.89215087890625 263.5545654296875 211.52703857421875 C262.8057556152344 217.17312622070312 262.8057556152344 217.17312622070312 257.4131164550781 218.93313598632812 C255.44320678710938 219.57443237304688 255.44320678710938 219.57443237304688 253.36831665039062 219.28384399414062 C252.7334442138672 219.19552612304688 252.7334442138672 219.19552612304688 252.8230438232422 218.56192016601562 C252.86785888671875 218.2445068359375 252.86785888671875 218.2445068359375 253.04832458496094 218.10879516601562 C253.22879028320312 217.97183227539062 253.22879028320312 217.97183227539062 253.5449676513672 218.01666259765625 Z"></path>
<path fill="#523416" fill-opacity="1.0"  filling="0" d="M283.3369445800781 181.98464965820312 C283.3369445800781 183.41055297851562 284.49151611328125 184.56640625 285.91741943359375 184.56640625 L285.91741943359375 184.56640625 C287.3446350097656 184.56640625 288.4979248046875 183.41055297851562 288.4979248046875 181.98464965820312 L288.4979248046875 158.82559204101562 C288.4979248046875 157.39968872070312 287.345947265625 156.24383544921875 285.91741943359375 156.24383544921875 L285.91741943359375 156.24383544921875 C284.4927978515625 156.24383544921875 283.3369445800781 157.39968872070312 283.3369445800781 158.82559204101562 L283.3369445800781 181.98464965820312 Z"></path>
<path fill="#523416" fill-opacity="1.0"  filling="0" d="M296.4774169921875 181.11297607421875 C296.4774169921875 181.11297607421875 286.376953125 182.22015380859375 285.6806335449219 171.1929931640625 C284.98046875 160.1632080078125 264.09600830078125 147.72671508789062 242.97601318359375 156.64450073242188 C221.85726928710938 165.56097412109375 207.5430450439453 155.47201538085938 209.8905487060547 135.76129150390625 C209.8905487060547 135.76129150390625 214.8172607421875 142.33154296875 224.90753173828125 135.05728149414062 C232.54656982421875 129.55072021484375 254.38206481933594 115.40802001953125 277.4694519042969 128.21566772460938 C300.3801574707031 140.9222412109375 300.46466064453125 160.29251098632812 296.4774169921875 181.11297607421875 Z"></path>
<path fill="#FFC489" fill-opacity="1.0"  filling="0" d="M288.4979248046875 185.09121704101562 C288.4979248046875 188.37313842773438 291.15777587890625 191.03167724609375 294.44097900390625 191.03167724609375 L294.44097900390625 191.03167724609375 C297.722900390625 191.03167724609375 300.3814392089844 188.37313842773438 300.3814392089844 185.09121704101562 L300.3814392089844 177.13345336914062 C300.3814392089844 173.85281372070312 297.7241516113281 171.1929931640625 294.44097900390625 171.1929931640625 L294.44097900390625 171.1929931640625 C291.1590270996094 171.1929931640625 288.4979248046875 173.85281372070312 288.4979248046875 177.13345336914062 L288.4979248046875 185.09121704101562 Z"></path>
<path fill="#D9D9D9" fill-opacity="1.0"  filling="0" d="M357.8700866699219 405.10784912109375 C361.30303955078125 403.23138427734375 364.0601501464844 401.05279541015625 362.5906982421875 398.2662353515625 L299.9027404785156 327.84063720703125 C297.6499328613281 323.56671142578125 292.2905578613281 321.9692687988281 287.9552001953125 324.33984375 L287.9552001953125 324.33984375 C283.62237548828125 326.70782470703125 282.06976318359375 332.0902404785156 284.4556579589844 336.28607177734375 L353.4924621582031 403.46942138671875 L357.8700866699219 405.10784912109375 Z"></path>
<path fill="#2D3742" fill-opacity="1.0"  filling="0" d="M367.9718322753906 405.05792236328125 C368.15740966796875 409.5865478515625 364.6322937011719 413.41119384765625 360.1049499511719 413.59552001953125 L342.7379150390625 414.59649658203125 C338.202880859375 414.77825927734375 334.38336181640625 411.25567626953125 334.1951904296875 406.72576904296875 L334.1951904296875 406.72576904296875 C334.01470947265625 402.19586181640625 337.5372619628906 398.37506103515625 342.06719970703125 398.189453125 L359.43426513671875 397.18975830078125 C363.968017578125 397.0067138671875 367.78753662109375 400.53057861328125 367.9718322753906 405.05792236328125 L367.9718322753906 405.05792236328125 Z"></path>
<path fill="#EDB47B" fill-opacity="1.0"  filling="0" d="M154.44863891601562 261.3420715332031 C160.11265563964844 260.5254821777344 164.04098510742188 255.27359008789062 163.2255859375 249.61343383789062 L163.2255859375 249.61343383789062 C162.41152954101562 243.949462890625 157.1584014892578 240.0185546875 151.4969482421875 240.835205078125 L148.56703186035156 241.25888061523438 C142.90687561035156 242.07168579101562 144.83328247070312 246.48129272460938 145.65121459960938 252.14273071289062 L144.67327880859375 252.28350830078125 C145.48992919921875 257.9449768066406 145.85984802246094 262.5772705078125 151.52130126953125 261.7632141113281 L154.44863891601562 261.3420715332031 Z"></path>
<path fill="#EDB47B" fill-opacity="1.0"  filling="0" d="M140.9676971435547 253.75421142578125 C140.0819091796875 255.44259643554688 140.73855590820312 257.5353698730469 142.43585205078125 258.42242431640625 L147.77215576171875 261.3229064941406 C149.46817016601562 262.2035217285156 151.5558624267578 261.546875 152.4416046142578 259.85601806640625 L152.4416046142578 259.85601806640625 C153.32864379882812 258.1600036621094 152.67587280273438 256.06976318359375 150.97984313964844 255.18399047851562 L145.63839721679688 252.28482055664062 C143.94625854492188 251.39776611328125 141.85089111328125 252.05572509765625 140.9676971435547 253.75421142578125 L140.9676971435547 253.75421142578125 Z"></path>
<path fill="#EDB47B" fill-opacity="1.0"  filling="0" d="M145.80862426757812 253.60577392578125 C146.86593627929688 254.60800170898438 148.5401611328125 254.55938720703125 149.54367065429688 253.4969482421875 L152.78079223632812 250.17922973632812 C153.78176879882812 249.11679077148438 153.73184204101562 247.44766235351562 152.67457580566406 246.44671630859375 L152.67457580566406 246.44671630859375 C151.61343383789062 245.44192504882812 149.94305419921875 245.48800659179688 148.93954467773438 246.54916381835938 L145.69984436035156 249.86947631835938 C144.69761657714844 250.92929077148438 144.74496459960938 252.60610961914062 145.80862426757812 253.60577392578125 L145.80862426757812 253.60577392578125 Z"></path>
<path fill="#EDB47B" fill-opacity="1.0"  filling="0" d="M140.69503784179688 248.76480102539062 C139.26657104492188 249.1961669921875 138.4588623046875 250.71038818359375 138.89407348632812 252.14273071289062 L140.19969177246094 256.7110290527344 C140.63742065429688 258.14208984375 142.14910888671875 258.94720458984375 143.57887268066406 258.515869140625 L143.57887268066406 258.515869140625 C145.01121520996094 258.0793762207031 145.82015991210938 256.57025146484375 145.3836669921875 255.137939453125 L144.07550048828125 250.56704711914062 C143.64288330078125 249.13601684570312 142.12734985351562 248.32577514648438 140.69503784179688 248.76480102539062 L140.69503784179688 248.76480102539062 Z"></path>
<path fill="#EDB47B" fill-opacity="1.0"  filling="0" d="M140.61695861816406 243.06112670898438 C140.65536499023438 244.51907348632812 141.87136840820312 245.66720581054688 143.33184814453125 245.62625122070312 L153.31069946289062 245.34719848632812 C154.76992797851562 245.30624389648438 155.91680908203125 244.09024047851562 155.87710571289062 242.63360595703125 L155.87710571289062 242.63360595703125 C155.836181640625 241.17184448242188 154.62399291992188 240.02243041992188 153.16351318359375 240.06466674804688 L143.18206787109375 240.34368896484375 C141.72671508789062 240.38336181640625 140.5734405517578 241.6019287109375 140.61695861816406 243.06112670898438 L140.61695861816406 243.06112670898438 Z"></path>
<path fill="#EDB47B" fill-opacity="1.0"  filling="0" d="M147.50595092773438 254.97793579101562 C148.87680053710938 254.48513793945312 149.5897674560547 252.9696044921875 149.09312438964844 251.59487915039062 L145.7062530517578 242.20480346679688 C145.20960998535156 240.83139038085938 143.69793701171875 240.12222290039062 142.32574462890625 240.6163330078125 L142.32574462890625 240.6163330078125 C140.9510498046875 241.1116943359375 140.2393798828125 242.62338256835938 140.73472595214844 243.99679565429688 L144.12161254882812 253.38946533203125 C144.61441040039062 254.76290893554688 146.13375854492188 255.47586059570312 147.50595092773438 254.97793579101562 L147.50595092773438 254.97793579101562 Z"></path>
<path fill="#FFC489" fill-opacity="1.0"  filling="0" d="M299.64801025390625 238.33535766601562 C326.2374267578125 233.34207153320312 350.6124572753906 251.90847778320312 352.18817138671875 280.5753479003906 C352.9356689453125 294.14080810546875 348.62847900390625 307.4553527832031 340.9830322265625 318.2892761230469 C337.6435241699219 316.4435119628906 334.3603210449219 314.5030517578125 331.1155090332031 312.5036926269531 C337.35040283203125 304.0992126464844 340.9023742675781 293.59423828125 340.31231689453125 282.8857727050781 C339.1116943359375 261.0694580078125 321.212158203125 246.6771240234375 300.3302307128906 250.73983764648438 C297.0598449707031 251.37603759765625 294.2579345703125 249.0809326171875 294.06976318359375 245.66595458984375 C293.88287353515625 242.25473022460938 296.3750305175781 238.95101928710938 299.64801025390625 238.33535766601562 Z"></path>
<path fill="#FFC489" fill-opacity="1.0"  filling="0" d="M334.56768798828125 317.9270324707031 C335.18719482421875 317.02081298828125 334.95550537109375 315.7868957519531 334.04541015625 315.1673583984375 L327.84259033203125 310.93695068359375 C326.9376220703125 310.3187255859375 325.702392578125 310.552978515625 325.0854187011719 311.4591979980469 L325.0854187011719 311.4591979980469 C324.4659423828125 312.3667297363281 324.6976318359375 313.60321044921875 325.6076965332031 314.2189025878906 L331.8080139160156 318.4505615234375 C332.71551513671875 319.06622314453125 333.949462890625 318.8332824707031 334.56768798828125 317.9270324707031 L334.56768798828125 317.9270324707031 Z"></path>
<path fill="#FFC489" fill-opacity="1.0"  filling="0" d="M324.6348876953125 316.24639892578125 L326.376953125 313.68511962890625 C325.0150451660156 313.2665710449219 324.1868896484375 312.7724914550781 325.0841369628906 311.45794677734375 C327.8771057128906 307.359375 332.54656982421875 304.6432189941406 336.94464111328125 306.06146240234375 C337.2147216796875 306.1484680175781 337.459228515625 306.27264404296875 337.68701171875 306.40960693359375 C338.987548828125 306.6144104003906 340.26239013671875 307.090576171875 341.4195251464844 307.88031005859375 C345.306884765625 310.53118896484375 346.50494384765625 315.6460876464844 344.35968017578125 319.71136474609375 C344.29693603515625 319.8700866699219 344.22015380859375 320.023681640625 344.12158203125 320.1683349609375 L343.8335876464844 320.5868835449219 C343.8310546875 320.5920104980469 343.8284912109375 320.5984191894531 343.8233642578125 320.603515625 L342.35137939453125 322.76544189453125 C342.34625244140625 322.7718505859375 342.34112548828125 322.77569580078125 342.33599853515625 322.7820739746094 L339.7606201171875 326.5632019042969 C339.04510498046875 327.6051330566406 337.623046875 327.8764953613281 336.57855224609375 327.1622619628906 C335.55584716796875 326.4659118652344 335.283203125 325.0899353027344 335.93853759765625 324.0518493652344 C335.9334411621094 324.0505676269531 335.930908203125 324.0480041503906 335.9257507324219 324.0454406738281 C335.1986999511719 325.0310363769531 333.817626953125 325.2806396484375 332.7961730957031 324.5830383300781 C331.8092956542969 323.9097595214844 331.5263977050781 322.6015930175781 332.09857177734375 321.5788879394531 C332.09344482421875 321.5750427246094 332.08831787109375 321.5711975097656 332.08062744140625 321.5673828125 L332.19329833984375 321.4035339355469 C332.19329833984375 321.4035339355469 332.19586181640625 321.4022521972656 332.19329833984375 321.4022521972656 C331.4828796386719 322.44671630859375 330.0582275390625 322.716796875 329.0163269042969 322.00384521484375 C327.9718322753906 321.2908935546875 327.7017517089844 319.8675231933594 328.4134521484375 318.8243103027344 C327.7004699707031 319.8675231933594 326.2758483886719 320.1376037597656 325.23388671875 319.4246520996094 C324.1919860839844 318.7142333984375 323.9206237792969 317.2908935546875 324.6348876953125 316.24639892578125 Z"></path>
<path fill="#2D3742" fill-opacity="1.0"  filling="0" d="M301.6870422363281 317.32672119140625 L248.61441040039062 317.32672119140625 L246.21311950683594 310.7129821777344 L304.089599609375 310.7129821777344 L301.6870422363281 317.32672119140625 Z"></path>
<path fill="#2D3742" fill-opacity="1.0"  filling="0" d="M251.0105438232422 357.67486572265625 L243.1961669921875 362.14080810546875 L259.0694580078125 311.6486511230469 L264.90496826171875 313.4815979003906 L251.0105438232422 357.67486572265625 Z"></path>
<path fill="#2D3742" fill-opacity="1.0"  filling="0" d="M277.080322265625 359.1776123046875 L284.89471435546875 363.6435241699219 L269.0201416015625 313.1513671875 L263.18719482421875 314.9856262207031 L277.080322265625 359.1776123046875 Z"></path>
<path fill="#2D3742" fill-opacity="1.0"  filling="0" d="M268.6144104003906 313.4815979003906 C268.6144104003906 316.4793701171875 266.1849670410156 318.911376953125 263.18719482421875 318.911376953125 C260.1868896484375 318.911376953125 257.7574157714844 316.48065185546875 257.7574157714844 313.4815979003906 C257.7574157714844 310.4825744628906 260.1868896484375 308.0518493652344 263.18719482421875 308.0518493652344 C266.1849670410156 308.0531311035156 268.6144104003906 310.4838562011719 268.6144104003906 313.4815979003906 Z"></path></svg>