<svg xmlns="http://www.w3.org/2000/svg" viewBox="0.0 0.0 512.0 512.0" height="512.0px" width="512.0px"><path fill="#EEC2AB" fill-opacity="1.0"  filling="0" d="M273.8028564453125 166.05221557617188 C279.6734619140625 162.20608520507812 293.46673583984375 138.92236328125 293.46673583984375 138.92236328125 C293.46673583984375 138.92236328125 279.57415771484375 124.75021362304688 273.8028564453125 117.6630859375 C268.0316162109375 110.57705688476562 254.20761108398438 93.96774291992188 253.73248291015625 92.07028198242188 C253.2583770751953 90.17178344726562 253.85946655273438 77.7711181640625 253.6372528076172 75.68319702148438 C253.4160614013672 73.59524536132812 255.06060791015625 73.56353759765625 255.78866577148438 75.68319702148438 C256.5167236328125 77.80288696289062 256.5792236328125 78.18280029296875 256.5792236328125 78.18280029296875 C256.5792236328125 78.18280029296875 260.18572998046875 69.578125 259.94818115234375 66.77850341796875 C259.7105712890625 63.9788818359375 261.75140380859375 65.82925415039062 261.79852294921875 68.81930541992188 C261.84564208984375 71.80838012695312 261.32440185546875 74.03866577148438 261.32440185546875 74.03866577148438 C261.32440185546875 74.03866577148438 263.981689453125 72.75762939453125 265.88018798828125 69.38870239257812 C267.7786865234375 66.01971435546875 267.8728942871094 64.78579711914062 268.5845947265625 65.87738037109375 C269.2962646484375 66.96896362304688 268.6316833496094 71.71420288085938 267.20831298828125 73.04232788085938 C267.20831298828125 73.04232788085938 268.9163513183594 75.9842529296875 267.06597900390625 78.92620849609375 C265.2156066894531 81.8681640625 265.2156066894531 81.8681640625 265.2156066894531 81.8681640625 C265.2156066894531 81.8681640625 267.8728942871094 80.77658081054688 269.3914794921875 78.54632568359375 C270.91009521484375 76.3160400390625 271.47943115234375 80.39669799804688 268.8221435546875 82.95974731445312 C266.16485595703125 85.52178955078125 265.45318603515625 86.13925170898438 265.45318603515625 86.13925170898438 C265.45318603515625 86.13925170898438 268.7279357910156 91.21624755859375 267.7786865234375 96.15194702148438 C267.7786865234375 96.15194702148438 306.880126953125 129.93881225585938 311.0559997558594 134.30413818359375 C315.23187255859375 138.66943359375 314.2826232910156 140.47268676757812 309.1575012207031 150.43829345703125 C304.03240966796875 160.40281677246094 286.3417663574219 186.67147827148438 286.3417663574219 186.67147827148438 L273.8028564453125 166.05221557617188 Z"></path>
<path fill="#DF9280" fill-opacity="1.0"  filling="0" d="M285.5542907714844 179.2956085205078 C285.3648681640625 179.2956085205078 285.2010498046875 179.15328979492188 285.1784973144531 178.9607696533203 C284.5774230957031 173.85716247558594 287.86956787109375 171.0186309814453 288.0098571777344 170.89984130859375 C288.1695861816406 170.76571655273438 288.408203125 170.78616333007812 288.5444030761719 170.9459228515625 C288.6795654296875 171.1056671142578 288.6590881347656 171.34425354003906 288.49932861328125 171.48045349121094 C288.46759033203125 171.507080078125 285.37921142578125 174.1879119873047 285.93115234375 178.87168884277344 C285.95672607421875 179.0795440673828 285.8072509765625 179.26795959472656 285.599365234375 179.29254150390625 C285.583984375 179.2956085205078 285.56866455078125 179.2956085205078 285.5542907714844 179.2956085205078 Z"></path>
<path fill="#DF9280" fill-opacity="1.0"  filling="0" d="M262.653564453125 90.14105224609375 C262.48870849609375 90.14105224609375 262.33612060546875 90.03250122070312 262.2890625 89.8656005859375 C261.10528564453125 85.72354125976562 257.18133544921875 84.91455078125 257.014404296875 84.8828125 L256.74407958984375 84.82955932617188 L256.14093017578125 79.93692016601562 C256.1153564453125 79.72903442382812 256.2627868652344 79.53857421875 256.4706726074219 79.51296997070312 C256.67852783203125 79.48223876953125 256.86798095703125 79.63482666015625 256.89459228515625 79.84268188476562 L257.43218994140625 84.1998291015625 C258.4377746582031 84.46707153320312 261.87841796875 85.65899658203125 263.0201721191406 89.6546630859375 C263.0775146484375 89.85638427734375 262.9617919921875 90.06631469726562 262.76007080078125 90.1236572265625 C262.72320556640625 90.13595581054688 262.6873779296875 90.14105224609375 262.653564453125 90.14105224609375 Z"></path>
<path fill="#DF9280" fill-opacity="1.0"  filling="0" d="M263.3181457519531 78.35687255859375 C263.2352294921875 78.35687255859375 263.1522521972656 78.33026123046875 263.0826416015625 78.27493286132812 C262.9187927246094 78.14492797851562 262.8901062011719 77.90530395507812 263.0201721191406 77.741455078125 L266.437255859375 73.4232177734375 C266.5693359375 73.25936889648438 266.8069152832031 73.230712890625 266.97076416015625 73.36080932617188 C267.13458251953125 73.49081420898438 267.16326904296875 73.73043823242188 267.033203125 73.894287109375 L263.6171875 78.21246337890625 C263.54034423828125 78.30670166015625 263.4297790527344 78.35687255859375 263.3181457519531 78.35687255859375 Z"></path>
<path fill="#EEC2AB" fill-opacity="1.0"  filling="0" d="M232.3319091796875 187.26132202148438 C228.42431640625 189.0963134765625 226.08242797851562 189.79161071777344 217.794189453125 189.9185791015625 C209.50595092773438 190.04556274414062 195.111572265625 189.76089477539062 194.16232299804688 189.79161071777344 C193.21307373046875 189.8223419189453 193.90939331054688 188.08358764648438 195.332763671875 185.80519104003906 C196.75607299804688 183.52781677246094 209.79058837890625 157.27041625976562 212.54205322265625 152.61940002441406 C215.29458618164062 147.96942138671875 212.471435546875 142.03738403320312 213.02847290039062 138.28851318359375 C213.58554077148438 134.5396728515625 213.9654541015625 132.26229858398438 213.9654541015625 132.26229858398438 C213.9654541015625 132.26229858398438 211.07058715820312 132.35751342773438 209.93191528320312 135.63125610351562 C208.793212890625 138.906005859375 208.65087890625 140.518798828125 208.65087890625 140.518798828125 C208.65087890625 140.518798828125 204.52212524414062 133.97030639648438 203.71621704101562 132.26229858398438 C202.9093017578125 130.55426025390625 201.3436279296875 124.00576782226562 200.01446533203125 124.85980224609375 C198.685302734375 125.71380615234375 198.35354614257812 128.98855590820312 198.97100830078125 130.60134887695312 C198.97100830078125 130.60134887695312 197.64187622070312 124.4327392578125 196.218505859375 125.00213623046875 C194.79513549804688 125.57144165039062 194.17767333984375 127.65936279296875 195.26925659179688 130.69656372070312 C195.26925659179688 130.69656372070312 191.5203857421875 127.09005737304688 190.80868530273438 128.039306640625 C190.0970458984375 128.98855590820312 189.71713256835938 131.31405639648438 191.4251708984375 133.49618530273438 C191.4251708984375 133.49618530273438 189.81130981445312 134.3031005859375 190.6663818359375 137.00750732421875 C191.5203857421875 139.71188354492188 197.83132934570312 144.17242431640625 197.83132934570312 144.17242431640625 C197.83132934570312 144.17242431640625 202.19662475585938 151.67015075683594 201.91192626953125 152.61940002441406 C201.62725830078125 153.5686492919922 181.85073852539062 176.09152221679688 173.25018310546875 199.3137969970703 C171.3516845703125 204.4389190673828 171.54217529296875 205.0082550048828 181.1278076171875 206.24217224121094 C190.71347045898438 207.47608947753906 232.74456787109375 212.5111083984375 232.74456787109375 212.5111083984375 L232.3319091796875 187.26132202148438 Z"></path>
<path fill="#DF9280" fill-opacity="1.0"  filling="0" d="M205.61575317382812 149.86892700195312 C205.60653686523438 149.86892700195312 205.59732055664062 149.86892700195312 205.58807373046875 149.867919921875 C205.37820434570312 149.85357666015625 205.22149658203125 149.67129516601562 205.23583984375 149.46243286132812 C205.62088012695312 144.081298828125 207.80096435546875 141.5601806640625 207.89312744140625 141.45574951171875 C208.0313720703125 141.299072265625 208.27096557617188 141.28268432617188 208.42767333984375 141.42193603515625 C208.5853271484375 141.5601806640625 208.59970092773438 141.7998046875 208.46142578125 141.95748901367188 C208.44094848632812 141.9820556640625 206.35711669921875 144.41305541992188 205.99359130859375 149.51565551757812 C205.979248046875 149.71633911132812 205.81234741210938 149.86892700195312 205.61575317382812 149.86892700195312 Z"></path>
<path fill="#DF9280" fill-opacity="1.0"  filling="0" d="M230.56655883789062 206.62208557128906 C230.47640991210938 206.62208557128906 230.38528442382812 206.59033203125 230.3135986328125 206.5258331298828 C227.069580078125 203.6248321533203 219.50527954101562 203.96070861816406 219.4305419921875 203.9637908935547 C219.22982788085938 203.9883575439453 219.04342651367188 203.8122100830078 219.033203125 203.60333251953125 C219.02294921875 203.39443969726562 219.18475341796875 203.21522521972656 219.3936767578125 203.20602416992188 C219.71725463867188 203.1896209716797 227.3460693359375 202.85581970214844 230.81942749023438 205.9595489501953 C230.97613525390625 206.09983825683594 230.98944091796875 206.33946228027344 230.85018920898438 206.49510192871094 C230.77545166015625 206.57908630371094 230.67095947265625 206.62208557128906 230.56655883789062 206.62208557128906 Z"></path>
<path fill="#DF9280" fill-opacity="1.0"  filling="0" d="M221.69049072265625 207.38189697265625 C221.55532836914062 207.38189697265625 221.42324829101562 207.30816650390625 221.35568237304688 207.18017578125 C221.25732421875 206.99481201171875 221.3280029296875 206.76441955566406 221.51333618164062 206.66714477539062 L226.51968383789062 204.0078125 C226.70401000976562 203.90847778320312 226.93441772460938 203.98016357421875 227.03268432617188 204.16549682617188 C227.13101196289062 204.350830078125 227.06033325195312 204.5812530517578 226.875 204.6785430908203 L221.86868286132812 207.3368377685547 C221.81130981445312 207.36753845214844 221.7498779296875 207.38189697265625 221.69049072265625 207.38189697265625 Z"></path>
<path fill="#DF9280" fill-opacity="1.0"  filling="0" d="M201.15420532226562 136.96142578125 C201.00469970703125 136.96142578125 200.86233520507812 136.872314453125 200.80294799804688 136.72488403320312 L198.71499633789062 131.59976196289062 C198.63616943359375 131.40518188476562 198.72933959960938 131.18505859375 198.92288208007812 131.10516357421875 C199.11538696289062 131.02426147460938 199.33758544921875 131.11846923828125 199.41744995117188 131.31304931640625 L201.50543212890625 136.43814086914062 C201.58425903320312 136.6326904296875 201.49105834960938 136.8538818359375 201.29754638671875 136.9327392578125 C201.25042724609375 136.95217895507812 201.2012939453125 136.96142578125 201.15420532226562 136.96142578125 Z"></path>
<path fill="#DF9280" fill-opacity="1.0"  filling="0" d="M197.54766845703125 135.91693115234375 C197.40634155273438 135.91693115234375 197.26913452148438 135.83706665039062 197.20462036132812 135.6998291015625 L195.49655151367188 132.09332275390625 C195.40646362304688 131.90386962890625 195.48736572265625 131.67755126953125 195.67782592773438 131.58743286132812 C195.86624145507812 131.4993896484375 196.09255981445312 131.5782470703125 196.18368530273438 131.7686767578125 L197.8917236328125 135.375244140625 C197.9818115234375 135.564697265625 197.90093994140625 135.79095458984375 197.71044921875 135.88107299804688 C197.6572265625 135.90567016601562 197.60293579101562 135.91693115234375 197.54766845703125 135.91693115234375 Z"></path>
<path fill="#DF9280" fill-opacity="1.0"  filling="0" d="M196.69363403320312 140.18804931640625 C196.58712768554688 140.18804931640625 196.48269653320312 140.14401245117188 196.40792846679688 140.05801391601562 L191.3780517578125 134.26828002929688 C191.23980712890625 134.10955810546875 191.2572021484375 133.86993408203125 191.4149169921875 133.73275756835938 C191.5726318359375 133.59347534179688 191.81430053710938 133.61294555664062 191.95046997070312 133.76959228515625 L196.9803466796875 139.559326171875 C197.11859130859375 139.718017578125 197.1011962890625 139.9576416015625 196.94351196289062 140.0948486328125 C196.87078857421875 140.15731811523438 196.78167724609375 140.18804931640625 196.69363403320312 140.18804931640625 Z"></path>
<path fill="#EEC2AB" fill-opacity="1.0"  filling="0" d="M246.97817993164062 162.39654541015625 L248.98727416992188 177.58143615722656 C248.98727416992188 177.58143615722656 237.31570434570312 184.6040496826172 232.3319091796875 187.2623291015625 C227.34808349609375 189.9196014404297 230.44979858398438 213.4562530517578 235.6998291015625 216.96754455566406 C236.55282592773438 217.5379180908203 235.2257080078125 241.35821533203125 235.2257080078125 241.35821533203125 C235.2257080078125 241.35821533203125 262.179443359375 248.85594177246094 283.912841796875 234.42984008789062 C283.912841796875 234.42984008789062 286.1902160644531 205.86329650878906 286.4759216308594 197.89146423339844 C286.7605895996094 189.9196014404297 286.6039123535156 168.0910186767578 278.4088134765625 164.5797119140625 C277.0797119140625 164.0103759765625 263.60382080078125 170.93875122070312 263.60382080078125 170.93875122070312 L256.96014404296875 156.67239379882812 L246.97817993164062 162.39654541015625 Z"></path>
<path fill="#DF9280" fill-opacity="1.0"  filling="0" d="M249.7337646484375 167.4008331298828 C249.5914306640625 167.4008331298828 249.4490966796875 167.39878845214844 249.3067626953125 167.3926544189453 C248.887939453125 167.37728881835938 248.561279296875 167.0240020751953 248.57666015625 166.60519409179688 C248.59304809570312 166.18637084960938 248.94833374023438 165.8433380126953 249.36407470703125 165.87608337402344 C250.8837127685547 165.92831420898438 252.408447265625 165.6334228515625 253.76321411132812 165.00979614257812 C255.24903869628906 164.32781982421875 256.44403076171875 163.1952667236328 257.3154602050781 161.6439208984375 C257.520263671875 161.27731323242188 257.9810791015625 161.14727783203125 258.3497314453125 161.35411071777344 C258.71527099609375 161.5599365234375 258.8453369140625 162.02279663085938 258.63946533203125 162.3883514404297 C257.60626220703125 164.22439575195312 256.1798400878906 165.56991577148438 254.39808654785156 166.38912963867188 C252.956298828125 167.0537109375 251.3516845703125 167.4008331298828 249.7337646484375 167.4008331298828 Z"></path>
<path fill="#DF9280" fill-opacity="1.0"  filling="0" d="M238.01919555664062 215.3516845703125 C237.94650268554688 215.3516845703125 237.90655517578125 215.3506622314453 237.90042114257812 215.3506622314453 C237.69155883789062 215.3424530029297 237.52767944335938 215.1663360595703 237.535888671875 214.9574432373047 C237.54302978515625 214.74855041503906 237.68536376953125 214.60108947753906 237.9290771484375 214.5918731689453 C238.021240234375 214.60723876953125 247.7943115234375 214.83148193359375 258.54937744140625 205.75271606445312 C258.7091064453125 205.6195831298828 258.94873046875 205.6390380859375 259.08392333984375 205.7977752685547 C259.2200927734375 205.95750427246094 259.1986083984375 206.19712829589844 259.038818359375 206.33229064941406 C248.68930053710938 215.07008361816406 239.18142700195312 215.3516845703125 238.01919555664062 215.3516845703125 Z"></path>
<path fill="#DF9280" fill-opacity="1.0"  filling="0" d="M268.55999755859375 203.21217346191406 C268.29681396484375 203.21217346191406 268.15142822265625 203.20602416992188 268.14117431640625 203.20498657226562 C267.9312744140625 203.19580078125 267.76947021484375 203.0186309814453 267.77972412109375 202.8087158203125 C267.7889404296875 202.5988006591797 267.96917724609375 202.41651916503906 268.176025390625 202.44723510742188 C268.25994873046875 202.44825744628906 276.5216064453125 202.76263427734375 284.5477294921875 198.19354248046875 C284.7279357910156 198.08908081054688 284.96038818359375 198.15357971191406 285.0648193359375 198.33587646484375 C285.16827392578125 198.51712036132812 285.1047668457031 198.7495574951172 284.9224853515625 198.8529815673828 C277.74017333984375 202.94183349609375 270.3694152832031 203.21217346191406 268.55999755859375 203.21217346191406 Z"></path>
<path fill="#DF9280" fill-opacity="1.0"  filling="0" d="M263.127685546875 237.3103485107422 C263.127685546875 237.97389221191406 262.8727111816406 238.511474609375 262.558349609375 238.511474609375 C262.24395751953125 238.511474609375 261.9889831542969 237.97389221191406 261.9889831542969 237.3103485107422 C261.9889831542969 236.64678955078125 262.24395751953125 236.10919189453125 262.558349609375 236.10919189453125 C262.8727111816406 236.10919189453125 263.127685546875 236.64678955078125 263.127685546875 237.3103485107422 Z"></path>
<path fill="#DF9280" fill-opacity="1.0"  filling="0" d="M232.02267456054688 210.8880615234375 C231.87213134765625 210.8880615234375 231.728759765625 210.79795837402344 231.66937255859375 210.64846801757812 C228.9404296875 203.7784423828125 229.53024291992188 193.7125244140625 229.556884765625 193.28753662109375 C229.56918334960938 193.07867431640625 229.725830078125 192.91891479492188 229.95932006835938 192.9322052001953 C230.16818237304688 192.94554138183594 230.32794189453125 193.1257781982422 230.31463623046875 193.3346710205078 C230.30743408203125 193.4370574951172 229.70944213867188 203.6575927734375 232.37490844726562 210.3678741455078 C232.45172119140625 210.56346130371094 232.35751342773438 210.78359985351562 232.16192626953125 210.86143493652344 C232.11688232421875 210.8788299560547 232.06875610351562 210.8880615234375 232.02267456054688 210.8880615234375 Z"></path>
<path fill="#DF9280" fill-opacity="1.0"  filling="0" d="M286.06219482421875 183.52883911132812 C285.86968994140625 183.52883911132812 285.704833984375 183.38241577148438 285.68536376953125 183.1868133544922 C284.92144775390625 175.49862670898438 283.333251953125 170.0878143310547 280.96575927734375 167.1049041748047 C280.8346862792969 166.94107055664062 280.8623352050781 166.70245361328125 281.0272216796875 166.57139587402344 C281.1910400390625 166.4413299560547 281.42962646484375 166.46693420410156 281.56072998046875 166.63284301757812 C284.0203552246094 169.73248291015625 285.662841796875 175.2764129638672 286.4400634765625 183.1110382080078 C286.4605407714844 183.3199462890625 286.3089599609375 183.50628662109375 286.10009765625 183.52679443359375 C286.0867919921875 183.52781677246094 286.07452392578125 183.52883911132812 286.06219482421875 183.52883911132812 Z"></path>
<path fill="#EEC2AB" fill-opacity="1.0"  filling="0" d="M269.2491760253906 296.260986328125 C269.2491760253906 296.260986328125 282.01434326171875 317.2826843261719 281.63446044921875 323.7359313964844 C281.2545471191406 330.1891784667969 275.56005859375 342.1474609375 273.47210693359375 360.9388732910156 C271.3841857910156 379.7303161621094 267.96710205078125 409.9106750488281 267.96710205078125 409.9106750488281 L271.7630920410156 414.6558837890625 L276.31884765625 411.42926025390625 C276.31884765625 411.42926025390625 298.32666015625 340.0349426269531 300.4248352050781 333.9862060546875 C303.6514587402344 324.6851806640625 293.0223388671875 279.5892333984375 293.0223388671875 279.5892333984375 L269.2491760253906 296.260986328125 Z"></path>
<path fill="#FF664D" fill-opacity="1.0"  filling="0" d="M289.3257141113281 446.2565002441406 C289.3257141113281 446.2718811035156 289.3103332519531 446.30157470703125 289.3103332519531 446.3169250488281 C288.4747314453125 448.98956298828125 276.5697326660156 448.3209228515625 273.3809814453125 443.21929931640625 C270.14617919921875 438.1024169921875 268.8251953125 434.8675842285156 265.4091796875 430.98046875 C261.99310302734375 427.0933837890625 258.6671447753906 419.88031005859375 260.0946044921875 417.9818115234375 C260.24615478515625 417.7841796875 260.44378662109375 417.5261535644531 260.68646240234375 417.23736572265625 C262.6300048828125 414.79205322265625 267.1100158691406 409.6300964355469 267.1100158691406 409.6300964355469 C267.1100158691406 409.6300964355469 267.03424072265625 407.6261291503906 268.2190246582031 407.7172546386719 C268.2190246582031 407.7172546386719 270.1021423339844 410.0560607910156 272.28839111328125 410.90594482421875 C274.474609375 411.75592041015625 275.03680419921875 408.5825500488281 277.93780517578125 409.0986328125 C280.82342529296875 409.6300964355469 279.365234375 411.05755615234375 279.365234375 411.05755615234375 C279.365234375 411.05755615234375 276.8902282714844 418.452880859375 281.64263916015625 428.9908447265625 C286.379638671875 439.52984619140625 289.994384765625 443.5080871582031 289.3257141113281 446.2565002441406 Z"></path>
<path fill="#EEC2AB" fill-opacity="1.0"  filling="0" d="M225.64007568359375 287.6092224121094 L213.36538696289062 293.42962646484375 L237.91476440429688 305.198486328125 L243.35629272460938 311.2728271484375 L237.15597534179688 316.84033203125 L232.72720336914062 313.55023193359375 C232.72720336914062 313.55023193359375 189.57681274414062 311.0198974609375 180.71820068359375 310.6400146484375 C171.86062622070312 310.2601013183594 159.83883666992188 306.7170715332031 167.05191040039062 298.11236572265625 C175.53469848632812 287.99322509765625 202.86325073242188 268.88128662109375 202.86325073242188 268.88128662109375 L225.64007568359375 287.6092224121094 Z"></path>
<path fill="#DF9280" fill-opacity="1.0"  filling="0" d="M197.92755126953125 301.2755432128906 C197.789306640625 301.2755432128906 197.65518188476562 301.19873046875 197.58758544921875 301.0645751953125 C197.49441528320312 300.87823486328125 197.5701904296875 300.64984130859375 197.757568359375 300.5556640625 L211.93075561523438 293.4705810546875 C212.11813354492188 293.3804626464844 212.345458984375 293.45318603515625 212.439697265625 293.6416015625 C212.53286743164062 293.8279724121094 212.45709228515625 294.0563049316406 212.26968383789062 294.1505432128906 L198.09649658203125 301.235595703125 C198.04226684570312 301.2611999511719 197.98492431640625 301.2755432128906 197.92755126953125 301.2755432128906 Z"></path>
<path fill="#FF664D" fill-opacity="1.0"  filling="0" d="M249.0855712890625 348.1317138671875 C248.59918212890625 348.2679138183594 248.12918090820312 348.3590393066406 247.6734619140625 348.42047119140625 C243.649169921875 348.87615966796875 241.12908935546875 345.9454650878906 241.29598999023438 343.37933349609375 C242.49612426757812 325.3548583984375 235.51040649414062 318.6128845214844 235.51040649414062 318.6128845214844 L232.88385009765625 317.5653076171875 C231.91207885742188 317.1700744628906 231.48709106445312 316.0313720703125 231.95712280273438 315.10565185546875 L232.73126220703125 313.55633544921875 C232.73126220703125 313.55633544921875 235.79812622070312 314.81689453125 237.49899291992188 311.77972412109375 C239.21524047851562 308.7425231933594 237.90963745117188 305.20458984375 237.90963745117188 305.20458984375 C237.90963745117188 305.20458984375 247.93154907226562 306.3740234375 251.36294555664062 307.2997131347656 C252.01625061035156 307.46661376953125 252.4258575439453 307.633544921875 252.5016326904297 307.7861328125 C253.97415161132812 310.7475280761719 250.1177520751953 321.7411804199219 252.01522827148438 329.0453796386719 C255.05343627929688 340.7056579589844 249.0855712890625 348.1317138671875 249.0855712890625 348.1317138671875 Z"></path>
<path fill="#394363" fill-opacity="1.0"  filling="0" d="M235.21136474609375 244.46502685546875 C235.21136474609375 244.46502685546875 235.1304931640625 251.16506958007812 225.38711547851562 256.3526611328125 C215.643798828125 261.541259765625 201.21768188476562 268.7542724609375 201.21768188476562 268.7542724609375 C201.21768188476562 268.7542724609375 211.5938720703125 289.7596435546875 224.50137329101562 293.1767272949219 L252.34088134765625 277.1060485839844 L267.5257568359375 298.74420166015625 C267.5257568359375 298.74420166015625 284.988037109375 292.54388427734375 295.4912109375 282.54656982421875 L283.7254333496094 237.30931091308594 L258.18280029296875 244.5848388671875 L235.21136474609375 244.46502685546875 Z"></path>
<path fill="#BC2E61" fill-opacity="1.0"  filling="0" d="M235.21136474609375 244.46502685546875 C235.21136474609375 244.46502685546875 233.61190795898438 251.0380859375 226.14593505859375 254.96102905273438 C218.679931640625 258.88397216796875 204.76068115234375 263.8186340332031 204.76068115234375 263.8186340332031 C204.76068115234375 263.8186340332031 212.09970092773438 267.9945068359375 218.174072265625 275.84039306640625 C218.174072265625 275.84039306640625 230.95462036132812 270.77874755859375 235.7633056640625 265.59014892578125 C235.7633056640625 265.59014892578125 232.85311889648438 272.29632568359375 221.08428955078125 277.99078369140625 L226.27291870117188 285.203857421875 C226.27291870117188 285.203857421875 237.91476440429688 281.5338439941406 243.35629272460938 273.94189453125 C243.35629272460938 273.94189453125 239.58795166015625 284.46759033203125 233.45730590820312 288.00653076171875 C233.45730590820312 288.00653076171875 237.53485107421875 292.4169006347656 242.34356689453125 290.1395263671875 L249.9365234375 275.08056640625 L255.7569122314453 294.56829833984375 L258.1817626953125 293.55560302734375 L260.3127136230469 298.11138916015625 C260.3127136230469 298.11138916015625 270.3100280761719 294.0624694824219 273.22021484375 291.4051818847656 L262.969970703125 262.8069152832031 L274.73779296875 286.84942626953125 L282.58367919921875 281.91473388671875 L275.37060546875 258.25115966796875 L287.26544189453125 280.90203857421875 C287.26544189453125 280.90203857421875 297.89453125 277.35894775390625 299.28717041015625 274.44879150390625 L283.72442626953125 237.3103485107422 L258.1817626953125 244.5858612060547 L235.21136474609375 244.46502685546875 Z"></path>
<path fill="#EA5482" fill-opacity="1.0"  filling="0" d="M297.1357421875 262.427001953125 L283.72442626953125 237.30931091308594 L270.3089599609375 241.040771484375 L236.7484130859375 244.50189208984375 L235.21136474609375 244.46502685546875 C235.21136474609375 244.46502685546875 228.55029296875 256.3526611328125 212.09970092773438 252.74610900878906 C212.09970092773438 252.74610900878906 214.72525024414062 259.29461669921875 220.13504028320312 259.4840393066406 C220.13504028320312 259.4840393066406 227.26925659179688 258.67816162109375 232.93911743164062 252.65087890625 C230.56143188476562 257.15032958984375 226.321044921875 262.07373046875 218.93289184570312 263.185791015625 C218.93289184570312 263.185791015625 221.59011840820312 270.5247802734375 221.97006225585938 270.39886474609375 C222.34994506835938 270.2718811035156 234.6246337890625 266.8773193359375 240.06515502929688 257.5015869140625 C240.06515502929688 257.5015869140625 235.8892822265625 270.7777099609375 222.85580444335938 275.08056640625 L228.17037963867188 280.7750244140625 C228.17037963867188 280.7750244140625 241.077880859375 277.6119079589844 245.88555908203125 266.72882080078125 C245.88555908203125 266.72882080078125 245.50567626953125 279.6363525390625 241.45675659179688 283.43231201171875 L247.5311279296875 284.57098388671875 C247.5311279296875 284.57098388671875 253.35154724121094 277.2965087890625 252.02342224121094 267.7098388671875 L255.88287353515625 286.342529296875 L258.18072509765625 285.42913818359375 L252.87948608398438 259.89569091796875 L263.12664794921875 284.0651550292969 L266.3850402832031 282.29364013671875 L260.2532958984375 255.6399383544922 C260.86358642578125 258.23883056640625 265.63134765625 277.35284423828125 274.35687255859375 279.0035400390625 L277.89990234375 276.2192687988281 C277.89990234375 276.2192687988281 268.19854736328125 266.81793212890625 268.66241455078125 255.4668731689453 C268.66241455078125 255.4668731689453 275.07159423828125 273.43603515625 286.54656982421875 273.43603515625 L291.8201904296875 269.38714599609375 C291.8201904296875 269.38714599609375 278.78668212890625 263.18682861328125 278.40679931640625 252.3037567138672 L292.4530029296875 266.22296142578125 L297.1357421875 262.427001953125 Z"></path>
<path fill="#394363" fill-opacity="1.0"  filling="0" d="M234.8458251953125 238.32102966308594 L235.21136474609375 244.46502685546875 C235.21136474609375 244.46502685546875 261.1073303222656 253.80697631835938 283.88519287109375 237.61038208007812 L284.735107421875 231.9312744140625 C284.735107421875 231.93023681640625 265.05792236328125 245.47059631347656 234.8458251953125 238.32102966308594 Z"></path>
<path fill="#394363" fill-opacity="1.0"  filling="0" d="M234.18124389648438 155.6575927734375 C234.18124389648438 155.6575927734375 222.50765991210938 143.03475952148438 228.86669921875 134.39834594726562 C228.86669921875 134.39834594726562 223.18246459960938 121.57992553710938 235.63943481445312 119.21343994140625 C240.63449096679688 118.26419067382812 250.60006713867188 123.95867919921875 255.9146270751953 118.35943603515625 C255.9146270751953 118.35943603515625 257.3379821777344 122.91519165039062 252.30809020996094 124.62326049804688 L257.2437744140625 125.28781127929688 C257.2437744140625 125.28781127929688 257.2437744140625 128.89434814453125 255.3452911376953 129.08380126953125 C255.3452911376953 129.08380126953125 259.9952697753906 131.17172241210938 259.38189697265625 144.2686767578125 L234.18124389648438 155.6575927734375 Z"></path>
<path fill="#F1B99B" fill-opacity="1.0"  filling="0" d="M236.75457763671875 154.7390899658203 C238.54757690429688 155.7743377685547 239.501953125 157.478271484375 238.885498046875 158.5452880859375 C238.27008056640625 159.61228942871094 236.31732177734375 159.6378936767578 234.5242919921875 158.60263061523438 C232.73126220703125 157.56735229492188 231.77691650390625 155.86341857910156 232.39334106445312 154.79641723632812 C233.00875854492188 153.73043823242188 234.9615478515625 153.7038116455078 236.75457763671875 154.7390899658203 Z"></path>
<path fill="#F1B99B" fill-opacity="1.0"  filling="0" d="M261.42578125 147.1143798828125 C260.5953369140625 149.01080322265625 259.00811767578125 150.14846801757812 257.87969970703125 149.6549072265625 C256.751220703125 149.16134643554688 256.50958251953125 147.22293090820312 257.3390197753906 145.32644653320312 C258.1694641113281 143.42999267578125 259.75665283203125 142.29232788085938 260.8851318359375 142.78594970703125 C262.0135498046875 143.27951049804688 262.2562561035156 145.2169189453125 261.42578125 147.1143798828125 Z"></path>
<path fill="#FF664D" fill-opacity="1.0"  filling="0" d="M259.79046630859375 155.0237579345703 C259.759765625 155.4190216064453 259.73004150390625 155.7978973388672 259.6839599609375 156.17779541015625 C259.6686096191406 156.4358367919922 259.62353515625 156.6938934326172 259.59283447265625 156.93759155273438 C259.0009765625 161.0069580078125 257.28472900390625 164.2264404296875 254.0806427001953 165.69894409179688 C251.1806640625 167.0352783203125 247.23211669921875 167.1714630126953 243.31430053710938 164.65139770507812 C243.101318359375 164.5152130126953 242.88934326171875 164.3626251220703 242.67633056640625 164.21109008789062 C242.342529296875 163.96839904785156 241.99334716796875 163.71034240722656 241.6595458984375 163.4062042236328 C240.91506958007812 162.78359985351562 240.17166137695312 162.03916931152344 239.45794677734375 161.1892547607422 C237.45394897460938 158.83609008789062 235.57080078125 155.60128784179688 233.94570922851562 151.2584991455078 C232.33599853515625 146.96078491210938 231.5465087890625 143.45355224609375 231.348876953125 140.53823852539062 C230.84811401367188 133.08248901367188 234.3399658203125 129.6654052734375 238.51583862304688 127.79763793945312 C243.5416259765625 125.5499267578125 249.99591064453125 126.416259765625 253.91372680664062 131.9581298828125 C254.52096557617188 132.80807495117188 255.0677947998047 133.7808837890625 255.538818359375 134.85812377929688 C257.93804931640625 140.339599609375 259.54779052734375 146.50509643554688 259.80584716796875 151.9261474609375 C259.8519287109375 153.00442504882812 259.8519287109375 154.03660583496094 259.79046630859375 155.0237579345703 Z"></path>
<path fill="#F1B049" fill-opacity="1.0"  filling="0" d="M241.78033447265625 146.18045043945312 C242.87091064453125 149.21563720703125 242.65179443359375 152.0725860595703 241.29086303710938 152.56105041503906 C239.92999267578125 153.04945373535156 237.94345092773438 150.98509216308594 236.85287475585938 147.949951171875 C235.7623291015625 144.91482543945312 235.9814453125 142.05789184570312 237.34234619140625 141.56942749023438 C238.70220947265625 141.08096313476562 240.68978881835938 143.14532470703125 241.78033447265625 146.18045043945312 Z"></path>
<path fill="#394363" fill-opacity="1.0"  filling="0" d="M240.9775390625 146.46923828125 C241.762939453125 148.65548706054688 241.65542602539062 150.6942901611328 240.73794555664062 151.0240020751953 C239.8204345703125 151.3537139892578 238.4400634765625 149.84844970703125 237.6546630859375 147.66323852539062 C236.8692626953125 145.47698974609375 236.97674560546875 143.43820190429688 237.894287109375 143.10845947265625 C238.81179809570312 142.77874755859375 240.192138671875 144.28298950195312 240.9775390625 146.46923828125 Z"></path>
<path fill="#F1B049" fill-opacity="1.0"  filling="0" d="M254.01510620117188 141.12600708007812 C255.05548095703125 144.02291870117188 254.77902221679688 146.7744140625 253.3976287841797 147.27105712890625 C252.01625061035156 147.7677001953125 250.05221557617188 145.82107543945312 249.0118408203125 142.92416381835938 C247.97146606445312 140.02725219726562 248.24795532226562 137.27578735351562 249.62930297851562 136.77911376953125 C251.0106964111328 136.28250122070312 252.97471618652344 138.2291259765625 254.01510620117188 141.12600708007812 Z"></path>
<path fill="#394363" fill-opacity="1.0"  filling="0" d="M253.17442321777344 141.4281005859375 C253.95980834960938 143.61434936523438 253.852294921875 145.65313720703125 252.93479919433594 145.98284912109375 C252.0172882080078 146.31259155273438 250.63694763183594 144.80728149414062 249.85153198242188 142.6220703125 C249.06610107421875 140.43582153320312 249.17361450195312 138.39706420898438 250.09112548828125 138.06732177734375 C251.00865173339844 137.73757934570312 252.38900756835938 139.24188232421875 253.17442321777344 141.4281005859375 Z"></path>
<path fill="#394363" fill-opacity="1.0"  filling="0" d="M259.79046630859375 155.0237579345703 L257.709716796875 154.62950134277344 L255.58387756347656 159.82322692871094 L250.08705139160156 158.45619201660156 L248.26535034179688 163.011962890625 L242.84429931640625 161.43296813964844 L241.6595458984375 163.4072265625 C240.91506958007812 162.78465270996094 240.17166137695312 162.04019165039062 239.45794677734375 161.19027709960938 L241.46188354492188 157.86534118652344 L246.47332763671875 159.32351684570312 L248.26535034179688 154.88958740234375 L253.7775421142578 156.2412872314453 L255.8275909423828 151.1847686767578 L259.80584716796875 151.92921447753906 C259.8519287109375 153.00442504882812 259.8519287109375 154.03660583496094 259.79046630859375 155.0237579345703 Z"></path>
<path fill="#394363" fill-opacity="1.0"  filling="0" d="M259.68499755859375 156.17779541015625 C259.66961669921875 156.4358367919922 259.62457275390625 156.6938934326172 259.5938720703125 156.93759155273438 L259.3511657714844 156.877197265625 L257.1495666503906 162.6023712158203 L251.41004943847656 161.20562744140625 L249.572998046875 165.65492248535156 L243.66555786132812 164.0298309326172 L243.31634521484375 164.6524200439453 C243.10336303710938 164.51620483398438 242.89138793945312 164.3636474609375 242.67840576171875 164.2120819091797 L243.28561401367188 163.1338348388672 L249.11630249023438 164.74354553222656 L250.95333862304688 160.32498168945312 L256.67852783203125 161.7063751220703 L258.880126953125 155.99655151367188 L259.68499755859375 156.17779541015625 Z"></path>
<path fill="#F1B049" fill-opacity="1.0"  filling="0" d="M249.64776611328125 148.66162109375 L244.90969848632812 150.72705078125 C242.38864135742188 138.442138671875 235.37319946289062 139.03500366210938 231.34988403320312 140.53823852539062 C230.84918212890625 133.08248901367188 234.34100341796875 129.6654052734375 238.51687622070312 127.79763793945312 C243.54266357421875 125.5499267578125 249.9969482421875 126.416259765625 253.9147491455078 131.9581298828125 C252.38079833984375 132.54998779296875 250.5437469482422 133.3251953125 248.60018920898438 134.31231689453125 C243.46688842773438 136.892822265625 249.64776611328125 148.66162109375 249.64776611328125 148.66162109375 Z"></path></svg>