<svg xmlns="http://www.w3.org/2000/svg" viewBox="0.0 0.0 512.0 512.0" height="512.0px" width="512.0px"><path fill="#FCA688" fill-opacity="1.0"  filling="0" d="M187.84133911132812 160.90481567382812 L187.1990966796875 157.45599365234375 L177.04595947265625 159.10589599609375 L177.77505493164062 163.71139526367188 L187.84133911132812 160.90481567382812 Z"></path>
<path fill="#EA162C" fill-opacity="1.0"  filling="0" d="M246.78607177734375 222.7003631591797 C246.78607177734375 222.7003631591797 217.93057250976562 219.95440673828125 204.73001098632812 200.8195343017578 C191.5294189453125 181.68466186523438 188.48526000976562 159.76943969726562 188.48526000976562 159.76943969726562 L176.76907348632812 162.90530395507812 C176.76907348632812 162.90530395507812 175.2257080078125 185.73312377929688 189.92376708984375 213.5564422607422 C204.92169189453125 241.943359375 241.80862426757812 253.9938201904297 241.80862426757812 253.9938201904297 L246.78607177734375 222.7003631591797 Z"></path>
<path fill="#EA162C" fill-opacity="1.0"  filling="0" d="M289.40740966796875 186.1951904296875 C289.40740966796875 209.51124572753906 283.461669921875 222.625 250.26275634765625 223.29019165039062 C222.98175048828125 223.83741760253906 216.0382080078125 211.97213745117188 216.0382080078125 188.65440368652344 C216.0382080078125 165.336669921875 226.35525512695312 144.59127807617188 250.87881469726562 144.59127807617188 C275.40240478515625 144.59127807617188 289.40740966796875 162.87908935546875 289.40740966796875 186.1951904296875 Z"></path>
<path fill="#FCA688" fill-opacity="1.0"  filling="0" d="M224.03033447265625 169.7996826171875 C224.03033447265625 169.7996826171875 222.9522705078125 181.7649383544922 221.3663330078125 191.04483032226562 C220.09820556640625 198.46188354492188 221.90859985351562 216.84799194335938 246.0963134765625 216.32044982910156 C269.63031005859375 215.8076171875 273.62640380859375 201.97457885742188 273.011962890625 196.03048706054688 C272.3975830078125 190.08799743652344 270.75750732421875 169.79806518554688 270.75750732421875 169.79806518554688 L224.03033447265625 169.79806518554688 L224.03033447265625 169.7996826171875 Z"></path>
<path fill="#4A000C" fill-opacity="1.0"  filling="0" d="M235.30255126953125 185.511962890625 A3.142451286315918 5.532877445220947 0.0 1 1 229.01766967773438 185.511962890625 A3.142451286315918 5.532877445220947 0.0 1 1 235.30255126953125 185.511962890625 Z"></path>
<path fill="#FFFFFF" fill-opacity="1.0"  filling="0" d="M231.4080810546875 182.94949340820312 C231.4080810546875 183.54588317871094 231.10165405273438 184.02920532226562 230.724853515625 184.02920532226562 C230.3480224609375 184.02920532226562 230.04165649414062 183.54588317871094 230.04165649414062 182.94949340820312 C230.04165649414062 182.35313415527344 230.3480224609375 181.86978149414062 230.724853515625 181.86978149414062 C231.10333251953125 181.86978149414062 231.4080810546875 182.35475158691406 231.4080810546875 182.94949340820312 Z"></path>
<path fill="#4A000C" fill-opacity="1.0"  filling="0" d="M254.12286376953125 185.511962890625 A3.142451286315918 5.532877445220947 0.0 1 1 247.83795166015625 185.511962890625 A3.142451286315918 5.532877445220947 0.0 1 1 254.12286376953125 185.511962890625 Z"></path>
<path fill="#FFFFFF" fill-opacity="1.0"  filling="0" d="M250.52001953125 182.94949340820312 C250.52001953125 183.54588317871094 250.213623046875 184.02920532226562 249.83676147460938 184.02920532226562 C249.4599609375 184.02920532226562 249.153564453125 183.54588317871094 249.153564453125 182.94949340820312 C249.153564453125 182.35313415527344 249.4599609375 181.86978149414062 249.83676147460938 181.86978149414062 C250.213623046875 181.86978149414062 250.52001953125 182.35475158691406 250.52001953125 182.94949340820312 Z"></path>
<path fill="#4A000C" fill-opacity="1.0"  filling="0" d="M232.65484619140625 200.51150512695312 L250.51837158203125 200.51150512695312 C250.51837158203125 200.51150512695312 249.96295166015625 209.33265686035156 241.5858154296875 209.33265686035156 C233.2103271484375 209.33265686035156 232.65484619140625 200.51150512695312 232.65484619140625 200.51150512695312 Z"></path>
<path fill="#EA162C" fill-opacity="1.0"  filling="0" d="M241.58746337890625 205.13670349121094 C238.93319702148438 205.13670349121094 237.06869506835938 206.0247344970703 235.75311279296875 207.23388671875 C237.06707763671875 208.44300842285156 238.93319702148438 209.33103942871094 241.58746337890625 209.33103942871094 C244.24166870117188 209.33103942871094 246.10614013671875 208.44300842285156 247.4217529296875 207.23388671875 C246.10614013671875 206.0247344970703 244.24166870117188 205.13670349121094 241.58746337890625 205.13670349121094 Z"></path>
<path fill="#FCA688" fill-opacity="1.0"  filling="0" d="M262.2869873046875 195.3144989013672 C262.2869873046875 196.76779174804688 260.29962158203125 197.94412231445312 257.846923828125 197.94412231445312 C255.39425659179688 197.94412231445312 253.4068603515625 196.76612854003906 253.4068603515625 195.3144989013672 C253.4068603515625 193.86288452148438 255.3958740234375 192.68487548828125 257.846923828125 192.68487548828125 C260.2979431152344 192.68487548828125 262.2869873046875 193.86288452148438 262.2869873046875 195.3144989013672 Z"></path>
<path fill="#FCA688" fill-opacity="1.0"  filling="0" d="M231.68167114257812 195.3144989013672 C231.68167114257812 196.76779174804688 229.6943359375 197.94412231445312 227.24160766601562 197.94412231445312 C224.78890991210938 197.94412231445312 222.80157470703125 196.76612854003906 222.80157470703125 195.3144989013672 C222.80157470703125 193.86288452148438 224.78890991210938 192.68487548828125 227.24160766601562 192.68487548828125 C229.6943359375 192.68487548828125 231.68167114257812 193.86288452148438 231.68167114257812 195.3144989013672 Z"></path>
<path fill="#FFFFFF" fill-opacity="1.0"  filling="0" d="M225.13626098632812 194.00706481933594 C225.13626098632812 194.22006225585938 224.8905029296875 194.39373779296875 224.58905029296875 194.39373779296875 C224.28756713867188 194.39373779296875 224.04180908203125 194.22006225585938 224.04180908203125 194.00706481933594 C224.04180908203125 193.79408264160156 224.28756713867188 193.62037658691406 224.58905029296875 193.62037658691406 C224.8905029296875 193.62037658691406 225.13626098632812 193.7924346923828 225.13626098632812 194.00706481933594 Z"></path>
<path fill="#FFFFFF" fill-opacity="1.0"  filling="0" d="M256.0036926269531 194.00706481933594 C256.0036926269531 194.22006225585938 255.7579345703125 194.39373779296875 255.45651245117188 194.39373779296875 C255.155029296875 194.39373779296875 254.90924072265625 194.22006225585938 254.90924072265625 194.00706481933594 C254.90924072265625 193.79408264160156 255.155029296875 193.62037658691406 255.45651245117188 193.62037658691406 C255.7579345703125 193.62037658691406 256.0036926269531 193.7924346923828 256.0036926269531 194.00706481933594 Z"></path>
<path fill="#FCA688" fill-opacity="1.0"  filling="0" d="M269.9383239746094 185.511962890625 C269.9383239746094 185.511962890625 273.72955322265625 177.89503479003906 278.7512512207031 181.2766876220703 C283.77294921875 184.6583251953125 280.69769287109375 196.74974060058594 271.68157958984375 195.3144989013672 L269.9383239746094 185.511962890625 Z"></path>
<path fill="#FCA688" fill-opacity="1.0"  filling="0" d="M271.730712890625 186.50318908691406 C271.730712890625 186.50318908691406 273.8819580078125 181.686279296875 277.1619873046875 182.5071258544922 C280.4404296875 183.32632446289062 278.34002685546875 188.5020294189453 278.34002685546875 188.5020294189453 C278.34002685546875 188.5020294189453 278.6988830566406 184.45518493652344 276.70001220703125 184.0439453125 C274.701171875 183.63433837890625 273.113525390625 187.32237243652344 273.113525390625 188.04000854492188 C273.113525390625 188.75762939453125 274.2407531738281 186.70799255371094 275.11236572265625 187.5796356201172 C275.9840087890625 188.45123291015625 275.16314697265625 191.0120849609375 273.42156982421875 190.50088500976562 C273.42156982421875 190.50088500976562 272.961181640625 192.85690307617188 274.650390625 192.8061065673828 C276.3411865234375 192.7553253173828 277.5716552734375 190.39768981933594 277.5716552734375 190.39768981933594 C277.5716552734375 190.39768981933594 277.4684143066406 193.42050170898438 274.34393310546875 193.83010864257812 C271.2178955078125 194.2397003173828 270.8607177734375 190.3960418701172 271.730712890625 186.50318908691406 Z"></path>
<path fill="#4A000C" fill-opacity="1.0"  filling="0" d="M224.03033447265625 169.7996826171875 C224.03033447265625 169.7996826171875 229.3583984375 176.01577758789062 239.05941772460938 177.24623107910156 L236.87374877929688 173.69418334960938 C236.87374877929688 173.69418334960938 243.294677734375 177.11024475097656 253.54287719726562 177.86062622070312 L252.1763916015625 175.40138244628906 C252.1763916015625 175.40138244628906 255.59243774414062 177.1774444580078 260.71575927734375 177.6558380126953 C265.83905029296875 178.1342315673828 264.06298828125 182.02708435058594 264.267822265625 184.00953674316406 C264.4726257324219 185.99037170410156 268.64068603515625 187.22080993652344 266.931884765625 193.91531372070312 C266.931884765625 193.91531372070312 270.4839172363281 191.11363220214844 271.9191589355469 182.64312744140625 C271.9191589355469 182.64312744140625 274.7879638671875 179.22706604003906 277.999267578125 180.86708068847656 L278.0336608886719 165.9068603515625 L223.62234497070312 165.9068603515625 C223.62234497070312 165.9068603515625 218.80551147460938 170.41574096679688 223.57159423828125 174.41177368164062 L224.03033447265625 169.7996826171875 Z"></path>
<path fill="#EA162C" fill-opacity="1.0"  filling="0" d="M221.63992309570312 167.40927124023438 C221.63992309570312 167.40927124023438 224.7823486328125 167.40927124023438 245.1395263671875 167.40927124023438 C265.49664306640625 167.40927124023438 279.296875 180.66229248046875 279.296875 180.66229248046875 L282.4393310546875 161.94357299804688 L266.45343017578125 156.88748168945312 L225.465576171875 159.62033081054688 C225.465576171875 159.62033081054688 219.316650390625 162.76275634765625 221.63992309570312 167.40927124023438 Z"></path>
<path fill="#FDEDCB" fill-opacity="1.0"  filling="0" d="M233.68869018554688 151.4447021484375 C233.68869018554688 151.4447021484375 226.1488037109375 148.12857055664062 223.43231201171875 142.87258911132812 C221.05990600585938 138.2801513671875 222.0003662109375 135.33758544921875 222.0003662109375 135.33758544921875 C222.0003662109375 135.33758544921875 216.21844482421875 138.51116943359375 215.30093383789062 145.78890991210938 C214.36215209960938 153.22564697265625 222.53610229492188 162.67263793945312 222.53610229492188 162.67263793945312 C222.53610229492188 162.67263793945312 226.42242431640625 163.3427734375 229.43707275390625 160.26092529296875 C232.45333862304688 157.17910766601562 233.68869018554688 151.4447021484375 233.68869018554688 151.4447021484375 Z"></path>
<path fill="#FDEDCB" fill-opacity="1.0"  filling="0" d="M266.8236999511719 154.71002197265625 C266.8236999511719 154.71002197265625 274.701171875 152.29830932617188 278.01239013671875 147.396240234375 C280.90576171875 143.11343383789062 280.3159484863281 140.08078002929688 280.3159484863281 140.08078002929688 C280.3159484863281 140.08078002929688 285.6866455078125 143.90969848632812 285.74725341796875 151.24484252929688 C285.80950927734375 158.740478515625 276.5853271484375 167.16677856445312 276.5853271484375 167.16677856445312 C276.5853271484375 167.16677856445312 272.648193359375 167.37814331054688 270.013671875 163.9637451171875 C267.3807373046875 160.55093383789062 266.8236999511719 154.71002197265625 266.8236999511719 154.71002197265625 Z"></path>
<path fill="#EA162C" fill-opacity="1.0"  filling="0" d="M231.46051025390625 219.5660858154297 C231.46051025390625 219.5660858154297 219.29043579101562 221.58460998535156 219.46905517578125 230.13214111328125 C219.5526123046875 234.11346435546875 215.7891845703125 270.61865234375 220.53726196289062 292.9385681152344 L282.27545166015625 292.9385681152344 C282.27545166015625 292.9385681152344 283.58123779296875 246.87332153320312 283.9384460449219 235.83050537109375 C284.2939453125 224.78932189941406 279.3083190917969 217.6655731201172 270.7591552734375 217.6655731201172 L231.46051025390625 219.5660858154297 Z"></path>
<path fill="#EA162C" fill-opacity="1.0"  filling="0" d="M218.40081787109375 277.50482177734375 C218.40081787109375 277.50482177734375 222.31817626953125 323.094970703125 230.15469360351562 362.6311950683594 C230.15469360351562 362.6311950683594 226.71075439453125 366.78619384765625 222.91293334960938 368.21160888671875 C219.11349487304688 369.6369934082031 204.03530883789062 371.535888671875 208.30990600585938 384.5955810546875 C208.30990600585938 384.5955810546875 210.32843017578125 387.919921875 222.20025634765625 387.919921875 C234.07376098632812 387.919921875 248.67681884765625 381.50885009765625 248.67681884765625 381.50885009765625 C248.67681884765625 381.50885009765625 249.2698974609375 369.3994140625 247.60858154296875 362.0380859375 C245.94720458984375 354.6767883300781 244.7593994140625 311.935791015625 250.6953125 307.6612548828125 C256.6311950683594 303.38665771484375 262.15264892578125 349.6911315917969 260.9648132324219 361.800537109375 L277.2898254394531 361.800537109375 C277.2898254394531 361.800537109375 280.6141357421875 329.9811706542969 282.27545166015625 292.9385681152344 L218.40081787109375 277.50482177734375 Z"></path>
<path fill="#EA162C" fill-opacity="1.0"  filling="0" d="M277.3275146484375 361.800537109375 C277.3275146484375 361.800537109375 281.18267822265625 368.3033447265625 286.18963623046875 370.8936462402344 C291.1965637207031 373.48394775390625 298.7938232421875 375.5549011230469 298.7938232421875 385.56878662109375 C298.7938232421875 385.56878662109375 295.8578186035156 390.05804443359375 283.6009216308594 390.05804443359375 C271.3424072265625 390.05804443359375 258.3941650390625 383.15216064453125 258.3941650390625 383.15216064453125 C258.3941650390625 383.15216064453125 256.9933166503906 373.79034423828125 260.9648132324219 361.4744873046875 L277.3275146484375 361.800537109375 Z"></path>
<path fill="#EA162C" fill-opacity="1.0"  filling="0" d="M271.827392578125 286.5291748046875 C271.827392578125 286.5291748046875 278.23846435546875 274.89324951171875 290.1119079589844 280.11810302734375 C301.9837646484375 285.34295654296875 315.28265380859375 297.4523620605469 319.793212890625 287.71697998046875 C324.3053894042969 277.98162841796875 300.32244873046875 272.75677490234375 306.25836181640625 257.79815673828125 L297.94677734375 260.1722106933594 L309.025634765625 241.41744995117188 L318.60540771484375 260.4097900390625 L309.1075744628906 257.79815673828125 C309.1075744628906 257.79815673828125 306.49591064453125 266.583251953125 316.7064514160156 273.469482421875 C326.91693115234375 280.35565185546875 328.3424072265625 290.0910339355469 322.64239501953125 295.553466796875 C316.94403076171875 301.01422119140625 309.34515380859375 300.77667236328125 297.23406982421875 293.8921203613281 C285.1246643066406 287.0059509277344 280.13739013671875 288.90484619140625 275.3892517089844 298.404296875 L271.827392578125 286.5291748046875 Z"></path>
<path fill="#FFFFFF" fill-opacity="1.0"  filling="0" d="M233.65432739257812 202.34979248046875 L249.397705078125 202.34979248046875 L250.01043701171875 200.51150512695312 L233.33316040039062 200.51150512695312 L233.65432739257812 202.34979248046875 Z"></path>
<path fill="#FCA688" fill-opacity="1.0"  filling="0" d="M186.59457397460938 143.87200927734375 C187.19091796875 148.2318115234375 186.391357421875 151.94113159179688 184.80868530273438 152.15737915039062 C183.22601318359375 152.37368774414062 181.45980834960938 149.01495361328125 180.86505126953125 144.65518188476562 C180.2686767578125 140.29537963867188 181.06817626953125 136.5860595703125 182.65090942382812 136.36978149414062 C184.23193359375 136.15188598632812 185.9981689453125 139.51223754882812 186.59457397460938 143.87200927734375 Z"></path>
<path fill="#FCA688" fill-opacity="1.0"  filling="0" d="M183.81744384765625 145.38427734375 C184.55633544921875 149.72274780273438 183.87969970703125 153.45663452148438 182.30517578125 153.72372436523438 C180.73068237304688 153.992431640625 178.85635375976562 150.69268798828125 178.117431640625 146.35418701171875 C177.37857055664062 142.01571655273438 178.05517578125 138.28176879882812 179.62969970703125 138.01473999023438 C181.20257568359375 137.74600219726562 183.07855224609375 141.0457763671875 183.81744384765625 145.38427734375 Z"></path>
<path fill="#FCA688" fill-opacity="1.0"  filling="0" d="M180.22116088867188 145.843017578125 C180.74057006835938 149.56546020507812 180.06716918945312 152.73739624023438 178.71710205078125 152.92584228515625 C177.36544799804688 153.11422729492188 175.8482666015625 150.25030517578125 175.32891845703125 146.5262451171875 C174.80792236328125 142.80377197265625 175.48291015625 139.6318359375 176.83294677734375 139.44342041015625 C178.18301391601562 139.2550048828125 179.70016479492188 142.12057495117188 180.22116088867188 145.843017578125 Z"></path>
<path fill="#FCA688" fill-opacity="1.0"  filling="0" d="M177.54730224609375 147.79269409179688 C178.03558349609375 151.72323608398438 177.27532958984375 155.05245971679688 175.8482666015625 155.22940063476562 C174.42120361328125 155.4063720703125 172.86965942382812 152.36383056640625 172.38140869140625 148.43331909179688 C171.89315795898438 144.5028076171875 172.65341186523438 141.173583984375 174.0804443359375 140.9949951171875 C175.50750732421875 140.81967163085938 177.05908203125 143.8621826171875 177.54730224609375 147.79269409179688 Z"></path>
<path fill="#FCA688" fill-opacity="1.0"  filling="0" d="M172.48464965820312 143.7491455078125 C172.48464965820312 143.7491455078125 170.94290161132812 145.93313598632812 171.97018432617188 151.20223999023438 C172.99908447265625 156.47134399414062 177.60299682617188 159.94143676757812 177.60299682617188 159.94143676757812 L182.50836181640625 155.95684814453125 L182.70169067382812 147.98931884765625 L172.48464965820312 143.7491455078125 Z"></path>
<path fill="#4A000C" fill-opacity="1.0"  filling="0" d="M261.68408203125 93.86151123046875 L102.877197265625 203.4147491455078 C101.72705078125 204.20773315429688 100.15254211425781 203.91773986816406 99.3612060546875 202.7692413330078 C98.56822204589844 201.62071228027344 98.85658264160156 200.04620361328125 100.0067138671875 199.25323486328125 C100.01657104492188 199.24668884277344 100.03622436523438 199.2335662841797 100.04441833496094 199.2270050048828 L260.8124084472656 92.57208251953125 C261.16961669921875 92.33450317382812 261.65289306640625 92.43280029296875 261.8905029296875 92.78997802734375 C262.12640380859375 93.14389038085938 262.03302001953125 93.62063598632812 261.68408203125 93.86151123046875 Z"></path>
<path fill="#4A000C" fill-opacity="1.0"  filling="0" d="M246.64682006835938 81.40963745117188 C246.64682006835938 81.40963745117188 245.3148193359375 82.42547607421875 242.95388793945312 84.15890502929688 C240.579833984375 85.87265014648438 237.22601318359375 88.37777709960938 233.13491821289062 91.28265380859375 C230.02194213867188 93.49285888671875 231.10494995117188 92.37384033203125 228.63259887695312 95.34097290039062 C225.79656982421875 98.74392700195312 223.96481323242188 103.31671142578125 224.35641479492188 107.78952026367188 C224.48416137695312 110.77633666992188 225.58026123046875 113.7025146484375 227.228515625 116.23385620117188 C229.52880859375 119.0355224609375 231.84881591796875 121.25717163085938 235.31890869140625 122.57608032226562 C240.27508544921875 124.46026611328125 245.788330078125 124.02114868164062 250.35125732421875 121.31942749023438 C251.51119995117188 120.647705078125 253.546142578125 119.0863037109375 254.6044921875 118.41293334960938 C259.2919921875 115.42776489257812 264.0384521484375 112.53106689453125 268.76519775390625 109.60488891601562 C268.9864196777344 109.92108154296875 269.2091979980469 110.2373046875 269.430419921875 110.55352783203125 C269.7908935546875 111.06631469726562 256.71148681640625 120.16763305664062 255.48269653320312 120.97540283203125 C250.97711181640625 123.934326171875 248.49493408203125 126.46563720703125 243.00466918945312 126.9326171875 C237.61761474609375 127.391357421875 232.17645263671875 125.561279296875 227.982177734375 122.19107055664062 C227.07940673828125 121.46527099609375 226.23236083984375 120.66900634765625 225.4541015625 119.8121337890625 L225.07400512695312 119.31402587890625 L224.2613525390625 118.24252319335938 C222.2608642578125 115.18853759765625 220.96981811523438 111.61026000976562 220.82235717773438 108.00088500976562 C220.5045166015625 103.31015014648438 222.11175537109375 98.63250732421875 224.8675537109375 94.86749267578125 C227.8380126953125 90.80752563476562 227.46115112304688 91.64962768554688 231.586669921875 88.99380493164062 C235.80551147460938 86.27731323242188 239.37887573242188 84.094970703125 241.85287475585938 82.52865600585938 C244.3399658203125 80.98202514648438 245.7784423828125 80.12350463867188 245.7784423828125 80.12350463867188 L246.64682006835938 81.40963745117188 Z"></path>
<path fill="#4A000C" fill-opacity="1.0"  filling="0" d="M267.4331970214844 89.031494140625 L256.53289794921875 92.18051147460938 L258.494140625 95.08047485351562 L260.4569091796875 97.97879028320312 L267.4331970214844 89.031494140625 Z"></path>
<path fill="#4A000C" fill-opacity="1.0"  filling="0" d="M252.39593505859375 76.58126831054688 L241.49569702148438 79.73028564453125 L243.45687866210938 82.62863159179688 L245.41799926757812 85.528564453125 L252.39593505859375 76.58126831054688 Z"></path>
<path fill="#4A000C" fill-opacity="1.0"  filling="0" d="M275.35162353515625 105.90863037109375 L264.44964599609375 109.05764770507812 L266.4124450683594 111.95599365234375 L268.3736572265625 114.85595703125 L275.35162353515625 105.90863037109375 Z"></path>
<path fill="#FCA688" fill-opacity="1.0"  filling="0" d="M187.1990966796875 157.45599365234375 C187.1990966796875 157.45599365234375 189.17010498046875 152.74395751953125 190.36941528320312 151.03018188476562 C191.56869506835938 149.31643676757812 191.31149291992188 146.23294067382812 190.79864501953125 144.1767578125 C190.2841796875 142.12057495117188 188.40008544921875 140.32162475585938 186.51425170898438 140.57882690429688 C184.63009643554688 140.83609008789062 181.28775024414062 142.97744750976562 179.66085815429688 143.66229248046875 C178.03390502929688 144.34713745117188 176.14810180664062 146.91778564453125 179.0611572265625 147.94674682617188 C181.9742431640625 148.97564697265625 184.37286376953125 147.004638671875 184.37286376953125 147.004638671875 C184.37286376953125 147.004638671875 174.52114868164062 150.1749267578125 177.60467529296875 159.94143676757812 L187.1990966796875 157.45599365234375 Z"></path>
<path fill="#EA162C" fill-opacity="1.0"  filling="0" d="M179.35281372070312 185.5185089111328 C181.24191284179688 193.564697265625 184.45806884765625 203.21324157714844 189.92208862304688 213.55482482910156 C196.83456420898438 226.63743591308594 208.39181518554688 236.2417449951172 218.84970092773438 242.80516052246094 C219.01519775390625 240.20994567871094 219.2216796875 237.25099182128906 219.47067260742188 234.146240234375 C219.47067260742188 234.1478729248047 192.56158447265625 226.26551818847656 179.35281372070312 185.5185089111328 Z"></path>
<path fill="#FCA688" fill-opacity="1.0"  filling="0" d="M318.4267578125 160.90481567382812 L319.06903076171875 157.45599365234375 L329.22216796875 159.10589599609375 L328.4931335449219 163.71139526367188 L318.4267578125 160.90481567382812 Z"></path>
<path fill="#EA162C" fill-opacity="1.0"  filling="0" d="M259.4820556640625 222.7003631591797 C259.4820556640625 222.7003631591797 288.33758544921875 219.95440673828125 301.53814697265625 200.8195343017578 C314.73870849609375 181.68466186523438 317.78289794921875 159.76943969726562 317.78289794921875 159.76943969726562 L329.49908447265625 162.90530395507812 C329.49908447265625 162.90530395507812 331.0424499511719 185.73312377929688 316.3443908691406 213.5564422607422 C301.346435546875 241.943359375 264.4595031738281 253.9938201904297 264.4595031738281 253.9938201904297 L259.4820556640625 222.7003631591797 Z"></path>
<path fill="#FCA688" fill-opacity="1.0"  filling="0" d="M319.6752014160156 143.87200927734375 C319.0788879394531 148.2318115234375 319.8783874511719 151.94113159179688 321.4610595703125 152.15737915039062 C323.04376220703125 152.37368774414062 324.8083190917969 149.01495361328125 325.4046936035156 144.65518188476562 C326.0011291503906 140.29537963867188 325.2015686035156 136.5860595703125 323.618896484375 136.36978149414062 C322.0361633300781 136.15188598632812 320.26995849609375 139.51223754882812 319.6752014160156 143.87200927734375 Z"></path>
<path fill="#FCA688" fill-opacity="1.0"  filling="0" d="M322.45233154296875 145.38427734375 C321.7134094238281 149.72274780273438 322.39007568359375 153.45663452148438 323.9645690917969 153.72372436523438 C325.5390625 153.992431640625 327.4134216308594 150.69268798828125 328.15234375 146.35418701171875 C328.8912048339844 142.01571655273438 328.2145690917969 138.28176879882812 326.64007568359375 138.01473999023438 C325.0655517578125 137.74600219726562 323.1911926269531 141.0457763671875 322.45233154296875 145.38427734375 Z"></path>
<path fill="#FCA688" fill-opacity="1.0"  filling="0" d="M326.04693603515625 145.843017578125 C325.52593994140625 149.56546020507812 326.1993408203125 152.73739624023438 327.551025390625 152.92584228515625 C328.9027099609375 153.11422729492188 330.4198913574219 150.25030517578125 330.939208984375 146.5262451171875 C331.460205078125 142.80377197265625 330.786865234375 139.6318359375 329.4351806640625 139.44342041015625 C328.08514404296875 139.2550048828125 326.56793212890625 142.12057495117188 326.04693603515625 145.843017578125 Z"></path>
<path fill="#FCA688" fill-opacity="1.0"  filling="0" d="M328.7208251953125 147.79269409179688 C328.2326354980469 151.72323608398438 328.9928283691406 155.05245971679688 330.4198913574219 155.22940063476562 C331.846923828125 155.4063720703125 333.3984375 152.36383056640625 333.88671875 148.43331909179688 C334.37493896484375 144.5028076171875 333.61468505859375 141.173583984375 332.18768310546875 140.9949951171875 C330.76226806640625 140.81967163085938 329.2090759277344 143.8621826171875 328.7208251953125 147.79269409179688 Z"></path>
<path fill="#FCA688" fill-opacity="1.0"  filling="0" d="M333.78350830078125 143.7491455078125 C333.78350830078125 143.7491455078125 335.3251953125 145.93313598632812 334.2979431152344 151.20223999023438 C333.2690124511719 156.47134399414062 328.6651306152344 159.94143676757812 328.6651306152344 159.94143676757812 L323.759765625 155.95684814453125 L323.56640625 147.98931884765625 L333.78350830078125 143.7491455078125 Z"></path>
<path fill="#FCA688" fill-opacity="1.0"  filling="0" d="M319.06903076171875 157.45599365234375 C319.06903076171875 157.45599365234375 317.0980224609375 152.74395751953125 315.898681640625 151.03018188476562 C314.69940185546875 149.31643676757812 314.9566345214844 146.23294067382812 315.47113037109375 144.1767578125 C315.9855651855469 142.12057495117188 317.86968994140625 140.32162475585938 319.7554931640625 140.57882690429688 C321.6396484375 140.83609008789062 324.98199462890625 142.97744750976562 326.6089172363281 143.66229248046875 C328.23590087890625 144.34713745117188 330.1216735839844 146.91778564453125 327.2086181640625 147.94674682617188 C324.2955322265625 148.97564697265625 321.89691162109375 147.004638671875 321.89691162109375 147.004638671875 C321.89691162109375 147.004638671875 331.7486572265625 150.1749267578125 328.6651306152344 159.94143676757812 L319.06903076171875 157.45599365234375 Z"></path>
<path fill="#EA162C" fill-opacity="1.0"  filling="0" d="M250.64288330078125 307.71038818359375 C248.5850830078125 308.45916748046875 244.41531372070312 311.154296875 244.30062866210938 320.7127380371094 C244.14663696289062 333.41851806640625 243.38311767578125 351.327880859375 244.91339111328125 362.04302978515625 C245.99313354492188 369.6058654785156 245.54913330078125 378.3827819824219 245.19357299804688 382.8965759277344 C247.3546142578125 382.0888366699219 248.6751708984375 381.510498046875 248.6751708984375 381.510498046875 C248.6751708984375 381.510498046875 249.26824951171875 369.40106201171875 247.60693359375 362.03973388671875 C245.94888305664062 354.6996765136719 244.76593017578125 312.19635009765625 250.64288330078125 307.71038818359375 Z"></path></svg>