<svg xmlns="http://www.w3.org/2000/svg" viewBox="0.0 0.0 512.0 512.0" height="512.0px" width="512.0px"><path fill="#FF7887" fill-opacity="1.0"  filling="0" d="M435.8067626953125 285.86944580078125 C418.71099853515625 306.2342529296875 405.248046875 303.617919921875 386.0224609375 285.86944580078125 C366.81988525390625 268.14398193359375 359.677490234375 264.92352294921875 323.4534912109375 268.8710632324219 C324.6873779296875 279.9609680175781 325.6575927734375 292.287353515625 333.79327392578125 298.6796875 C341.92901611328125 305.0976257324219 368.29949951171875 317.9052734375 368.78338623046875 334.1766357421875 C369.2672119140625 350.4249572753906 371.304931640625 369.9603271484375 385.29791259765625 365.2192077636719 C399.203857421875 360.5087890625 406.05950927734375 348.0287780761719 414.01348876953125 353.514892578125 C426.80828857421875 362.3392333984375 407.96160888671875 382.2176208496094 396.87176513671875 383.93792724609375 C385.7818603515625 385.65826416015625 356.4825439453125 391.73565673828125 354.25537109375 351.4182434082031 C353.50537109375 341.5622253417969 343.4061279296875 332.7020568847656 334.54595947265625 328.2451171875 C325.66015625 323.8137512207031 301.516845703125 299.91357421875 301.760009765625 281.4380798339844 C299.072021484375 284.9017333984375 302.7532958984375 304.10174560546875 299.3153076171875 317.1782531738281 C295.8515625 330.2290954589844 274.90814208984375 348.22076416015625 274.6649169921875 359.7945556640625 C274.421875 371.3683166503906 271.710693359375 393.3075256347656 262.097900390625 391.83038330078125 C252.485107421875 390.3302307128906 254.228515625 367.1801452636719 258.4166259765625 359.2851257324219 C262.604736328125 351.4156494140625 280.427490234375 326.2815856933594 276.794921875 304.27069091796875 C273.1878662109375 282.25982666015625 267.9322509765625 274.70526123046875 267.9322509765625 274.70526123046875 C267.9322509765625 274.70526123046875 254.4691162109375 314.70782470703125 244.8563232421875 323.570556640625 C235.2435302734375 332.43328857421875 217.51806640625 344.5164794921875 185.2415771484375 342.289306640625 C178.0992431640625 343.523193359375 163.545654296875 349.43170166015625 155.4329833984375 364.22845458984375 C152.189453125 370.1138916015625 148.789794921875 372.32574462890625 145.70245361328125 372.5740661621094 C141.67041015625 372.89923095703125 137.006103515625 369.8348693847656 135.457275390625 366.189453125 C131.5711669921875 357.03997802734375 145.0394287109375 338.8563232421875 161.82781982421875 329.2384033203125 C183.920654296875 316.5792236328125 199.42913818359375 325.8284606933594 215.8055419921875 312.5446472167969 C225.40032958984375 304.76220703125 229.5552978515625 293.9027404785156 231.56475830078125 286.1126403808594 C225.1468505859375 290.30078125 213.8162841796875 296.4754943847656 197.05865478515625 292.7712097167969 C180.3033447265625 289.08990478515625 165.28900146484375 285.6287841796875 155.1693115234375 299.42974853515625 C145.0726318359375 313.230712890625 131.535400390625 332.9427490234375 108.36224365234375 330.71551513671875 C85.21221923828125 328.5113525390625 72.13818359375 296.7187194824219 73.3721923828125 287.85601806640625 C74.60610961914062 278.97021484375 82.98495483398438 274.779541015625 90.6368408203125 282.1907043457031 C98.2630615234375 289.5763244628906 97.51300048828125 314.4697570800781 118.2156982421875 309.2857360839844 C131.3126220703125 306.00640869140625 129.9942626953125 289.19488525390625 144.0767822265625 275.52960205078125 C145.4874267578125 274.15997314453125 158.5382080078125 261.8335876464844 176.08447265625 261.23968505859375 C194.677734375 260.6124572753906 202.78277587890625 273.6864013671875 214.3948974609375 268.4588623046875 C221.4195556640625 265.2972412109375 225.515625 257.3331298828125 226.2015380859375 250.82046508789062 C227.24615478515625 240.87486267089844 222.23876953125 232.31167602539062 211.755615234375 222.81663513183594 C189.0919189453125 202.2828826904297 175.457275390625 176.20413208007812 181.3427734375 149.0118408203125 C182.1900634765625 145.0643310546875 183.44964599609375 141.0706787109375 185.1929931640625 137.07455444335938 C187.904052734375 130.75390625 191.731201171875 124.41024780273438 196.8154296875 118.089599609375 C227.1077880859375 80.38845825195312 316.55426025390625 80.38845825195312 326.89404296875 130.6566162109375 C337.2569580078125 180.9248046875 315.0771484375 186.83326721191406 314.3270263671875 218.6259307861328 C313.60003662109375 250.39549255371094 334.302734375 247.92510986328125 360.406982421875 249.91168212890625 C386.534423828125 251.87265014648438 389.48870849609375 288.1708984375 414.76873779296875 283.570556640625 C440.07177734375 278.97021484375 432.85760498046875 250.08319091796875 421.67041015625 248.0966339111328 C418.47808837890625 247.53089904785156 415.39324951171875 247.8457489013672 413.2275390625 248.4140625 C405.83685302734375 250.3494415283203 404.73089599609375 255.03936767578125 399.82342529296875 255.04702758789062 C395.70184326171875 255.05471801757812 391.86431884765625 251.75230407714844 390.154296875 248.2579345703125 C387.76824951171875 243.38111877441406 389.21728515625 237.5007781982422 392.025634765625 234.23678588867188 C398.23876953125 227.01246643066406 413.5859375 229.710693359375 423.004150390625 234.9459228515625 C436.3878173828125 242.390380859375 454.07745361328125 264.10943603515625 435.8067626953125 285.86944580078125 Z"></path>
<path fill="#FB627E" fill-opacity="1.0"  filling="0" d="M271.0272216796875 104.11709594726562 C271.0272216796875 105.98077392578125 268.10626220703125 107.4912109375 264.5018310546875 107.4912109375 C260.89727783203125 107.4912109375 257.976318359375 105.98077392578125 257.976318359375 104.11709594726562 C257.976318359375 102.25341796875 260.89727783203125 100.7430419921875 264.5018310546875 100.7430419921875 C268.10626220703125 100.74044799804688 271.0272216796875 102.25341796875 271.0272216796875 104.11709594726562 Z"></path>
<path fill="#FB627E" fill-opacity="1.0"  filling="0" d="M285.20196533203125 117.65438842773438 C285.20196533203125 119.53854370117188 283.67364501953125 121.06686401367188 281.7894287109375 121.06686401367188 C279.90533447265625 121.06686401367188 278.376953125 119.53854370117188 278.376953125 117.65438842773438 C278.376953125 115.77023315429688 279.90533447265625 114.24188232421875 281.7894287109375 114.24188232421875 C283.67364501953125 114.24188232421875 285.20196533203125 115.77023315429688 285.20196533203125 117.65438842773438 Z"></path>
<path fill="#FB627E" fill-opacity="1.0"  filling="0" d="M192.7449951171875 143.22366333007812 C192.7449951171875 146.63870239257812 188.9664306640625 149.42141723632812 184.31744384765625 149.42141723632812 C183.25250244140625 149.42141723632812 182.25927734375 149.27548217773438 181.34014892578125 149.00927734375 C182.1875 145.06173706054688 183.447021484375 141.06814575195312 185.1904296875 137.07199096679688 C189.42724609375 137.38943481445312 192.7449951171875 140.02877807617188 192.7449951171875 143.22366333007812 Z"></path>
<path fill="#FB627E" fill-opacity="1.0"  filling="0" d="M194.75201416015625 164.83006286621094 C194.75201416015625 167.99935913085938 192.5350341796875 170.5670166015625 189.80096435546875 170.5670166015625 C187.06689453125 170.5670166015625 184.8499755859375 167.99935913085938 184.8499755859375 164.83006286621094 C184.8499755859375 161.6607666015625 187.06689453125 159.09310913085938 189.80096435546875 159.09310913085938 C192.5350341796875 159.09310913085938 194.75201416015625 161.6607666015625 194.75201416015625 164.83006286621094 Z"></path>
<path fill="#FB627E" fill-opacity="1.0"  filling="0" d="M206.2259521484375 184.5164794921875 C206.2259521484375 186.00892639160156 204.4134521484375 187.21725463867188 202.176025390625 187.21725463867188 C199.9385986328125 187.21725463867188 198.1260986328125 186.00892639160156 198.1260986328125 184.5164794921875 C198.1260986328125 183.0239715576172 199.9385986328125 181.81564331054688 202.176025390625 181.81564331054688 C204.4134521484375 181.8182373046875 206.2259521484375 183.02655029296875 206.2259521484375 184.5164794921875 Z"></path>
<path fill="#231F20" fill-opacity="1.0"  filling="0" d="M269.15069580078125 151.51808166503906 C269.15069580078125 153.60960388183594 267.4560546875 155.30433654785156 265.3619384765625 155.30433654785156 C263.2703857421875 155.30433654785156 261.57568359375 153.60960388183594 261.57568359375 151.51808166503906 C261.57568359375 149.42654418945312 263.2703857421875 147.73184204101562 265.3619384765625 147.73184204101562 C267.4560546875 147.72927856445312 269.15069580078125 149.42654418945312 269.15069580078125 151.51808166503906 Z"></path>
<path fill="#231F20" fill-opacity="1.0"  filling="0" d="M235.16162109375 155.30433654785156 C235.16162109375 157.39584350585938 233.4669189453125 159.09310913085938 231.3753662109375 159.09310913085938 C229.2838134765625 159.09310913085938 227.5865478515625 157.3983917236328 227.5865478515625 155.30433654785156 C227.5865478515625 153.21279907226562 229.28125 151.51808166503906 231.3753662109375 151.51808166503906 C233.4669189453125 151.51808166503906 235.16162109375 153.21279907226562 235.16162109375 155.30433654785156 Z"></path>
<path fill="#F7487D" fill-opacity="1.0"  filling="0" d="M236.9664306640625 194.02944946289062 C241.5924072265625 194.5849609375 245.61151123046875 194.7974090576172 249.36700439453125 194.5926513671875 C253.117431640625 194.37245178222656 256.48382568359375 193.6531219482422 259.745361328125 192.46014404296875 C263.004150390625 191.259521484375 266.0633544921875 189.63902282714844 269.0406494140625 187.3836669921875 C272.046142578125 185.13600158691406 274.9517822265625 182.37120056152344 278.1209716796875 178.94076538085938 C278.7994384765625 183.64096069335938 277.36322021484375 188.4204559326172 274.6905517578125 192.4908905029297 C272.015380859375 196.57662963867188 267.799072265625 199.86366271972656 263.075927734375 201.5532684326172 C258.35009765625 203.30433654785156 253.03302001953125 203.486083984375 248.3507080078125 202.11647033691406 C243.70184326171875 200.7059326171875 239.518798828125 198.03070068359375 236.9664306640625 194.02944946289062 Z"></path>
<path fill="#FFFFFF" fill-opacity="1.0"  filling="0" d="M208.19970703125 114.41598510742188 C205.4195556640625 119.3388671875 202.7110595703125 124.03903198242188 200.2303466796875 128.83135986328125 L196.4927978515625 135.96859741210938 C195.2281494140625 138.33920288085938 194.091552734375 140.78909301757812 193.195556640625 143.32861328125 C192.29443359375 145.86557006835938 191.529052734375 148.4588623046875 191.00677490234375 151.1033477783203 C190.4461669921875 153.74014282226562 190.0313720703125 156.4255828857422 189.9007568359375 159.13662719726562 C189.46307373046875 164.56381225585938 190.1260986328125 170.05502319335938 191.38818359375 175.44381713867188 L191.3907470703125 175.45152282714844 C191.42138671875 175.58204650878906 191.3394775390625 175.71517944335938 191.2064208984375 175.7459259033203 C191.086181640625 175.7740478515625 190.96319580078125 175.70751953125 190.919677734375 175.59230041503906 C189.949462890625 172.97854614257812 189.03558349609375 170.30592346191406 188.515869140625 167.53089904785156 C188.1778564453125 166.15615844726562 188.031982421875 164.7506866455078 187.79388427734375 163.3529510498047 C187.67364501953125 161.94496154785156 187.4713134765625 160.53182983398438 187.450927734375 159.11105346679688 C187.2076416015625 153.42526245117188 187.94244384765625 147.68060302734375 189.45538330078125 142.16378784179688 C190.2003173828125 139.40158081054688 191.034912109375 136.64959716796875 192.07427978515625 133.97183227539062 C193.1162109375 131.29403686523438 194.439697265625 128.73150634765625 196.0140380859375 126.3404541015625 C197.59100341796875 123.94943237304688 199.3651123046875 121.69662475585938 201.3209228515625 119.61532592773438 C203.292236328125 117.5494384765625 205.40673828125 115.61404418945312 207.8592529296875 114.07037353515625 C207.9769287109375 113.99618530273438 208.130615234375 114.031982421875 208.20477294921875 114.14974975585938 C208.2559814453125 114.23165893554688 208.2559814453125 114.32891845703125 208.2125244140625 114.40573120117188 L208.19970703125 114.41598510742188 Z"></path></svg>