<svg xmlns="http://www.w3.org/2000/svg" viewBox="0.0 0.0 512.0 512.0" height="512.0px" width="512.0px"><path fill="#C3996C" fill-opacity="1.0"  filling="0" d="M265.2860412597656 234.89846801757812 L279.18804931640625 438.07403564453125 C279.9923095703125 449.84490966796875 271.102783203125 453.65667724609375 259.3341369628906 454.463134765625 C247.5632781982422 455.2696533203125 237.36709594726562 452.76226806640625 236.56283569335938 440.99139404296875 C236.499755859375 440.0474853515625 236.5065155029297 438.9931640625 236.56283569335938 438.07403564453125 L250.46487426757812 234.89846801757812 C250.74423217773438 230.80517578125 254.29013061523438 227.71429443359375 258.3834533691406 227.99365234375 C262.1321105957031 228.25048828125 265.0382080078125 231.24896240234375 265.2860412597656 234.89846801757812 Z"></path>
<path fill="#C3996C" fill-opacity="1.0"  filling="0" d="M279.2218933105469 438.07403564453125 L265.31982421875 234.89846801757812 C265.07427978515625 231.251220703125 262.1658935546875 228.25048828125 258.417236328125 227.99365234375 C257.139892578125 227.90576171875 255.9324188232422 228.1783447265625 254.8443145751953 228.67398071289062 C257.54315185546875 229.804931640625 259.40399169921875 232.47894287109375 259.46478271484375 235.54278564453125 L263.9140930175781 445.14105224609375 C263.99517822265625 449.0001220703125 263.1300964355469 451.9827880859375 261.5419006347656 454.2738952636719 C272.211181640625 453.1474914550781 279.9765625 449.10821533203125 279.2218933105469 438.07403564453125 Z"></path>
<path fill="#A87C50" fill-opacity="1.0"  filling="0" d="M266.8246765136719 257.4039611816406 C261.23101806640625 258.34564208984375 257.4845886230469 258.6340026855469 257.4845886230469 258.6340026855469 C256.9754638671875 258.67449951171875 256.54742431640625 259.0800476074219 256.50238037109375 259.6049499511719 C256.4505615234375 260.19293212890625 256.8853454589844 260.70880126953125 257.4733581542969 260.7606506347656 C257.4733581542969 260.7606506347656 261.3076171875 261.1098327636719 267.07928466796875 261.11883544921875 L266.8246765136719 257.4039611816406 Z"></path>
<path fill="#A87C50" fill-opacity="1.0"  filling="0" d="M269.6722412109375 299.0267028808594 L269.38836669921875 294.87255859375 C268.6314392089844 295.0166931152344 267.8970642089844 295.1541442871094 267.19189453125 295.2847595214844 C261.3887023925781 296.27825927734375 257.4868469238281 296.5756530761719 257.4868469238281 296.5756530761719 C256.97772216796875 296.6161804199219 256.5496826171875 297.0216979980469 256.504638671875 297.5466003417969 C256.45281982421875 298.13458251953125 256.8876037597656 298.6527404785156 257.4755859375 298.7023010253906 C257.4755859375 298.7023010253906 261.4968566894531 299.073974609375 267.52081298828125 299.0627136230469 C268.20794677734375 299.0537109375 268.93109130859375 299.0401916503906 269.6722412109375 299.0267028808594 Z"></path>
<path fill="#A87C50" fill-opacity="1.0"  filling="0" d="M276.9668273925781 422.67388916015625 C273.4411926269531 423.59527587890625 270.0799865722656 424.2328186035156 267.19189453125 424.76446533203125 C261.3887023925781 425.75799560546875 257.4868469238281 426.0552978515625 257.4868469238281 426.0552978515625 C256.97772216796875 426.09588623046875 256.5496826171875 426.50140380859375 256.504638671875 427.0262756347656 C256.45281982421875 427.6142578125 256.8876037597656 428.1324462890625 257.4755859375 428.18194580078125 C257.4755859375 428.18194580078125 261.4968566894531 428.5537109375 267.52081298828125 428.54241943359375 C270.5350646972656 428.4996337890625 274.06744384765625 428.4320373535156 277.8543701171875 428.1008605957031 C278.06842041015625 428.0873718261719 278.2892150878906 428.06036376953125 278.50323486328125 428.0445556640625 L278.11572265625 422.37200927734375 C277.7304992675781 422.473388671875 277.34527587890625 422.583740234375 276.9668273925781 422.67388916015625 Z"></path>
<path fill="#A87C50" fill-opacity="1.0"  filling="0" d="M265.7794189453125 366.676025390625 C265.7794189453125 366.676025390625 261.8775329589844 366.378662109375 256.07208251953125 365.3851623535156 C253.18173217773438 364.85125732421875 249.82281494140625 364.2159423828125 246.2971649169922 363.2923278808594 C244.80584716796875 362.9385986328125 243.28970336914062 362.5015869140625 241.7622833251953 362.0465087890625 L241.33201599121094 368.32733154296875 C242.71299743652344 368.4873046875 244.0804443359375 368.6336975097656 245.40957641601562 368.7215576171875 C249.1942901611328 369.052734375 252.72894287109375 369.12030029296875 255.74319458007812 369.1631164550781 C261.76715087890625 369.172119140625 265.78839111328125 368.80267333984375 265.78839111328125 368.80267333984375 C266.37640380859375 368.7508544921875 266.8089294433594 368.23272705078125 266.7593688964844 367.6470031738281 C266.7143249511719 367.1221008300781 266.2885437011719 366.71881103515625 265.7794189453125 366.676025390625 Z"></path>
<path fill="#009344" fill-opacity="1.0"  filling="0" d="M197.26724243164062 164.60211181640625 C189.56491088867188 166.12725830078125 182.0833740234375 172.13772583007812 177.77377319335938 176.713134765625 C165.24594116210938 173.25286865234375 153.0177459716797 171.680419921875 142.3529815673828 171.28616333007812 C143.68215942382812 168.0714111328125 145.09915161132812 164.86566162109375 146.60626220703125 161.67572021484375 C142.27638244628906 163.619873046875 138.2911834716797 167.620849609375 135.53826904296875 171.17355346679688 C116.46156311035156 171.3289794921875 104.20858764648438 174.51669311523438 104.26264953613281 174.39505004882812 C111.41075134277344 163.13104248046875 159.12283325195312 126.013916015625 222.66305541992188 157.45846557617188 C281.0173645019531 192.98513793945312 255.4345245361328 239.9312744140625 257.3607177734375 238.21237182617188 C250.13819885253906 223.6998291015625 238.8516845703125 210.41729736328125 225.2177276611328 199.98907470703125 C227.69583129882812 197.29022216796875 230.2752685546875 194.64321899414062 232.95159912109375 192.0546875 C228.7298583984375 192.11782836914062 223.97645568847656 194.34133911132812 220.5206756591797 196.55584716796875 C210.20733642578125 189.3536376953125 198.8284149169922 183.71713256835938 187.38873291015625 179.71841430664062 C190.42324829101562 174.60003662109375 193.71682739257812 169.55596923828125 197.26724243164062 164.60211181640625 Z"></path>
<path fill="#39B44A" fill-opacity="1.0"  filling="0" d="M222.66305541992188 157.46072387695312 C281.0173645019531 192.98739624023438 255.4345245361328 239.9334716796875 257.3607177734375 238.214599609375 C264.062744140625 192.50979614257812 219.26358032226562 161.549560546875 179.30343627929688 158.66598510742188 C138.38356018066406 153.081298828125 102.30496215820312 175.57101440429688 104.2603759765625 174.3995361328125 C111.40852355957031 163.13330078125 159.12059020996094 126.01614379882812 222.66305541992188 157.46072387695312 Z"></path>
<path fill="#009344" fill-opacity="1.0"  filling="0" d="M202.12652587890625 218.93063354492188 C200.70274353027344 220.35891723632812 199.62368774414062 222.38192749023438 198.82391357421875 224.55364990234375 C193.9263458251953 224.60092163085938 189.1166229248047 224.91183471679688 184.4398193359375 225.44573974609375 C183.54544067382812 220.82977294921875 182.62405395507812 216.21600341796875 181.68011474609375 211.60678100585938 C179.65936279296875 215.21804809570312 179.1029052734375 221.0550537109375 179.0894012451172 226.16213989257812 C170.6909637451172 227.44619750976562 162.80841064453125 229.43319702148438 155.6197509765625 231.83242797851562 C154.44827270507812 228.28424072265625 153.26780700683594 224.7406005859375 152.08059692382812 221.19696044921875 C150.0552978515625 224.57614135742188 149.88186645507812 229.73507690429688 150.17921447753906 233.77206420898438 C142.38226318359375 236.73001098632812 135.53378295898438 240.11370849609375 129.7418212890625 243.4478759765625 C128.2144012451172 240.46517944335938 126.68251037597656 237.48471069335938 125.14158630371094 234.5064697265625 C123.78764343261719 237.86993408203125 124.22695922851562 242.49716186523438 125.02897644042969 246.28634643554688 C112.14068603515625 254.475341796875 105.6864013671875 261.20440673828125 105.6458740234375 261.1255798339844 C103.22412109375 251.27410888671875 104.60957336425781 206.33749389648438 170.26971435546875 192.23944091796875 C238.4552001953125 183.56393432617188 258.306884765625 239.12249755859375 256.376220703125 236.95526123046875 C239.22789001464844 228.775390625 220.32015991210938 224.82846069335938 202.480224609375 224.567138671875 C202.36306762695312 222.68829345703125 202.24594116210938 220.80947875976562 202.12652587890625 218.93063354492188 Z"></path>
<path fill="#39B44A" fill-opacity="1.0"  filling="0" d="M170.26742553710938 192.23721313476562 C238.45294189453125 183.56167602539062 258.3045959472656 239.12020874023438 256.37396240234375 236.95303344726562 C255.34671020507812 238.75753784179688 246.443603515625 214.21099853515625 213.38153076171875 205.80581665039062 C183.27963256835938 197.01763916015625 129.0186767578125 204.37078857421875 105.6458740234375 261.1233215332031 C103.22184753417969 251.26956176757812 104.60733032226562 206.33297729492188 170.26742553710938 192.23721313476562 Z"></path>
<path fill="#009344" fill-opacity="1.0"  filling="0" d="M156.01849365234375 269.74029541015625 C157.2237548828125 274.7505187988281 163.351318359375 279.47015380859375 167.80740356445312 282.7681884765625 C164.45521545410156 286.7398986816406 161.53106689453125 290.7048645019531 158.983154296875 294.5796813964844 C155.45077514648438 293.34967041015625 151.8237762451172 292.2367248535156 148.11114501953125 291.2477722167969 C149.15643310546875 294.37921142578125 152.88259887695312 297.26275634765625 155.97567749023438 299.3984375 C151.83050537109375 306.4091491699219 148.89962768554688 313.0008239746094 146.80905151367188 318.80853271484375 C143.7046661376953 318.0538330078125 140.53500366210938 317.4005432128906 137.30673217773438 316.85308837890625 C138.6944580078125 319.5632019042969 142.17050170898438 321.84979248046875 145.21180725097656 323.5979919433594 C141.2040557861328 336.91204833984375 141.2198486328125 344.8531494140625 141.10946655273438 344.8486328125 C134.97055053710938 338.7728576660156 101.5908203125 318.0133056640625 137.25714111328125 265.3991394042969 C156.88131713867188 239.462646484375 190.49307250976562 229.27102661132812 215.46987915039062 228.53207397460938 C241.0369110107422 227.29525756835938 257.9667053222656 235.51351928710938 257.8720703125 234.89620971679688 C234.05322265625 238.04562377929688 213.5549774169922 246.42608642578125 197.4519805908203 256.82269287109375 C193.92860412597656 254.7388916015625 190.29031372070312 252.75640869140625 186.54165649414062 250.87982177734375 C186.6272430419922 254.0653076171875 189.5176239013672 257.6269836425781 192.14437866210938 260.42047119140625 C185.2350311279297 265.340576171875 179.19305419921875 270.6076354980469 173.98004150390625 275.9580383300781 C168.2444305419922 273.58807373046875 162.24746704101562 271.5019836425781 156.01849365234375 269.74029541015625 Z"></path>
<path fill="#39B44A" fill-opacity="1.0"  filling="0" d="M137.25942993164062 265.40142822265625 C156.88356018066406 239.46493530273438 190.49533081054688 229.27322387695312 215.47210693359375 228.53433227539062 C241.0391387939453 227.29754638671875 257.96893310546875 235.5157470703125 257.87432861328125 234.89846801757812 C175.25286865234375 226.75234985351562 143.97276306152344 270.36431884765625 136.25241088867188 297.9791564941406 C127.98237609863281 328.5383605957031 143.27664184570312 343.1027526855469 141.1116943359375 344.8509216308594 C134.97055053710938 338.7728576660156 101.5908203125 318.01556396484375 137.25942993164062 265.40142822265625 Z"></path>
<path fill="#009344" fill-opacity="1.0"  filling="0" d="M342.9783935546875 253.24530029296875 C343.1675720214844 258.33660888671875 338.9526062011719 263.96185302734375 335.72210693359375 267.86822509765625 C340.6827392578125 272.14178466796875 345.0284423828125 276.5414733886719 348.80859375 280.9051513671875 C352.0166015625 279.0127868652344 355.3192138671875 277.2106018066406 358.7073974609375 275.5029602050781 C358.335693359375 279.0421142578125 355.0285949707031 282.7750244140625 352.4761962890625 285.3431701660156 C355.4881286621094 289.1684265136719 358.08111572265625 292.9283752441406 360.30242919921875 296.52386474609375 C363.60504150390625 294.9423828125 366.9932556152344 293.46002197265625 370.4625244140625 292.07904052734375 C369.644775390625 295.6024475097656 366.29705810546875 299.0492248535156 363.3166198730469 301.7008056640625 C365.386962890625 305.4764709472656 367.04730224609375 309.00433349609375 368.3876953125 312.19659423828125 C371.21270751953125 311.1107177734375 374.0918273925781 310.0992431640625 377.022705078125 309.164306640625 C375.99761962890625 312.0478515625 372.8482666015625 314.7242126464844 370.16064453125 316.7044372558594 C373.32806396484375 325.447509765625 374.0962829589844 330.6199645996094 374.1435546875 330.6154479980469 C379.728271484375 324.38421630859375 406.527587890625 298.36212158203125 365.23150634765625 252.32614135742188 C343.1585693359375 230.10675048828125 312.57232666015625 224.7113037109375 291.23602294921875 226.24545288085938 C269.30279541015625 227.54086303710938 256.6195068359375 235.7635498046875 256.53619384765625 235.2724609375 C285.98028564453125 237.63787841796875 310.99530029296875 248.85458374023438 328.8330078125 262.3308410644531 C333.3318786621094 259.1250915527344 338.0514831542969 256.0906066894531 342.9783935546875 253.24530029296875 Z"></path>
<path fill="#39B44A" fill-opacity="1.0"  filling="0" d="M365.23150634765625 252.32614135742188 C343.1585693359375 230.10675048828125 312.57232666015625 224.7113037109375 291.23602294921875 226.24545288085938 C269.30279541015625 227.54086303710938 256.6195068359375 235.7635498046875 256.53619384765625 235.2724609375 C324.3612060546875 222.38644409179688 360.1874694824219 258.4289855957031 371.654296875 284.0861511230469 C384.3577575683594 311.9577331542969 372.7018127441406 329.4417419433594 374.1458435058594 330.6154479980469 C379.7305603027344 324.38421630859375 406.52984619140625 298.3598937988281 365.23150634765625 252.32614135742188 Z"></path>
<path fill="#009344" fill-opacity="1.0"  filling="0" d="M303.1669006347656 165.48519897460938 C307.93829345703125 165.63388061523438 313.44189453125 167.93173217773438 317.3888244628906 170.17776489257812 C333.5166015625 162.56781005859375 350.1963195800781 158.93405151367188 363.5013427734375 157.66796875 C361.27557373046875 154.59744262695312 358.9304504394531 151.56741333007812 356.47039794921875 148.5802001953125 C361.4558410644531 150.10305786132812 366.675537109375 153.85400390625 370.32061767578125 157.15435791015625 C383.6639404296875 156.50103759765625 392.06011962890625 157.68603515625 392.028564453125 157.62069702148438 C381.8392028808594 146.41976928710938 324.268798828125 118.2552490234375 271.9700622558594 158.5938720703125 C226.35540771484375 200.7550048828125 260.46954345703125 237.0904541015625 257.6535339355469 236.30648803710938 C261.0620422363281 224.06024169921875 267.4352111816406 212.10687255859375 276.10174560546875 201.64266967773438 C273.0154113769531 199.54302978515625 269.80511474609375 197.54254150390625 266.4732666015625 195.64791870117188 C270.79638671875 194.77609252929688 275.9327392578125 195.47674560546875 280.3640441894531 196.79238891601562 C289.3887939453125 187.0963134765625 300.35992431640625 178.98397827148438 311.9212646484375 172.90365600585938 C309.1278076171875 170.3580322265625 306.2081298828125 167.88217163085938 303.1669006347656 165.48519897460938 Z"></path>
<path fill="#39B44A" fill-opacity="1.0"  filling="0" d="M271.9700622558594 158.59164428710938 C226.35540771484375 200.7528076171875 260.46954345703125 237.08819580078125 257.6535339355469 236.30419921875 C259.47833251953125 237.45989990234375 240.13352966308594 202.88619995117188 283.8243713378906 166.26019287109375 C313.1309814453125 144.46429443359375 343.9740905761719 143.4010009765625 363.29412841796875 146.70809936523438 C383.2944641113281 150.17291259765625 391.7717590332031 158.0081787109375 392.028564453125 157.618408203125 C381.84136962890625 146.41748046875 324.268798828125 118.2552490234375 271.9700622558594 158.59164428710938 Z"></path>
<path fill="#009344" fill-opacity="1.0"  filling="0" d="M296.09307861328125 206.720458984375 C299.5624084472656 208.91696166992188 302.270263671875 212.95623779296875 304.23919677734375 217.01800537109375 C311.6914978027344 215.47036743164062 319.0964050292969 214.58270263671875 326.276123046875 214.26507568359375 C326.276123046875 211.57522583007812 326.2828369140625 208.88766479492188 326.2918701171875 206.19781494140625 C328.416259765625 208.05859375 329.92791748046875 211.10891723632812 330.96417236328125 214.13442993164062 C341.33380126953125 214.01504516601562 351.12451171875 215.05804443359375 359.9329528808594 216.78598022460938 C361.26885986328125 210.68087768554688 362.6475830078125 204.5848388671875 364.069091796875 198.49777221679688 C368.3809509277344 203.81884765625 368.9959411621094 213.0238037109375 368.8765869140625 218.84054565429688 C376.97314453125 220.9761962890625 383.9883117675781 223.59393310546875 389.7757568359375 226.14413452148438 C390.96527099609375 222.91357421875 392.1636962890625 219.68756103515625 393.36676025390625 216.46383666992188 C395.16668701171875 219.7393798828125 395.207275390625 224.60769653320312 394.8062744140625 228.48480224609375 C404.4257507324219 233.2381591796875 409.4923095703125 236.97332763671875 409.51031494140625 236.93051147460938 C410.3258056640625 226.8154296875 401.7269287109375 182.65603637695312 334.6227111816406 179.23403930664062 C265.90106201171875 181.56793212890625 255.20249938964844 239.57308959960938 256.75244140625 237.12652587890625 C269.2825012207031 228.468994140625 283.3783264160156 222.26705932617188 297.5281066894531 218.58822631835938 C297.032470703125 214.63681030273438 296.55267333984375 210.68087768554688 296.09307861328125 206.720458984375 Z"></path>
<path fill="#39B44A" fill-opacity="1.0"  filling="0" d="M334.6610107421875 179.23629760742188 C265.9325866699219 181.47332763671875 255.11241149902344 239.48068237304688 256.673583984375 237.036376953125 C254.03329467773438 237.19631958007812 293.3852233886719 187.596435546875 342.22821044921875 190.86972045898438 C403.15521240234375 196.7315673828125 402.76544189453125 234.5245361328125 409.42919921875 237.02059936523438 C410.2559509277344 226.91006469726562 401.7561950683594 182.75515747070312 334.6610107421875 179.23629760742188 Z"></path></svg>