<svg xmlns="http://www.w3.org/2000/svg" viewBox="0.0 0.0 512.0 512.0" height="512.0px" width="512.0px"><path fill="#9F9F4C" fill-opacity="1.0"  filling="0" d="M292.19757080078125 54.752166748046875 C292.5877990722656 53.31964111328125 279.1633605957031 55.956939697265625 278.0789794921875 56.431304931640625 C273.2025451660156 58.56451416015625 269.4090576171875 62.178131103515625 266.4235534667969 66.516357421875 C261.52685546875 73.632568359375 259.904296875 82.65573120117188 264.3527526855469 90.32034301757812 C275.73687744140625 86.0133056640625 287.06439208984375 82.3779296875 298.43182373046875 79.68548583984375 C296.9608154296875 70.6268310546875 295.2642822265625 61.6805419921875 292.73358154296875 53.15135192871094 C292.5312194824219 53.67431640625 292.3462829589844 54.20526123046875 292.19757080078125 54.752166748046875 Z"></path>
<path fill="#7A753B" fill-opacity="1.0"  filling="0" d="M331.35107421875 45.563629150390625 C324.65478515625 41.86299133300781 316.9321594238281 39.568756103515625 309.3778381347656 40.706085205078125 C302.198486328125 41.78681945800781 295.33172607421875 46.454345703125 292.73358154296875 53.15208435058594 C295.2642822265625 61.6812744140625 296.9601135253906 70.62754821777344 298.43182373046875 79.68621826171875 C309.1718444824219 77.14175415039062 319.9488220214844 75.46116638183594 330.8404235839844 74.8475341796875 C331.0050964355469 65.08383178710938 331.552001953125 55.448486328125 331.35107421875 45.563629150390625 Z"></path>
<path fill="#9F9F4C" fill-opacity="1.0"  filling="0" d="M363.79449462890625 48.729736328125 C357.10693359375 38.395172119140625 340.2828063964844 36.870513916015625 331.8464660644531 45.834197998046875 C331.68328857421875 45.741363525390625 331.51641845703125 45.653594970703125 331.3517761230469 45.56292724609375 C331.552001953125 55.44775390625 331.0050964355469 65.08309936523438 330.8411560058594 74.8460693359375 C339.9056396484375 74.334716796875 349.0506591796875 74.57479858398438 358.32330322265625 75.69906616210938 C360.5791015625 66.66650390625 362.9668884277344 57.6346435546875 363.9932556152344 48.602783203125 C363.92724609375 48.64776611328125 363.85833740234375 48.68475341796875 363.79449462890625 48.729736328125 Z"></path>
<path fill="#7A753B" fill-opacity="1.0"  filling="0" d="M394.978759765625 68.10411071777344 C394.79962158203125 60.608489990234375 391.183837890625 53.09259033203125 384.95318603515625 48.92192077636719 C378.787841796875 44.79551696777344 370.1128845214844 44.42631530761719 363.9925231933594 48.602783203125 C362.9661865234375 57.63536071777344 360.578369140625 66.66720581054688 358.32257080078125 75.69906616210938 C365.0413513183594 76.51361083984375 371.82757568359375 77.78875732421875 378.69940185546875 79.5933837890625 C382.1091613769531 80.48846435546875 385.81414794921875 81.47705078125 389.057861328125 80.09677124023438 C393.4178466796875 78.24136352539062 395.0919189453125 72.84271240234375 394.978759765625 68.10411071777344 Z"></path>
<path fill="#383938" fill-opacity="1.0"  filling="0" d="M387.6253356933594 77.24038696289062 C371.07177734375 108.05471801757812 354.21575927734375 138.70445251464844 337.0572509765625 169.18582153320312 C336.07080078125 170.93896484375 338.7661437988281 172.514404296875 339.7525939941406 170.76129150390625 C356.91033935546875 140.27987670898438 373.76708984375 109.63015747070312 390.3206787109375 78.81582641601562 C391.27227783203125 77.0460205078125 388.57769775390625 75.46768188476562 387.6253356933594 77.24038696289062 L387.6253356933594 77.24038696289062 Z"></path>
<path fill="#383938" fill-opacity="1.0"  filling="0" d="M264.1133728027344 89.30633544921875 C285.05230712890625 115.65625 305.1810302734375 142.63427734375 324.48651123046875 170.2027587890625 C325.63037109375 171.83621215820312 328.3380432128906 170.27816772460938 327.1818542480469 168.6273193359375 C307.7233581542969 140.84051513671875 287.4248962402344 113.656494140625 266.3205871582031 87.098388671875 C265.0715637207031 85.526611328125 262.875244140625 87.7490234375 264.1133728027344 89.30633544921875 L264.1133728027344 89.30633544921875 Z"></path>
<path fill="#383938" fill-opacity="1.0"  filling="0" d="M298.6653747558594 80.34121704101562 C308.8446960449219 107.05668640136719 318.4147644042969 133.99700927734375 327.37042236328125 161.14697265625 C327.99713134765625 163.0458984375 331.0123291015625 162.23281860351562 330.3805847167969 160.31719970703125 C321.4248962402344 133.167236328125 311.8548278808594 106.2269287109375 301.6755065917969 79.51141357421875 C300.9675598144531 77.65167236328125 297.9480285644531 78.45822143554688 298.6653747558594 80.34121704101562 L298.6653747558594 80.34121704101562 Z"></path>
<path fill="#383938" fill-opacity="1.0"  filling="0" d="M329.9896240234375 75.87968444824219 C331.7159423828125 103.97109985351562 332.2344970703125 132.11260986328125 331.54473876953125 160.24899291992188 C331.49542236328125 162.26324462890625 334.58099365234375 162.25091552734375 334.6665954589844 160.24899291992188 C334.68975830078125 159.701416015625 334.7129821777344 159.15377807617188 334.7369079589844 158.60537719726562 C334.822509765625 156.59625244140625 331.70068359375 156.6005859375 331.6151123046875 158.60537719726562 C331.59185791015625 159.15301513671875 331.56866455078125 159.70065307617188 331.54473876953125 160.24899291992188 C332.5855712890625 160.24899291992188 333.625732421875 160.24899291992188 334.6665954589844 160.24899291992188 C335.3563537597656 132.11260986328125 334.8377685546875 103.97109985351562 333.1114501953125 75.87968444824219 C332.9888610839844 73.883544921875 329.8663024902344 73.86978149414062 329.9896240234375 75.87968444824219 L329.9896240234375 75.87968444824219 Z"></path>
<path fill="#7A753B" fill-opacity="1.0"  filling="0" d="M321.58880615234375 180.01431274414062 C321.933349609375 194.47747802734375 320.58563232421875 208.98056030273438 317.5827941894531 223.13323974609375 C319.5216064453125 223.65185546875 321.459716796875 224.17044067382812 323.39849853515625 224.68905639648438 C325.2466735839844 219.18231201171875 326.4949645996094 213.47540283203125 327.1151123046875 207.7003173828125 C327.3443298339844 205.56204223632812 327.5205993652344 203.31710815429688 328.678955078125 201.50595092773438 C329.8380126953125 199.69482421875 332.3628845214844 198.54586791992188 334.2016296386719 199.66146850585938 C335.1561584472656 205.39739990234375 335.5710754394531 211.22250366210938 335.4383239746094 217.03607177734375 C335.3875427246094 219.2650146484375 335.2736511230469 221.58755493164062 336.1803283691406 223.624267578125 C337.0877685546875 225.66098022460938 339.3971862792969 227.2763671875 341.51513671875 226.58001708984375 C341.61669921875 213.883056640625 341.71826171875 201.18679809570312 341.81982421875 188.4898681640625 C341.86187744140625 183.21087646484375 341.9256896972656 177.81002807617188 343.73974609375 172.85308837890625 C345.1817321777344 168.91455078125 347.7399597167969 165.11669921875 347.3460998535156 160.94097900390625 C344.2881164550781 159.65350341796875 340.92547607421875 162.53671264648438 339.8672180175781 165.6810302734375 C338.8089599609375 168.82534790039062 339.10052490234375 172.28952026367188 338.1365661621094 175.46432495117188 C337.17333984375 178.63909912109375 334.0529479980469 181.69204711914062 330.89190673828125 180.68453979492188 C328.3634338378906 179.87872314453125 327.2007141113281 176.89105224609375 327.17169189453125 174.235595703125 C327.1427001953125 171.5758056640625 329.19610595703125 158.900634765625 323.2171936035156 162.58819580078125 C319.4679260253906 164.90127563476562 321.50323486328125 176.412353515625 321.58880615234375 180.01431274414062 Z"></path>
<path fill="#383938" fill-opacity="1.0"  filling="0" d="M358.4415283203125 73.98147583007812 C348.3782653808594 102.98899841308594 340.68682861328125 132.73275756835938 335.4259948730469 162.9813232421875 C335.0843811035156 164.94625854492188 338.0923156738281 165.78985595703125 338.4361267089844 163.81109619140625 C343.69622802734375 133.56182861328125 351.388427734375 103.81805419921875 361.45166015625 74.81124877929688 C362.1116943359375 72.90943908691406 359.0972595214844 72.09271240234375 358.4415283203125 73.98147583007812 L358.4415283203125 73.98147583007812 Z"></path>
<path fill="#383938" fill-opacity="1.0"  filling="0" d="M333.68878173828125 210.38986206054688 C335.9526062011719 208.37271118164062 338.2163391113281 206.35479736328125 340.4801330566406 204.33767700195312 C341.66748046875 203.2794189453125 342.93316650390625 202.03762817382812 342.718505859375 200.6435546875 C341.9786682128906 195.8360595703125 323.11346435546875 194.90179443359375 320.75250244140625 198.8338623046875 C318.3139343261719 202.89569091796875 328.7159423828125 214.81948852539062 333.68878173828125 210.38986206054688 Z"></path>
<path fill="#383938" fill-opacity="1.0"  filling="0" d="M324.4604187011719 180.4654541015625 C324.256591796875 187.22705078125 324.0534973144531 193.98861694335938 323.8496398925781 200.75091552734375 C323.7894592285156 202.76080322265625 326.9112854003906 202.75863647460938 326.97149658203125 200.75091552734375 C327.1753234863281 193.98931884765625 327.37841796875 187.22775268554688 327.5822448730469 180.4654541015625 C327.6431579589844 178.45556640625 324.5213317871094 178.457763671875 324.4604187011719 180.4654541015625 L324.4604187011719 180.4654541015625 Z"></path>
<path fill="#383938" fill-opacity="1.0"  filling="0" d="M334.5882263183594 180.43792724609375 C334.12255859375 186.84335327148438 334.0166931152344 193.24441528320312 334.2662048339844 199.66146850585938 C334.3437805175781 201.66409301757812 337.4663391113281 201.67352294921875 337.3880310058594 199.66146850585938 C337.1385192871094 193.24441528320312 337.2444152832031 186.84259033203125 337.7100830078125 180.43792724609375 C337.8551330566406 178.43386840820312 334.7325744628906 178.44253540039062 334.5882263183594 180.43792724609375 L334.5882263183594 180.43792724609375 Z"></path>
<path fill="#FEE1C6" fill-opacity="1.0"  filling="0" d="M326.0982360839844 171.14349365234375 C325.3322448730469 173.99551391601562 325.4765930175781 177.21090698242188 327.0868225097656 179.68649291992188 C328.69708251953125 182.16201782226562 331.96612548828125 183.63809204101562 334.7485046386719 182.64801025390625 C337.27703857421875 181.74786376953125 338.85174560546875 179.09896850585938 339.2470397949219 176.44351196289062 C339.642333984375 173.788818359375 339.071533203125 171.09564208984375 338.4977722167969 168.47280883789062"></path>
<path fill="#9F9F4C" fill-opacity="1.0"  filling="0" d="M323.3027648925781 172.65652465820312 C323.0460205078125 168.06158447265625 323.8228454589844 162.64260864257812 327.8389892578125 160.39407348632812 C332.0212707519531 158.05194091796875 337.4242858886719 160.63125610351562 340.4670715332031 164.33480834960938 C341.7668762207031 165.916748046875 342.7953796386719 168.32772827148438 341.4658508300781 169.88504028320312 C340.8587341308594 170.59661865234375 339.9128723144531 170.90414428710938 339.0091247558594 171.14425659179688 C334.4105224609375 172.36785888671875 329.57470703125 172.69137573242188 324.854248046875 172.0908203125"></path>
<path fill="#262714" fill-opacity="1.0"  filling="0" d="M319.333740234375 224.36776733398438 C318.36614990234375 226.80557250976562 312.2247619628906 238.33184814453125 319.0827941894531 237.666015625 C319.9328918457031 237.58331298828125 320.6306457519531 237.017578125 320.6436767578125 236.1051025390625 C320.658935546875 235.07293701171875 320.6734619140625 234.04080200195312 320.68865966796875 233.0079345703125 C320.7176818847656 230.99801635742188 317.5958557128906 230.99725341796875 317.5668029785156 233.0079345703125 C317.5516052246094 234.0400390625 317.5370788574219 235.07223510742188 317.5218505859375 236.1051025390625 C318.04193115234375 235.58499145507812 318.5627136230469 235.06427001953125 319.0827941894531 234.54415893554688 C318.7121276855469 234.58041381835938 320.3180236816406 230.30099487304688 320.4913635253906 229.86431884765625 C321.108642578125 228.30850219726562 321.7265930175781 226.75262451171875 322.3446044921875 225.19683837890625 C323.0859069824219 223.33056640625 320.0677795410156 222.51959228515625 319.333740234375 224.36776733398438 L319.333740234375 224.36776733398438 Z"></path>
<path fill="#262714" fill-opacity="1.0"  filling="0" d="M337.2835693359375 224.53604125976562 C335.5601806640625 228.3607177734375 334.27777099609375 232.29998779296875 333.49517822265625 236.42425537109375 C333.2840881347656 237.538330078125 334.1972961425781 238.715576171875 335.41510009765625 238.34417724609375 C338.76904296875 237.32150268554688 338.8423156738281 234.04080200195312 338.1061096191406 231.13656616210938 C337.6128845214844 229.19049072265625 334.60125732421875 230.01519775390625 335.095947265625 231.96630859375 C335.3150329589844 232.8302001953125 336.00555419921875 234.90032958984375 334.5853271484375 235.33334350585938 C335.2250671386719 235.97308349609375 335.8655700683594 236.61358642578125 336.5052795410156 237.2532958984375 C337.2349853515625 233.40469360351562 338.3679504394531 229.68441772460938 339.9789123535156 226.1107177734375 C340.79852294921875 224.29449462890625 338.1089782714844 222.705322265625 337.2835693359375 224.53604125976562 L337.2835693359375 224.53604125976562 Z"></path>
<path fill="#7A753B" fill-opacity="1.0"  filling="0" d="M339.2260437011719 178.05300903320312 C341.8292236328125 182.21426391601562 344.4317321777344 186.37625122070312 347.03497314453125 190.5382080078125 C348.0975646972656 192.2376708984375 350.8001708984375 190.67239379882812 349.7303161621094 188.96279907226562 C347.1270751953125 184.80154418945312 344.5245666503906 180.63955688476562 341.92138671875 176.47760009765625 C340.8587341308594 174.77813720703125 338.1568908691406 176.34341430664062 339.2260437011719 178.05300903320312 L339.2260437011719 178.05300903320312 Z"></path>
<path fill="#7A753B" fill-opacity="1.0"  filling="0" d="M322.5694580078125 180.77520751953125 C318.6258239746094 184.67605590820312 315.0557556152344 188.89532470703125 311.8309020996094 193.40689086914062 C310.66021728515625 195.0439453125 313.3671569824219 196.60488891601562 314.5262145996094 194.98236083984375 C317.5972900390625 190.6868896484375 321.0237731933594 186.69537353515625 324.7766418457031 182.98239135742188 C326.207763671875 181.5679931640625 323.99981689453125 179.36007690429688 322.5694580078125 180.77520751953125 L322.5694580078125 180.77520751953125 Z"></path>
<path fill="#383938" fill-opacity="1.0"  filling="0" d="M317.21649169921875 161.70404052734375 C316.4222717285156 172.59927368164062 314.3710021972656 183.23046875 311.1004943847656 193.649169921875 C310.49774169921875 195.570556640625 313.5100402832031 196.392333984375 314.110595703125 194.47894287109375 C317.46453857421875 183.79550170898438 319.5245056152344 172.86907958984375 320.33831787109375 161.70404052734375 C320.484130859375 159.699951171875 317.3615417480469 159.7086181640625 317.21649169921875 161.70404052734375 L317.21649169921875 161.70404052734375 Z"></path>
<path fill="#383938" fill-opacity="1.0"  filling="0" d="M344.3251037597656 160.65591430664062 C345.6858215332031 170.86282348632812 346.7368469238281 181.09649658203125 347.4773864746094 191.36651611328125 C347.6210021972656 193.3590087890625 350.74432373046875 193.37423706054688 350.5992431640625 191.36651611328125 C349.85797119140625 181.09649658203125 348.8076477050781 170.86282348632812 347.44696044921875 160.65591430664062 C347.1858215332031 158.69387817382812 344.06036376953125 158.66775512695312 344.3251037597656 160.65591430664062 L344.3251037597656 160.65591430664062 Z"></path></svg>