<svg xmlns="http://www.w3.org/2000/svg" viewBox="0.0 0.0 512.0 512.0" height="512.0px" width="512.0px"><path fill="#005ED5" fill-opacity="1.0"  filling="0" d="M265.9522705078125 176.9676513671875 C267.1507568359375 172.00732421875 281.8681640625 123.74664306640625 284.43426513671875 124.09356689453125 C287.0003662109375 124.43475341796875 278.78875732421875 151.162841796875 279.815185546875 154.21063232421875 C280.8157958984375 157.186767578125 282.92315673828125 150.51483154296875 285.07940673828125 151.81365966796875 C286.0140380859375 152.37847900390625 283.41064453125 155.75030517578125 285.122314453125 155.92230224609375 C286.8311767578125 156.09445190429688 289.738525390625 154.55181884765625 290.59588623046875 153.52822875976562 C291.453125 152.50177001953125 310.4483642578125 123.40826416015625 312.67041015625 125.461181640625 C314.89251708984375 127.51702880859375 301.54852294921875 151.13125610351562 301.032470703125 153.01214599609375 C300.516357421875 154.89306640625 302.91339111328125 155.40911865234375 304.11181640625 154.21063232421875 C305.310302734375 153.01214599609375 319.85565185546875 139.66534423828125 320.885009765625 141.032958984375 C321.911376953125 142.40347290039062 315.40869140625 156.43267822265625 314.03814697265625 158.14727783203125 C312.6676025390625 159.8590087890625 314.89251708984375 159.51498413085938 316.604248046875 158.31939697265625 C318.3160400390625 157.12088012695312 323.276123046875 156.09445190429688 323.276123046875 159.34576416015625 C323.276123046875 162.5943603515625 314.54840087890625 172.00732421875 315.5777587890625 172.5234375 C316.604248046875 173.0367431640625 323.1070556640625 168.7559814453125 326.0172119140625 169.95440673828125 C328.927490234375 171.1500244140625 327.556884765625 177.4837646484375 325.16290283203125 179.53955078125 C322.765869140625 181.589599609375 320.885009765625 183.81451416015625 323.1070556640625 183.13214111328125 C325.3291015625 182.44677734375 331.1495361328125 181.248291015625 332.0068359375 184.6717529296875 C332.86407470703125 188.09228515625 327.21563720703125 193.058349609375 325.676025390625 194.25689697265625 C324.133544921875 195.45245361328125 329.4464111328125 194.0819091796875 332.09576416015625 195.7965087890625 C334.7449951171875 197.50537109375 333.03326416015625 204.0081787109375 330.6363525390625 204.862548828125 C328.2421875 205.7198486328125 322.9378662109375 206.4022216796875 325.16290283203125 206.57720947265625 C327.3848876953125 206.749267578125 333.833251953125 208.97412109375 333.4346923828125 210.6829833984375 C333.03326416015625 212.39764404296875 326.18927001953125 215.47705078125 325.676025390625 216.334228515625 C325.16290283203125 217.1885986328125 328.75537109375 219.24163818359375 330.4671630859375 220.6121826171875 C332.17889404296875 221.979736328125 333.37744140625 224.2047119140625 331.66558837890625 225.5723876953125 C329.9510498046875 226.94000244140625 333.37744140625 230.70751953125 332.0068359375 232.58837890625 C330.6363525390625 234.4693603515625 331.4935302734375 234.4693603515625 332.0068359375 236.52227783203125 C332.52288818359375 238.57513427734375 332.3480224609375 240.97216796875 331.1495361328125 241.829345703125 C329.9510498046875 242.68670654296875 330.2950439453125 244.567626953125 330.80841064453125 245.935302734375 C331.32440185546875 247.30865478515625 330.6363525390625 248.50714111328125 329.60986328125 249.358642578125 C328.5863037109375 250.213134765625 329.2686767578125 251.41162109375 329.2686767578125 253.9776611328125 C329.2686767578125 256.54669189453125 326.35845947265625 256.887939453125 327.0465087890625 258.08642578125 C327.72900390625 259.284912109375 327.9039306640625 261.16583251953125 326.530517578125 263.2215576171875 C325.16290283203125 265.2745361328125 325.676025390625 265.4437255859375 325.33203125 267.4993896484375 C324.9908447265625 269.5523681640625 323.7923583984375 271.26416015625 322.59375 271.4332275390625 C321.39813232421875 271.605224609375 321.911376953125 271.4332275390625 320.71295166015625 273.658203125 C319.51446533203125 275.8802490234375 317.8055419921875 275.3670654296875 317.8055419921875 276.90966796875 C317.8055419921875 278.44927978515625 316.43212890625 281.5286865234375 315.0673828125 281.5286865234375 C313.69403076171875 281.5286865234375 313.69403076171875 284.78009033203125 311.2999267578125 284.9521484375 C308.90576171875 285.12127685546875 302.646728515625 283.4124755859375 299.69921875 281.5286865234375 C296.75457763671875 279.6448974609375 286.99755859375 256.54388427734375 285.6326904296875 250.72625732421875 C284.26220703125 244.9058837890625 265.9522705078125 176.9676513671875 265.9522705078125 176.9676513671875 Z"></path>
<path fill="#005ED5" fill-opacity="1.0"  filling="0" d="M298.46630859375 299.4945068359375 C299.8885498046875 298.72900390625 307.71014404296875 296.03662109375 307.71014404296875 293.50494384765625 C307.71014404296875 289.396240234375 312.842529296875 281.5257568359375 312.842529296875 281.5257568359375 C318.31878662109375 282.0390625 351.687255859375 282.9163818359375 353.9122314453125 284.96063232421875 C356.13714599609375 286.999267578125 353.7401123046875 287.68450927734375 350.6607666015625 288.7138671875 C347.58154296875 289.737548828125 338.34039306640625 289.5711669921875 337.99639892578125 290.7696533203125 C337.6552734375 291.96527099609375 375.30438232421875 299.322509765625 376.33380126953125 302.2327880859375 C377.3572998046875 305.14288330078125 374.4471435546875 306.6826171875 371.026611328125 306.851806640625 C367.6031494140625 307.026611328125 355.451904296875 303.087158203125 353.3990478515625 303.77239990234375 C351.34320068359375 304.45477294921875 380.9527587890625 319.005859375 385.91595458984375 320.88665771484375 C390.87615966796875 322.767578125 392.7598876953125 326.0218505859375 390.19384765625 326.70428466796875 C387.62188720703125 327.38665771484375 381.97918701171875 326.1881103515625 379.066162109375 325.6778564453125 C376.15875244140625 325.16455078125 379.41314697265625 328.416015625 383.51898193359375 329.7864990234375 C387.62469482421875 331.156982421875 410.2154541015625 343.821533203125 408.6728515625 345.52752685546875 C407.13323974609375 347.2420654296875 393.78924560546875 342.4481201171875 391.8997802734375 342.1068115234375 C390.0189208984375 341.765625 423.9034423828125 363.3270263671875 427.1519775390625 364.86676025390625 C430.40625 366.4063720703125 432.11798095703125 367.9461669921875 430.5782470703125 368.97540283203125 C429.03857421875 369.99896240234375 442.898681640625 376.16064453125 444.779541015625 377.01788330078125 C446.66046142578125 377.8751220703125 456.9307861328125 384.2060546875 454.53375244140625 386.430908203125 C452.13671875 388.65301513671875 419.45062255859375 373.2532958984375 416.54339599609375 372.912109375 C413.6302490234375 372.5679931640625 397.20697021484375 364.86676025390625 396.00848388671875 364.52264404296875 C394.8099365234375 364.181396484375 420.8211669921875 381.2957763671875 420.13885498046875 383.8619384765625 C419.45062255859375 386.427978515625 396.51885986328125 371.713623046875 392.587890625 370.3402099609375 C388.65118408203125 368.9725341796875 381.29400634765625 362.2977294921875 379.920654296875 362.2977294921875 C378.55303955078125 362.2977294921875 371.875244140625 357.506591796875 374.10308837890625 360.0755615234375 C376.330810546875 362.64178466796875 390.19091796875 373.4195556640625 388.65118408203125 375.30615234375 C387.11151123046875 377.18994140625 364.1768798828125 360.7608642578125 361.43865966796875 359.390380859375 C360.0107421875 358.67645263671875 356.1199951171875 355.4967041015625 352.47576904296875 352.423095703125 C352.40985107421875 352.9879150390625 352.1116943359375 353.4437255859375 351.5152587890625 353.7420654296875 C348.435791015625 355.2816162109375 333.7156982421875 342.9613037109375 332.00396728515625 342.4481201171875 C330.292236328125 341.934814453125 328.06732177734375 341.2496337890625 325.50115966796875 340.05389404296875 C322.93212890625 338.85540771484375 300.8575439453125 315.24114990234375 298.46051025390625 310.791259765625 C296.0721435546875 306.3414306640625 296.24139404296875 300.6929931640625 298.46630859375 299.4945068359375 Z"></path>
<path fill="#005ED5" fill-opacity="1.0"  filling="0" d="M294.79052734375 293.95794677734375 C298.8963623046875 296.52984619140625 300.177978515625 303.43414306640625 298.1251220703125 304.4576416015625 C296.0721435546875 305.4869384765625 298.9365234375 308.394287109375 296.7344970703125 309.07965087890625 C294.53253173828125 309.76483154296875 296.7574462890625 311.13250732421875 295.2177734375 312.84716796875 C293.6781005859375 314.5560302734375 290.5986328125 314.89715576171875 290.42388916015625 317.4661865234375 C290.254638671875 320.0323486328125 289.1536865234375 320.714599609375 287.6512451171875 321.2308349609375 C286.14599609375 321.74688720703125 288.54296875 324.1409912109375 286.8311767578125 325.6806640625 C285.1195068359375 327.22039794921875 282.0401611328125 327.39239501953125 281.5240478515625 329.2733154296875 C281.013671875 331.156982421875 279.3018798828125 332.3526611328125 277.59027099609375 332.8687744140625 C275.8785400390625 333.38482666015625 275.5372314453125 334.2392578125 274.3388671875 335.60693359375 C273.14031982421875 336.974609375 270.0609130859375 336.4642333984375 269.2037353515625 337.318603515625 C268.346435546875 338.17315673828125 269.2037353515625 339.7127685546875 267.8360595703125 340.0567626953125 C266.462646484375 340.39801025390625 265.9522705078125 341.937744140625 263.38330078125 343.1361083984375 C260.817138671875 344.33465576171875 258.2481689453125 343.9906005859375 257.052490234375 345.02001953125 C255.85400390625 346.04351806640625 250.036376953125 345.7022705078125 247.64227294921875 346.215576171875 C245.245361328125 346.728759765625 242.33514404296875 342.964111328125 241.483642578125 343.6466064453125 C240.62628173828125 344.331787109375 241.82476806640625 349.8052978515625 238.570556640625 349.464111328125 C235.319091796875 349.1229248046875 234.6339111328125 346.38470458984375 233.0941162109375 348.4376220703125 C231.55450439453125 350.490478515625 230.35601806640625 351.858154296875 227.9619140625 351.858154296875 C225.5677490234375 351.858154296875 224.3692626953125 349.2921142578125 222.6546630859375 351.858154296875 C220.9429931640625 354.4244384765625 218.548828125 354.255126953125 215.8106689453125 353.5699462890625 C213.07244873046875 352.8846435546875 211.35791015625 350.490478515625 208.27850341796875 352.54351806640625 C205.1990966796875 354.5992431640625 200.23602294921875 354.95770263671875 198.3551025390625 354.008544921875 C196.4742431640625 353.05950927734375 196.29937744140625 350.490478515625 193.5611572265625 352.2022705078125 C190.822998046875 353.9168701171875 184.32025146484375 354.7713623046875 182.780517578125 353.4007568359375 C181.2408447265625 352.03314208984375 182.09814453125 348.609619140625 178.6748046875 350.66259765625 C175.251220703125 352.7183837890625 168.232421875 356.655029296875 166.35150146484375 355.7977294921875 C164.46771240234375 354.9404296875 165.32501220703125 348.265625 166.35150146484375 346.38470458984375 C167.3779296875 344.5037841796875 166.35150146484375 345.186279296875 163.61328125 346.5567626953125 C160.8751220703125 347.9244384765625 152.14739990234375 350.1494140625 150.77978515625 348.609619140625 C149.4091796875 347.067138671875 157.96484375 340.90838623046875 157.282470703125 339.36578369140625 C156.60009765625 337.826171875 150.607666015625 339.1966552734375 148.38275146484375 339.36578369140625 C146.15777587890625 339.537841796875 140.8505859375 339.1966552734375 143.078369140625 337.826171875 C145.3033447265625 336.45849609375 151.123779296875 334.7955322265625 150.607666015625 334.0843505859375 C150.0943603515625 333.379150390625 142.7373046875 334.7955322265625 139.14453125 334.0843505859375 C135.54913330078125 333.379150390625 134.86669921875 332.863037109375 139.14453125 332.3497314453125 C143.4224853515625 331.83935546875 157.96484375 326.8763427734375 163.2720947265625 322.767578125 C168.579345703125 318.6617431640625 178.6748046875 313.013427734375 180.5556640625 311.129638671875 C182.4364013671875 309.248779296875 194.745361328125 300.242919921875 200.33349609375 297.639404296875 C204.3935546875 295.75 246.26611328125 288.883056640625 251.229248046875 288.7138671875 C256.200927734375 288.5418701171875 294.79052734375 293.95794677734375 294.79052734375 293.95794677734375 Z"></path>
<path fill="#7AE0FF" fill-opacity="1.0"  filling="0" d="M284.4371337890625 293.95794677734375 C288.48553466796875 296.6416015625 290.254638671875 300.52392578125 286.3179931640625 300.864990234375 C282.3812255859375 301.2091064453125 271.42864990234375 297.0975341796875 271.772705078125 299.15338134765625 C272.1138916015625 301.2091064453125 272.1138916015625 302.5738525390625 270.2330322265625 302.748779296875 C268.3492431640625 302.91796875 270.2330322265625 303.77239990234375 268.3492431640625 305.14288330078125 C266.4683837890625 306.513427734375 263.7301025390625 302.91796875 263.2169189453125 305.14288330078125 C262.70361328125 307.367919921875 262.362548828125 308.0531005859375 260.8228759765625 307.537109375 C259.28314208984375 307.026611328125 261.67724609375 310.6192626953125 259.96551513671875 310.96051025390625 C258.2509765625 311.30450439453125 257.2274169921875 310.78839111328125 257.2274169921875 311.9869384765625 C257.2274169921875 313.1854248046875 255.515625 314.5531005859375 253.97601318359375 313.8677978515625 C252.436279296875 313.1854248046875 253.80401611328125 316.436767578125 251.923095703125 316.436767578125 C250.039306640625 316.436767578125 248.8436279296875 316.77801513671875 247.98638916015625 318.8309326171875 C247.129150390625 320.88665771484375 244.390869140625 318.317626953125 242.85125732421875 317.807373046875 C241.3115234375 317.291259765625 242.510009765625 318.6646728515625 241.483642578125 321.2279052734375 C240.4542236328125 323.79400634765625 239.76904296875 323.4012451171875 238.745361328125 322.31463623046875 C237.71600341796875 321.2279052734375 238.5733642578125 322.8536376953125 236.6895751953125 323.1546630859375 C234.80877685546875 323.452880859375 232.4117431640625 319.688232421875 231.3853759765625 321.0587158203125 C230.35601806640625 322.42926025390625 231.8956298828125 324.13818359375 229.670654296875 323.968994140625 C227.4486083984375 323.796875 226.5914306640625 320.49102783203125 225.7340087890625 322.3175048828125 C224.879638671875 324.1409912109375 223.68115234375 323.4041748046875 221.969482421875 322.3175048828125 C220.2576904296875 321.2308349609375 220.42681884765625 323.30950927734375 217.69158935546875 323.98040771484375 C214.953369140625 324.6513671875 210.3343505859375 315.75445556640625 207.9373779296875 315.072021484375 C205.5404052734375 314.3896484375 202.4610595703125 308.0560302734375 201.778564453125 306.6854248046875 C201.09613037109375 305.31488037109375 200.7550048828125 309.08251953125 198.6990966796875 308.0560302734375 C196.6434326171875 307.0323486328125 195.771728515625 302.29583740234375 199.628173828125 300.0421142578125 C203.4932861328125 297.78851318359375 232.7529296875 288.7138671875 241.99102783203125 288.7166748046875 C251.23779296875 288.7138671875 284.4371337890625 293.95794677734375 284.4371337890625 293.95794677734375 Z"></path>
<path fill="#7AE0FF" fill-opacity="1.0"  filling="0" d="M260.64794921875 263.73193359375 C270.68603515625 264.8387451171875 284.77825927734375 269.38037109375 291.9664306640625 272.8009033203125 C299.1544189453125 276.221435546875 302.74700927734375 281.5286865234375 307.02490234375 283.2403564453125 C311.302734375 284.95501708984375 317.292236328125 286.31689453125 319.86138916015625 288.7138671875 C322.430419921875 291.1136474609375 333.8704833984375 299.15625 333.45477294921875 301.2091064453125 C333.0390625 303.26202392578125 326.361328125 296.4151611328125 323.281982421875 297.0975341796875 C320.2025146484375 297.7828369140625 325.67889404296875 300.0106201171875 328.9302978515625 302.40478515625 C332.1817626953125 304.8017578125 363.5001220703125 324.482177734375 362.81201171875 328.246826171875 C362.12677001953125 332.0113525390625 340.2242431640625 321.0587158203125 336.28753662109375 319.175048828125 C332.35089111328125 317.294189453125 333.5494384765625 319.1234130859375 334.7479248046875 322.3175048828125 C335.9464111328125 325.5086669921875 337.29388427734375 331.0079345703125 333.45477294921875 329.029541015625 C329.61279296875 327.05126953125 324.99365234375 321.40289306640625 323.281982421875 321.40289306640625 C321.5701904296875 321.40289306640625 318.49078369140625 319.0086669921875 317.1231689453125 317.8101806640625 C315.752685546875 316.6116943359375 308.5673828125 311.8177490234375 305.4852294921875 309.59564208984375 C302.4058837890625 307.3736572265625 301.10986328125 302.57965087890625 299.7021484375 302.751708984375 C298.297119140625 302.92083740234375 291.6480712890625 295.0963134765625 288.5228271484375 294.87841796875 C285.39764404296875 294.660400390625 272.21142578125 289.59130859375 269.0086669921875 288.7166748046875 C259.8795166015625 286.2193603515625 258.081787109375 278.108154296875 255.85693359375 273.31988525390625 C253.6319580078125 268.52301025390625 252.18115234375 262.7972412109375 260.64794921875 263.73193359375 Z"></path>
<path fill="#658C06" fill-opacity="1.0"  filling="0" d="M272.97119140625 287.5181884765625 C278.50201416015625 289.52239990234375 287.4620361328125 292.3809814453125 287.344482421875 296.541259765625 C287.229736328125 300.6959228515625 283.41064453125 297.78851318359375 281.1856689453125 297.27532958984375 C278.963623046875 296.75927734375 280.162109375 297.78851318359375 276.3946533203125 297.27532958984375 C272.62713623046875 296.75927734375 269.037353515625 293.2669677734375 267.153564453125 293.1322021484375 C265.2698974609375 292.9974365234375 269.72265625 297.13189697265625 268.1800537109375 298.7432861328125 C266.640380859375 300.3575439453125 267.6640625 302.06640625 264.41546630859375 302.2384033203125 C261.1640625 302.41046142578125 257.2274169921875 300.867919921875 255.515625 302.2384033203125 C253.80401611328125 303.60888671875 251.5789794921875 306.1751708984375 249.1849365234375 305.4927978515625 C246.78790283203125 304.807373046875 244.6719970703125 304.807373046875 242.733642578125 304.46337890625 C240.79833984375 304.1221923828125 241.993896484375 307.20166015625 239.7718505859375 307.7176513671875 C237.5498046875 308.23089599609375 237.0338134765625 305.02252197265625 235.15283203125 306.373046875 C233.2718505859375 307.7176513671875 230.1925048828125 301.55615234375 228.6500244140625 301.900146484375 C227.1103515625 302.24127197265625 229.8485107421875 309.25732421875 226.9354248046875 310.1146240234375 C224.028076171875 310.9691162109375 222.82958984375 306.691162109375 221.631103515625 307.88970947265625 C220.4326171875 309.088134765625 219.57525634765625 308.744140625 218.718017578125 308.061767578125 C217.8636474609375 307.3792724609375 218.2076416015625 302.24420166015625 216.495849609375 303.442626953125 C214.7843017578125 304.64111328125 216.3267822265625 308.74700927734375 214.4429931640625 308.061767578125 C212.55926513671875 307.3792724609375 211.8740234375 305.88262939453125 210.1651611328125 306.3758544921875 C208.453369140625 306.86328125 207.9403076171875 303.2706298828125 206.05645751953125 303.9559326171875 C204.175537109375 304.6383056640625 199.72564697265625 304.1251220703125 200.40802001953125 302.0721435546875 C201.0933837890625 300.019287109375 203.6595458984375 299.62060546875 208.9637451171875 298.8780517578125 C214.27099609375 298.138427734375 224.025146484375 297.5247802734375 228.302978515625 296.547119140625 C232.5780029296875 295.56646728515625 244.9356689453125 293.08642578125 244.729248046875 290.9473876953125 C244.52850341796875 288.8114013671875 241.64990234375 283.4210205078125 245.7557373046875 283.4210205078125 C249.8643798828125 283.4210205078125 255.6820068359375 284.61663818359375 257.052490234375 283.4210205078125 C258.4229736328125 282.2139892578125 267.067626953125 285.37652587890625 272.97119140625 287.5181884765625 Z"></path>
<path fill="#7AE0FF" fill-opacity="1.0"  filling="0" d="M288.5228271484375 261.67901611328125 C292.26739501953125 264.7584228515625 298.0821533203125 266.77978515625 296.7344970703125 263.628662109375 C295.386962890625 260.48052978515625 297.4512939453125 262.18939208984375 296.932373046875 259.6260986328125 C296.41339111328125 257.06005859375 299.3236083984375 256.3746337890625 298.46630859375 254.8321533203125 C297.6119384765625 253.29248046875 294.48663330078125 251.5836181640625 296.7344970703125 251.242431640625 C298.9794921875 250.8983154296875 300.424560546875 249.0146484375 299.7021484375 248.5042724609375 C298.9794921875 247.9881591796875 303.5469970703125 248.329345703125 301.94708251953125 246.6204833984375 C300.3499755859375 244.90875244140625 297.5316162109375 242.68670654296875 299.197509765625 242.3426513671875 C300.86328125 242.00140380859375 303.5469970703125 242.00140380859375 301.94708251953125 239.948486328125 C300.3499755859375 237.89276123046875 301.4454345703125 238.23388671875 302.4403076171875 237.035400390625 C303.4322509765625 235.83984375 299.0712890625 232.58837890625 299.197509765625 232.07525634765625 C299.3236083984375 231.56195068359375 303.7735595703125 231.392822265625 303.4322509765625 230.1943359375 C303.0911865234375 228.995849609375 300.177978515625 226.7738037109375 301.03533935546875 226.08563232421875 C301.89263916015625 225.400390625 303.0911865234375 224.2047119140625 301.03533935546875 222.8341064453125 C298.9794921875 221.463623046875 300.3529052734375 220.6121826171875 300.86328125 219.92401123046875 C301.37652587890625 219.23876953125 301.46826171875 218.55352783203125 299.197509765625 217.0137939453125 C296.9266357421875 215.47412109375 301.4510498046875 214.1036376953125 299.7021484375 212.56390380859375 C297.9559326171875 211.0242919921875 295.04290771484375 211.193359375 295.98614501953125 209.994873046875 C296.9266357421875 208.79638671875 297.0986328125 205.8890380859375 294.36053466796875 205.8890380859375 C291.6224365234375 205.8890380859375 289.40020751953125 205.03173828125 291.6224365234375 203.833251953125 C293.8472900390625 202.634765625 295.900146484375 198.6981201171875 292.82080078125 198.5289306640625 C289.741455078125 198.35400390625 294.535400390625 192.87762451171875 292.3074951171875 192.71142578125 C290.0826416015625 192.5394287109375 291.79443359375 190.99676513671875 290.93701171875 188.9439697265625 C290.07977294921875 186.893798828125 288.71502685546875 187.4041748046875 287.344482421875 187.235107421875 C285.976806640625 187.0601806640625 289.40020751953125 181.583740234375 287.344482421875 180.9013671875 C285.28863525390625 180.218994140625 286.4871826171875 179.189697265625 284.947509765625 177.13671875 C283.40777587890625 175.0810546875 282.7196044921875 175.938232421875 281.607177734375 174.2237548828125 C280.4976806640625 172.514892578125 278.78875732421875 172.0015869140625 277.7593994140625 172.6839599609375 C276.73577880859375 173.3692626953125 276.5609130859375 169.6046142578125 274.5079345703125 171.31634521484375 C272.45501708984375 173.028076171875 271.25653076171875 176.107421875 270.2301025390625 174.908935546875 C269.2037353515625 173.71337890625 268.076904296875 171.80096435546875 266.41387939453125 175.23590087890625 C264.7537841796875 178.67364501953125 263.38330078125 187.5733642578125 263.38330078125 189.113037109375 C263.38330078125 190.65277099609375 257.2244873046875 196.47039794921875 257.052490234375 202.801025390625 C256.8804931640625 209.13189697265625 256.197998046875 211.35675048828125 258.2481689453125 212.044921875 C260.30389404296875 212.727294921875 272.96826171875 220.769775390625 273.82275390625 225.2225341796875 C274.6800537109375 229.669677734375 276.39178466796875 251.2337646484375 278.78582763671875 256.197021484375 C281.1827392578125 261.1629638671875 288.5228271484375 261.67901611328125 288.5228271484375 261.67901611328125 Z"></path>
<path fill="#658C06" fill-opacity="1.0"  filling="0" d="M259.1082763671875 209.6536865234375 C263.44915771484375 206.4853515625 270.57427978515625 205.2037353515625 271.2593994140625 207.597900390625 C271.94189453125 209.994873046875 269.7197265625 211.0213623046875 273.3123779296875 211.0213623046875 C276.9049072265625 211.0213623046875 281.3577880859375 210.336181640625 280.669677734375 212.391845703125 C279.984375 214.44476318359375 276.5609130859375 214.27276611328125 278.78875732421875 215.2991943359375 C281.013671875 216.3284912109375 283.2386474609375 216.4976806640625 282.5533447265625 218.3814697265625 C281.8681640625 220.26226806640625 282.5533447265625 219.921142578125 284.26220703125 221.802001953125 C285.976806640625 223.685791015625 280.669677734375 223.513671875 281.5240478515625 225.053466796875 C282.3812255859375 226.5931396484375 287.95233154296875 227.966552734375 287.6512451171875 230.0164794921875 C287.344482421875 232.0694580078125 283.063720703125 231.728271484375 283.063720703125 232.58551025390625 C283.063720703125 233.44000244140625 289.2281494140625 234.125244140625 289.39739990234375 236.69140625 C289.56939697265625 239.2603759765625 288.0267333984375 239.42950439453125 289.39739990234375 240.628173828125 C290.76788330078125 241.8265380859375 292.992919921875 242.683837890625 292.4766845703125 245.4219970703125 C291.9635009765625 248.1572265625 288.712158203125 248.329345703125 290.254638671875 250.38226318359375 C291.79443359375 252.4351806640625 293.8472900390625 254.4822998046875 293.333984375 257.392578125 C292.8179931640625 260.3056640625 289.48052978515625 261.4869384765625 289.65826416015625 261.9169921875 C289.8360595703125 262.3499755859375 293.8472900390625 266.123291015625 295.0457763671875 268.178955078125 C296.24139404296875 270.2347412109375 300.3499755859375 271.943603515625 301.20452880859375 274.6817626953125 C302.05889892578125 277.419921875 302.6094970703125 280.5423583984375 300.338623046875 278.45501708984375 C290.07977294921875 269.0362548828125 276.41748046875 268.0040283203125 273.495849609375 266.2952880859375 C270.5712890625 264.58349609375 266.46551513671875 256.02777099609375 265.9522705078125 251.74993896484375 C265.43902587890625 247.4720458984375 269.0316162109375 243.7073974609375 271.60064697265625 240.11187744140625 C274.166748046875 236.5194091796875 272.4578857421875 225.3946533203125 270.91827392578125 221.9739990234375 C269.3785400390625 218.55352783203125 269.5477294921875 213.59033203125 265.95513916015625 213.59033203125 C262.359619140625 213.59033203125 257.0811767578125 211.1331787109375 259.1082763671875 209.6536865234375 Z"></path>
<path fill="#DD1603" fill-opacity="1.0"  filling="0" d="M259.1082763671875 209.6536865234375 C256.95782470703125 211.0098876953125 256.9005126953125 210.8521728515625 256.805908203125 216.4976806640625 C256.7113037109375 222.1490478515625 254.317138671875 233.44000244140625 252.60552978515625 237.889892578125 C250.890869140625 242.3397216796875 249.1849365234375 249.35577392578125 247.129150390625 252.093994140625 C245.0732421875 254.8292236328125 242.67926025390625 257.56170654296875 238.5733642578125 257.39544677734375 C234.467529296875 257.22625732421875 222.65753173828125 252.948486328125 217.697265625 252.4351806640625 C212.737060546875 251.9219970703125 207.088623046875 250.38226318359375 201.6123046875 252.607177734375 C196.138916015625 254.8292236328125 194.8543701171875 257.06005859375 196.95025634765625 258.599609375 C199.0433349609375 260.139404296875 196.8211669921875 263.21875 198.18890380859375 266.9833984375 C199.55938720703125 270.7479248046875 201.2711181640625 271.4332275390625 202.6416015625 271.7772216796875 C204.00927734375 272.1185302734375 202.34912109375 269.77313232421875 205.25653076171875 270.45550537109375 C208.1695556640625 271.137939453125 207.4327392578125 273.31695556640625 210.6812744140625 274.68463134765625 C213.935546875 276.05517578125 220.435546875 279.6448974609375 222.49127197265625 280.502197265625 C224.541259765625 281.3594970703125 226.255859375 281.8956298828125 222.3162841796875 284.9664306640625 C218.379638671875 288.034423828125 208.6282958984375 294.1959228515625 205.89019775390625 295.560791015625 C203.1519775390625 296.93408203125 197.53515625 298.06378173828125 198.18603515625 299.3282470703125 C198.8397216796875 300.58984375 204.5196533203125 299.8414306640625 206.4005126953125 301.0399169921875 C208.2813720703125 302.2384033203125 209.3135986328125 303.60888671875 212.2181396484375 302.06640625 C215.131103515625 300.5267333984375 214.440185546875 301.722412109375 217.69439697265625 302.06640625 C220.94580078125 302.40765380859375 219.234130859375 298.987060546875 221.2899169921875 298.8150634765625 C223.3427734375 298.64007568359375 225.7369384765625 301.2119140625 228.81634521484375 300.5267333984375 C231.8956298828125 299.8414306640625 230.70001220703125 294.5601806640625 232.5838623046875 296.6875 C234.467529296875 298.8150634765625 239.2586669921875 300.867919921875 241.3115234375 298.6429443359375 C243.3673095703125 296.4208984375 246.44671630859375 295.5635986328125 246.271728515625 293.1695556640625 C246.1026611328125 290.775390625 242.67926025390625 286.6666259765625 246.1026611328125 286.15350341796875 C249.523193359375 285.64019775390625 256.70849609375 288.5474853515625 259.10540771484375 288.7196044921875 C261.50238037109375 288.89453125 265.26416015625 288.89453125 263.7244873046875 287.3519287109375 C262.184814453125 285.812255859375 262.8699951171875 284.43310546875 267.489013671875 283.154296875 C272.108154296875 281.8756103515625 277.07415771484375 282.73291015625 272.96539306640625 280.163818359375 C268.8568115234375 277.5977783203125 265.77740478515625 272.6346435546875 264.2376708984375 270.40966796875 C262.697998046875 268.1876220703125 263.0391845703125 266.4730224609375 267.65826416015625 267.15826416015625 C272.27734375 267.843505859375 277.75653076171875 266.5303955078125 276.8992919921875 265.2171630859375 C276.0447998046875 263.9068603515625 274.6771240234375 262.7083740234375 275.8756103515625 262.02593994140625 C277.07415771484375 261.34075927734375 276.73291015625 259.97015380859375 275.3594970703125 259.45989990234375 C273.99188232421875 258.94659423828125 277.41534423828125 256.2083740234375 275.1904296875 255.35113525390625 C272.96539306640625 254.493896484375 269.02880859375 252.7850341796875 269.1978759765625 251.2452392578125 C269.3729248046875 249.7027587890625 269.02587890625 249.18951416015625 269.1978759765625 247.99102783203125 C269.3729248046875 246.79248046875 272.79339599609375 246.79248046875 275.1904296875 246.623291015625 C277.58447265625 246.4512939453125 279.75213623046875 244.229248046875 280.1248779296875 242.0042724609375 C280.4947509765625 239.7794189453125 281.4638671875 237.72637939453125 280.1248779296875 236.87200927734375 C278.782958984375 236.0147705078125 281.4638671875 234.4749755859375 280.1248779296875 233.6177978515625 C278.782958984375 232.760498046875 281.633056640625 230.07965087890625 280.1248779296875 229.7928466796875 C278.61376953125 229.51190185546875 279.812255859375 226.94287109375 277.75653076171875 226.6016845703125 C275.7008056640625 226.260498046875 278.9923095703125 225.55517578125 278.5765380859375 224.0010986328125 C278.15789794921875 222.4471435546875 276.385986328125 221.6414794921875 275.8756103515625 220.7841796875 C275.3594970703125 219.9296875 277.41534423828125 218.3929443359375 275.534423828125 218.05169677734375 C273.6507568359375 217.70477294921875 271.5977783203125 216.337158203125 271.93896484375 215.3077392578125 C272.28021240234375 214.2841796875 272.96539306640625 212.2283935546875 270.5712890625 211.88726806640625 C268.17724609375 211.54608154296875 269.885986328125 210.3475341796875 265.9522705078125 210.688720703125 C262.0185546875 211.0242919921875 261.15838623046875 208.3604736328125 259.1082763671875 209.6536865234375 Z"></path>
<path fill="#FFFFFF" fill-opacity="1.0"  filling="0" d="M204.17840576171875 267.0665283203125 C203.0372314453125 265.88525390625 201.4403076171875 261.84814453125 202.2086181640625 261.079833984375 C202.97998046875 260.3056640625 204.43359375 260.39453125 206.48651123046875 261.079833984375 C208.5394287109375 261.76214599609375 209.1387939453125 262.18939208984375 210.764404296875 262.70263671875 C212.39013671875 263.21875 215.29736328125 264.4716796875 215.4722900390625 265.21142578125 C215.6414794921875 265.9569091796875 215.6414794921875 267.4105224609375 215.4722900390625 269.119384765625 C215.29736328125 270.8311767578125 217.52813720703125 276.21575927734375 217.2672119140625 276.9927978515625 C217.0062255859375 277.769775390625 211.96002197265625 275.19500732421875 211.44964599609375 274.254638671875 C210.9364013671875 273.31414794921875 207.1746826171875 268.52020263671875 206.3173828125 268.0958251953125 C205.46002197265625 267.665771484375 204.54827880859375 267.45361328125 204.17840576171875 267.0665283203125 Z"></path>
<path fill="#FBB03B" fill-opacity="1.0"  filling="0" d="M198.530029296875 261.24609375 C199.473388671875 262.2181396484375 201.890380859375 263.72900390625 202.005126953125 264.5003662109375 C202.1226806640625 265.2716064453125 201.9276123046875 268.6922607421875 202.5499267578125 269.8046875 C204.04364013671875 272.47113037109375 202.25457763671875 272.1185302734375 201.1248779296875 271.180908203125 C199.998046875 270.24627685546875 197.993896484375 268.83551025390625 197.727294921875 264.68389892578125 C197.57525634765625 262.3671875 197.7186279296875 260.41455078125 198.530029296875 261.24609375 Z"></path>
<path fill="#FFFFFF" fill-opacity="1.0"  filling="0" d="M206.572509765625 264.28814697265625 C206.572509765625 265.019287109375 207.2607421875 265.6129150390625 208.10650634765625 265.6129150390625 C208.9580078125 265.6129150390625 209.646240234375 265.019287109375 209.646240234375 264.28814697265625 C209.646240234375 263.55413818359375 208.9580078125 262.96063232421875 208.10650634765625 262.96063232421875 C207.2635498046875 262.96063232421875 206.572509765625 263.55413818359375 206.572509765625 264.28814697265625 Z"></path>
</svg>