<svg xmlns="http://www.w3.org/2000/svg" viewBox="0.0 0.0 512.0 512.0" height="512.0px" width="512.0px"><path fill="#EB7D46" fill-opacity="1.0"  filling="0" d="M302.94708251953125 221.54995727539062 C349.5586242675781 234.37750244140625 284.7275695800781 225.83514404296875 284.7275695800781 225.83514404296875 C289.8487243652344 232.9220428466797 297.96490478515625 234.2026824951172 297.96490478515625 234.2026824951172 C269.0271911621094 244.50759887695312 252.3609619140625 236.84463500976562 223.82794189453125 231.66006469726562 C195.2950439453125 226.47549438476562 145.54360961914062 242.94935607910156 154.998779296875 275.951904296875 C159.42178344726562 291.3924560546875 178.72479248046875 290.8088684082031 182.55911254882812 298.76458740234375 C187.18670654296875 308.3692626953125 169.50286865234375 311.2095947265625 169.50286865234375 311.2095947265625 C164.12396240234375 320.4280090332031 141.05560302734375 316.5149230957031 137.8880615234375 280.35174560546875 C121.7325439453125 268.3148498535156 117.72393798828125 228.6222686767578 149.24118041992188 200.83209228515625 C180.7584228515625 173.0418701171875 217.0848388671875 183.2276153564453 217.0848388671875 183.2276153564453 C229.99874877929688 168.2174530029297 271.9045715332031 200.4788055419922 271.9045715332031 200.4788055419922 C271.9045715332031 200.4788055419922 281.8051452636719 196.7430419921875 287.5650329589844 201.48182678222656 C295.16302490234375 207.7283935546875 289.6773681640625 215.99244689941406 302.94708251953125 221.54995727539062 Z"></path>
<path fill="#E7EFF7" fill-opacity="1.0"  filling="0" d="M287.8427734375 214.7481231689453 C284.9381408691406 217.5691375732422 280.13787841796875 217.3390350341797 277.122802734375 214.2345733642578 C274.1064758300781 211.12887573242188 274.01666259765625 206.32394409179688 276.9212646484375 203.5029296875 C279.825927734375 200.68186950683594 284.62615966796875 200.91200256347656 287.6424560546875 204.0177001953125 C290.6575622558594 207.12216186523438 290.7474365234375 211.92706298828125 287.8427734375 214.7481231689453 Z"></path>
<path fill="#1A426B" fill-opacity="1.0"  filling="0" d="M287.6424560546875 204.0177001953125 C287.50299072265625 203.8740997314453 287.35595703125 203.74270629882812 287.21014404296875 203.61253356933594 C284.87237548828125 203.01947021484375 282.42510986328125 203.5205078125 280.7130432128906 205.18328857421875 C277.93951416015625 207.87698364257812 278.1513366699219 212.59255981445312 281.18585205078125 215.71701049804688 C281.54119873046875 216.0828857421875 281.9205322265625 216.4060821533203 282.3151550292969 216.69497680664062 C284.3257751464844 216.84620666503906 286.3392028808594 216.21083068847656 287.8439636230469 214.74937438964844 C290.7474365234375 211.92706298828125 290.6575622558594 207.12216186523438 287.6424560546875 204.0177001953125 Z"></path>
<path fill="#E7EFF7" fill-opacity="1.0"  filling="0" d="M285.27392578125 204.26998901367188 C284.9379577636719 203.924072265625 284.549072265625 203.6635284423828 284.1331481933594 203.48268127441406 C282.86322021484375 203.69677734375 281.67083740234375 204.2506103515625 280.7130432128906 205.1808319091797 C280.0162353515625 205.85757446289062 279.5084228515625 206.6614532470703 279.1854248046875 207.5356903076172 C279.32257080078125 208.17169189453125 279.62396240234375 208.78179931640625 280.11151123046875 209.28378295898438 C281.4965515136719 210.70986938476562 283.77349853515625 210.74314880371094 285.1995849609375 209.3581085205078 C286.6244812011719 207.97421264648438 286.6589660644531 205.69607543945312 285.27392578125 204.26998901367188 Z"></path>
<path fill="#1A426B" fill-opacity="1.0"  filling="0" d="M138.44390869140625 278.7004089355469 C147.20416259765625 281.65362548828125 147.20416259765625 281.65362548828125 152.8040771484375 277.61993408203125 C153.5107421875 277.1107177734375 153.5107421875 277.1107177734375 154.11865234375 277.20947265625 C154.72415161132812 277.3081970214844 154.72415161132812 277.3081970214844 155.23333740234375 278.014892578125 C156.25048828125 279.4270324707031 156.25048828125 279.4270324707031 154.83837890625 280.4441223144531 C147.78778076171875 285.52276611328125 147.78778076171875 285.52276611328125 137.3321533203125 281.9981689453125 C135.6820068359375 281.44354248046875 135.6820068359375 281.44354248046875 136.23919677734375 279.7933654785156 C136.51589965820312 278.9688720703125 136.51589965820312 278.9688720703125 137.06768798828125 278.695068359375 C137.6195068359375 278.42120361328125 137.6195068359375 278.42120361328125 138.44390869140625 278.7004089355469 Z"></path>
<path fill="#1A426B" fill-opacity="1.0"  filling="0" d="M149.87664794921875 280.8197937011719 C152.5179443359375 292.9141845703125 152.5179443359375 292.9141845703125 164.26904296875 305.0135498046875 C165.48187255859375 306.2623291015625 165.48187255859375 306.2623291015625 164.23309326171875 307.47515869140625 C162.98434448242188 308.6879577636719 162.98434448242188 308.6879577636719 161.77151489257812 307.43914794921875 C149.32913208007812 294.62799072265625 149.32913208007812 294.62799072265625 146.4730224609375 281.56292724609375 C146.10269165039062 279.8623352050781 146.10269165039062 279.8623352050781 147.80328369140625 279.4895324707031 C148.6529541015625 279.30499267578125 148.6529541015625 279.30499267578125 149.17132568359375 279.6363220214844 C149.68963623046875 279.9701232910156 149.68963623046875 279.9701232910156 149.87664794921875 280.8197937011719 Z"></path>
<path fill="#1A426B" fill-opacity="1.0"  filling="0" d="M218.46441650390625 182.16192626953125 C228.2276611328125 194.82810974121094 228.2276611328125 194.82810974121094 225.79519653320312 213.3693389892578 C224.59014892578125 222.5477752685547 224.59014892578125 222.5477752685547 221.44366455078125 229.28497314453125 C221.07510375976562 230.0724334716797 221.07510375976562 230.0724334716797 220.49594116210938 230.28305053710938 C219.91796875 230.49253845214844 219.91796875 230.49253845214844 219.1292724609375 230.12521362304688 C217.552001953125 229.38816833496094 217.552001953125 229.38816833496094 218.2890625 227.81085205078125 C221.20806884765625 221.56153869628906 221.20806884765625 221.56153869628906 222.34375 212.91635131835938 C224.586669921875 195.8090362548828 224.586669921875 195.8090362548828 215.70657348632812 184.28709411621094 C215.17373657226562 183.59857177734375 215.17373657226562 183.59857177734375 215.25286865234375 182.9878692626953 C215.33319091796875 182.37844848632812 215.33319091796875 182.37844848632812 216.02288818359375 181.84683227539062 C217.39999389648438 180.78359985351562 217.39999389648438 180.78359985351562 218.46441650390625 182.16192626953125 Z"></path>
<path fill="#1A426B" fill-opacity="1.0"  filling="0" d="M127.19024658203125 235.07089233398438 C138.62420654296875 235.58750915527344 138.62420654296875 235.58750915527344 147.76968383789062 243.769775390625 C152.32177734375 247.84213256835938 152.32177734375 247.84213256835938 154.64013671875 251.8707275390625 C155.5081787109375 253.37916564941406 155.5081787109375 253.37916564941406 153.99978637695312 254.24717712402344 C153.244873046875 254.68182373046875 153.244873046875 254.68182373046875 152.65261840820312 254.52175903320312 C152.05792236328125 254.36166381835938 152.05792236328125 254.36166381835938 151.623291015625 253.6068115234375 C149.58221435546875 250.06356811523438 149.58221435546875 250.06356811523438 145.44937133789062 246.36541748046875 C137.2261962890625 239.01039123535156 137.2261962890625 239.01039123535156 127.03363037109375 238.54763793945312 C125.29397583007812 238.47052001953125 125.29397583007812 238.47052001953125 125.37356567382812 236.73094177246094 C125.412109375 235.8611602783203 125.412109375 235.8611602783203 125.86627197265625 235.44674682617188 C126.3216552734375 235.0311737060547 126.3216552734375 235.0311737060547 127.19024658203125 235.07089233398438 Z"></path>
<path fill="#1A426B" fill-opacity="1.0"  filling="0" d="M177.13107299804688 183.79153442382812 C190.800537109375 192.24168395996094 190.800537109375 192.24168395996094 193.9864501953125 210.70858764648438 C195.56069946289062 219.83282470703125 195.56069946289062 219.83282470703125 194.44512939453125 227.34945678710938 C194.31805419921875 228.21054077148438 194.31805419921875 228.21054077148438 193.823974609375 228.5763397216797 C193.32992553710938 228.94461059570312 193.32992553710938 228.94461059570312 192.46878051757812 228.81509399414062 C190.74658203125 228.5609588623047 190.74658203125 228.5609588623047 191.003173828125 226.8387451171875 C192.03558349609375 219.8736572265625 192.03558349609375 219.8736572265625 190.555419921875 211.30108642578125 C187.63626098632812 194.37814331054688 187.63626098632812 194.37814331054688 175.30032348632812 186.7537841796875 C173.8192138671875 185.83840942382812 173.8192138671875 185.83840942382812 174.73455810546875 184.35723876953125 C175.19223022460938 183.61669921875 175.19223022460938 183.61669921875 175.79132080078125 183.47647094726562 C176.39053344726562 183.33375549316406 176.39053344726562 183.33375549316406 177.13107299804688 183.79153442382812 Z"></path>
<path fill="#1A426B" fill-opacity="1.0"  filling="0" d="M146.24209594726562 202.45144653320312 C159.10528564453125 206.34109497070312 159.10528564453125 206.34109497070312 166.98126220703125 221.37168884277344 C170.86297607421875 228.77903747558594 170.86297607421875 228.77903747558594 172.24859619140625 235.47531127929688 C172.42449951171875 236.32855224609375 172.42449951171875 236.32855224609375 172.0858154296875 236.8418731689453 C171.7484130859375 237.35647583007812 171.7484130859375 237.35647583007812 170.89639282226562 237.53363037109375 C169.19113159179688 237.88662719726562 169.19113159179688 237.88662719726562 168.83810424804688 236.18136596679688 C167.55258178710938 229.96298217773438 167.55258178710938 229.96298217773438 163.897216796875 222.98854064941406 C156.69912719726562 209.25070190429688 156.69912719726562 209.25070190429688 145.233154296875 205.78521728515625 C143.56747436523438 205.281982421875 143.56747436523438 205.281982421875 144.07192993164062 203.61514282226562 C144.32293701171875 202.7816619873047 144.32293701171875 202.7816619873047 144.86517333984375 202.49046325683594 C145.40859985351562 202.20046997070312 145.40859985351562 202.20046997070312 146.24209594726562 202.45144653320312 Z"></path>
<path fill="#EB7D46" fill-opacity="1.0"  filling="0" d="M160.99920654296875 246.68484497070312 C160.99920654296875 246.68484497070312 165.8468017578125 263.6519470214844 167.8447265625 267.7054443359375 C169.8414306640625 271.7577209472656 190.92825317382812 272.6011962890625 189.43276977539062 277.0505676269531 C187.93731689453125 281.4999694824219 165.3253173828125 274.91107177734375 163.13592529296875 271.74969482421875 C160.94647216796875 268.58831787109375 155.47894287109375 251.165283203125 155.47894287109375 251.165283203125 L160.99920654296875 246.68484497070312 Z"></path>
<path fill="#EB7D46" fill-opacity="1.0"  filling="0" d="M175.3441162109375 235.17953491210938 C175.3441162109375 235.17953491210938 179.7508544921875 251.7352294921875 181.74755859375 255.7874298095703 C183.74423217773438 259.8396911621094 205.30001831054688 263.81201171875 203.80462646484375 268.2589111328125 C202.30914306640625 272.7082824707031 179.22824096679688 262.99053955078125 177.04000854492188 259.8304443359375 C174.8505859375 256.66912841796875 169.82510375976562 239.65875244140625 169.82510375976562 239.65875244140625 L175.3441162109375 235.17953491210938 Z"></path>
<path fill="#EB7D46" fill-opacity="1.0"  filling="0" d="M196.32122802734375 228.28408813476562 C196.32122802734375 228.28408813476562 198.0814208984375 243.978759765625 200.07809448242188 248.03103637695312 C202.07476806640625 252.08334350585938 223.12564086914062 255.31080627441406 221.63018798828125 259.7576904296875 C220.13595581054688 264.2059326171875 197.55880737304688 255.23416137695312 195.37054443359375 252.07406616210938 C193.18112182617188 248.91275024414062 190.80343627929688 232.76217651367188 190.80343627929688 232.76217651367188 L196.32122802734375 228.28408813476562 Z"></path>
<path fill="#EB7D46" fill-opacity="1.0"  filling="0" d="M218.64254760742188 229.7364959716797 C223.16888427734375 232.03082275390625 232.27978515625 244.77490234375 232.27978515625 244.77490234375 C232.27978515625 244.77490234375 251.576904296875 245.77194213867188 256.88726806640625 249.4257049560547 C262.19769287109375 253.0794677734375 271.4322204589844 269.6637878417969 270.6988220214844 270.90509033203125 C269.9654541015625 272.1463623046875 257.00311279296875 253.71763610839844 254.95941162109375 252.88516235351562 C252.91571044921875 252.05014038085938 230.43292236328125 252.2106170654297 227.4044189453125 249.68701171875 C224.37716674804688 247.16464233398438 210.9986572265625 229.669189453125 210.9986572265625 229.669189453125 L218.64254760742188 229.7364959716797 Z"></path>
<path fill="#EB7D46" fill-opacity="1.0"  filling="0" d="M264.3121337890625 125.39620971679688 C264.5472412109375 142.259033203125 264.5472412109375 142.259033203125 284.2128601074219 157.6427459716797 C296.0570373535156 166.9071044921875 296.0570373535156 166.9071044921875 325.94805908203125 182.02281188964844 C350.66143798828125 194.51828002929688 350.66143798828125 194.51828002929688 358.73193359375 200.86158752441406 C372.74554443359375 211.8798828125 372.74554443359375 211.8798828125 368.13824462890625 222.96725463867188 C359.3907470703125 244.0162353515625 359.3907470703125 244.0162353515625 330.3178405761719 237.361328125 C316.23968505859375 234.13963317871094 316.23968505859375 234.13963317871094 303.8022155761719 226.8929443359375 C302.2983093261719 226.0166473388672 302.2983093261719 226.0166473388672 303.17462158203125 224.51275634765625 C303.6128234863281 223.75958251953125 303.6128234863281 223.75958251953125 304.20849609375 223.603271484375 C304.80413818359375 223.44708251953125 304.80413818359375 223.44708251953125 305.5548095703125 223.88519287109375 C317.5333251953125 230.8641815185547 317.5333251953125 230.8641815185547 331.094970703125 233.96878051757812 C357.3041076660156 239.9663848876953 357.3041076660156 239.9663848876953 364.92254638671875 221.63015747070312 C368.51544189453125 212.9839324951172 368.51544189453125 212.9839324951172 356.5794677734375 203.60006713867188 C348.7816162109375 197.46751403808594 348.7816162109375 197.46751403808594 324.376220703125 185.12921142578125 C294.18328857421875 169.8625946044922 294.18328857421875 169.8625946044922 282.06768798828125 160.38624572753906 C261.0887451171875 143.97511291503906 261.0887451171875 143.97511291503906 260.8299865722656 125.44383239746094 C260.81805419921875 124.57453918457031 260.81805419921875 124.57453918457031 261.2479553222656 124.1326904296875 C261.6766662597656 123.69209289550781 261.6766662597656 123.69209289550781 262.5472412109375 123.67893981933594 C264.28826904296875 123.65509033203125 264.28826904296875 123.65509033203125 264.3121337890625 125.39620971679688 Z"></path>
<path fill="#EB7D46" fill-opacity="1.0"  filling="0" d="M284.0782775878906 136.34091186523438 C284.5482177734375 157.77317810058594 284.5482177734375 157.77317810058594 303.565185546875 174.8376922607422 C314.8271484375 184.94171142578125 314.8271484375 184.94171142578125 342.1273193359375 199.51853942871094 C362.04449462890625 210.15402221679688 362.04449462890625 210.15402221679688 368.0089111328125 215.55316162109375 C378.41424560546875 224.97006225585938 378.41424560546875 224.97006225585938 372.70068359375 235.09832763671875 C360.58984375 256.5721435546875 360.58984375 256.5721435546875 330.43414306640625 243.4776611328125 C315.8388671875 237.1400146484375 315.8388671875 237.1400146484375 303.5536193847656 226.71694946289062 C302.2257385253906 225.59207153320312 302.2257385253906 225.59207153320312 303.35308837890625 224.2642059326172 C303.914306640625 223.60025024414062 303.914306640625 223.60025024414062 304.5281066894531 223.55014038085938 C305.14190673828125 223.5 305.14190673828125 223.5 305.80584716796875 224.06365966796875 C317.6995544433594 234.151123046875 317.6995544433594 234.151123046875 331.8213806152344 240.2836456298828 C359.0986633300781 252.12838745117188 359.0986633300781 252.12838745117188 369.66766357421875 233.38961791992188 C374.01385498046875 225.68386840820312 374.01385498046875 225.68386840820312 365.6728515625 218.13258361816406 C360.0267333984375 213.0237274169922 360.0267333984375 213.0237274169922 340.48699951171875 202.58950805664062 C312.81427001953125 187.81398010253906 312.81427001953125 187.81398010253906 301.2400207519531 177.4283447265625 C281.1003112792969 159.35769653320312 281.1003112792969 159.35769653320312 280.59820556640625 136.4156494140625 C280.578857421875 135.54629516601562 280.578857421875 135.54629516601562 281.00390625 135.10191345214844 C281.43023681640625 134.65635681152344 281.43023681640625 134.65635681152344 282.3008728027344 134.63829040527344 C284.0396728515625 134.59963989257812 284.0396728515625 134.59963989257812 284.0782775878906 136.34091186523438 Z"></path></svg>