<svg xmlns="http://www.w3.org/2000/svg" viewBox="0.0 0.0 512.0 512.0" height="512.0px" width="512.0px"><path fill="#fc9081" fill-opacity="1.0"  filling="0" d="M123.00801086425781 377.72796630859375 C123.39198303222656 379.39202880859375 124.67198181152344 381.1839599609375 127.10398864746094 382.97607421875 C144.12796020507812 395.64801025390625 173.44000244140625 391.93603515625 192.89601135253906 389.24798583984375 C207.48797607421875 387.3280029296875 221.56796264648438 387.96795654296875 236.16000366210938 387.20001220703125 C250.24000549316406 386.55999755859375 264.4479675292969 384.12799072265625 278.5279541015625 384.12799072265625 C316.927978515625 384.25604248046875 359.93603515625 383.74395751953125 370.9439697265625 339.20001220703125 C372.60797119140625 332.6719970703125 373.3760070800781 326.01605224609375 373.760009765625 319.2320556640625 C374.5279541015625 308.0960693359375 374.27203369140625 296.96002197265625 375.16796875 285.9520263671875 C375.67999267578125 280.1920166015625 376.96002197265625 274.0479736328125 380.927978515625 269.5679931640625 C384.7679748535156 265.343994140625 390.656005859375 264.1920166015625 394.49603271484375 259.968017578125 C414.4639892578125 238.08001708984375 374.0160217285156 216.83203125 355.7120361328125 228.736083984375 C343.0400085449219 237.0560302734375 336.38397216796875 256.12799072265625 333.1839904785156 271.2320556640625 C332.927978515625 272.38397216796875 332.6720275878906 273.407958984375 332.5439758300781 274.4320068359375 C328.9599914550781 294.14398193359375 316.79998779296875 308.35205078125 297.4720458984375 314.112060546875 C275.072021484375 320.7679443359375 254.0800018310547 332.416015625 230.9120330810547 335.74395751953125 C218.8800048828125 337.5360107421875 206.72000122070312 341.1199951171875 195.1999969482422 344.83203125 C182.01602172851562 349.0560302734375 168.95999145507812 353.280029296875 155.90399169921875 357.632080078125 C150.52796936035156 359.4239501953125 145.15203857421875 361.216064453125 139.77601623535156 363.00799560546875 C132.86398315429688 365.696044921875 121.47198486328125 371.20001220703125 123.00801086425781 377.72796630859375 Z"></path>
<path fill="#fc9081" fill-opacity="1.0"  filling="0" d="M355.8399963378906 231.2960205078125 C353.407958984375 218.112060546875 349.1839904785156 206.97607421875 350.7200012207031 192.5120849609375 C351.61602783203125 184.1920166015625 361.4720458984375 162.9439697265625 372.60797119140625 174.08001708984375 C378.8800048828125 180.35205078125 372.09600830078125 183.16796875 368.0 185.8560791015625 C363.7760009765625 188.6719970703125 361.6000061035156 191.8720703125 360.0639953613281 196.60797119140625 C358.5279541015625 201.72796630859375 357.5039978027344 207.74395751953125 357.24798583984375 213.24798583984375 C356.8639831542969 220.1600341796875 360.4479675292969 225.02392578125 360.83203125 231.2960205078125 C360.83203125 231.8079833984375 360.83203125 232.32000732421875 360.83203125 232.7039794921875 L355.8399963378906 231.2960205078125 Z"></path>
<path fill="#fc9081" fill-opacity="1.0"  filling="0" d="M378.239990234375 233.343994140625 C380.6720275878906 220.1600341796875 380.6720275878906 208.25604248046875 387.3279724121094 195.3280029296875 C391.16796875 187.9039306640625 407.93603515625 171.52001953125 414.33599853515625 185.9840087890625 C417.91998291015625 194.0479736328125 410.6239929199219 194.176025390625 405.8879699707031 195.3280029296875 C401.02398681640625 196.47998046875 397.6960144042969 198.656005859375 394.6239929199219 202.62396240234375 C391.2960205078125 206.8480224609375 388.2239990234375 212.0960693359375 386.0479736328125 217.0880126953125 C383.2320251464844 223.48797607421875 384.7679748535156 229.1199951171875 382.97601318359375 235.26397705078125 C382.84796142578125 235.77606201171875 382.592041015625 236.1600341796875 382.4639892578125 236.6719970703125 L378.239990234375 233.343994140625 Z"></path>
<path fill="#fc9081" fill-opacity="1.0"  filling="0" d="M382.3360290527344 180.736083984375 C380.03204345703125 190.4639892578125 368.7679748535156 196.35205078125 361.85601806640625 186.8800048828125 C355.8399963378906 178.68798828125 360.9599914550781 162.0479736328125 372.60797119140625 164.0960693359375 C380.54400634765625 165.50396728515625 384.0 173.31201171875 382.3360290527344 180.736083984375 Z"></path>
<path fill="#fc9081" fill-opacity="1.0"  filling="0" d="M422.91204833984375 194.55999755859375 C420.60797119140625 204.2879638671875 409.343994140625 210.176025390625 402.4320373535156 200.7039794921875 C396.416015625 192.5120849609375 401.5360107421875 175.8720703125 413.1839904785156 177.9200439453125 C421.24798583984375 179.4560546875 424.7039794921875 187.13604736328125 422.91204833984375 194.55999755859375 Z"></path>
<path fill="#ffffff" fill-opacity="1.0"  filling="0" d="M364.927978515625 184.7039794921875 C367.7439880371094 193.02392578125 374.5279541015625 190.2080078125 377.9839782714844 184.5760498046875 C379.7760009765625 181.760009765625 380.6720275878906 178.0479736328125 379.6479797363281 174.97607421875 C378.49603271484375 171.52001953125 373.8879699707031 169.4720458984375 370.4320373535156 169.9840087890625 C363.90399169921875 171.0079345703125 363.26397705078125 179.8399658203125 364.927978515625 184.7039794921875 Z"></path>
<path fill="#ffffff" fill-opacity="1.0"  filling="0" d="M405.8879699707031 198.656005859375 C408.7039794921875 206.97607421875 415.48797607421875 204.1600341796875 418.9439697265625 198.5279541015625 C420.73602294921875 195.7120361328125 421.63201904296875 192.0 420.60797119140625 188.927978515625 C419.4560241699219 185.4720458984375 414.84796142578125 183.4239501953125 411.39202880859375 183.93603515625 C404.8639831542969 184.96002197265625 404.2239990234375 193.79205322265625 405.8879699707031 198.656005859375 Z"></path>
<path fill="#000000" fill-opacity="1.0"  filling="0" d="M372.9920349121094 173.31201171875 C376.0639953613281 174.97607421875 376.32000732421875 179.20001220703125 375.0400085449219 182.01605224609375 C374.3999938964844 183.4239501953125 373.1199951171875 184.7039794921875 371.4560241699219 184.7039794921875 C369.7920227050781 184.7039794921875 368.8960266113281 183.2960205078125 368.38397216796875 181.887939453125 C367.61602783203125 179.583984375 367.61602783203125 174.08001708984375 371.072021484375 174.08001708984375 C372.73602294921875 174.08001708984375 373.8879699707031 175.8720703125 374.14398193359375 177.280029296875 C374.27203369140625 178.176025390625 374.3999938964844 179.20001220703125 374.14398193359375 180.0960693359375 C374.0160217285156 180.47998046875 373.8879699707031 180.86395263671875 373.63201904296875 181.24798583984375 C373.5039978027344 181.37603759765625 373.3760070800781 181.50396728515625 373.3760070800781 181.632080078125 C372.8639831542969 182.01605224609375 372.8639831542969 182.01605224609375 373.24798583984375 181.632080078125 C372.2239990234375 183.8079833984375 369.02398681640625 181.887939453125 369.9200134277344 179.7120361328125 C370.0479736328125 179.4560546875 370.176025390625 179.20001220703125 370.3039855957031 179.072021484375 C370.8160095214844 178.68798828125 370.8160095214844 178.68798828125 370.3039855957031 179.072021484375 C370.3039855957031 178.68798828125 370.4320373535156 177.9200439453125 370.176025390625 177.6639404296875 C371.583984375 177.02392578125 372.09600830078125 177.02392578125 371.8399963378906 177.5360107421875 C371.8399963378906 177.9200439453125 371.7120361328125 178.176025390625 371.7120361328125 178.55999755859375 C371.7120361328125 179.20001220703125 371.7120361328125 179.7120361328125 371.8399963378906 180.35205078125 C371.8399963378906 180.60797119140625 371.96795654296875 180.736083984375 371.96795654296875 180.9920654296875 C370.9439697265625 181.1199951171875 370.68798828125 180.9920654296875 371.3279724121094 180.736083984375 C371.7120361328125 180.47998046875 371.7120361328125 179.4560546875 371.8399963378906 179.072021484375 C371.96795654296875 178.0479736328125 371.96795654296875 176.89605712890625 371.072021484375 176.38397216796875 C368.8960266113281 175.48797607421875 370.8160095214844 172.1600341796875 372.9920349121094 173.31201171875 L372.9920349121094 173.31201171875 Z"></path>
<path fill="#000000" fill-opacity="1.0"  filling="0" d="M414.7200012207031 187.77606201171875 C417.91998291015625 188.927978515625 417.02398681640625 193.280029296875 415.8720397949219 195.583984375 C415.3599853515625 196.60797119140625 414.33599853515625 198.27203369140625 413.0560302734375 198.5279541015625 C411.26397705078125 198.91204833984375 409.85601806640625 197.887939453125 409.343994140625 196.2239990234375 C408.5760192871094 193.9200439453125 409.6000061035156 190.719970703125 410.8800048828125 188.927978515625 C411.7760009765625 187.77606201171875 413.5679931640625 187.52001953125 414.7200012207031 188.1600341796875 C416.0 188.800048828125 416.51202392578125 190.2080078125 416.51202392578125 191.48797607421875 C416.51202392578125 193.407958984375 415.48797607421875 195.968017578125 414.4639892578125 197.50396728515625 C413.823974609375 198.5279541015625 412.54400634765625 199.4239501953125 411.26397705078125 199.0400390625 C409.72796630859375 198.656005859375 408.96002197265625 196.9920654296875 408.7039794921875 195.583984375 C408.32000732421875 193.9200439453125 408.96002197265625 192.38397216796875 409.6000061035156 190.8480224609375 C410.1120300292969 189.696044921875 410.6239929199219 188.2879638671875 411.6479797363281 187.64794921875 C412.79998779296875 187.0079345703125 413.9520263671875 187.26397705078125 414.97601318359375 187.77606201171875 C416.38397216796875 188.416015625 416.2560119628906 190.719970703125 414.84796142578125 191.2320556640625 C412.6720275878906 192.12799072265625 410.75201416015625 188.927978515625 412.927978515625 187.9039306640625 C412.927978515625 187.9039306640625 413.0560302734375 187.9039306640625 413.0560302734375 187.77606201171875 C412.79998779296875 188.1600341796875 412.416015625 188.5439453125 412.1600036621094 188.927978515625 C412.1600036621094 188.927978515625 412.1600036621094 188.927978515625 412.1600036621094 188.800048828125 C412.2879638671875 189.44000244140625 412.54400634765625 190.08001708984375 412.6720275878906 190.592041015625 C413.0560302734375 190.8480224609375 413.0560302734375 190.8480224609375 412.6720275878906 190.719970703125 C413.5679931640625 190.2080078125 413.823974609375 190.2080078125 413.44000244140625 190.719970703125 C413.1839904785156 191.10400390625 413.0560302734375 191.48797607421875 412.927978515625 191.8720703125 C412.54400634765625 192.89605712890625 411.90399169921875 193.9200439453125 412.2879638671875 195.072021484375 C410.8800048828125 195.3280029296875 410.49603271484375 195.4560546875 411.0079650878906 195.20001220703125 C411.1360168457031 195.072021484375 411.26397705078125 194.8160400390625 411.26397705078125 194.68798828125 C411.39202880859375 194.303955078125 411.6479797363281 194.0479736328125 411.7760009765625 193.6639404296875 C412.03204345703125 193.02392578125 412.1600036621094 192.25604248046875 412.416015625 191.6160888671875 C412.54400634765625 191.3599853515625 412.54400634765625 191.10400390625 412.416015625 190.719970703125 C413.1839904785156 190.719970703125 413.44000244140625 190.8480224609375 413.1839904785156 191.2320556640625 C413.1839904785156 191.3599853515625 413.0560302734375 191.3599853515625 413.0560302734375 191.48797607421875 C412.79998779296875 192.12799072265625 412.6720275878906 192.89605712890625 412.6720275878906 193.6639404296875 C412.6720275878906 193.9200439453125 412.6720275878906 194.176025390625 412.6720275878906 194.4320068359375 C412.79998779296875 195.20001220703125 412.416015625 195.20001220703125 411.39202880859375 194.4320068359375 C411.7760009765625 194.0479736328125 412.03204345703125 193.5360107421875 412.1600036621094 193.15203857421875 C412.6720275878906 192.38397216796875 413.0560302734375 190.97607421875 412.416015625 190.08001708984375 C412.79998779296875 190.3360595703125 413.1839904785156 190.719970703125 413.5679931640625 190.97607421875 C413.44000244140625 190.97607421875 413.44000244140625 190.8480224609375 413.3120422363281 190.8480224609375 C411.52001953125 190.592041015625 412.416015625 186.8800048828125 414.7200012207031 187.77606201171875 L414.7200012207031 187.77606201171875 Z"></path>
<path fill="#ffffff" fill-opacity="1.0"  filling="0" d="M369.2799987792969 173.823974609375 C369.2799987792969 173.823974609375 369.407958984375 173.823974609375 369.407958984375 173.823974609375 C371.8399963378906 173.823974609375 371.8399963378906 177.6639404296875 369.407958984375 177.6639404296875 C369.407958984375 177.6639404296875 369.2799987792969 177.6639404296875 369.2799987792969 177.6639404296875 C366.84796142578125 177.5360107421875 366.84796142578125 173.823974609375 369.2799987792969 173.823974609375 L369.2799987792969 173.823974609375 Z"></path>
<path fill="#ffffff" fill-opacity="1.0"  filling="0" d="M412.927978515625 190.08001708984375 C412.927978515625 190.08001708984375 412.927978515625 190.2080078125 412.927978515625 190.2080078125 C412.927978515625 191.2320556640625 412.03204345703125 192.12799072265625 411.0079650878906 192.12799072265625 C411.0079650878906 192.12799072265625 410.8800048828125 192.12799072265625 410.8800048828125 192.12799072265625 C409.85601806640625 192.12799072265625 408.96002197265625 191.2320556640625 408.96002197265625 190.2080078125 C408.96002197265625 190.2080078125 408.96002197265625 190.08001708984375 408.96002197265625 190.08001708984375 C408.96002197265625 187.64794921875 412.79998779296875 187.64794921875 412.79998779296875 190.08001708984375 C412.79998779296875 190.08001708984375 412.79998779296875 190.2080078125 412.79998779296875 190.2080078125 C412.1600036621094 189.5679931640625 411.52001953125 188.927978515625 410.8800048828125 188.2879638671875 C410.8800048828125 188.2879638671875 411.0079650878906 188.2879638671875 411.0079650878906 188.2879638671875 C410.36798095703125 188.927978515625 409.72796630859375 189.5679931640625 409.08795166015625 190.2080078125 C409.08795166015625 190.2080078125 409.08795166015625 190.08001708984375 409.08795166015625 190.08001708984375 C409.08795166015625 187.64794921875 412.927978515625 187.64794921875 412.927978515625 190.08001708984375 L412.927978515625 190.08001708984375 Z"></path>
<path fill="#79ba43" fill-opacity="1.0"  filling="0" d="M126.97601318359375 311.6800537109375 C137.0880126953125 340.35205078125 160.76797485351562 360.1920166015625 190.3360137939453 366.2080078125 C202.239990234375 368.6400146484375 213.88796997070312 368.51202392578125 225.40797424316406 366.592041015625 L225.40797424316406 366.592041015625 C231.93601989746094 365.44000244140625 238.4639892578125 363.77606201171875 244.86398315429688 361.5999755859375 C247.42398071289062 360.7039794921875 250.11203002929688 359.6800537109375 252.67202758789062 358.65606689453125 C269.3120422363281 351.8720703125 291.3279724121094 347.64794921875 304.7679748535156 335.48797607421875 C334.592041015625 308.60797119140625 337.5360107421875 261.1199951171875 317.823974609375 227.583984375 C289.407958984375 179.3280029296875 218.62399291992188 159.6160888671875 171.64796447753906 193.15203857421875 C137.85601806640625 217.5999755859375 112.63999938964844 270.719970703125 126.97601318359375 311.6800537109375 Z"></path>
<path fill="#5e8e3f" fill-opacity="1.0"  filling="0" d="M186.7520294189453 306.68798828125 C200.7039794921875 323.8399658203125 232.83203125 328.5760498046875 242.68797302246094 303.74395751953125 C245.88796997070312 295.552001953125 241.9199981689453 283.26397705078125 231.93601989746094 279.93603515625 C220.416015625 276.0960693359375 209.79202270507812 288.25604248046875 222.4639892578125 295.0400390625 C212.73602294921875 283.26397705078125 231.16796875 280.447998046875 238.0800018310547 289.02392578125 C256.1279602050781 311.93603515625 206.72000122070312 326.91204833984375 192.76797485351562 302.08001708984375 C181.2479705810547 281.4720458984375 195.072021484375 253.31201171875 216.95999145507812 251.9039306640625 C275.3279724121094 248.06396484375 267.5199890136719 344.447998046875 225.5360107421875 366.592041015625 C232.06398010253906 365.44000244140625 238.59202575683594 363.77606201171875 244.99203491210938 361.5999755859375 C253.56796264648438 354.303955078125 260.4800109863281 343.8079833984375 262.656005859375 335.8720703125 C268.03204345703125 316.1600341796875 265.0879821777344 287.48797607421875 255.74398803710938 269.9520263671875 C245.75999450683594 251.26397705078125 219.00796508789062 239.3599853515625 198.39999389648438 247.0400390625 C176.12796020507812 255.2320556640625 172.67202758789062 289.5360107421875 186.7520294189453 306.68798828125 Z"></path>
<path fill="#ef6456" fill-opacity="1.0"  filling="0" d="M393.72796630859375 248.96002197265625 C390.4000244140625 253.696044921875 384.12799072265625 252.5439453125 380.03204345703125 249.8560791015625 C380.79998779296875 253.5679931640625 381.1839904785156 259.3280029296875 386.55999755859375 257.6639404296875 C389.760009765625 256.6400146484375 392.32000732421875 252.03204345703125 393.343994140625 250.112060546875 L393.72796630859375 248.96002197265625 Z"></path></svg>