<svg xmlns="http://www.w3.org/2000/svg" viewBox="0.0 0.0 512.0 512.0" height="512.0px" width="512.0px"><path fill="#603913" fill-opacity="1.0"  filling="0" d="M148.9250946044922 267.8060302734375 L151.94158935546875 262.8746032714844 L244.41900634765625 319.410888671875 L241.4025421142578 324.34228515625 L148.9250946044922 267.8060302734375 Z"></path>
<path fill="#EE3426" fill-opacity="1.0"  filling="0" d="M150.7678680419922 249.65753173828125 C150.58763122558594 248.9951171875 150.3961639404297 248.30807495117188 149.94784545898438 247.78762817382812 C148.7268524169922 246.37063598632812 146.1473846435547 247.08477783203125 145.2800750732422 248.74057006835938 C144.4127197265625 250.39862060546875 144.86553955078125 252.4599609375 145.74862670898438 254.10897827148438 C143.59046936035156 251.53179931640625 141.18896484375 248.80142211914062 137.90663146972656 248.07376098632812 C135.6943817138672 247.58489990234375 133.38076782226562 248.09405517578125 131.25186157226562 248.86672973632812 C128.36151123046875 249.91424560546875 125.41485595703125 251.73001098632812 124.5250244140625 254.67218017578125 C123.9212646484375 256.6636657714844 124.37858581542969 258.8105773925781 124.91923522949219 260.820068359375 C125.63787841796875 263.4919128417969 126.59983825683594 266.2763671875 128.73097229003906 268.04254150390625 C131.18202209472656 270.0745849609375 134.61529541015625 270.31561279296875 137.79624938964844 270.3629455566406 C139.53541564941406 270.38775634765625 141.2745819091797 270.3831787109375 143.01373291015625 270.34942626953125 C144.06581115722656 270.32916259765625 145.19894409179688 270.268310546875 146.02572631835938 269.614990234375 C146.83900451660156 268.97296142578125 147.1634063720703 267.9096374511719 147.47879028320312 266.9251403808594 C148.52410888671875 263.6630859375 152.0677490234375 262.0726318359375 153.013916015625 259.5427551269531 C153.89024353027344 257.1908264160156 151.4121856689453 252.0341796875 150.7678680419922 249.65753173828125 Z"></path>
<path fill="#BA2526" fill-opacity="1.0"  filling="0" d="M149.03773498535156 260.5542297363281 C147.30081176757812 262.5660095214844 145.92434692382812 264.859375 144.55914306640625 267.13916015625 C143.96665954589844 268.12811279296875 143.35389709472656 269.28839111328125 143.7323760986328 270.37646484375 C144.1356201171875 271.5321350097656 145.45126342773438 272.041259765625 146.61598205566406 272.41070556640625 C147.44049072265625 272.67205810546875 148.37539672851562 272.9266357421875 149.1345977783203 272.51214599609375 C149.53785705566406 272.2913818359375 149.82620239257812 271.91290283203125 150.1077880859375 271.5478820800781 C151.70953369140625 269.4618225097656 153.45547485351562 267.48388671875 155.32530212402344 265.63201904296875 C156.85269165039062 264.1204528808594 158.60086059570312 262.36328125 158.3981170654297 260.22314453125 C158.19760131835938 258.1009521484375 156.29849243164062 255.98556518554688 154.3453369140625 256.3663330078125 C152.40565490722656 256.74700927734375 150.26100158691406 259.13720703125 149.03773498535156 260.5542297363281 Z"></path>
<path fill="#603913" fill-opacity="1.0"  filling="0" d="M328.7705993652344 309.624755859375 L373.4504089355469 210.87326049804688 L378.7152099609375 213.25445556640625 L334.03765869140625 312.00830078125 L328.7705993652344 309.624755859375 Z"></path>
<path fill="#EE3426" fill-opacity="1.0"  filling="0" d="M366.9691162109375 199.2803955078125 C366.74609375 198.63150024414062 366.5185241699219 197.9556884765625 366.597412109375 197.2730712890625 C366.8114013671875 195.41455078125 369.34356689453125 194.553955078125 370.99261474609375 195.43704223632812 C372.6416320800781 196.32012939453125 373.42791748046875 198.2801513671875 373.62384033203125 200.14093017578125 C373.9595642089844 196.79547119140625 374.40789794921875 193.18875122070312 376.7147216796875 190.74224853515625 C378.2691650390625 189.09320068359375 380.4678955078125 188.21234130859375 382.6643371582031 187.65362548828125 C385.644775390625 186.89443969726562 389.1005859375 186.739013671875 391.4930725097656 188.671875 C393.1128234863281 189.98077392578125 393.94189453125 192.01055908203125 394.62451171875 193.97723388671875 C395.5323486328125 196.59051513671875 396.3028259277344 199.43356323242188 395.5346374511719 202.091796875 C394.65155029296875 205.151123046875 391.9481201171875 207.28009033203125 389.3416748046875 209.10928344726562 C387.9178771972656 210.1094970703125 386.4783935546875 211.082763671875 385.02081298828125 212.03115844726562 C384.1377258300781 212.60565185546875 383.166748046875 213.19363403320312 382.116943359375 213.1170654296875 C381.0828857421875 213.04269409179688 380.21783447265625 212.3465576171875 379.40228271484375 211.70907592773438 C376.70343017578125 209.6004638671875 372.878173828125 210.27850341796875 370.67498779296875 208.71731567382812 C368.6249084472656 207.26651000976562 367.77337646484375 201.6097412109375 366.9691162109375 199.2803955078125 Z"></path>
<path fill="#BA2526" fill-opacity="1.0"  filling="0" d="M374.5295104980469 207.318359375 C377.09771728515625 208.003173828125 379.52398681640625 209.1273193359375 381.93670654296875 210.24468994140625 C382.9820251464844 210.72909545898438 384.1421813964844 211.34405517578125 384.4395446777344 212.45700073242188 C384.7572326660156 213.637451171875 383.9552001953125 214.79986572265625 383.2005310058594 215.7618408203125 C382.6666259765625 216.44216918945312 382.03582763671875 217.1788330078125 381.17529296875 217.26220703125 C380.71795654296875 217.3072509765625 380.2651062011719 217.15631103515625 379.82806396484375 217.0120849609375 C377.32977294921875 216.18756103515625 374.77508544921875 215.53207397460938 372.18658447265625 215.054443359375 C370.073486328125 214.6646728515625 367.6404724121094 214.191650390625 366.6041259765625 212.30828857421875 C365.5768737792969 210.440673828125 365.9576416015625 207.62469482421875 367.786865234375 206.84075927734375 C369.60260009765625 206.06350708007812 372.720458984375 206.833984375 374.5295104980469 207.318359375 Z"></path>
<path fill="#f4ecec" fill-opacity="1.0"  filling="0" d="M302.6156311035156 257.2381286621094 C346.6173400878906 267.4568786621094 374.00689697265625 311.41119384765625 363.78814697265625 355.4151611328125 C353.5694580078125 399.4168701171875 309.61505126953125 426.806396484375 265.61114501953125 416.5877685546875 C221.6094207763672 406.3690185546875 194.2221221923828 362.4146728515625 204.44085693359375 318.41064453125 C214.65728759765625 274.40899658203125 258.6116638183594 247.02169799804688 302.6156311035156 257.2381286621094 Z"></path>
<path fill="#A8C7E3" fill-opacity="1.0"  filling="0" d="M284.0390319824219 255.163330078125 C281.049560546875 255.163330078125 278.1029052734375 255.33450317382812 275.19677734375 255.647705078125 C316.2090148925781 260.05859375 348.14697265625 294.7720947265625 348.14697265625 336.9556884765625 C348.14697265625 379.139404296875 316.2090148925781 413.85498046875 275.19677734375 418.2637939453125 C278.1029052734375 418.576904296875 281.049560546875 418.7481689453125 284.0390319824219 418.7481689453125 C329.2121887207031 418.7481689453125 365.8314514160156 382.12890625 365.8314514160156 336.9556884765625 C365.8314514160156 291.78253173828125 329.2121887207031 255.163330078125 284.0390319824219 255.163330078125 Z"></path>
<path fill="#f4ecec" fill-opacity="1.0"  filling="0" d="M295.00115966796875 166.53363037109375 C325.09405517578125 173.55792236328125 343.79681396484375 203.646240234375 336.7725524902344 233.741455078125 C329.74835205078125 263.8343505859375 299.65771484375 282.5348205566406 269.56475830078125 275.51055908203125 C239.46963500976562 268.48638916015625 220.76914978027344 238.39794921875 227.79336547851562 208.302734375 C234.81759643554688 178.20986938476562 264.9082336425781 159.50936889648438 295.00115966796875 166.53363037109375 Z"></path>
<path fill="#A8C7E3" fill-opacity="1.0"  filling="0" d="M282.26605224609375 165.08062744140625 C280.2205505371094 165.08062744140625 278.20428466796875 165.19769287109375 276.21728515625 165.41171264648438 C304.2736511230469 168.42825317382812 326.12359619140625 192.17724609375 326.12359619140625 221.03790283203125 C326.12359619140625 249.896240234375 304.2736511230469 273.645263671875 276.21728515625 276.66400146484375 C278.20428466796875 276.87799072265625 280.2227783203125 276.99517822265625 282.26605224609375 276.99517822265625 C313.16998291015625 276.99517822265625 338.22113037109375 251.94403076171875 338.22113037109375 221.0401611328125 C338.22113037109375 190.13394165039062 313.16998291015625 165.08062744140625 282.26605224609375 165.08062744140625 Z"></path>
<path fill="#231F20" fill-opacity="1.0"  filling="0" d="M266.28472900390625 205.0858154296875 A5.249024391174316 5.249024391174316 0.0 1 1 255.78665161132812 205.0858154296875 A5.249024391174316 5.249024391174316 0.0 1 1 266.28472900390625 205.0858154296875 Z"></path>
<path fill="#f4ecec" fill-opacity="1.0"  filling="0" d="M260.181884765625 202.54244995117188 C260.181884765625 203.04025268554688 259.77862548828125 203.44580078125 259.27850341796875 203.44580078125 C258.7806396484375 203.44580078125 258.3751220703125 203.04251098632812 258.3751220703125 202.54244995117188 C258.3751220703125 202.0445556640625 258.77838134765625 201.63906860351562 259.27850341796875 201.63906860351562 C259.77862548828125 201.63906860351562 260.181884765625 202.0445556640625 260.181884765625 202.54244995117188 Z"></path>
<path fill="#231F20" fill-opacity="1.0"  filling="0" d="M299.4459228515625 205.0858154296875 C299.4459228515625 207.98513793945312 297.0962219238281 210.33706665039062 294.1968994140625 210.33706665039062 C291.2975769042969 210.33706665039062 288.94561767578125 207.9874267578125 288.94561767578125 205.0858154296875 C288.94561767578125 202.18646240234375 291.2953186035156 199.83450317382812 294.1968994140625 199.83450317382812 C297.0940246582031 199.83676147460938 299.4459228515625 202.18646240234375 299.4459228515625 205.0858154296875 Z"></path>
<path fill="#f4ecec" fill-opacity="1.0"  filling="0" d="M293.3408508300781 202.54244995117188 C293.3408508300781 203.04025268554688 292.93756103515625 203.44580078125 292.4374694824219 203.44580078125 C291.9373474121094 203.44580078125 291.5340881347656 203.04251098632812 291.5340881347656 202.54244995117188 C291.5340881347656 202.0445556640625 291.9373474121094 201.63906860351562 292.4374694824219 201.63906860351562 C292.93756103515625 201.63906860351562 293.3408508300781 202.0445556640625 293.3408508300781 202.54244995117188 Z"></path>
<path fill="#FB9526" fill-opacity="1.0"  filling="0" d="M238.31167602539062 216.9603271484375 L272.43035888671875 229.72244262695312 C277.70416259765625 231.69586181640625 283.4307556152344 228.19952392578125 284.0885925292969 222.60809326171875 L284.1494140625 222.08544921875 C284.8072204589844 216.49172973632812 280.04705810546875 211.765380859375 274.4578552246094 212.46142578125 L238.31167602539062 216.9603271484375 Z"></path>
<path fill="#EF7F11" fill-opacity="1.0"  filling="0" d="M238.3206787109375 216.96481323242188 L272.4393615722656 229.7269287109375 C276.50115966796875 231.24530029296875 280.8265380859375 229.52191162109375 282.90362548828125 226.09539794921875 C270.1933288574219 226.66763305664062 238.3206787109375 216.96481323242188 238.3206787109375 216.96481323242188 Z"></path>
<path fill="#231F20" fill-opacity="1.0"  filling="0" d="M284.0818176269531 332.5379638671875 C284.0818176269531 336.27764892578125 281.0517883300781 339.3076171875 277.31219482421875 339.3076171875 C273.572509765625 339.3076171875 270.54248046875 336.27764892578125 270.54248046875 332.5379638671875 C270.54248046875 328.7982177734375 273.572509765625 325.76824951171875 277.31219482421875 325.76824951171875 C281.0517883300781 325.76824951171875 284.0818176269531 328.800537109375 284.0818176269531 332.5379638671875 Z"></path>
<path fill="#333333" fill-opacity="1.0"  filling="0" d="M282.554443359375 332.5379638671875 C282.554443359375 335.432861328125 280.2070007324219 337.78021240234375 277.31219482421875 337.78021240234375 C274.4173278808594 337.78021240234375 272.06988525390625 335.432861328125 272.06988525390625 332.5379638671875 C272.06988525390625 329.64312744140625 274.4173278808594 327.29571533203125 277.31219482421875 327.29571533203125 C280.2070007324219 327.29571533203125 282.554443359375 329.64312744140625 282.554443359375 332.5379638671875 Z"></path>
<path fill="#231F20" fill-opacity="1.0"  filling="0" d="M284.21923828125 355.05926513671875 C284.21923828125 358.79888916015625 281.1869812011719 361.828857421875 277.4495849609375 361.828857421875 C273.7121887207031 361.828857421875 270.679931640625 358.796630859375 270.679931640625 355.05926513671875 C270.679931640625 351.32183837890625 273.7099609375 348.28955078125 277.4495849609375 348.28955078125 C281.1892395019531 348.28955078125 284.21923828125 351.319580078125 284.21923828125 355.05926513671875 Z"></path>
<path fill="#333333" fill-opacity="1.0"  filling="0" d="M282.6918640136719 355.05926513671875 A5.242265701293945 5.242265701293945 0.0 1 1 272.20733642578125 355.05926513671875 A5.242265701293945 5.242265701293945 0.0 1 1 282.6918640136719 355.05926513671875 Z"></path>
<path fill="#231F20" fill-opacity="1.0"  filling="0" d="M284.3589172363281 377.0262451171875 C284.3589172363281 380.7659912109375 281.32666015625 383.79595947265625 277.5892333984375 383.79595947265625 C273.849609375 383.79595947265625 270.8196105957031 380.7659912109375 270.8196105957031 377.0262451171875 C270.8196105957031 373.28662109375 273.85186767578125 370.25665283203125 277.5892333984375 370.25665283203125 C281.32666015625 370.25665283203125 284.3589172363281 373.28662109375 284.3589172363281 377.0262451171875 Z"></path>
<path fill="#333333" fill-opacity="1.0"  filling="0" d="M282.83154296875 377.0262451171875 A5.242265701293945 5.242265701293945 0.0 1 1 272.34698486328125 377.0262451171875 A5.242265701293945 5.242265701293945 0.0 1 1 282.83154296875 377.0262451171875 Z"></path>
<path fill="#EE3426" fill-opacity="1.0"  filling="0" d="M334.8419189453125 279.6962890625 C333.38214111328125 283.14532470703125 328.8404541015625 283.75811767578125 325.1097717285156 283.8414306640625 C323.8663024902344 283.875244140625 322.63848876953125 283.8909912109375 321.397216796875 283.90673828125 C311.3835144042969 284.0892639160156 301.36981201171875 284.123046875 291.3538513183594 283.9721374511719 C286.3143310546875 283.90673828125 281.2906188964844 283.80767822265625 276.2510986328125 283.64093017578125 C266.2869567871094 283.359375 256.3228454589844 282.8952941894531 246.3586883544922 282.28253173828125 C244.8831024169922 282.19915771484375 243.42330932617188 282.1158447265625 241.94769287109375 282.01666259765625 C237.88589477539062 281.7350769042969 232.97705078125 280.87225341796875 231.5194854736328 277.05828857421875 C230.88870239257812 275.43402099609375 231.07119750976562 273.62725830078125 231.3212432861328 271.91961669921875 C231.9024658203125 267.6257629394531 232.3980712890625 262.63580322265625 233.99081420898438 258.58984375 C235.6646728515625 254.32977294921875 236.31118774414062 254.69473266601562 240.870849609375 255.0416259765625 C244.02029418945312 255.273681640625 247.18771362304688 255.48992919921875 250.337158203125 255.68826293945312 C256.37237548828125 256.05316162109375 262.4076232910156 256.30096435546875 268.47442626953125 256.35052490234375 C268.9722900390625 256.35052490234375 269.4678955078125 256.35052490234375 269.9657897949219 256.3663330078125 C278.50390625 256.382080078125 287.0420227050781 256.1500244140625 295.5643310546875 255.769287109375 C301.93072509765625 255.50350952148438 308.315185546875 255.13848876953125 314.68157958984375 254.74200439453125 C317.73187255859375 254.5753173828125 320.7664489746094 254.37710571289062 323.8167419433594 254.194580078125 C325.2585144042969 254.11126708984375 326.8332214355469 254.06170654296875 328.0271911621094 254.87493896484375 C329.0229187011719 255.55523681640625 329.5680847167969 256.71551513671875 330.0502624511719 257.8260498046875 C332.30523681640625 263.1652526855469 333.9633483886719 268.752197265625 334.9748840332031 274.4720458984375 C335.29022216796875 276.2135009765625 335.5222473144531 278.06982421875 334.8419189453125 279.6962890625 Z"></path>
<path fill="#418A03" fill-opacity="1.0"  filling="0" d="M269.9657897949219 256.3685302734375 L276.24884033203125 283.64093017578125 C266.28472900390625 283.359375 256.320556640625 282.8952941894531 246.35641479492188 282.28253173828125 L250.3348846435547 255.68826293945312 L269.9657897949219 256.3685302734375 Z"></path>
<path fill="#418A03" fill-opacity="1.0"  filling="0" d="M321.397216796875 283.90673828125 C311.3835144042969 284.0892639160156 301.36981201171875 284.123046875 291.3538513183594 283.9721374511719 L295.5643310546875 255.77157592773438 L314.68157958984375 254.74432373046875 L321.397216796875 283.90673828125 Z"></path>
<path fill="#231F20" fill-opacity="1.0"  filling="0" d="M266.154052734375 256.23565673828125 C266.154052734375 256.23565673828125 260.4837646484375 276.68206787109375 265.04345703125 283.21063232421875 L253.7478790283203 282.5888671875 C253.7478790283203 282.5888671875 258.10028076171875 258.0310974121094 260.7946472167969 256.0621643066406 L266.154052734375 256.23565673828125 Z"></path>
<path fill="#EE3426" fill-opacity="1.0"  filling="0" d="M266.0841979980469 323.369140625 C263.89898681640625 326.716796875 259.30780029296875 327.35882568359375 255.31582641601562 327.53900146484375 C250.9453887939453 327.739501953125 246.55242919921875 327.780029296875 242.1820068359375 327.6787109375 C239.5755157470703 327.617919921875 236.84738159179688 327.4578857421875 234.62158203125 326.094970703125 C230.25119018554688 323.40740966796875 229.649658203125 317.351806640625 229.94931030273438 312.240234375 C229.94931030273438 312.1005859375 229.96958923339844 311.97894287109375 229.96958923339844 311.8392639160156 C230.43136596679688 304.118896484375 231.83486938476562 296.49993896484375 233.53802490234375 288.93951416015625 C233.779052734375 287.876220703125 234.0200958251953 286.7948913574219 234.27919006347656 285.7315673828125 C235.14199829101562 282.02117919921875 236.08364868164062 278.3131103515625 237.34750366210938 274.74237060546875 C238.05035400390625 272.7171325683594 238.87037658691406 270.752685546875 239.8345947265625 268.8265075683594 C242.34193420410156 263.8140869140625 245.80899047851562 259.3828125 250.00148010253906 255.67242431640625 C254.5341033935547 251.64215087890625 257.9425964355469 251.28167724609375 264.0184020996094 252.54327392578125 C265.18084716796875 252.78436279296875 266.5257568359375 253.26419067382812 266.82537841796875 254.4085693359375 C267.1858215332031 255.85269165039062 265.7034912109375 257.01513671875 264.6199035644531 258.03790283203125 C261.251953125 261.28643798828125 261.17083740234375 266.56024169921875 261.29248046875 271.2325439453125 C261.35333251953125 273.0167541503906 261.3916320800781 274.80096435546875 261.47271728515625 276.58514404296875 C261.6123962402344 280.8970031738281 261.7948913574219 285.2269287109375 262.1553039550781 289.5185546875 C262.6374206542969 295.7947998046875 263.459716796875 302.03057861328125 264.9420166015625 308.12664794921875 C265.203369140625 309.28912353515625 265.5232849121094 310.4538269042969 265.8431701660156 311.595947265625 C266.947021484375 315.48876953125 268.2897033691406 319.96063232421875 266.0841979980469 323.369140625 Z"></path>
<path fill="#418A03" fill-opacity="1.0"  filling="0" d="M264.6199035644531 258.04010009765625 C261.251953125 261.2886962890625 261.17083740234375 266.5625 261.29248046875 271.2347412109375 C261.35333251953125 273.0190124511719 261.3916320800781 274.8031921386719 261.47271728515625 276.58740234375 C253.91232299804688 276.7879638671875 244.52943420410156 275.7651672363281 237.3497314453125 274.74237060546875 C238.05262756347656 272.7171325683594 238.8726348876953 270.752685546875 239.83682250976562 268.8265075683594 C242.34420776367188 263.8140869140625 245.811279296875 259.3828125 250.00372314453125 255.67242431640625 C254.536376953125 251.64215087890625 257.9448547363281 251.28167724609375 264.0206298828125 252.54327392578125 C265.18310546875 252.78436279296875 266.52801513671875 253.26419067382812 266.82763671875 254.4085693359375 C267.1881103515625 255.85488891601562 265.7034912109375 257.01739501953125 264.6199035644531 258.04010009765625 Z"></path>
<path fill="#418A03" fill-opacity="1.0"  filling="0" d="M264.9420166015625 308.12890625 C255.33834838867188 308.93084716796875 240.6591033935547 310.2735595703125 229.97183227539062 311.8392639160156 C230.43365478515625 304.118896484375 231.837158203125 296.49993896484375 233.54025268554688 288.93951416015625 C242.88485717773438 288.89892578125 253.4707794189453 289.0206298828125 262.153076171875 289.520751953125 C262.63519287109375 295.79705810546875 263.45745849609375 302.0328369140625 264.9420166015625 308.12890625 Z"></path>
<path fill="#EE3426" fill-opacity="1.0"  filling="0" d="M326.63720703125 155.17950439453125 L326.63720703125 176.35809326171875 L241.92745971679688 176.35809326171875 L241.92745971679688 155.17950439453125 C241.92745971679688 150.7347412109375 242.86233520507812 146.50399780273438 244.58572387695312 142.676513671875 C249.37069702148438 131.83154296875 260.2359619140625 124.2620849609375 272.86517333984375 124.2620849609375 L295.7017822265625 124.2620849609375 C309.5857849121094 124.2620849609375 321.3026123046875 133.38369750976562 325.2359313964844 145.9498291015625 L325.2562255859375 145.99261474609375 C326.1483459472656 148.887451171875 326.63720703125 151.99179077148438 326.63720703125 155.17950439453125 Z"></path>
<path fill="#BA2526" fill-opacity="1.0"  filling="0" d="M297.2223815917969 114.60211181640625 C299.41888427734375 121.12847900390625 295.9112548828125 128.19775390625 289.38494873046875 130.39642333984375 C282.8585510253906 132.59295654296875 275.78924560546875 129.0853271484375 273.59051513671875 122.55902099609375 C271.39404296875 116.03262329101562 274.90167236328125 108.96109008789062 281.42803955078125 106.76458740234375 C287.95440673828125 104.56808471679688 295.023681640625 108.07571411132812 297.2223815917969 114.60211181640625 Z"></path>
<path fill="#E6E7E8" fill-opacity="1.0"  filling="0" d="M324.85528564453125 186.3582763671875 C296.1590881347656 183.07144165039062 267.70172119140625 183.01287841796875 239.4966583251953 186.3582763671875 C234.24539184570312 186.3582763671875 229.9515380859375 182.06219482421875 229.9515380859375 176.81314086914062 L229.9515380859375 176.5631103515625 C229.9515380859375 171.31185913085938 234.24761962890625 167.01800537109375 239.4966583251953 167.01800537109375 C267.58233642578125 164.46102905273438 296.0284118652344 164.416015625 324.85528564453125 167.01800537109375 C330.1065368652344 167.01800537109375 334.4004211425781 171.3140869140625 334.4004211425781 176.5631103515625 L334.4004211425781 176.81314086914062 C334.4004211425781 182.06219482421875 330.1042785644531 186.3582763671875 324.85528564453125 186.3582763671875 Z"></path>
<path fill="#A97C50" fill-opacity="1.0"  filling="0" d="M139.51739501953125 404.5712890625 L139.51739501953125 404.5712890625 C137.16773986816406 404.5712890625 135.2641143798828 402.6676025390625 135.2641143798828 400.3179931640625 L135.2641143798828 213.2049560546875 L143.7684326171875 213.2049560546875 L143.7684326171875 400.3179931640625 C143.77069091796875 402.6676025390625 141.8670654296875 404.5712890625 139.51739501953125 404.5712890625 Z"></path>
<path fill="#FBB040" fill-opacity="1.0"  filling="0" d="M143.77069091796875 214.2705078125 L135.2641143798828 214.2705078125 L110.81221008300781 147.29244995117188 L170.88088989257812 147.29244995117188 L143.77069091796875 214.2705078125 Z"></path>
<path fill="#936842" fill-opacity="1.0"  filling="0" d="M144.74388122558594 219.23114013671875 L135.17625427246094 219.23114013671875 C132.9842529296875 219.23114013671875 131.1887969970703 217.43792724609375 131.1887969970703 215.24371337890625 L131.1887969970703 215.24371337890625 C131.1887969970703 213.05169677734375 132.98202514648438 211.25619506835938 135.17625427246094 211.25619506835938 L144.74388122558594 211.25619506835938 C146.9358673095703 211.25619506835938 148.73135375976562 213.04949951171875 148.73135375976562 215.24371337890625 L148.73135375976562 215.24371337890625 C148.73135375976562 217.43792724609375 146.9381103515625 219.23114013671875 144.74388122558594 219.23114013671875 Z"></path>
<path fill="#EA9C36" fill-opacity="1.0"  filling="0" d="M119.67247009277344 147.29244995117188 L128.9742889404297 177.85623168945312 L129.75376892089844 147.24295043945312 L119.67247009277344 147.29244995117188 Z"></path>
<path fill="#EA9C36" fill-opacity="1.0"  filling="0" d="M159.8759307861328 147.29244995117188 L150.5718994140625 177.85623168945312 L149.79466247558594 147.24295043945312 L159.8759307861328 147.29244995117188 Z"></path>
<path fill="#EA9C36" fill-opacity="1.0"  filling="0" d="M136.50540161132812 147.202392578125 L139.78323364257812 185.8311767578125 L144.47805786132812 147.202392578125 L136.50540161132812 147.202392578125 Z"></path>
<path fill="#231F20" fill-opacity="1.0"  filling="0" d="M288.4207458496094 235.97845458984375 L288.4207458496094 239.7000732421875 C288.4207458496094 239.97711181640625 288.4004821777344 240.27456665039062 288.3778991699219 240.5516357421875 C288.1864318847656 243.1671142578125 287.0172424316406 245.57086181640625 285.23077392578125 247.3348388671875 C283.2752990722656 249.29022216796875 280.57421875 250.50228881835938 277.5982666015625 250.50228881835938 C274.9625244140625 250.50228881835938 272.51593017578125 249.5447998046875 270.6461181640625 247.97235107421875 C268.28521728515625 245.97412109375 266.77581787109375 242.99813842773438 266.77581787109375 239.7000732421875 L266.77581787109375 235.97845458984375 L288.4207458496094 235.97845458984375 Z"></path>
<path fill="#EE3426" fill-opacity="1.0"  filling="0" d="M288.3778991699219 240.5516357421875 C288.1864318847656 243.1671142578125 287.0172424316406 245.57086181640625 285.23077392578125 247.3348388671875 C283.2752990722656 249.29022216796875 280.57421875 250.50228881835938 277.5982666015625 250.50228881835938 C274.9625244140625 250.50228881835938 272.51593017578125 249.5447998046875 270.6461181640625 247.97235107421875 C271.75225830078125 243.527587890625 277.47210693359375 240.14837646484375 284.3814697265625 240.14837646484375 C285.7624206542969 240.1461181640625 287.12310791015625 240.27456665039062 288.3778991699219 240.5516357421875 Z"></path></svg>