<svg xmlns="http://www.w3.org/2000/svg" viewBox="0.0 0.0 512.0 512.0" height="512.0px" width="512.0px"><path fill="#F25940" fill-opacity="1.0"  filling="0" d="M238.76287841796875 375.8514404296875 C238.67910766601562 375.8714599609375 230.6837158203125 377.7447204589844 224.07186889648438 384.3565673828125 C220.21798706054688 388.21044921875 217.56927490234375 392.8981018066406 216.19842529296875 398.29754638671875 C214.07766723632812 406.664306640625 216.95574951171875 421.5081787109375 220.37271118164062 424.511962890625 C221.18466186523438 425.2255554199219 221.88186645507812 425.16546630859375 222.32427978515625 424.9943542480469 C223.07061767578125 424.6976013183594 223.78604125976562 424.2115478515625 224.44686889648438 423.55255126953125 C226.82257080078125 421.1805419921875 228.20428466796875 416.8587646484375 229.31478881835938 413.3890380859375 C229.94461059570312 411.43206787109375 230.4835205078125 409.7408752441406 231.0587158203125 408.8233337402344 C231.275390625 408.4811096191406 231.53933715820312 408.1497802734375 231.85061645507812 407.8421325683594 C236.52557373046875 403.16357421875 250.10061645507812 404.3578186035156 250.23712158203125 404.3705139160156 L250.810546875 404.4215087890625 L239.05410766601562 375.7877502441406 L238.76287841796875 375.8514404296875 Z"></path>
<path fill="#F25940" fill-opacity="1.0"  filling="0" d="M295.75006103515625 398.29754638671875 C291.1334228515625 380.120361328125 273.36590576171875 375.8914794921875 273.18743896484375 375.853271484375 L272.8962097167969 375.7877502441406 L261.1398010253906 404.4178466796875 L261.7132263183594 404.36688232421875 C261.8679504394531 404.35418701171875 277.2452087402344 403.00518798828125 280.8898010253906 408.8197021484375 C281.4632263183594 409.7372131347656 282.0057373046875 411.42840576171875 282.6319580078125 413.3853759765625 C284.0755615234375 417.8946228027344 285.8741760253906 423.50341796875 289.6260986328125 424.9888916015625 C290.1121520996094 425.17822265625 290.87127685546875 425.2255554199219 291.75238037109375 424.3444519042969 C295.0928955078125 421.0093994140625 297.81988525390625 406.4512939453125 295.75006103515625 398.29754638671875 Z"></path>
<path fill="#58A5BF" fill-opacity="1.0"  filling="0" d="M255.93511962890625 248.94827270507812 C271.6382751464844 259.6724853515625 280.432861328125 274.22149658203125 285.08404541015625 288.9179382324219 C287.78564453125 297.439453125 289.4149169921875 306.18121337890625 289.86456298828125 314.9011535644531 C290.34149169921875 324.0197448730469 289.2237854003906 333.1256103515625 287.714599609375 342.1768493652344 C284.79461669921875 359.7532958984375 280.85516357421875 377.3260192871094 273.28936767578125 394.2652587890625 C271.39251708984375 398.5105285644531 269.33905029296875 402.7412414550781 266.86322021484375 406.83905029296875 C265.80010986328125 408.6048889160156 264.8498229980469 410.41259765625 263.75213623046875 412.16021728515625 C263.24786376953125 412.9703063964844 262.6562194824219 413.0649719238281 261.4255676269531 413.06317138671875 C259.7562255859375 413.05767822265625 258.0887145996094 413.0030822753906 256.4193420410156 413.0030822753906 C254.9156494140625 413.0030822753906 253.41561889648438 412.99761962890625 251.91555786132812 413.0467529296875 C250.74322509765625 413.08685302734375 248.91549682617188 413.3598937988281 248.449462890625 412.4278259277344 C247.99978637695312 411.51214599609375 247.30621337890625 410.6419677734375 246.747314453125 409.7645263671875 C246.0810546875 408.7177429199219 245.44204711914062 407.6655578613281 244.81951904296875 406.6060791015625 C242.412841796875 402.4954833984375 240.32659912109375 398.29022216796875 238.4552001953125 394.04132080078125 C230.91311645507812 376.938232421875 226.60049438476562 359.23809814453125 223.96450805664062 341.47601318359375 C222.62646484375 332.41748046875 221.6361083984375 323.31524658203125 222.08035278320312 314.20391845703125 C222.50994873046875 305.3092041015625 224.13739013671875 296.370849609375 227.00277709960938 287.69281005859375 C229.7061767578125 279.508056640625 233.81304931640625 271.589111328125 239.693115234375 264.23455810546875 C242.61312866210938 260.5809326171875 245.90628051757812 257.06378173828125 249.66549682617188 253.7997589111328 C251.54425048828125 252.16134643554688 254.34222412109375 250.03688049316406 255.93511962890625 248.94827270507812 Z"></path>
<path fill="#F25940" fill-opacity="1.0"  filling="0" d="M255.97702026367188 375.84234619140625 C254.47509765625 375.84417724609375 253.01150512695312 376.51593017578125 251.739013671875 377.7884216308594 C249.23770141601562 380.2933349609375 247.68121337890625 384.9063415527344 247.68121337890625 389.8415832519531 C247.68121337890625 395.4303283691406 250.93618774414062 433.1226501464844 255.97882080078125 433.1226501464844 C256.3447265625 433.1226501464844 256.70703125 432.9496765136719 257.0546569824219 432.6074523925781 C257.0546569824219 432.6074523925781 257.058349609375 432.6074523925781 257.0601806640625 432.60565185546875 C261.1179504394531 428.5442199707031 264.27093505859375 397.0359802246094 264.27093505859375 389.8397521972656 C264.26910400390625 382.12286376953125 260.5462951660156 375.84234619140625 255.97702026367188 375.84234619140625 Z"></path>
<path fill="#F25940" fill-opacity="1.0"  filling="0" d="M279.9904479980469 318.64581298828125 C279.9904479980469 331.9314270019531 269.224365234375 342.701171875 255.93511962890625 342.701171875 C242.65130615234375 342.701171875 231.881591796875 331.9314270019531 231.881591796875 318.64764404296875 C231.881591796875 305.36383056640625 242.65130615234375 294.59228515625 255.93511962890625 294.59228515625 C269.224365234375 294.5904541015625 279.9904479980469 305.3620300292969 279.9904479980469 318.64581298828125 Z"></path>
<path fill="#FFB000" fill-opacity="1.0"  filling="0" d="M272.9417419433594 318.64581298828125 C272.9417419433594 328.03564453125 265.32861328125 335.64874267578125 255.93511962890625 335.64874267578125 C246.54888916015625 335.64874267578125 238.9376220703125 328.0338134765625 238.93215942382812 318.64581298828125 C238.93215942382812 309.2559509277344 246.54888916015625 301.6428527832031 255.93511962890625 301.6428527832031 C265.3304443359375 301.6410217285156 272.9417419433594 309.2559509277344 272.9417419433594 318.64581298828125 Z"></path>
<path fill="#FFB000" fill-opacity="1.0"  filling="0" d="M230.76019287109375 278.41217041015625 C230.0938720703125 279.7884216308594 229.48590087890625 281.17926025390625 228.91064453125 282.57550048828125 C246.53619384765625 280.63311767578125 265.12103271484375 280.6239929199219 282.757568359375 282.5482177734375 C282.1932373046875 281.15557861328125 281.6015625 279.76837158203125 280.9534912109375 278.39215087890625 C264.29095458984375 276.808349609375 247.41177368164062 276.81927490234375 230.76019287109375 278.41217041015625 Z"></path>
<path fill="#FFB000" fill-opacity="1.0"  filling="0" d="M285.04949951171875 288.81964111328125 C284.5888977050781 287.366943359375 284.05731201171875 285.919677734375 283.5130615234375 284.4742431640625 L283.48028564453125 284.4250793457031 L283.3182373046875 284.412353515625 C265.0828552246094 282.6519775390625 246.59259033203125 282.66107177734375 228.3663330078125 284.43780517578125 L228.20611572265625 284.4505615234375 L228.1151123046875 284.58709716796875 C228.10418701171875 284.6016845703125 228.09872436523438 284.61260986328125 228.09323120117188 284.6271667480469 C227.70550537109375 285.644775390625 227.34506225585938 286.6660461425781 227.004638671875 287.69097900390625 C226.87713623046875 288.0732727050781 226.78619384765625 288.46099853515625 226.666015625 288.846923828125 C245.7679443359375 286.72430419921875 265.9293518066406 286.7188720703125 285.04949951171875 288.81964111328125 Z"></path>
<path fill="#FFB000" fill-opacity="1.0"  filling="0" d="M225.19873046875 348.9962463378906 C225.3880615234375 350.04302978515625 225.58648681640625 351.08795166015625 225.78494262695312 352.13287353515625 C226.08526611328125 352.6444091796875 226.3565673828125 353.1341247558594 226.73516845703125 353.72393798828125 L226.82623291015625 353.8659362792969 L226.99188232421875 353.885986328125 C246.13021850585938 355.88482666015625 265.5415954589844 355.8939208984375 284.69085693359375 353.91143798828125 L284.86016845703125 353.8968811035156 L284.951171875 353.7512512207031 C285.3134460449219 353.1759948730469 285.6065673828125 352.62255859375 285.9324035644531 352.0564270019531 C286.12713623046875 351.0478820800781 286.3328857421875 350.03936767578125 286.5203857421875 349.0271911621094 C266.4390563964844 351.3955993652344 245.2618408203125 351.3828430175781 225.19873046875 348.9962463378906 Z"></path>
<path fill="#FFB000" fill-opacity="1.0"  filling="0" d="M226.49853515625 355.768310546875 C226.71331787109375 356.80047607421875 226.94271850585938 357.83270263671875 227.1702880859375 358.863037109375 C227.4451904296875 359.3327331542969 227.6890869140625 359.77874755859375 228.03860473632812 360.3157958984375 L228.12783813476562 360.4596252441406 L228.2989501953125 360.47052001953125 C246.567138671875 362.3856506347656 265.1028747558594 362.39654541015625 283.396484375 360.5032958984375 L283.5639953613281 360.4832763671875 L283.6549987792969 360.3394470214844 C283.986328125 359.81878662109375 284.2485046386719 359.31451416015625 284.54522705078125 358.79754638671875 C284.763671875 357.7999267578125 284.9912109375 356.80047607421875 285.19696044921875 355.79742431640625 C265.9766845703125 358.0747985839844 245.7060546875 358.0675354003906 226.49853515625 355.768310546875 Z"></path></svg>