<svg xmlns="http://www.w3.org/2000/svg" viewBox="0.0 0.0 512.0 512.0" height="512.0px" width="512.0px">
<path fill="#44151F" fill-opacity="1.0"  filling="0" d="M207.36538696289062 224.12158203125 C207.36538696289062 224.12158203125 155.604248046875 202.4619140625 147.89556884765625 205.39877319335938 C140.1868896484375 208.33560180664062 105.67807006835938 257.159912109375 108.61492919921875 258.62835693359375 C111.5517578125 260.09674072265625 142.38848876953125 220.81610107421875 150.8323974609375 217.51266479492188 C170.655029296875 219.34771728515625 204.06195068359375 232.93206787109375 204.06195068359375 232.93206787109375 L207.36538696289062 224.12158203125 Z"></path>
<path fill="#44151F" fill-opacity="1.0"  filling="0" d="M205.99319458007812 243.40347290039062 C205.99319458007812 243.40347290039062 158.62301635742188 231.25274658203125 152.17794799804688 234.40048217773438 C145.73287963867188 237.54827880859375 120.54046630859375 279.9910583496094 123.19876098632812 281.033447265625 C125.85699462890625 282.0738525390625 150.0213623046875 247.71453857421875 157.0726318359375 244.18991088867188 C172.97943115234375 244.923095703125 203.82440185546875 251.29037475585938 203.82440185546875 251.29037475585938 L205.99319458007812 243.40347290039062 Z"></path>
<path fill="#44151F" fill-opacity="1.0"  filling="0" d="M204.24627685546875 262.29425048828125 C204.24627685546875 262.29425048828125 161.80557250976562 260.3036193847656 156.8780517578125 264.1190490722656 C151.9505615234375 267.93243408203125 137.99755859375 308.48077392578125 140.44082641601562 308.8985595703125 C142.88613891601562 309.31634521484375 157.3880615234375 275.82537841796875 162.76605224609375 271.5860595703125 C176.4283447265625 269.4069519042969 203.78958129882812 269.3885498046875 203.78958129882812 269.3885498046875 L204.24627685546875 262.29425048828125 Z"></path>
<path fill="#44151F" fill-opacity="1.0"  filling="0" d="M352.011474609375 257.0821228027344 C348.34765625 274.3037414550781 344.56298828125 299.37945556640625 272.0391845703125 303.6781921386719 C271.89990234375 303.6884460449219 271.756591796875 303.6966247558594 271.6173095703125 303.704833984375 C195.62832641601562 308.1100769042969 192.69146728515625 269.5646667480469 191.58963012695312 259.2857360839844 C190.48782348632812 249.0068359375 189.3880615234375 196.51043701171875 267.5806884765625 196.51043701171875 C271.768798828125 196.51043701171875 275.762451171875 196.64151000976562 279.5697021484375 196.8934326171875 C345.484619140625 201.23110961914062 355.3497314453125 241.41079711914062 352.011474609375 257.0821228027344 Z"></path>
<path fill="#4B1A25" fill-opacity="1.0"  filling="0" d="M352.011474609375 257.0821228027344 C348.34765625 274.3037414550781 344.56298828125 299.37945556640625 272.0391845703125 303.6781921386719 C218.12762451171875 299.8975830078125 215.6966552734375 268.421875 214.71563720703125 259.2857360839844 C213.66912841796875 249.5208740234375 212.62255859375 201.65090942382812 279.567626953125 196.8934326171875 C345.484619140625 201.23110961914062 355.3497314453125 241.41079711914062 352.011474609375 257.0821228027344 Z"></path>
<path fill="#4B1A25" fill-opacity="1.0"  filling="0" d="M337.6939697265625 227.34716796875 C337.6939697265625 227.34716796875 389.45513916015625 205.68756103515625 397.16375732421875 208.62435913085938 C404.8724365234375 211.56118774414062 439.38128662109375 260.3855285644531 436.4444580078125 261.8539123535156 C433.507568359375 263.3223571777344 402.6708984375 224.041748046875 394.2269287109375 220.73831176757812 C374.4044189453125 222.57330322265625 340.9974365234375 236.15560913085938 340.9974365234375 236.15560913085938 L337.6939697265625 227.34716796875 Z"></path>
<path fill="#4B1A25" fill-opacity="1.0"  filling="0" d="M339.0682373046875 246.62911987304688 C339.0682373046875 246.62911987304688 386.4383544921875 234.47833251953125 392.8834228515625 237.6260986328125 C399.3284912109375 240.77386474609375 424.52099609375 283.21868896484375 421.8626708984375 284.2590637207031 C419.20440673828125 285.2994384765625 395.0400390625 250.94015502929688 387.98876953125 247.41555786132812 C372.08197021484375 248.14874267578125 341.237060546875 254.51596069335938 341.237060546875 254.51596069335938 L339.0682373046875 246.62911987304688 Z"></path>
<path fill="#4B1A25" fill-opacity="1.0"  filling="0" d="M340.8131103515625 265.52191162109375 C340.8131103515625 265.52191162109375 383.2537841796875 263.5332946777344 388.1812744140625 267.3466796875 C393.1087646484375 271.1600341796875 407.061767578125 311.7083740234375 404.6185302734375 312.126220703125 C402.1732177734375 312.54400634765625 387.67132568359375 279.05303955078125 382.29327392578125 274.81365966796875 C368.631103515625 272.6346130371094 341.269775390625 272.6161804199219 341.269775390625 272.6161804199219 L340.8131103515625 265.52191162109375 Z"></path>
<path fill="#FFFFFF" fill-opacity="1.0"  filling="0" d="M257.5126953125 250.1639404296875 C255.6798095703125 258.14910888671875 248.53021240234375 264.1026306152344 239.994140625 264.1026306152344 C230.06744384765625 264.1026306152344 222.0208740234375 256.0560607910156 222.0208740234375 246.12939453125 C222.0208740234375 241.89208984375 223.4852294921875 238.0008544921875 225.938720703125 234.92886352539062 L233.159912109375 238.41253662109375 L250.28533935546875 246.67620849609375 L257.5126953125 250.1639404296875 Z"></path>
<path fill="#44151F" fill-opacity="1.0"  filling="0" d="M250.28533935546875 246.67620849609375 C250.002685546875 252.1136474609375 245.501220703125 256.4369812011719 239.9962158203125 256.4369812011719 C234.302734375 256.4369812011719 229.6885986328125 251.82281494140625 229.6885986328125 246.12939453125 C229.6885986328125 243.05941772460938 231.0321044921875 240.30282592773438 233.1619873046875 238.41253662109375 L250.28533935546875 246.67620849609375 Z"></path>
<path fill="#FFFFFF" fill-opacity="1.0"  filling="0" d="M287.7330322265625 250.1639404296875 C289.56591796875 258.14910888671875 296.71551513671875 264.1026306152344 305.2515869140625 264.1026306152344 C315.17822265625 264.1026306152344 323.224853515625 256.0560607910156 323.224853515625 246.12939453125 C323.224853515625 241.89208984375 321.760498046875 238.0008544921875 319.3070068359375 234.92886352539062 L312.08575439453125 238.41253662109375 L294.96038818359375 246.67620849609375 L287.7330322265625 250.1639404296875 Z"></path>
<path fill="#44151F" fill-opacity="1.0"  filling="0" d="M294.96038818359375 246.67620849609375 C295.2430419921875 252.1136474609375 299.7445068359375 256.4369812011719 305.24957275390625 256.4369812011719 C310.9429931640625 256.4369812011719 315.55712890625 251.82281494140625 315.55712890625 246.12939453125 C315.55712890625 243.05941772460938 314.213623046875 240.30282592773438 312.083740234375 238.41253662109375 L294.96038818359375 246.67620849609375 Z"></path></svg>