<svg xmlns="http://www.w3.org/2000/svg" viewBox="0.0 0.0 512.0 512.0" height="512.0px" width="512.0px"><path fill="#EC6568" fill-opacity="1.0"  filling="0" d="M290.4198913574219 126.041748046875 C318.6226806640625 135.6051025390625 276.61004638671875 186.896240234375 309.3335876464844 215.15765380859375 C333.3404235839844 235.8897705078125 409.0058288574219 215.17889404296875 413.3721923828125 235.1842041015625 C419.5862121582031 263.6612548828125 348.11407470703125 267.4205322265625 339.70623779296875 292.45245361328125 C327.7041320800781 328.18988037109375 380.6273193359375 366.65618896484375 367.5336608886719 382.84356689453125 C350.5848083496094 403.79132080078125 295.8245544433594 359.35589599609375 261.6846008300781 329.00982666015625 C239.58668518066406 309.36663818359375 165.33502197265625 400.0294189453125 142.86166381835938 380.29833984375 C124.21954345703125 363.9298095703125 181.2960968017578 310.4609375 180.62518310546875 291.7122802734375 C179.6161346435547 263.5548095703125 91.45343017578125 238.5308837890625 106.730224609375 210.6129150390625 C119.22491455078125 187.77752685546875 179.75189208984375 230.4371337890625 213.12509155273438 208.97552490234375 C240.56646728515625 191.3291015625 262.5365905761719 116.587646484375 290.4198913574219 126.041748046875 Z"></path>
<path fill="#1A426B" fill-opacity="1.0"  filling="0" d="M241.45301818847656 282.58819580078125 C252.65374755859375 288.7037353515625 252.65374755859375 288.7037353515625 262.70697021484375 283.98602294921875 C267.77618408203125 281.6031494140625 267.77618408203125 281.6031494140625 270.5504150390625 278.0914306640625 C272.2010498046875 276.00140380859375 272.2010498046875 276.00140380859375 274.29107666015625 277.65216064453125 C276.38104248046875 279.3028564453125 276.38104248046875 279.3028564453125 274.7303771972656 281.39288330078125 C271.17608642578125 285.8896484375 271.17608642578125 285.8896484375 264.97003173828125 288.804931640625 C252.4727325439453 294.6728515625 252.4727325439453 294.6728515625 238.9024658203125 287.263427734375 C236.5648651123047 285.9881591796875 236.5648651123047 285.9881591796875 237.8401641845703 283.6505126953125 C238.47911071777344 282.4818115234375 238.47911071777344 282.4818115234375 239.38168334960938 282.21551513671875 C240.28424072265625 281.951904296875 240.28424072265625 281.951904296875 241.45301818847656 282.58819580078125 Z"></path>
<path fill="#1A426B" fill-opacity="1.0"  filling="0" d="M266.0243225097656 271.93865966796875 C274.3948974609375 273.4615478515625 274.3948974609375 273.4615478515625 277.73089599609375 282.5030517578125 C278.6520690917969 285.0003662109375 278.6520690917969 285.0003662109375 276.15472412109375 285.921630859375 C274.90606689453125 286.38214111328125 274.90606689453125 286.38214111328125 274.05145263671875 285.9881591796875 C273.19683837890625 285.593994140625 273.19683837890625 285.593994140625 272.7362060546875 284.34539794921875 C270.451904296875 278.1553955078125 270.451904296875 278.1553955078125 265.0711669921875 277.17828369140625 C263.76129150390625 276.93865966796875 263.76129150390625 276.93865966796875 263.22613525390625 276.16650390625 C262.6910095214844 275.39178466796875 262.6910095214844 275.39178466796875 262.92791748046875 274.0819091796875 C263.4045104980469 271.46209716796875 263.4045104980469 271.46209716796875 266.0243225097656 271.93865966796875 Z"></path>
<path fill="#1A426B" fill-opacity="1.0"  filling="0" d="M270.90716552734375 261.10528564453125 C281.4822082519531 252.02392578125 281.4822082519531 252.02392578125 294.1978454589844 257.1409912109375 C300.33465576171875 259.61181640625 300.33465576171875 259.61181640625 304.4747314453125 263.88751220703125 C306.3250732421875 265.79913330078125 306.3250732421875 265.79913330078125 304.4107971191406 267.65216064453125 C303.4549865722656 268.5760498046875 303.4549865722656 268.5760498046875 302.5151672363281 268.562744140625 C301.5726623535156 268.5467529296875 301.5726623535156 268.5467529296875 300.64617919921875 267.5882568359375 C297.296875 264.12713623046875 297.296875 264.12713623046875 292.211669921875 262.0823974609375 C282.49658203125 258.17138671875 282.49658203125 258.17138671875 274.37896728515625 265.1468505859375 C272.358154296875 266.8800048828125 272.358154296875 266.8800048828125 270.62225341796875 264.862060546875 C268.88909912109375 262.8411865234375 268.88909912109375 262.8411865234375 270.90716552734375 261.10528564453125 Z"></path>
<path fill="#E7EFF7" fill-opacity="1.0"  filling="0" d="M242.90670776367188 260.098876953125 C247.816162109375 250.0963134765625 225.265625 232.63623046875 214.1714324951172 247.0052490234375 C203.0771942138672 261.374267578125 234.16070556640625 277.915771484375 242.90670776367188 260.098876953125 Z"></path>
<path fill="#1A426B" fill-opacity="1.0"  filling="0" d="M218.079833984375 259.55316162109375 C218.079833984375 261.3077392578125 218.48182678222656 262.9716796875 219.1501007080078 264.51318359375 C226.7432861328125 269.3028564453125 238.1383514404297 269.8087158203125 242.90402221679688 260.098876953125 C245.01266479492188 255.8018798828125 242.0493927001953 250.133544921875 237.10797119140625 246.198486328125 C235.94451904296875 245.9482421875 234.7437744140625 245.77789306640625 233.4951171875 245.77789306640625 C224.98077392578125 245.77789306640625 218.079833984375 251.9466552734375 218.079833984375 259.55316162109375 Z"></path>
<path fill="#E7EFF7" fill-opacity="1.0"  filling="0" d="M233.9024658203125 251.6883544921875 C233.9024658203125 249.1405029296875 232.2810821533203 246.9892578125 230.02334594726562 246.15869140625 C227.0228271484375 246.779052734375 224.36842346191406 248.17401123046875 222.32369995117188 250.1070556640625 C222.18255615234375 250.61279296875 222.08139038085938 251.13726806640625 222.08139038085938 251.6883544921875 C222.08139038085938 254.9525146484375 224.7278289794922 257.5989990234375 227.99192810058594 257.5989990234375 C231.2560272216797 257.5989990234375 233.9024658203125 254.9525146484375 233.9024658203125 251.6883544921875 Z"></path>
<path fill="#1A426B" fill-opacity="1.0"  filling="0" d="M217.10272216796875 227.921142578125 C220.69430541992188 221.2491455078125 220.69430541992188 221.2491455078125 229.01429748535156 222.2423095703125 C236.6899871826172 223.16082763671875 236.6899871826172 223.16082763671875 239.65057373046875 229.08465576171875 C240.2469482421875 230.2747802734375 240.2469482421875 230.2747802734375 239.94876098632812 231.1666259765625 C239.65057373046875 232.0611572265625 239.65057373046875 232.0611572265625 238.46051025390625 232.65496826171875 C236.08029174804688 233.84771728515625 236.08029174804688 233.84771728515625 234.89022827148438 231.46484375 C233.2102508544922 228.1075439453125 233.2102508544922 228.1075439453125 228.38331604003906 227.52978515625 C223.66290283203125 226.96539306640625 223.66290283203125 226.96539306640625 221.78854370117188 230.4451904296875 C220.52655029296875 232.790771484375 220.52655029296875 232.790771484375 218.18362426757812 231.526123046875 C215.83807373046875 230.26416015625 215.83807373046875 230.26416015625 217.10272216796875 227.921142578125 Z"></path>
<path fill="#1A426B" fill-opacity="1.0"  filling="0" d="M274.552001953125 233.661376953125 C278.4018249511719 228.1368408203125 278.4018249511719 228.1368408203125 286.56207275390625 228.432373046875 C294.3495788574219 228.714599609375 294.3495788574219 228.714599609375 297.8266906738281 233.650634765625 C298.59344482421875 234.7396240234375 298.59344482421875 234.7396240234375 298.4310607910156 235.66876220703125 C298.2686462402344 236.59527587890625 298.2686462402344 236.59527587890625 297.1824035644531 237.362060546875 C295.0045166015625 238.89288330078125 295.0045166015625 238.89288330078125 293.47100830078125 236.7177734375 C291.5168151855469 233.9407958984375 291.5168151855469 233.9407958984375 286.3677062988281 233.7545166015625 C281.1094970703125 233.562744140625 281.1094970703125 233.562744140625 278.9183349609375 236.70703125 C278.1568603515625 237.79864501953125 278.1568603515625 237.79864501953125 277.2303466796875 237.9637451171875 C276.3038330078125 238.12890625 276.3038330078125 238.12890625 275.2122802734375 237.367431640625 C273.0290832519531 235.84716796875 273.0290832519531 235.84716796875 274.552001953125 233.661376953125 Z"></path>
<path fill="#F0BBC4" fill-opacity="1.0"  filling="0" d="M351.6044921875 371.97564697265625 A3.029811143875122 3.029811143875122 0.0 1 1 345.54486083984375 371.97564697265625 A3.029811143875122 3.029811143875122 0.0 1 1 351.6044921875 371.97564697265625 Z"></path>
<path fill="#F0BBC4" fill-opacity="1.0"  filling="0" d="M155.7956085205078 364.14019775390625 C155.7956085205078 362.465576171875 157.15347290039062 361.11041259765625 158.82810974121094 361.11041259765625 C160.50274658203125 361.11041259765625 161.85792541503906 362.46826171875 161.85792541503906 364.14019775390625 C161.85792541503906 365.8148193359375 160.5000762939453 367.1727294921875 158.82810974121094 367.1727294921875 C157.15347290039062 367.1727294921875 155.7956085205078 365.8148193359375 155.7956085205078 364.14019775390625 Z"></path>
<path fill="#F0BBC4" fill-opacity="1.0"  filling="0" d="M122.85641479492188 216.6697998046875 A3.029811143875122 3.029811143875122 0.0 1 1 116.79681396484375 216.6697998046875 A3.029811143875122 3.029811143875122 0.0 1 1 122.85641479492188 216.6697998046875 Z"></path>
<path fill="#F0BBC4" fill-opacity="1.0"  filling="0" d="M396.39141845703125 238.5814208984375 C396.39141845703125 236.90673828125 397.74920654296875 235.54888916015625 399.42388916015625 235.54888916015625 C401.0985107421875 235.54888916015625 402.45635986328125 236.90673828125 402.45635986328125 238.5814208984375 C402.45635986328125 240.2559814453125 401.0985107421875 241.61126708984375 399.42388916015625 241.61126708984375 C397.74920654296875 241.61126708984375 396.39141845703125 240.2559814453125 396.39141845703125 238.5814208984375 Z"></path>
<path fill="#F0BBC4" fill-opacity="1.0"  filling="0" d="M278.66009521484375 141.3985595703125 C278.66009521484375 139.72381591796875 280.01788330078125 138.3687744140625 281.6925354003906 138.3687744140625 C283.3671875 138.3687744140625 284.72503662109375 139.72650146484375 284.72503662109375 141.3985595703125 C284.72503662109375 143.0731201171875 283.3671875 144.430908203125 281.6925354003906 144.430908203125 C280.01788330078125 144.430908203125 278.66009521484375 143.0731201171875 278.66009521484375 141.3985595703125 Z"></path>
<path fill="#F0BBC4" fill-opacity="1.0"  filling="0" d="M332.43255615234375 356.56304931640625 C332.43255615234375 354.05242919921875 334.4692687988281 352.01568603515625 336.9799499511719 352.01568603515625 C339.4905700683594 352.01568603515625 341.5273132324219 354.05242919921875 341.5273132324219 356.56304931640625 C341.5273132324219 359.07366943359375 339.4905700683594 361.11041259765625 336.9799499511719 361.11041259765625 C334.4692687988281 361.11041259765625 332.43255615234375 359.07366943359375 332.43255615234375 356.56304931640625 Z"></path>
<path fill="#F0BBC4" fill-opacity="1.0"  filling="0" d="M171.16036987304688 344.741943359375 C171.16036987304688 342.2313232421875 173.1970977783203 340.19464111328125 175.7077178955078 340.19464111328125 C178.2183837890625 340.19464111328125 180.25511169433594 342.2313232421875 180.25511169433594 344.741943359375 C180.25511169433594 347.25262451171875 178.2183837890625 349.28936767578125 175.7077178955078 349.28936767578125 C173.1970977783203 349.28662109375 171.16036987304688 347.25262451171875 171.16036987304688 344.741943359375 Z"></path>
<path fill="#F0BBC4" fill-opacity="1.0"  filling="0" d="M135.42294311523438 229.3482666015625 C135.42294311523438 226.8375244140625 137.45968627929688 224.8009033203125 139.97030639648438 224.8009033203125 C142.48098754882812 224.8009033203125 144.5177001953125 226.8375244140625 144.5177001953125 229.3482666015625 C144.5177001953125 231.85888671875 142.48098754882812 233.89556884765625 139.97030639648438 233.89556884765625 C137.45968627929688 233.8929443359375 135.42294311523438 231.85888671875 135.42294311523438 229.3482666015625 Z"></path>
<path fill="#F0BBC4" fill-opacity="1.0"  filling="0" d="M382.81048583984375 244.6170654296875 A4.547379016876221 4.547379016876221 0.0 1 1 373.7156982421875 244.6170654296875 A4.547379016876221 4.547379016876221 0.0 1 1 382.81048583984375 244.6170654296875 Z"></path>
<path fill="#F0BBC4" fill-opacity="1.0"  filling="0" d="M270.39068603515625 160.9324951171875 C270.39068603515625 158.421875 272.4273986816406 156.3851318359375 274.9380187988281 156.3851318359375 C277.44866943359375 156.3851318359375 279.48541259765625 158.421875 279.48541259765625 160.9324951171875 C279.48541259765625 163.4432373046875 277.44866943359375 165.4798583984375 274.9380187988281 165.4798583984375 C272.4273986816406 165.4798583984375 270.39068603515625 163.4432373046875 270.39068603515625 160.9324951171875 Z"></path>
<path fill="#F0BBC4" fill-opacity="1.0"  filling="0" d="M312.9118347167969 335.282470703125 C312.9118347167969 331.93316650390625 315.62750244140625 329.22015380859375 318.97412109375 329.22015380859375 C322.32342529296875 329.22015380859375 325.0364074707031 331.93316650390625 325.0364074707031 335.282470703125 C325.0364074707031 338.63177490234375 322.32342529296875 341.3447265625 318.97412109375 341.3447265625 C315.62481689453125 341.347412109375 312.9118347167969 338.63177490234375 312.9118347167969 335.282470703125 Z"></path>
<path fill="#F0BBC4" fill-opacity="1.0"  filling="0" d="M200.3935089111328 323.21917724609375 A6.06228494644165 6.06228494644165 0.0 1 1 188.2689208984375 323.21917724609375 A6.06228494644165 6.06228494644165 0.0 1 1 200.3935089111328 323.21917724609375 Z"></path>
<path fill="#F0BBC4" fill-opacity="1.0"  filling="0" d="M170.95269775390625 239.1937255859375 A6.06228494644165 6.06228494644165 0.0 1 1 158.82810974121094 239.1937255859375 A6.06228494644165 6.06228494644165 0.0 1 1 170.95269775390625 239.1937255859375 Z"></path>
<path fill="#F0BBC4" fill-opacity="1.0"  filling="0" d="M360.3824462890625 251.880126953125 A6.06228494644165 6.06228494644165 0.0 1 1 348.25787353515625 251.880126953125 A6.06228494644165 6.06228494644165 0.0 1 1 360.3824462890625 251.880126953125 Z"></path>
<path fill="#F0BBC4" fill-opacity="1.0"  filling="0" d="M262.8134460449219 183.49639892578125 C262.8134460449219 180.1497802734375 265.52911376953125 177.43402099609375 268.8757629394531 177.43402099609375 C272.22503662109375 177.43402099609375 274.9380187988281 180.1497802734375 274.9380187988281 183.49639892578125 C274.9380187988281 186.84564208984375 272.22503662109375 189.55865478515625 268.8757629394531 189.55865478515625 C265.5264587402344 189.55865478515625 262.8134460449219 186.843017578125 262.8134460449219 183.49639892578125 Z"></path>
<path fill="#F0BBC4" fill-opacity="1.0"  filling="0" d="M310.13763427734375 310.7325439453125 A7.577190399169922 7.577190399169922 0.0 1 1 294.9832458496094 310.7325439453125 A7.577190399169922 7.577190399169922 0.0 1 1 310.13763427734375 310.7325439453125 Z"></path>
<path fill="#F0BBC4" fill-opacity="1.0"  filling="0" d="M222.08139038085938 298.72772216796875 A7.577190399169922 7.577190399169922 0.0 1 1 206.92701721191406 298.72772216796875 A7.577190399169922 7.577190399169922 0.0 1 1 222.08139038085938 298.72772216796875 Z"></path>
<path fill="#F0BBC4" fill-opacity="1.0"  filling="0" d="M198.3461151123047 249.13250732421875 A7.577190399169922 7.577190399169922 0.0 1 1 183.19174194335938 249.13250732421875 A7.577190399169922 7.577190399169922 0.0 1 1 198.3461151123047 249.13250732421875 Z"></path>
<path fill="#F0BBC4" fill-opacity="1.0"  filling="0" d="M332.6136169433594 256.74163818359375 A7.577190399169922 7.577190399169922 0.0 1 1 317.459228515625 256.74163818359375 A7.577190399169922 7.577190399169922 0.0 1 1 332.6136169433594 256.74163818359375 Z"></path>
<path fill="#F0BBC4" fill-opacity="1.0"  filling="0" d="M270.39068603515625 209.09002685546875 A7.577190399169922 7.577190399169922 0.0 1 1 255.23626708984375 209.09002685546875 A7.577190399169922 7.577190399169922 0.0 1 1 270.39068603515625 209.09002685546875 Z"></path>
<path fill="#E7EFF7" fill-opacity="1.0"  filling="0" d="M266.20001220703125 152.67108154296875 C261.68194580078125 147.556640625 239.44822692871094 185.21630859375 236.5408935546875 193.55224609375 C233.63357543945312 201.8883056640625 246.00042724609375 212.44464111328125 250.11114501953125 198.8531494140625 C259.8049621582031 166.8004150390625 269.3017578125 156.185546875 266.20001220703125 152.67108154296875 Z"></path>
<path fill="#E7EFF7" fill-opacity="1.0"  filling="0" d="M194.33119201660156 288.73577880859375 C211.8072052001953 292.32989501953125 180.29505920410156 329.94964599609375 175.7077178955078 326.11578369140625 C171.12042236328125 322.28192138671875 186.4984130859375 287.125 194.33119201660156 288.73577880859375 Z"></path>
<path fill="#E7EFF7" fill-opacity="1.0"  filling="0" d="M273.91571044921875 310.7325439453125 C259.7783203125 320.04290771484375 284.4587707519531 338.25372314453125 291.16802978515625 333.70098876953125 C297.8772888183594 329.14556884765625 286.8336181640625 302.223388671875 273.91571044921875 310.7325439453125 Z"></path></svg>