<svg xmlns="http://www.w3.org/2000/svg" viewBox="0.0 0.0 512.0 512.0" height="512.0px" width="512.0px"><path fill="#6E9B31" fill-opacity="1.0"  filling="0" d="M216.24822998046875 274.82891845703125 C216.24822998046875 274.82891845703125 224.23678588867188 286.56231689453125 211.8116455078125 298.71807861328125 C199.38650512695312 310.874267578125 168.20333862304688 305.59503173828125 155.82293701171875 297.1223449707031 C143.44253540039062 288.64959716796875 148.125732421875 286.6501770019531 159.6925048828125 286.0616455078125 C176.62136840820312 285.19989013671875 191.77255249023438 275.52978515625 189.48876953125 268.08538818359375 C187.20504760742188 260.64178466796875 216.24822998046875 274.82891845703125 216.24822998046875 274.82891845703125 Z"></path>
<path fill="#6E9B31" fill-opacity="1.0"  filling="0" d="M307.9730224609375 260.45074462890625 C307.9730224609375 260.45074462890625 324.08038330078125 265.36474609375 321.62335205078125 285.8406982421875 C319.1663513183594 306.31622314453125 286.40533447265625 324.60791015625 268.6595153808594 325.9731750488281 C250.91375732421875 327.3384704589844 253.75912475585938 322.0087585449219 264.01824951171875 312.86871337890625 C279.03387451171875 299.4910888671875 285.85906982421875 279.2886962890625 278.2144775390625 274.10150146484375 C270.5706787109375 268.9139099121094 307.9730224609375 260.45074462890625 307.9730224609375 260.45074462890625 Z"></path>
<path fill="#ADB518" fill-opacity="1.0"  filling="0" d="M306.23138427734375 270.6551208496094 C305.4666748046875 271.0965576171875 304.68084716796875 271.532958984375 303.87298583984375 271.963623046875 C302.2093200683594 272.841064453125 300.4593811035156 273.6866149902344 298.623291015625 274.483642578125 C298.03094482421875 274.74725341796875 297.42791748046875 275.00048828125 296.8140869140625 275.25372314453125 C294.644287109375 276.1419677734375 292.3613586425781 276.97674560546875 289.9760437011719 277.752197265625 C289.173583984375 278.01580810546875 288.3554382324219 278.26904296875 287.52606201171875 278.51690673828125 C287.2405090332031 278.6031188964844 286.949951171875 278.68890380859375 286.659423828125 278.7697448730469 C285.86236572265625 279.0068359375 285.0495910644531 279.2273254394531 284.23101806640625 279.44287109375 C284.0154724121094 279.50750732421875 283.8003234863281 279.5667724609375 283.5794372558594 279.6152648925781 C283.3585205078125 279.674560546875 283.1434326171875 279.7284240722656 282.9224853515625 279.78729248046875 C282.4810791015625 279.90045166015625 282.0396423339844 280.0081787109375 281.5924377441406 280.115966796875 C280.38092041015625 280.4123229980469 279.1478576660156 280.69207763671875 277.89324951171875 280.96148681640625 C277.2686462402344 281.09619140625 276.6386413574219 281.22552490234375 276.0032043457031 281.3490295410156 C275.3624572753906 281.47296142578125 274.7216796875 281.59686279296875 274.0809020996094 281.71502685546875 C273.4670715332031 281.82818603515625 272.8478088378906 281.9359130859375 272.2286071777344 282.043701171875 C272.1693115234375 282.054443359375 272.11541748046875 282.0598449707031 272.05615234375 282.07061767578125 C271.48004150390625 282.1676025390625 270.8985595703125 282.25921630859375 270.3116455078125 282.350830078125 C269.82171630859375 282.42626953125 269.3264465332031 282.50128173828125 268.8311462402344 282.5712890625 C268.3358459472656 282.6467590332031 267.8405456542969 282.716796875 267.3394470214844 282.7814636230469 C267.0915832519531 282.8191833496094 266.8387451171875 282.85150146484375 266.58551025390625 282.8784484863281 C265.59490966796875 283.01312255859375 264.5984802246094 283.13128662109375 263.59173583984375 283.2390441894531 C263.0910339355469 283.29833984375 262.5849609375 283.3521728515625 262.0788879394531 283.4002685546875 C261.7344665527344 283.4326171875 261.3896484375 283.46490478515625 261.0451965332031 283.49725341796875 C260.06536865234375 283.59423828125 259.0743408203125 283.6800231933594 258.0729675292969 283.7500915527344 C257.4322204589844 283.803955078125 256.7806701660156 283.8470764160156 256.1344909667969 283.89019775390625 C255.54220581054688 283.92791748046875 254.94992065429688 283.9602355957031 254.35760498046875 283.9925537109375 C253.60369873046875 284.0356750488281 252.83941650390625 284.0733947753906 252.07470703125 284.100341796875 C251.70867919921875 284.1164855957031 251.3369140625 284.1326599121094 250.96554565429688 284.1434326171875 C250.64266967773438 284.1542053222656 250.31399536132812 284.16497802734375 249.9857177734375 284.1757507324219 C249.65704345703125 284.1865234375 249.32879638671875 284.1972961425781 249.00054931640625 284.20269775390625 C248.38665771484375 284.2188720703125 247.77822875976562 284.2296142578125 247.17514038085938 284.24041748046875 C246.56671142578125 284.25115966796875 245.96905517578125 284.256591796875 245.36599731445312 284.261962890625 C243.48672485351562 284.27813720703125 241.64520263671875 284.2727355957031 239.84182739257812 284.24578857421875 C239.3465576171875 284.24041748046875 238.85122680664062 284.2296142578125 238.35595703125 284.2188720703125 C236.72454833984375 284.18115234375 235.13088989257812 284.12725830078125 233.56378173828125 284.0572509765625 C232.670166015625 284.0141296386719 231.78689575195312 283.96563720703125 230.91485595703125 283.9171142578125 C230.76397705078125 283.9117431640625 230.61309814453125 283.90093994140625 230.46804809570312 283.89019775390625 C229.95120239257812 283.85784912109375 229.43972778320312 283.82550048828125 228.93365478515625 283.7931823730469 C228.54611206054688 283.7662353515625 228.16354370117188 283.73931884765625 227.78140258789062 283.70697021484375 C225.8375244140625 283.5614929199219 223.95330810546875 283.3894958496094 222.1171875 283.19012451171875 C220.58816528320312 283.02349853515625 219.091064453125 282.84033203125 217.63751220703125 282.63555908203125 C217.32000732421875 282.59246826171875 217.00210571289062 282.54937744140625 216.68463134765625 282.5008544921875 C215.66708374023438 282.3553771972656 214.66571044921875 282.1990966796875 213.68548583984375 282.03790283203125 C212.7864990234375 281.88702392578125 211.89785766601562 281.73077392578125 211.03118896484375 281.56414794921875 C192.99899291992188 278.193603515625 181.86944580078125 272.09295654296875 178.22994995117188 265.7987060546875 C177.6107177734375 264.727294921875 177.20703125 263.6504821777344 177.0238037109375 262.5790710449219 C176.975341796875 262.32623291015625 176.9429931640625 262.0675964355469 176.92681884765625 261.8143310546875 C176.835205078125 260.586669921875 177.18008422851562 258.9390869140625 177.92282104492188 256.97369384765625 C177.96591186523438 256.86590576171875 178.009033203125 256.753173828125 178.05215454101562 256.6400146484375 C179.83438110351562 252.13880920410156 183.64633178710938 246.05430603027344 189.13314819335938 239.58226013183594 C190.43087768554688 238.04745483398438 191.8251953125 236.49688720703125 193.30609130859375 234.93557739257812 C194.04388427734375 234.16006469726562 194.80319213867188 233.37960815429688 195.58901977539062 232.5987548828125 C205.05484008789062 223.170654296875 217.66488647460938 213.80723571777344 232.39617919921875 207.960205078125 C233.25250244140625 207.61538696289062 234.11376953125 207.28707885742188 234.98626708984375 206.97500610351562 C236.20855712890625 206.52818298339844 237.44158935546875 206.10833740234375 238.69082641601562 205.71499633789062 C239.73532104492188 205.38092041015625 240.79055786132812 205.07421875 241.85165405273438 204.78366088867188 C242.82608032226562 204.51467895507812 243.81170654296875 204.26681518554688 244.80230712890625 204.03512573242188 C246.60067749023438 203.61526489257812 248.420654296875 203.249267578125 250.26217651367188 202.94754028320312 C251.150390625 202.80206298828125 252.0498046875 202.67315673828125 252.9488525390625 202.55999755859375 C254.8873291015625 202.3071746826172 256.8469543457031 202.12937927246094 258.8339538574219 202.02699279785156 C274.1364440917969 201.2353515625 287.32257080078125 205.21432495117188 297.7735900878906 211.20181274414062 C298.61370849609375 211.6809539794922 299.431884765625 212.17086791992188 300.23431396484375 212.67697143554688 C301.8387451171875 213.6837158203125 303.3785400390625 214.74478149414062 304.8379211425781 215.8323516845703 C304.97802734375 215.94012451171875 305.12310791015625 216.04788208007812 305.26318359375 216.1552276611328 C306.70098876953125 217.24282836914062 308.068359375 218.36273193359375 309.35528564453125 219.5149688720703 C309.95294189453125 220.04800415039062 310.53448486328125 220.58102416992188 311.09979248046875 221.12481689453125 C312.45684814453125 222.41714477539062 313.7164306640625 223.73101806640625 314.86907958984375 225.04989624023438 C315.58526611328125 225.8523406982422 316.25299072265625 226.65972900390625 316.888427734375 227.46214294433594 C321.1529541015625 232.87353515625 323.7210388183594 238.21987915039062 324.3564147949219 242.4305419921875 C325.986572265625 253.2313690185547 319.0838928222656 263.1709289550781 306.23138427734375 270.6551208496094 Z"></path>
<path fill="#6E9B31" fill-opacity="1.0"  filling="0" d="M191.12515258789062 256.08258056640625 C191.12515258789062 256.08258056640625 176.92889404296875 265.9110412597656 158.90997314453125 261.5428771972656 C140.89144897460938 257.1746826171875 167.91943359375 285.29443359375 192.489990234375 270.2792053222656 C217.06094360351562 255.2635498046875 191.12515258789062 256.08258056640625 191.12515258789062 256.08258056640625 Z"></path>
<path fill="#6E9B31" fill-opacity="1.0"  filling="0" d="M383.02886962890625 242.8487548828125 C381.903564453125 246.20849609375 379.9704284667969 249.44471740722656 377.014404296875 252.29840087890625 C367.9042053222656 261.0964660644531 349.09649658203125 266.2923583984375 314.25439453125 260.4503173828125 L315.072998046875 241.34130859375 C315.072998046875 241.34130859375 330.3592834472656 246.80078125 339.64190673828125 231.78390502929688 C350.5989990234375 214.05880737304688 360.9368591308594 205.02902221679688 374.86077880859375 214.03726196289062 C381.2412414550781 218.16708374023438 386.932373046875 231.25625610351562 383.02886962890625 242.8487548828125 Z"></path>
<path fill="#FCF3D9" fill-opacity="1.0"  filling="0" d="M374.1138916015625 227.6246337890625 A9.753454208374023 9.753454208374023 0.0 1 1 354.60699462890625 227.6246337890625 A9.753454208374023 9.753454208374023 0.0 1 1 374.1138916015625 227.6246337890625 Z"></path>
<path fill="#000000" fill-opacity="1.0"  filling="0" d="M370.2124328613281 227.61880493164062 C370.21533203125 230.85092163085938 367.597900390625 233.47329711914062 364.3658142089844 233.4761962890625 C361.1337585449219 233.47911071777344 358.5113525390625 230.8616943359375 358.5084228515625 227.62957763671875 C358.50555419921875 224.39752197265625 361.12298583984375 221.77511596679688 364.35504150390625 221.77220153808594 C367.58709716796875 221.76931762695312 370.20953369140625 224.38714599609375 370.2124328613281 227.61880493164062 Z"></path>
<path fill="#FAFAFA" fill-opacity="1.0"  filling="0" d="M367.74505615234375 224.32662963867188 C367.74627685546875 225.4871826171875 366.8062744140625 226.42926025390625 365.6452941894531 226.43011474609375 C364.4847412109375 226.43133544921875 363.54266357421875 225.49130249023438 363.5418395996094 224.33035278320312 C363.54058837890625 223.16983032226562 364.4806213378906 222.2277069091797 365.6416015625 222.22689819335938 C366.8021240234375 222.22607421875 367.7438049316406 223.16610717773438 367.74505615234375 224.32662963867188 Z"></path>
<path fill="#3E5E15" fill-opacity="1.0"  filling="0" d="M371.60546875 216.726806640625 C371.3634033203125 216.726806640625 371.11932373046875 216.64556884765625 370.91827392578125 216.47853088378906 C369.08587646484375 214.95657348632812 366.756103515625 214.1184844970703 364.3579406738281 214.1184844970703 C361.9635009765625 214.1184844970703 359.63580322265625 214.95657348632812 357.80340576171875 216.47853088378906 C357.3450012207031 216.85861206054688 356.66650390625 216.79518127441406 356.2872314453125 216.3384246826172 C355.9071960449219 215.880859375 355.97021484375 215.20193481445312 356.4273681640625 214.82229614257812 C358.6456298828125 212.97994995117188 361.4620056152344 211.96530151367188 364.3579406738281 211.96530151367188 C367.25762939453125 211.96530151367188 370.0760498046875 212.97994995117188 372.2943420410156 214.82229614257812 C372.75189208984375 215.20236206054688 372.81451416015625 215.88128662109375 372.4344177246094 216.3384246826172 C372.2218017578125 216.59417724609375 371.9146728515625 216.726806640625 371.60546875 216.726806640625 Z"></path>
<path fill="#2A3F0A" fill-opacity="1.0"  filling="0" d="M383.02886962890625 242.8487548828125 C381.903564453125 246.20849609375 379.9704284667969 249.44471740722656 377.014404296875 252.29840087890625 C373.10546875 251.69532775878906 370.0847473144531 247.80795288085938 370.0847473144531 243.10198974609375 L370.0847473144531 243.05889892578125 C370.09014892578125 241.89047241210938 371.7377014160156 241.3574676513672 372.5509033203125 242.26722717285156 C373.98870849609375 243.86627197265625 375.9375915527344 244.84652709960938 378.0804138183594 244.84652709960938 C379.9488525390625 244.84652709960938 381.66650390625 244.10337829589844 383.02886962890625 242.8487548828125 Z"></path>
<path fill="#DBD843" fill-opacity="1.0"  filling="0" d="M289.9760437011719 277.75177001953125 C289.173583984375 278.015380859375 288.3554382324219 278.2686462402344 287.52606201171875 278.5164794921875 C287.2405090332031 278.60272216796875 286.949951171875 278.6885070800781 286.659423828125 278.76934814453125 C285.86236572265625 279.00640869140625 285.0495910644531 279.2269287109375 284.23101806640625 279.44244384765625 C284.0154724121094 279.507080078125 283.8003234863281 279.5663757324219 283.5794372558594 279.6148681640625 C283.3585205078125 279.67413330078125 283.1434326171875 279.72802734375 282.9224853515625 279.786865234375 C282.4810791015625 279.9000244140625 282.0396423339844 280.0077819824219 281.5924377441406 280.11553955078125 C280.38092041015625 280.41729736328125 279.1478576660156 280.69708251953125 277.89324951171875 280.9610595703125 C277.2686462402344 281.0957946777344 276.6386413574219 281.22509765625 276.0032043457031 281.3486022949219 C275.3624572753906 281.4725341796875 274.7216796875 281.5964660644531 274.0809020996094 281.714599609375 C273.4670715332031 281.8277587890625 272.8478088378906 281.93548583984375 272.2286071777344 282.04327392578125 C272.1693115234375 282.0540771484375 272.11541748046875 282.0594482421875 272.05615234375 282.0702209472656 C271.48004150390625 282.167236328125 270.8985595703125 282.2587890625 270.3116455078125 282.35040283203125 C269.82171630859375 282.42584228515625 269.3264465332031 282.5008544921875 268.8311462402344 282.5709228515625 C268.3358459472656 282.6463623046875 267.8405456542969 282.71636962890625 267.3394470214844 282.7810363769531 C267.0915832519531 282.8187561035156 266.8387451171875 282.85107421875 266.58551025390625 282.8780212402344 C265.59490966796875 283.01275634765625 264.5984802246094 283.130859375 263.59173583984375 283.2386169433594 C263.0910339355469 283.2978820800781 262.5849609375 283.3517761230469 262.0788879394531 283.3998718261719 C261.7344665527344 283.43218994140625 261.3896484375 283.46453857421875 261.0451965332031 283.496826171875 C260.06536865234375 283.59381103515625 259.0743408203125 283.67962646484375 258.0729675292969 283.7496643066406 C257.4322204589844 283.8035888671875 256.7806701660156 283.8466796875 256.1344909667969 283.8897705078125 C255.54220581054688 283.927490234375 254.94992065429688 283.9598083496094 254.35760498046875 283.99212646484375 C253.60369873046875 284.03521728515625 252.83941650390625 284.0729675292969 252.07470703125 284.09991455078125 C251.70867919921875 284.1160888671875 251.3369140625 284.1322326660156 250.96554565429688 284.14300537109375 C250.64266967773438 284.1537780761719 250.31399536132812 284.16455078125 249.9857177734375 284.17535400390625 C249.65704345703125 284.18609619140625 249.32879638671875 284.1968994140625 249.00054931640625 284.2022705078125 C248.38665771484375 284.21844482421875 247.77822875976562 284.229248046875 247.17514038085938 284.239990234375 C246.56671142578125 284.25079345703125 245.96905517578125 284.25616455078125 245.36599731445312 284.26153564453125 C243.48672485351562 284.2777099609375 241.64520263671875 284.2723388671875 239.84182739257812 284.2453918457031 C239.3465576171875 284.239990234375 238.85122680664062 284.229248046875 238.35595703125 284.21844482421875 C236.72454833984375 284.18072509765625 235.13088989257812 284.1268310546875 233.56378173828125 284.0567932128906 C232.670166015625 284.013671875 231.78689575195312 283.9652099609375 230.91485595703125 283.91668701171875 C230.76397705078125 283.91131591796875 230.61309814453125 283.9005432128906 230.46804809570312 283.8897705078125 C229.95120239257812 283.857421875 229.43972778320312 283.82513427734375 228.93365478515625 283.79278564453125 C228.54611206054688 283.765869140625 228.16354370117188 283.7388916015625 227.78140258789062 283.7065734863281 C225.8375244140625 283.56109619140625 223.95330810546875 283.38909912109375 222.1171875 283.189697265625 C222.70947265625 269.9873962402344 224.79843139648438 248.1217041015625 232.07830810546875 244.2770233154297 C242.63168334960938 238.6990203857422 268.1157531738281 231.9952850341797 275.39520263671875 238.98956298828125 C281.28570556640625 244.64883422851562 289.5400390625 264.3824462890625 289.9760437011719 277.75177001953125 Z"></path>
<path fill="#DBD843" fill-opacity="1.0"  filling="0" d="M306.23138427734375 270.6551208496094 C305.4666748046875 271.0965576171875 304.68084716796875 271.532958984375 303.87298583984375 271.963623046875 C302.2093200683594 272.841064453125 300.4593811035156 273.6866149902344 298.623291015625 274.483642578125 C294.5364990234375 266.2616882324219 288.0644836425781 251.75625610351562 288.0644836425781 242.24197387695312 C288.0644836425781 232.23236083984375 301.26141357421875 224.24208068847656 311.0986022949219 221.12437438964844 C312.45556640625 222.416748046875 313.7151794433594 223.73062133789062 314.86785888671875 225.04949951171875 C315.58404541015625 225.85189819335938 316.25177001953125 226.6593017578125 316.88714599609375 227.46173095703125 C321.1517028808594 232.8731231689453 323.71978759765625 238.21946716308594 324.35516357421875 242.43011474609375 C325.986572265625 253.2313690185547 319.0838928222656 263.1709289550781 306.23138427734375 270.6551208496094 Z"></path>
<path fill="#DBD843" fill-opacity="1.0"  filling="0" d="M216.68463134765625 282.50042724609375 C215.66708374023438 282.35498046875 214.66571044921875 282.1986999511719 213.68548583984375 282.0374755859375 C212.7864990234375 281.8865966796875 211.89785766601562 281.7303466796875 211.03118896484375 281.563720703125 C192.99899291992188 278.1932067871094 181.86944580078125 272.092529296875 178.22994995117188 265.79827880859375 C177.6107177734375 264.72686767578125 177.20703125 263.6500549316406 177.0238037109375 262.57861328125 C176.975341796875 262.3258056640625 176.9429931640625 262.06719970703125 176.92681884765625 261.8139343261719 C176.835205078125 260.5862731933594 177.18008422851562 258.938720703125 177.92282104492188 256.9732666015625 C177.96591186523438 256.865478515625 178.009033203125 256.7527770996094 178.05215454101562 256.6396179199219 C181.62203979492188 251.244384765625 186.34414672851562 245.99462890625 191.157470703125 246.1616668701172 C200.98388671875 246.49571228027344 214.08917236328125 247.40550231933594 216.80319213867188 250.95382690429688 C218.82748413085938 253.59735107421875 220.0228271484375 270.27838134765625 216.68463134765625 282.50042724609375 Z"></path>
<path fill="#DBD843" fill-opacity="1.0"  filling="0" d="M239.35772705078125 229.77700805664062 C234.9912109375 235.05908203125 222.79568481445312 242.93618774414062 216.05960083007812 243.09246826171875 C210.34689331054688 243.2271728515625 199.49713134765625 239.5818634033203 189.13232421875 239.5818634033203 C190.4300537109375 238.04705810546875 191.82437133789062 236.49649047851562 193.3052978515625 234.93516540527344 C194.04302978515625 234.15966796875 194.8023681640625 233.37921142578125 195.58819580078125 232.59835815429688 C205.05401611328125 223.17025756835938 217.6640625 213.80682373046875 232.39535522460938 207.95980834960938 C233.25164794921875 207.6149444580078 234.1129150390625 207.2866973876953 234.98541259765625 206.97457885742188 C236.20773315429688 206.5277862548828 237.44076538085938 206.10791015625 238.69000244140625 205.71458435058594 C240.3541259765625 214.19476318359375 242.1309814453125 226.4226531982422 239.35772705078125 229.77700805664062 Z"></path>
<path fill="#DBD843" fill-opacity="1.0"  filling="0" d="M305.2623291015625 216.15481567382812 C298.348876953125 221.73324584960938 287.2463073730469 228.12405395507812 285.2220458984375 228.87261962890625 C280.305908203125 230.69796752929688 251.96817016601562 232.4586639404297 248.823974609375 230.32659912109375 C243.88629150390625 226.9884033203125 245.14627075195312 214.3406524658203 244.8018798828125 204.03469848632812 C246.60031127929688 203.61485290527344 248.42022705078125 203.24887084960938 250.26174926757812 202.9471435546875 C251.14999389648438 202.80165100097656 252.04940795898438 202.6727294921875 252.94839477539062 202.55960083007812 C254.88690185546875 202.3067626953125 256.8465576171875 202.12896728515625 258.8335876464844 202.02658081054688 C274.135986328125 201.2349090576172 287.3221740722656 205.21389770507812 297.773193359375 211.20143127441406 C298.6133117675781 211.68057250976562 299.4314880371094 212.17047119140625 300.23394775390625 212.67654418945312 C301.8383483886719 213.6833038330078 303.37811279296875 214.74435424804688 304.8375244140625 215.83193969726562 C304.9767761230469 215.9392852783203 305.12225341796875 216.04705810546875 305.2623291015625 216.15481567382812 Z"></path></svg>