<svg xmlns="http://www.w3.org/2000/svg" viewBox="0.0 0.0 512.0 512.0" height="512.0px" width="512.0px"><path fill="#E5456C" fill-opacity="1.0"  filling="0" d="M407.85736083984375 330.49249267578125 L407.85736083984375 334.1822509765625 C407.85736083984375 334.1822509765625 319.6761474609375 357.0904541015625 303.1007080078125 361.620361328125 C282.7335205078125 367.1864013671875 248.250732421875 376.3665771484375 226.51220703125 379.823486328125 C190.3468017578125 385.57275390625 163.3221435546875 383.4373779296875 139.67333984375 380.86236572265625 C117.25189208984375 378.42333984375 99.73709106445312 371.6483154296875 99.73709106445312 371.6483154296875 L99.73709106445312 367.55548095703125 L361.71112060546875 323.1259765625 L407.85736083984375 330.49249267578125 Z"></path>
<path fill="#CA2D4C" fill-opacity="1.0"  filling="0" d="M381.7774658203125 302.654052734375 C381.7774658203125 302.654052734375 263.3580322265625 309.08892822265625 214.30181884765625 320.7760009765625 C138.75225830078125 338.77490234375 99.7396240234375 367.55548095703125 99.7396240234375 367.55548095703125 C99.7396240234375 367.55548095703125 162.707275390625 390.28057861328125 243.1712646484375 372.7421875 C303.6502685546875 359.5582275390625 407.8599853515625 330.49249267578125 407.8599853515625 330.49249267578125 L381.7774658203125 302.654052734375 Z"></path>
<path fill="#FFCCA9" fill-opacity="1.0"  filling="0" d="M273.6109619140625 115.43133544921875 C274.5531005859375 113.87164306640625 275.22821044921875 113.099609375 274.6368408203125 111.02703857421875 C273.6947021484375 107.732421875 275.20458984375 103.4642333984375 276.3770751953125 102.0040283203125 C279.7501220703125 97.7987060546875 281.2601318359375 98.14938354492188 281.2601318359375 98.14938354492188 C285.386962890625 98.14938354492188 295.89111328125 107.21951293945312 296.8619384765625 109.527587890625 C297.634033203125 111.35940551757812 299.96826171875 116.11166381835938 301.187744140625 120.96337890625 C301.50445556640625 122.21951293945312 301.76348876953125 123.48345947265625 301.878662109375 124.70559692382812 C301.88909912109375 124.80755615234375 302.1402587890625 125.51156616210938 302.55377197265625 126.48507690429688 C299.85833740234375 128.12326049804688 295.01446533203125 130.789794921875 289.6131591796875 132.43319702148438 C288.8046875 130.47845458984375 287.7003173828125 129.57034301757812 286.49658203125 129.02081298828125 C284.1177978515625 128.90567016601562 281.6160888671875 130.40249633789062 280.51171875 130.60406494140625 C278.7506103515625 130.92852783203125 276.2174072265625 129.99166870117188 276.2462158203125 128.3587646484375 C276.269775390625 127.10787963867188 276.01849365234375 127.10528564453125 275.5946044921875 126.84091186523438 C274.99267578125 126.46670532226562 274.6917724609375 126.18408203125 275.0947265625 125.49063110351562 C274.41180419921875 125.15042114257812 273.6162109375 124.95938110351562 274.2259521484375 124.1063232421875 C274.759765625 123.35784912109375 274.73626708984375 122.76385498046875 273.45916748046875 122.03631591796875 C272.7186279296875 121.61505126953125 270.8214111328125 121.6124267578125 270.8658447265625 120.60488891601562 C270.9234619140625 119.3487548828125 272.9986572265625 116.44403076171875 273.6109619140625 115.43133544921875 Z"></path>
<path fill="#6B2415" fill-opacity="1.0"  filling="0" d="M310.16363525390625 94.025146484375 C312.79888916015625 97.0084228515625 312.529296875 101.5487060546875 309.56182861328125 104.17083740234375 C306.5943603515625 106.79034423828125 302.0565185546875 106.49725341796875 299.42138671875 103.51397705078125 C296.7861328125 100.53076171875 297.0556640625 95.99044799804688 300.023193359375 93.37094116210938 C302.9881591796875 90.74880981445312 307.5284423828125 91.0445556640625 310.16363525390625 94.025146484375 Z"></path>
<path fill="#6D2F06" fill-opacity="1.0"  filling="0" d="M277.9786376953125 100.31353759765625 C277.9786376953125 100.31353759765625 280.5274658203125 105.8848876953125 283.5211181640625 109.26589965820312 C284.66473388671875 110.55865478515625 287.0697021484375 112.097412109375 290.291015625 112.55010986328125 C291.473876953125 109.9776611328125 293.418212890625 109.40982055664062 294.43096923828125 109.75527954101562 C295.443603515625 110.1007080078125 296.8123779296875 111.34371948242188 296.99029541015625 113.5498046875 C297.1158447265625 115.12777709960938 296.0482177734375 117.68707275390625 296.0482177734375 117.68707275390625 C296.0482177734375 117.68707275390625 300.423583984375 122.67742919921875 301.9466552734375 125.05096435546875 C302.43597412109375 122.7926025390625 303.08502197265625 122.22216796875 305.02154541015625 119.801513671875 C306.9578857421875 117.38092041015625 308.47320556640625 113.7957763671875 308.32403564453125 109.26589965820312 C308.1827392578125 104.96112060546875 306.72509765625 101.16925048828125 302.490966796875 97.23086547851562 C298.7567138671875 93.75299072265625 288.9852294921875 89.30691528320312 277.9786376953125 100.31353759765625 Z"></path>
<path fill="#14293D" fill-opacity="1.0"  filling="0" d="M267.18389892578125 258.37890625 C268.9345703125 248.24362182617188 283.348388671875 209.087158203125 283.348388671875 209.087158203125 L322.46307373046875 209.087158203125 C322.46307373046875 209.087158203125 324.9202880859375 219.0679931640625 322.46307373046875 231.966552734375 C320.005859375 244.86529541015625 311.8568115234375 265.44189453125 311.8568115234375 265.44189453125 L314.3873291015625 279.2066650390625 L300.1593017578125 284.20758056640625 C297.68634033203125 275.65557861328125 295.7969970703125 268.61090087890625 295.74462890625 266.8994140625 C295.4749755859375 258.08050537109375 297.28863525390625 233.99993896484375 297.28863525390625 233.99993896484375 C297.28863525390625 233.99993896484375 289.0767822265625 250.25341796875 285.2430419921875 263.57861328125 C283.385009765625 270.03973388671875 280.4410400390625 277.5579833984375 278.331787109375 285.1286926269531 L263.91015625 282.47259521484375 C264.87841796875 271.7354736328125 266.73638916015625 260.9696044921875 267.18389892578125 258.37890625 Z"></path>
<path fill="#CA2D4C" fill-opacity="1.0"  filling="0" d="M283.0474853515625 152.481201171875 C283.1468505859375 145.06500244140625 289.07421875 136.21725463867188 289.07421875 136.21725463867188 L289.07421875 136.21725463867188 C289.85400390625 135.51589965820312 290.36688232421875 134.576416015625 289.908935546875 133.17901611328125 C289.8173828125 132.90167236328125 289.71533203125 132.67132568359375 289.6131591796875 132.427978515625 C295.01446533203125 130.78460693359375 299.85577392578125 128.12063598632812 302.55377197265625 126.482421875 C302.9725341796875 127.47683715820312 303.5587158203125 128.75128173828125 304.2259521484375 129.96548461914062 C305.1549072265625 131.65597534179688 306.5445556640625 132.38613891601562 307.8712158203125 132.81005859375 C307.588623046875 136.1361083984375 307.4290771484375 140.89361572265625 308.3319091796875 144.49972534179688 C309.6324462890625 149.70468139648438 311.974609375 157.7071533203125 317.32611083984375 160.03878784179688 C316.7137451171875 166.61505126953125 315.816162109375 178.6474609375 316.83154296875 184.36798095703125 C318.8465576171875 195.73577880859375 322.46307373046875 209.0897216796875 322.46307373046875 209.0897216796875 L283.348388671875 209.0897216796875 C283.348388671875 209.0897216796875 286.94140625 195.83261108398438 286.7373046875 186.72320556640625 C286.5384521484375 177.89117431640625 283.4453125 162.3494873046875 283.005615234375 160.177490234375 C283.00299072265625 157.61819458007812 283.01611328125 154.9071044921875 283.0474853515625 152.481201171875 Z"></path>
<path fill="#FFCCA9" fill-opacity="1.0"  filling="0" d="M307.8739013671875 132.80743408203125 C308.0283203125 132.857177734375 308.1827392578125 132.919921875 308.33447265625 132.96188354492188 C311.36224365234375 133.78094482421875 315.714111328125 135.00042724609375 318.2969970703125 135.9058837890625 C320.3590087890625 136.62811279296875 324.64556884765625 139.87570190429688 329.10986328125 145.93377685546875 C332.258056640625 150.2071533203125 335.38525390625 154.41250610351562 338.156494140625 158.05520629882812 C340.78125 161.44146728515625 344.957763671875 166.72491455078125 346.17474365234375 167.94174194335938 C350.0006103515625 171.770263671875 372.00860595703125 185.4827880859375 377.11419677734375 186.75982666015625 C380.10784912109375 187.50827026367188 390.0311279296875 191.145751953125 393.9381103515625 193.21832275390625 C403.80902099609375 198.4547119140625 401.35443115234375 200.55343627929688 392.26336669921875 199.99609375 C387.6026611328125 199.7108154296875 385.07470703125 197.35299682617188 382.85302734375 198.24273681640625 C381.58123779296875 198.75042724609375 381.02374267578125 200.70791625976562 380.0633544921875 203.02642822265625 C378.707763671875 206.294921875 376.54095458984375 205.57794189453125 376.54095458984375 205.57794189453125 C376.54095458984375 205.57794189453125 377.119384765625 195.23333740234375 373.1259765625 193.69720458984375 C366.90570068359375 191.30535888671875 347.768310546875 181.7354736328125 342.4534912109375 178.04296875 C340.1297607421875 176.42837524414062 335.39306640625 172.24923706054688 331.46514892578125 168.66146850585938 L331.45208740234375 168.67193603515625 C331.0987548828125 168.3448486328125 330.7637939453125 168.02291870117188 330.4105224609375 167.69317626953125 C330.18548583984375 167.4864501953125 329.95001220703125 167.26922607421875 329.7354736328125 167.07037353515625 L329.74072265625 167.0625 C328.80908203125 166.1884765625 327.86431884765625 165.30923461914062 326.971923828125 164.45867919921875 C326.527099609375 163.9954833984375 326.07696533203125 163.56634521484375 325.62432861328125 163.16860961914062 C321.2017822265625 158.92401123046875 317.78668212890625 155.50106811523438 317.78668212890625 155.50106811523438 C317.78668212890625 155.50106811523438 317.58001708984375 157.31201171875 317.32611083984375 160.0361328125 C311.974609375 157.70452880859375 309.63507080078125 149.70205688476562 308.3319091796875 144.4970703125 C307.431640625 140.89105224609375 307.59124755859375 136.13348388671875 307.8739013671875 132.80743408203125 Z"></path>
<path fill="#FFCCA9" fill-opacity="1.0"  filling="0" d="M210.619873046875 201.00616455078125 C214.1317138671875 198.1904296875 221.7913818359375 192.27105712890625 228.69207763671875 189.37939453125 C239.855712890625 184.70034790039062 254.87139892578125 177.5850830078125 257.6845703125 173.36138916015625 C261.20166015625 168.0831298828125 273.6475830078125 147.30764770507812 279.7738037109375 141.98226928710938 C282.03472900390625 140.01693725585938 284.42919921875 138.97021484375 286.938720703125 137.58062744140625 C287.577392578125 137.22732543945312 288.4173583984375 136.80609130859375 289.07421875 136.21725463867188 L289.07421875 136.21725463867188 C289.07421875 136.21725463867188 283.1468505859375 145.06500244140625 283.0474853515625 152.481201171875 C283.01348876953125 154.9071044921875 283.00299072265625 157.61819458007812 283.00299072265625 160.1722412109375 C282.968994140625 160.0047607421875 282.94805908203125 159.89752197265625 282.94805908203125 159.89752197265625 C282.94805908203125 159.89752197265625 275.5369873046875 169.9359130859375 268.9345703125 177.43063354492188 C267.016357421875 179.60784912109375 265.1636962890625 181.58099365234375 263.58306884765625 183.01507568359375 C256.5672607421875 189.39508056640625 238.1573486328125 192.18994140625 230.963623046875 197.8424072265625 C228.73138427734375 199.59564208984375 229.490234375 202.387939453125 230.2333984375 204.9393310546875 C230.72015380859375 206.60888671875 229.9508056640625 208.0665283203125 228.958984375 206.85232543945312 C227.899169921875 205.55435180664062 226.7398681640625 203.79055786132812 225.60931396484375 202.544921875 C224.5469970703125 201.3751220703125 219.94903564453125 204.77716064453125 216.4398193359375 206.3734130859375 C211.7608642578125 208.5035400390625 204.23724365234375 206.12481689453125 210.619873046875 201.00616455078125 Z"></path>
<path fill="#FFCCA9" fill-opacity="1.0"  filling="0" d="M300.1593017578125 334.7972412109375 C304.71014404296875 332.2667236328125 308.33447265625 329.1290283203125 310.0067138671875 325.87628173828125 C311.5350341796875 322.9061279296875 310.8597412109375 319.6036376953125 310.8597412109375 319.6036376953125 L310.8597412109375 319.6036376953125 C308.69305419921875 312.63739013671875 303.79681396484375 296.7947998046875 300.1593017578125 284.20758056640625 L314.3873291015625 279.2066650390625 C314.3873291015625 279.2066650390625 317.85736083984375 306.3489990234375 321.39794921875 318.1041259765625 C322.40283203125 321.43798828125 323.78460693359375 323.895263671875 325.3206787109375 326.04376220703125 C326.8568115234375 328.19219970703125 326.24188232421875 331.00799560546875 321.02117919921875 333.10675048828125 C315.8004150390625 335.20550537109375 312.1656494140625 341.81048583984375 305.53955078125 342.425537109375 C298.916259765625 343.04046630859375 294.9150390625 342.32080078125 294.917724609375 340.3240966796875 C294.917724609375 338.327392578125 296.6552734375 336.746826171875 300.1593017578125 334.7972412109375 Z"></path>
<path fill="#FFCCA9" fill-opacity="1.0"  filling="0" d="M237.6392822265625 334.95166015625 C241.23486328125 333.0413818359375 252.1917724609375 328.58734130859375 254.2852783203125 324.71435546875 C259.2939453125 315.4505615234375 259.8016357421875 301.1728515625 263.91015625 282.47515869140625 L278.331787109375 285.13134765625 C275.0738525390625 296.8392333984375 268.97125244140625 312.4150390625 266.20263671875 321.746826171875 C264.88623046875 326.18505859375 267.7491455078125 332.9052734375 263.91015625 333.3658447265625 C260.0711669921875 333.826416015625 253.56036376953125 338.060546875 251.5635986328125 339.099365234375 C246.44500732421875 341.7608642578125 240.954833984375 342.11669921875 239.484130859375 341.7608642578125 C235.24737548828125 340.73492431640625 232.727294921875 337.5606689453125 237.6392822265625 334.95166015625 Z"></path></svg>