<svg xmlns="http://www.w3.org/2000/svg" viewBox="0.0 0.0 512.0 512.0" height="512.0px" width="512.0px"><path fill="#F29481" fill-opacity="1.0"  filling="0" d="M257.17401123046875 378.47039794921875 C257.79302978515625 374.3999938964844 258.43658447265625 369.965576171875 259.15545654296875 365.54498291015625 C259.3766174316406 364.1871337890625 260.08319091796875 363.59576416015625 261.5147399902344 363.68487548828125 C265.122802734375 363.90911865234375 268.68634033203125 364.5066223144531 272.120849609375 365.64788818359375 C274.2528076171875 366.3575134277344 274.81036376953125 367.44036865234375 274.13909912109375 369.7290344238281 C273.0178527832031 373.5459899902344 271.70916748046875 377.3091735839844 270.466552734375 381.0908203125 C270.351318359375 381.44256591796875 270.160888671875 381.7728271484375 269.981201171875 382.0984191894531 C268.8875732421875 384.07830810546875 267.926025390625 384.58367919921875 265.7295227050781 384.1075439453125 C263.66668701171875 383.6605529785156 261.5946044921875 383.1966857910156 259.59783935546875 382.52545166015625 C257.6363525390625 381.8664855957031 257.08953857421875 380.8511962890625 257.17401123046875 378.47039794921875 Z"></path>
<path fill="#F29481" fill-opacity="1.0"  filling="0" d="M220.9766082763672 393.18682861328125 C221.21009826660156 390.5771484375 221.40823364257812 387.962890625 221.68934631347656 385.3593444824219 C221.90745544433594 383.33642578125 222.54949951171875 382.65753173828125 224.4341583251953 382.45477294921875 C227.57530212402344 382.11688232421875 230.66262817382812 382.62835693359375 233.72235107421875 383.2458190917969 C234.90969848632812 383.4854431152344 235.6884307861328 384.48077392578125 235.62698364257812 385.7110900878906 C235.4396209716797 389.44818115234375 235.20458984375 393.196044921875 233.97425842285156 396.7718505859375 C233.24005126953125 398.9068603515625 232.2401123046875 399.5888671875 230.05287170410156 399.467529296875 C228.06219482421875 399.35845947265625 226.07000732421875 399.14495849609375 224.0962371826172 398.8485107421875 C221.6463165283203 398.48138427734375 221.01809692382812 397.6473388671875 220.9766082763672 395.06072998046875 C220.96742248535156 394.4371337890625 220.9766082763672 393.8135070800781 220.9766082763672 393.18682861328125 Z"></path>
<path fill="#000000" fill-opacity="1.0"  filling="0" d="M259.89581298828125 394.25433349609375 C259.04486083984375 394.46014404296875 258.814453125 395.0545959472656 258.5379638671875 395.6075439453125 C257.5318908691406 397.6150817871094 256.49969482421875 399.60882568359375 255.52279663085938 401.6317443847656 C254.06976318359375 404.63922119140625 253.18807983398438 403.79595947265625 251.03155517578125 403.2890930175781 C250.9132843017578 403.2614440917969 250.8026580810547 403.19232177734375 250.69667053222656 403.1278076171875 C250.24203491210938 402.8482666015625 249.92713928222656 402.41510009765625 249.98092651367188 401.908203125 C250.07154846191406 401.04498291015625 250.24203491210938 400.18023681640625 250.46783447265625 399.34002685546875 C252.21270751953125 392.8350524902344 253.97911071777344 386.33624267578125 255.74244689941406 379.8374328613281 C255.87301635742188 379.356689453125 256.0343017578125 378.8820495605469 256.2001953125 378.4120178222656 C256.87603759765625 376.50738525390625 257.35064697265625 376.10498046875 259.1877136230469 376.44744873046875 C262.740478515625 377.10797119140625 266.2686767578125 377.8974609375 269.80914306640625 378.6332092285156 C270.8152160644531 378.84210205078125 271.3175048828125 379.45654296875 271.246826171875 380.4841003417969 C271.1700439453125 381.6038513183594 271.06866455078125 382.7220458984375 270.95654296875 383.8387145996094 C270.79522705078125 385.4576721191406 270.78759765625 387.06585693359375 270.97802734375 388.6924743652344 C271.42193603515625 392.49407958984375 273.1253662109375 395.5645751953125 276.148193359375 397.8900451660156 C277.9284362792969 399.25860595703125 279.75933837890625 400.5611572265625 281.56109619140625 401.90057373046875 C283.2169189453125 403.130859375 283.3182373046875 403.3966064453125 282.77911376953125 404.943359375 C281.923583984375 407.3963623046875 281.37060546875 407.9969482421875 279.50897216796875 407.8018493652344 C274.7857666015625 407.3072509765625 270.134765625 406.4378967285156 265.65582275390625 404.78363037109375 C262.90020751953125 403.76678466796875 261.6268615722656 401.55340576171875 260.89727783203125 398.9376220703125 C260.4687194824219 397.4046936035156 260.2244873046875 395.821044921875 259.89581298828125 394.25433349609375 Z"></path>
<path fill="#000000" fill-opacity="1.0"  filling="0" d="M225.73208618164062 411.1226806640625 C224.8504180908203 413.7016296386719 224.13003540039062 415.81976318359375 223.40504455566406 417.9348449707031 C223.12240600585938 418.76123046875 222.87205505371094 419.6014099121094 222.53257751464844 420.4031982421875 C221.90591430664062 421.88543701171875 221.26080322265625 422.19879150390625 219.58193969726562 421.949951171875 C217.69419860839844 421.6703796386719 217.20730590820312 421.128173828125 217.42080688476562 419.22509765625 C217.9614715576172 414.3897705078125 218.54820251464844 409.55902099609375 219.14111328125 404.7298583984375 C219.4913330078125 401.8821105957031 219.84921264648438 399.03436279296875 220.2823486328125 396.1973876953125 C220.5311737060547 394.5661315917969 221.1210174560547 394.060791015625 222.81983947753906 394.10382080078125 C226.18826293945312 394.1898193359375 229.55670166015625 394.33111572265625 232.91751098632812 394.55694580078125 C234.9788055419922 394.6951599121094 235.2291717529297 395.0392150878906 235.4242401123047 397.0314025878906 C235.60549926757812 398.89459228515625 235.72222900390625 400.76544189453125 235.9802703857422 402.6163024902344 C236.58238220214844 406.935546875 238.58993530273438 410.3946228027344 242.4483642578125 412.60186767578125 C244.61257934570312 413.8398742675781 246.8367156982422 414.9703369140625 249.02093505859375 416.1730651855469 C250.355712890625 416.9088134765625 250.5753631591797 417.38958740234375 250.33111572265625 418.90252685546875 C250.2512664794922 419.39251708984375 250.1468048095703 419.88555908203125 249.98704528808594 420.35406494140625 C249.6383819580078 421.3785400390625 248.985595703125 422.0728454589844 247.83050537109375 422.1219787597656 C242.95372009277344 422.329345703125 238.10150146484375 422.2080078125 233.30764770507812 421.1481628417969 C230.4429931640625 420.51531982421875 228.9622802734375 418.450927734375 227.7857208251953 415.99639892578125 C227.08531188964844 414.5464172363281 227.03921508789062 412.8353271484375 225.73208618164062 411.1226806640625 Z"></path>
<path fill="#F7468E" fill-opacity="1.0"  filling="0" d="M246.9995574951172 298.7228088378906 C246.61093139648438 299.9193420410156 247.18231201171875 300.9653625488281 247.43115234375 301.99603271484375 C248.6676483154297 307.11859130859375 249.3388671875 312.30413818359375 249.72593688964844 317.560302734375 C250.1114959716797 322.79656982421875 250.81495666503906 328.0097351074219 251.4370574951172 333.2259826660156 C251.9454803466797 337.4960632324219 251.65667724609375 341.7261962890625 250.90711975097656 345.93023681640625 C250.51083374023438 348.15283203125 249.74436950683594 350.2878723144531 248.6753387451172 352.2816162109375 C247.37586975097656 354.70538330078125 246.12709045410156 357.17376708984375 244.6141357421875 359.46240234375 C240.5253143310547 365.6540222167969 238.26429748535156 372.4508056640625 237.4287109375 379.7806396484375 C237.2874298095703 381.01708984375 237.03089904785156 382.2535705566406 236.68836975097656 383.4501037597656 C236.26441955566406 384.927734375 235.16004943847656 385.8416748046875 233.64707946777344 385.7940368652344 C230.1542205810547 385.6819152832031 226.62757873535156 385.7387390136719 223.19769287109375 384.953857421875 C220.98585510253906 384.44696044921875 220.40676879882812 383.5791320800781 220.32843017578125 381.212158203125 C220.2915802001953 380.0877990722656 220.2992706298828 378.9573059082031 220.3714599609375 377.83447265625 C220.8291778564453 370.7197570800781 221.25927734375 363.6003723144531 221.81834411621094 356.4933166503906 C221.98423767089844 354.38592529296875 222.49728393554688 352.30157470703125 222.92581176757812 350.2218322753906 C223.17771911621094 348.9991455078125 223.51409912109375 347.7872314453125 223.91806030273438 346.6060791015625 C226.31422424316406 339.5972900390625 225.5631103515625 332.8266296386719 222.54641723632812 326.1741943359375 C221.2515869140625 323.3203125 219.83230590820312 320.5401611328125 218.17344665527344 317.88592529296875 C215.45469665527344 313.53753662109375 212.68836975097656 309.2182922363281 209.96966552734375 304.869873046875 C208.11260986328125 301.90081787109375 206.2633056640625 298.9270935058594 204.48304748535156 295.91192626953125 C198.587890625 285.929443359375 197.865966796875 275.39404296875 201.18679809570312 264.4346923828125 C202.67979431152344 259.51025390625 204.71498107910156 254.8024139404297 207.0328369140625 250.22821044921875 C209.3506317138672 245.65554809570312 211.84048461914062 241.1719512939453 214.27352905273438 236.6576690673828 C216.40855407714844 232.69476318359375 218.59889221191406 228.76107788085938 220.7001495361328 224.77976989746094 C221.37139892578125 223.50796508789062 222.2637939453125 222.88742065429688 223.6968994140625 223.09170532226562 C225.6768035888672 223.37586975097656 227.65208435058594 223.70301818847656 229.63812255859375 223.93190002441406 C236.4718017578125 224.71986389160156 243.31466674804688 225.42337036132812 250.14064025878906 226.2666015625 C252.74111938476562 226.587646484375 255.3139190673828 227.16055297851562 257.882080078125 227.69357299804688 C260.1323547363281 228.16049194335938 261.2520751953125 229.7195587158203 261.5546875 231.9037322998047 C261.8495788574219 234.02801513671875 261.6637268066406 236.1538543701172 261.391845703125 238.26585388183594 C261.1522521972656 240.1243896484375 260.8650207519531 241.97988891601562 260.53936767578125 243.82615661621094 C258.7330322265625 254.10354614257812 260.8511962890625 263.72198486328125 265.4837646484375 272.88885498046875 C266.26556396484375 274.43560791015625 267.2670593261719 275.9346923828125 268.4328918457031 277.21417236328125 C271.5463562011719 280.6333312988281 274.55694580078125 284.1553649902344 278.00677490234375 287.2626953125 C281.448974609375 290.36236572265625 284.73907470703125 293.62176513671875 287.71734619140625 297.17913818359375 C289.56671142578125 299.3894348144531 291.3116149902344 301.67962646484375 292.66326904296875 304.23553466796875 C294.89666748046875 308.4579772949219 295.6938171386719 312.90313720703125 294.92425537109375 317.6662902832031 C294.1762390136719 322.29119873046875 292.6617431640625 326.62884521484375 290.4913635253906 330.74993896484375 C289.67578125 332.2982177734375 288.7987060546875 333.8204040527344 287.8494567871094 335.2888488769531 C281.99114990234375 344.3420104980469 278.28173828125 354.2184753417969 276.3770751953125 364.8092041015625 C275.6567077636719 368.8135681152344 274.9363098144531 369.4418029785156 270.919677734375 369.32965087890625 C267.92291259765625 369.2467041015625 264.9200439453125 369.0301513671875 261.94482421875 368.6645812988281 C258.84979248046875 368.2851867675781 258.4289245605469 366.9765319824219 258.27069091796875 364.79998779296875 C258.08026123046875 362.1734313964844 257.96966552734375 359.55914306640625 258.19085693359375 356.9295349121094 C258.59942626953125 352.0680847167969 258.914306640625 347.19744873046875 259.36126708984375 342.33905029296875 C259.82208251953125 337.3224792480469 261.0124816894531 332.4794616699219 263.15362548828125 327.89605712890625 C263.62982177734375 326.87615966796875 264.10137939453125 325.854736328125 264.5898132324219 324.8409423828125 C265.9630126953125 321.99169921875 265.6419677734375 319.2790832519531 263.99383544921875 316.6402587890625 C262.86181640625 314.82623291015625 261.53778076171875 313.1627502441406 260.0770568847656 311.6175537109375 C258.18621826171875 309.61767578125 256.22479248046875 307.68536376953125 254.29859924316406 305.7192687988281 C252.46002197265625 303.84228515625 250.62911987304688 301.9576416015625 248.79664611816406 300.0760192871094 C248.2759552001953 299.5445861816406 247.82745361328125 298.92401123046875 246.9995574951172 298.7228088378906 Z"></path>
<path fill="#FCAC9F" fill-opacity="1.0"  filling="0" d="M256.0143127441406 124.0028076171875 C255.931396484375 124.031982421875 255.84689331054688 124.09341430664062 255.7624053955078 124.005859375 C255.75013732910156 123.96902465820312 255.73016357421875 123.93368530273438 255.73016357421875 123.89990234375 C255.7716522216797 121.97988891601562 255.647216796875 120.06756591796875 255.4444580078125 118.15829467773438 C255.40760803222656 117.812744140625 255.39224243164062 117.46249389648438 255.47825622558594 117.10617065429688 C255.58734130859375 116.65768432617188 255.34002685546875 116.29977416992188 254.88690185546875 116.1845703125 C254.72714233398438 116.1446533203125 254.55511474609375 116.13385009765625 254.3892364501953 116.1400146484375 C253.16197204589844 116.18301391601562 251.9331817626953 116.21835327148438 250.70591735839844 116.28439331054688 C248.85655212402344 116.38424682617188 248.86734008789062 116.37347412109375 247.162353515625 115.63314819335938 C244.06423950195312 114.28915405273438 241.1719512939453 112.55191040039062 238.19056701660156 110.98367309570312 C237.97708129882812 110.87155151367188 237.77279663085938 110.74560546875 237.58541870117188 110.63803100585938 C237.53469848632812 110.52285766601562 237.60227966308594 110.47372436523438 237.64222717285156 110.41690063476562 C237.7420654296875 110.277099609375 237.7697296142578 110.13885498046875 237.61305236816406 110.02978515625 C237.48556518554688 109.94073486328125 237.3642120361328 110.00369262695312 237.26283264160156 110.09890747070312 C237.20907592773438 110.14959716796875 237.15533447265625 110.203369140625 237.1138458251953 110.26483154296875 C236.80511474609375 110.71640014648438 236.3919219970703 111.0650634765625 235.99102783203125 111.42758178710938 C235.2860107421875 112.0634765625 234.58863830566406 112.70703125 233.9312744140625 113.39517211914062 C232.39987182617188 114.99722290039062 230.91148376464844 116.63919067382812 229.33399963378906 118.19674682617188 C229.09286499023438 118.43478393554688 228.84556579589844 118.56076049804688 228.50454711914062 118.5745849609375 C227.64901733398438 118.60992431640625 226.79498291015625 118.6697998046875 225.939453125 118.72665405273438 C225.15914916992188 118.77731323242188 224.37734985351562 118.82647705078125 223.60780334472656 118.98007202148438 C222.993408203125 119.10140991210938 222.7368927001953 119.41171264648438 222.7537841796875 120.02456665039062 C222.76914978027344 120.58212280273438 222.79527282714844 121.1412353515625 222.845947265625 121.697265625 C222.98110961914062 123.16259765625 223.19615173339844 124.61874389648438 223.42039489746094 126.07333374023438 C223.44805908203125 126.2530517578125 223.52178955078125 126.43429565429688 223.4449920654297 126.66622924804688 C223.34207153320312 126.66006469726562 223.26832580566406 126.65240478515625 223.19615173339844 126.64932250976562 C221.83218383789062 126.5986328125 220.95973205566406 127.73526000976562 221.3898162841797 129.03472900390625 C221.7354278564453 130.07766723632812 222.33905029296875 130.97012329101562 223.1316375732422 131.7288818359375 C223.5478973388672 132.12823486328125 224.0547637939453 132.39398193359375 224.64767456054688 132.30026245117188 C225.00401306152344 132.24343872070312 225.0869598388672 132.40011596679688 225.18374633789062 132.67657470703125 C225.58460998535156 133.83779907226562 226.0515899658203 134.97442626953125 226.51698303222656 136.111083984375 C227.57989501953125 138.7115478515625 228.93157958984375 141.149169921875 230.74098205566406 143.30416870117188 C231.1280517578125 143.76498413085938 231.5427703857422 144.18429565429688 231.97286987304688 144.58212280273438 C231.8407745361328 147.15646362304688 230.57815551757812 148.65560913085938 229.6995849609375 151.00875854492188 C229.42308044433594 151.74606323242188 229.3017578125 152.23907470703125 229.4292449951172 153.00555419921875 C229.8332061767578 155.45703125 232.67173767089844 156.7303466796875 234.75608825683594 157.49066162109375 C241.2288055419922 159.85153198242188 248.14541625976562 158.0528564453125 253.06982421875 153.40643310546875 C253.3017578125 153.18679809570312 253.4369354248047 152.75210571289062 253.24493408203125 152.458740234375 C251.42477416992188 149.6893310546875 250.36184692382812 146.81393432617188 250.0300750732422 143.60986328125 C250.18673706054688 143.42242431640625 250.3634033203125 143.26885986328125 250.51083374023438 143.067626953125 C252.1651153564453 140.82968139648438 253.32786560058594 138.33984375 254.06207275390625 135.65335083007812 C254.56895446777344 133.80096435546875 254.86541748046875 131.90704345703125 255.14956665039062 130.01162719726562 C255.19564819335938 129.70443725585938 255.30007934570312 129.52780151367188 255.6180419921875 129.42178344726562 C256.1141662597656 129.25747680664062 256.58111572265625 128.99942016601562 256.8990478515625 128.56472778320312 C257.53497314453125 127.69378662109375 257.9681091308594 126.72921752929688 258.0986633300781 125.65399169921875 C258.2476806640625 124.42825317382812 257.186279296875 123.59881591796875 256.0143127441406 124.0028076171875 Z"></path>
<path fill="#000000" fill-opacity="1.0"  filling="0" d="M271.1546630859375 133.91156005859375 C272.14080810546875 132.79949951171875 272.532470703125 131.45547485351562 272.65997314453125 130.019287109375 C272.8673095703125 127.7030029296875 272.2130126953125 125.70928955078125 270.37744140625 124.190185546875 C269.54034423828125 123.49749755859375 268.6510009765625 122.8861083984375 267.6019287109375 122.55743408203125 C267.35614013671875 122.48065185546875 267.2701416015625 122.37924194335938 267.35919189453125 122.1165771484375 C267.509765625 121.67575073242188 267.63568115234375 121.22723388671875 267.75860595703125 120.77874755859375 C268.05194091796875 119.70355224609375 268.09649658203125 118.61761474609375 267.92291259765625 117.51321411132812 C267.6556701660156 115.82666015625 266.956787109375 114.40127563476562 265.5836181640625 113.33221435546875 C264.2749328613281 112.31387329101562 262.824951171875 111.64877319335938 261.1722106933594 111.44906616210938 C260.68377685546875 111.39071655273438 260.674560546875 111.38763427734375 260.6883850097656 110.87460327148438 C260.6990966796875 110.46142578125 260.64996337890625 110.06051635742188 260.548583984375 109.65963745117188 C260.08319091796875 107.81182861328125 259.031005859375 106.36492919921875 257.53497314453125 105.21905517578125 C256.5503845214844 104.46490478515625 255.43373107910156 104.10699462890625 254.19570922851562 104.17916870117188 C253.886962890625 104.19760131835938 253.67347717285156 104.11312866210938 253.4538116455078 103.90423583984375 C252.3494415283203 102.856689453125 251.09146118164062 102.03030395507812 249.7044219970703 101.40518188476562 C247.74449157714844 100.52352905273438 245.7062225341797 99.99972534179688 243.53431701660156 100.09957885742188 C242.56358337402344 100.14410400390625 241.60357666015625 100.2501220703125 240.65740966796875 100.47283935546875 C239.826416015625 100.66787719726562 239.0184783935547 100.71856689453125 238.21054077148438 100.31460571289062 C237.50244140625 99.96133422851562 236.72523498535156 99.8446044921875 235.93112182617188 99.85842895507812 C235.54098510742188 99.86456298828125 235.14932250976562 99.84609985351562 234.75914001464844 99.86148071289062 C233.5303497314453 99.91217041015625 232.28929138183594 99.92599487304688 231.09271240234375 100.21786499023438 C226.92861938476562 101.23159790039062 223.43577575683594 103.2652587890625 221.0872039794922 106.977783203125 C220.98585510253906 107.13754272460938 220.88600158691406 107.20974731445312 220.68630981445312 107.19589233398438 C220.25624084472656 107.1651611328125 219.83230590820312 107.24349975585938 219.41604614257812 107.35101318359375 C217.4223175048828 107.8656005859375 215.91397094726562 109.05596923828125 214.80650329589844 110.75479125976562 C213.34886169433594 112.9912109375 213.13381958007812 115.3658447265625 214.1444854736328 117.844970703125 C214.2965545654297 118.21670532226562 214.3057861328125 118.22592163085938 213.95248413085938 118.36260986328125 C211.5916748046875 119.27191162109375 209.9435577392578 120.9461669921875 208.80076599121094 123.1595458984375 C207.8069610595703 125.08566284179688 207.63800048828125 127.06561279296875 208.47360229492188 129.09158325195312 C208.59185791015625 129.3787841796875 208.5657501220703 129.53549194335938 208.3123016357422 129.74282836914062 C207.24632263183594 130.61834716796875 206.61810302734375 131.7657470703125 206.39540100097656 133.117431640625 C206.10508728027344 134.87460327148438 206.5766143798828 136.42288208007812 207.70864868164062 137.75921630859375 C207.67794799804688 137.80682373046875 207.63955688476562 137.84368896484375 207.61648559570312 137.9005126953125 C205.65655517578125 142.81109619140625 204.8977813720703 149.18399047851562 211.2506561279297 150.96572875976562 C214.87564086914062 151.9825439453125 219.0136260986328 150.551025390625 220.59877014160156 147.39300537109375 C222.8397979736328 148.72317504882812 225.7059783935547 149.24081420898438 227.83180236816406 147.92446899414062 C227.8456268310547 147.91986083984375 227.85791015625 147.91680908203125 227.87173461914062 147.91372680664062 C229.0498504638672 147.52359008789062 230.6027374267578 147.03509521484375 231.5980682373047 146.28863525390625 C232.18482971191406 145.84933471679688 232.43670654296875 145.20419311523438 232.14796447753906 144.50686645507812 C231.7409210205078 143.52536010742188 230.9053497314453 142.5638427734375 230.1619110107422 141.66525268554688 C229.76101684570312 140.24142456054688 228.85015869140625 138.9327392578125 227.68280029296875 137.90972900390625 C227.40017700195312 137.38290405273438 227.12062072753906 136.85299682617188 226.86871337890625 136.30923461914062 C226.30963134765625 135.10809326171875 225.8856964111328 133.85623168945312 225.386474609375 132.63360595703125 C225.20677185058594 132.19119262695312 225.17759704589844 132.15127563476562 224.73521423339844 132.20040893554688 C224.06399536132812 132.27264404296875 223.54483032226562 132.01150512695312 223.0855712890625 131.55380249023438 C222.4342803955078 130.904052734375 222.05490112304688 130.10073852539062 221.78610229492188 129.24053955078125 C221.63558959960938 128.75979614257812 221.7200469970703 128.27749633789062 221.89976501464844 127.8182373046875 C222.15782165527344 127.15927124023438 222.65394592285156 126.98263549804688 223.27757263183594 127.3343505859375 C223.6630859375 127.552490234375 224.0240478515625 127.53097534179688 224.38040161132812 127.29290771484375 C224.67686462402344 127.09475708007812 224.9241485595703 126.84286499023438 225.15301513671875 126.56948852539062 C225.6337890625 125.9949951171875 225.99012756347656 125.33761596679688 226.39254760742188 124.71087646484375 C226.9055938720703 123.91372680664062 227.20510864257812 123.041259765625 227.3034210205078 122.09817504882812 C227.3187713623047 121.94610595703125 227.3064727783203 121.7786865234375 227.40631103515625 121.617431640625 C227.66590881347656 121.77560424804688 227.88247680664062 121.91693115234375 228.1082763671875 122.04440307617188 C229.94070434570312 123.08120727539062 231.7655029296875 123.03817749023438 233.56259155273438 121.96450805664062 C233.78839111328125 121.829345703125 233.9113006591797 121.86929321289062 234.0940704345703 122.01214599609375 C234.8682098388672 122.61422729492188 235.7329864501953 123.03509521484375 236.68682861328125 123.27471923828125 C238.5254364013672 123.73709106445312 240.19044494628906 123.3914794921875 241.68345642089844 122.21951293945312 C242.18572998046875 121.82476806640625 242.64649963378906 121.39004516601562 242.96446228027344 120.83248901367188 C243.11192321777344 120.57443237304688 243.26553344726562 120.54678344726562 243.50514221191406 120.66506958007812 C243.62188720703125 120.721923828125 243.74937438964844 120.75723266601562 243.8722381591797 120.79718017578125 C245.05035400390625 121.18270874023438 246.21926879882812 121.1304931640625 247.38046264648438 120.721923828125 C247.95645141601562 120.51913452148438 248.43109130859375 120.17202758789062 248.8212432861328 119.70199584960938 C249.10693359375 119.3594970703125 249.3311767578125 118.97549438476562 249.58616638183594 118.51467895507812 C249.73052978515625 118.71588134765625 249.81655883789062 118.835693359375 249.90257263183594 118.95550537109375 C250.77810668945312 120.15972900390625 251.9070587158203 120.99224853515625 253.37548828125 121.32095336914062 C253.6197052001953 121.376220703125 253.7563934326172 121.52984619140625 253.88235473632812 121.72030639648438 C254.38616943359375 122.48370361328125 254.8316192626953 123.27471923828125 255.13111877441406 124.14566040039062 C255.32618713378906 124.71243286132812 255.5550537109375 124.7830810546875 256.1034240722656 124.5296630859375 C256.822265625 124.19631958007812 257.44281005859375 124.43289184570312 257.6394348144531 125.18399047851562 C257.97735595703125 126.48345947265625 257.7684326171875 128.34814453125 255.91757202148438 129.09005737304688 C255.38609313964844 129.30355834960938 255.09735107421875 129.670654296875 254.92222595214844 130.20516967773438 C254.34622192382812 131.95620727539062 253.8485565185547 133.73184204101562 253.1926727294922 135.45675659179688 C252.93463134765625 136.13568115234375 252.69041442871094 136.82687377929688 252.564453125 137.54110717773438 C252.49073791503906 137.9635009765625 252.36785888671875 138.38128662109375 252.2557373046875 138.799072265625 C251.91168212890625 139.61929321289062 251.49847412109375 140.40420532226562 250.9700927734375 141.14300537109375 C250.35723876953125 142.0001220703125 249.65220642089844 142.64987182617188 249.43869018554688 143.7127685546875 C249.16990661621094 145.049072265625 249.56619262695312 147.22561645507812 250.5492401123047 148.21475219726562 C251.83026123046875 149.50192260742188 254.27711486816406 149.1148681640625 255.90679931640625 149.16708374023438 C257.13250732421875 149.20547485351562 258.47039794921875 149.38519287109375 259.6331481933594 149.07644653320312 C259.79595947265625 149.07342529296875 259.95416259765625 149.07797241210938 260.12005615234375 149.06573486328125 C262.7527770996094 148.85989379882812 264.68505859375 147.50204467773438 265.9061584472656 145.15353393554688 C266.13812255859375 144.70654296875 266.1273498535156 144.6988525390625 266.651123046875 144.80328369140625 C267.1656799316406 144.90469360351562 267.68487548828125 144.93695068359375 268.20709228515625 144.901611328125 C270.2423095703125 144.76339721679688 272.46026611328125 143.31341552734375 272.6246337890625 140.464111328125 C272.7352294921875 138.54873657226562 272.1346435546875 136.86373901367188 271.0333251953125 135.34616088867188 C270.7568664550781 134.96524047851562 270.7292175292969 134.667236328125 270.93194580078125 134.29397583007812 C271.00262451171875 134.16647338867188 271.05792236328125 134.02056884765625 271.1546630859375 133.91156005859375 Z"></path>
<path fill="#F29481" fill-opacity="1.0"  filling="0" d="M341.9949951171875 187.50411987304688 C342.56024169921875 187.325927734375 343.331298828125 188.24444580078125 343.615478515625 188.58697509765625 C343.7936706542969 188.80047607421875 343.94110107421875 189.03704833984375 344.1008605957031 189.2628173828125 C344.46490478515625 189.56695556640625 344.8857421875 189.7666015625 345.3358154296875 189.90643310546875 C345.55853271484375 189.86953735351562 345.7582092285156 189.77127075195312 345.8995361328125 189.50555419921875 C346.14678955078125 189.04168701171875 345.8948974609375 188.50711059570312 345.57696533203125 188.13232421875 C344.76904296875 187.18307495117188 343.99639892578125 186.16778564453125 343.045654296875 185.3782958984375 C339.96746826171875 182.82391357421875 336.8878173828125 180.26187133789062 333.665283203125 177.89950561523438 C331.8650817871094 176.58160400390625 329.7822570800781 175.6492919921875 327.82080078125 174.551025390625 C325.68267822265625 173.35296630859375 323.50616455078125 173.49737548828125 321.32659912109375 174.41586303710938 C319.4695739746094 175.19921875 317.802978515625 176.31436157226562 316.20709228515625 177.52166748046875 C310.61761474609375 181.74716186523438 305.0880126953125 186.0418701171875 300.18817138671875 191.08453369140625 C298.5323486328125 192.7879638671875 296.8304443359375 194.4483642578125 295.11322021484375 196.09188842773438 C294.6124572753906 196.57110595703125 294.213134765625 197.31607055664062 293.0411376953125 197.09796142578125 C291.66949462890625 195.25628662109375 290.1918640136719 193.248779296875 288.6881103515625 191.2596435546875 C287.9354553222656 190.26275634765625 287.1628723144531 189.27664184570312 286.34881591796875 188.33047485351562 C285.79736328125 187.6915283203125 285.0769958496094 187.5870361328125 284.31976318359375 187.9925537109375 C281.7899475097656 189.34732055664062 279.2601318359375 190.70513916015625 276.7349548339844 192.06759643554688 C276.2956848144531 192.30410766601562 275.8548278808594 192.54681396484375 275.4462585449219 192.83096313476562 C274.42327880859375 193.54367065429688 274.1959533691406 194.21951293945312 274.7427673339844 195.40682983398438 C275.21124267578125 196.42367553710938 275.8026123046875 197.38674926757812 276.3908996582031 198.34213256835938 C277.1773376464844 199.62008666992188 278.0682067871094 200.8335418701172 278.814697265625 202.1329803466797 C281.19244384765625 206.2678985595703 284.08013916015625 210.04029846191406 287.01849365234375 213.77586364746094 C287.7864990234375 214.75277709960938 288.658935546875 215.67588806152344 289.60662841796875 216.4792022705078 C292.48663330078125 218.92298889160156 294.6539306640625 218.95062255859375 297.692138671875 216.65127563476562 C299.2005310058594 215.50845336914062 300.45697021484375 214.10302734375 301.49066162109375 212.5286102294922 C302.99749755859375 210.22923278808594 304.48431396484375 207.9129638671875 305.8728942871094 205.5413818359375 C308.1553649902344 201.63992309570312 310.70513916015625 197.98886108398438 314.0244140625 194.84927368164062 C316.5619201660156 192.448486328125 319.27294921875 190.20901489257812 321.4755859375 187.45648193359375 C321.93023681640625 186.88662719726562 322.598388671875 186.46578979492188 323.220458984375 186.05722045898438 C324.55218505859375 185.18014526367188 325.20037841796875 185.30917358398438 326.0006408691406 186.6009521484375 C327.257080078125 188.62844848632812 328.14642333984375 190.82955932617188 329.0096740722656 193.04598999023438 C329.50579833984375 194.32241821289062 330.0787353515625 195.5711669921875 330.6792907714844 196.80303955078125 C330.903564453125 197.26385498046875 331.378173828125 197.51730346679688 331.92803955078125 197.365234375 C332.5009765625 197.20550537109375 332.67608642578125 196.70321655273438 332.6699523925781 196.1978759765625 C332.6607360839844 195.4390869140625 332.41033935546875 194.7064208984375 332.2536926269531 193.96298217773438 C331.7544860839844 193.24261474609375 331.3950500488281 192.28262329101562 331.3935546875 191.425537109375 C331.3935546875 191.38711547851562 331.4303894042969 191.34255981445312 331.47186279296875 191.34716796875 C332.08319091796875 191.41323852539062 332.5332336425781 191.86172485351562 332.8834228515625 192.43466186523438 C333.0523986816406 192.57598876953125 333.1906433105469 192.76339721679688 333.32275390625 192.95077514648438 C334.4025573730469 194.47601318359375 335.0615234375 196.20709228515625 335.7342529296875 197.9320068359375 C336.13671875 198.962646484375 336.5544738769531 199.99026489257812 337.0337219238281 200.985595703125 C337.2456970214844 201.42640686035156 337.6619567871094 201.74899291992188 338.2179870605469 201.692138671875 C338.8600158691406 201.6260986328125 338.95526123046875 201.09310913085938 338.946044921875 200.63693237304688 C338.8861389160156 198.77066040039062 338.1749572753906 196.948974609375 337.5313720703125 195.19485473632812 C336.98919677734375 194.23638916015625 335.963134765625 192.56060791015625 336.71270751953125 192.51455688476562 C337.1642761230469 192.48690795898438 337.7033996582031 193.37466430664062 337.92767333984375 193.66961669921875 C338.01519775390625 193.78482055664062 338.08740234375 193.90924072265625 338.1734313964844 194.02597045898438 C338.21337890625 194.06283569335938 338.2579345703125 194.0736083984375 338.29632568359375 194.12734985351562 C339.15185546875 195.3515625 339.9337158203125 196.62640380859375 340.75390625 197.87518310546875 C341.16094970703125 198.49420166015625 341.4681396484375 199.21612548828125 342.2115783691406 199.52487182617188 C342.4219970703125 199.61239624023438 342.71844482421875 199.63546752929688 342.92120361328125 199.55404663085938 C343.11474609375 199.4757080078125 343.372802734375 199.21612548828125 343.3651123046875 199.04714965820312 C343.33746337890625 198.43582153320312 343.3128967285156 197.79067993164062 343.10400390625 197.2254638671875 C342.3037414550781 195.06124877929688 341.2223815917969 193.03985595703125 339.90911865234375 191.14599609375 C339.88916015625 191.14443969726562 339.8645935058594 191.15518188476562 339.85382080078125 191.12908935546875 C339.4544372558594 190.2581787109375 338.54669189453125 189.74514770507812 338.282470703125 188.80206298828125 C338.271728515625 188.76211547851562 338.29632568359375 188.71600341796875 338.3377990722656 188.70529174804688 C338.77557373046875 188.58853149414062 339.15185546875 188.77593994140625 339.472900390625 189.04779052734375 C339.4866943359375 189.0308837890625 339.4882507324219 189.012451171875 339.50360107421875 188.99557495117188 C339.52972412109375 189.05392456054688 339.5711669921875 189.09848022460938 339.5988464355469 189.15533447265625 C339.69561767578125 189.2490234375 339.789306640625 189.34579467773438 339.873779296875 189.44561767578125 C340.21478271484375 189.84500122070312 340.54656982421875 190.30267333984375 340.8568420410156 190.77117919921875 C340.92596435546875 190.84490966796875 340.9966125488281 190.920166015625 341.05804443359375 190.99697875976562 C341.0703125 191.01080322265625 341.0810852050781 191.0277099609375 341.0918273925781 191.04156494140625 C341.4973449707031 191.43936157226562 341.9074401855469 191.83255004882812 342.25457763671875 192.279541015625 C342.7752685546875 192.95077514648438 343.3866271972656 193.55902099609375 343.99945068359375 194.150390625 C344.3711853027344 194.50827026367188 344.95025634765625 194.65728759765625 345.35577392578125 194.41152954101562 C345.5185852050781 194.31320190429688 345.6230163574219 194.19644165039062 345.6890869140625 194.06744384765625 C345.5523681640625 192.9461669921875 345.09466552734375 191.98770141601562 344.311279296875 191.17822265625 C343.6707763671875 190.51467895507812 343.22686767578125 189.7159423828125 342.6217041015625 189.023193359375 C342.57562255859375 188.97097778320312 342.61553955078125 188.9249267578125 342.6662292480469 188.91107177734375 C342.4404296875 188.64688110351562 342.19927978515625 188.39035034179688 342.00726318359375 188.11236572265625 C341.8490905761719 187.88967895507812 341.6494140625 187.61468505859375 341.9949951171875 187.50411987304688 Z"></path>
<path fill="#F29481" fill-opacity="1.0"  filling="0" d="M203.53073120117188 196.35763549804688 C200.78436279296875 193.43307495117188 197.49734497070312 191.1229248046875 194.47909545898438 188.50863647460938 C193.6788330078125 187.81591796875 192.91848754882812 187.97720336914062 192.24884033203125 188.92340087890625 C190.22592163085938 191.7864990234375 188.00180053710938 194.47756958007812 185.55184936523438 196.98431396484375 C183.79315185546875 198.782958984375 181.83935546875 200.32357788085938 179.61215209960938 201.50628662109375 C177.89028930664062 202.4217529296875 176.13772583007812 202.80419921875 174.214599609375 202.0853729248047 C172.81536865234375 201.5631103515625 171.3515625 201.21139526367188 169.93072509765625 200.7459716796875 C166.84799194335938 199.73529052734375 163.78057861328125 198.67391967773438 160.69171142578125 197.68167114257812 C157.05599975585938 196.5142822265625 153.54623413085938 196.89520263671875 150.18548583984375 198.6907958984375 C149.30532836914062 199.16082763671875 148.44210815429688 199.6630859375 147.57424926757812 200.15614318847656 C145.40390014648438 201.386474609375 143.28726196289062 202.72743225097656 141.05392456054688 203.83180236816406 C135.46905517578125 206.5919952392578 130.84719848632812 210.53338623046875 126.73687744140625 215.1428985595703 C125.813720703125 216.17816162109375 125.06417846679688 217.32095336914062 124.50814819335938 218.58815002441406 C124.2608642578125 219.1503143310547 123.91064453125 219.8061981201172 124.35302734375 220.34535217285156 C124.35760498046875 220.3514862060547 124.36376953125 220.35302734375 124.36834716796875 220.35914611816406 C126.36053466796875 220.7370147705078 127.12548828125 217.6849822998047 128.33743286132812 216.68966674804688 C128.38040161132812 216.65431213378906 128.4541015625 216.66200256347656 128.469482421875 216.72499084472656 C128.6353759765625 217.44842529296875 127.86123657226562 218.20108032226562 127.52947998046875 218.78477478027344 C127.07940673828125 219.57424926757812 126.61398315429688 220.29617309570312 126.2376708984375 221.0780029296875 C125.94122314453125 222.0380096435547 125.64324951171875 222.9949188232422 125.39901733398438 223.9656982421875 C125.27767944335938 224.44338989257812 125.4681396484375 224.9917449951172 126.05490112304688 225.0869598388672 C126.37286376953125 225.13917541503906 126.8751220703125 225.0623779296875 127.04714965820312 224.84580993652344 C127.7291259765625 223.98411560058594 128.33743286132812 223.05946350097656 128.93182373046875 222.1317138671875 C130.14218139648438 220.24241638183594 131.34796142578125 218.3516082763672 132.99148559570312 216.81866455078125 C133.0943603515625 216.68505859375 133.20803833007812 216.55908203125 133.33554077148438 216.42237854003906 C133.60894775390625 216.12901306152344 133.82858276367188 215.78343200683594 134.12966918945312 215.51768493652344 C134.1588134765625 215.4915771484375 134.214111328125 215.4823455810547 134.24179077148438 215.51768493652344 C134.59658813476562 215.9723358154297 134.11428833007812 216.7080841064453 133.865478515625 217.10745239257812 C133.581298828125 217.5636444091797 133.2357177734375 217.96762084960938 132.885498046875 218.36544799804688 C131.3525390625 220.7600555419922 130.2374267578125 223.36358642578125 129.0992431640625 225.9517364501953 C128.85653686523438 226.50314331054688 128.75823974609375 227.1282958984375 128.66763305664062 227.73040771484375 C128.63693237304688 227.9331817626953 128.78436279296875 228.23114013671875 128.9456787109375 228.38169860839844 C129.23287963867188 228.64895629882812 129.5938720703125 228.62591552734375 129.95172119140625 228.43850708007812 C131.02230834960938 227.88095092773438 131.463134765625 226.8318634033203 131.97772216796875 225.850341796875 C132.86398315429688 224.1607666015625 134.69488525390625 220.93515014648438 134.76400756835938 220.85989379882812 C134.95602416992188 220.65098571777344 136.3721923828125 218.703369140625 136.8115234375 219.13648986816406 C137.07723999023438 219.39913940429688 136.69171142578125 220.00128173828125 136.54885864257812 220.2101593017578 C136.51504516601562 220.2608642578125 136.47360229492188 220.30540466308594 136.438232421875 220.3545379638672 C136.51809692382812 220.38064575195312 133.87313842773438 225.68600463867188 132.94229125976562 228.00076293945312 C132.41238403320312 229.31710815429688 132.58905029296875 230.15882873535156 133.21725463867188 230.28172302246094 C134.13272094726562 230.46144104003906 134.57049560546875 229.78099060058594 135.0328369140625 229.22802734375 C136.3353271484375 227.67510986328125 137.08029174804688 225.7965850830078 137.87594604492188 223.97337341308594 C139.21533203125 220.90289306640625 141.33502197265625 218.50827026367188 143.94314575195312 216.49766540527344 C144.27645874023438 216.24114990234375 144.66506958007812 215.72352600097656 145.3701171875 216.40396118164062 C144.57443237304688 217.59744262695312 143.76498413085938 218.82777404785156 142.94015502929688 220.04736328125 C142.44708251953125 220.77696228027344 141.99551391601562 221.51422119140625 141.94174194335938 222.43121337890625 C141.9002685546875 223.1346893310547 142.82186889648438 223.947265625 143.45318603515625 223.65542602539062 C144.11981201171875 223.34820556640625 144.81405639648438 222.98880004882812 145.32708740234375 222.48191833496094 C148.61566162109375 219.23480224609375 151.97952270507812 216.04298400878906 154.1636962890625 211.87120056152344 C154.51083374023438 211.20921325683594 154.904052734375 210.56253051757812 155.34796142578125 209.96197509765625 C157.01760864257812 207.70249938964844 157.80096435546875 207.4337158203125 160.43673706054688 208.45053100585938 C163.22918701171875 209.52883911132812 166.00167846679688 210.66546630859375 168.74032592773438 211.87428283691406 C172.40060424804688 213.49171447753906 176.09011840820312 214.99391174316406 180.00689697265625 215.8878631591797 C183.1126708984375 216.59596252441406 185.95584106445312 216.16433715820312 188.464111328125 214.08457946777344 C189.04010009765625 213.6068878173828 189.68524169921875 213.21060180664062 190.24432373046875 212.7144775390625 C192.67584228515625 210.56101989746094 195.12728881835938 208.42752075195312 197.4942626953125 206.20492553710938 C199.58782958984375 204.23883056640625 201.6153564453125 202.197509765625 203.6075439453125 200.1284942626953 C205.1128387451172 198.55563354492188 205.09286499023438 198.0211181640625 203.53073120117188 196.35763549804688 Z"></path>
<path fill="#43B5AC" fill-opacity="1.0"  filling="0" d="M287.03997802734375 189.85574340820312 C283.241455078125 191.77880859375 279.4106750488281 193.60659790039062 275.6121520996094 195.51434326171875 C275.2020263671875 195.7186279296875 274.79193115234375 195.86151123046875 274.366455078125 195.86151123046875 C274.17755126953125 195.86151123046875 274.00396728515625 195.8292236328125 273.81500244140625 195.78314208984375 C272.679931640625 195.45291137695312 272.553955078125 196.2562255859375 272.47564697265625 196.99658203125 C272.19146728515625 199.8658447265625 272.0501708984375 202.7335662841797 271.4833679199219 205.57208251953125 C271.435791015625 205.7932891845703 271.4050598144531 205.99757385253906 271.3420715332031 206.21873474121094 C270.9166259765625 208.3783416748047 270.36517333984375 210.49034118652344 269.703125 212.5547332763672 C269.40362548828125 213.5009307861328 269.0887756347656 214.41482543945312 268.72625732421875 215.32876586914062 C267.5128173828125 218.57586669921875 265.96759033203125 221.68165588378906 264.0445556640625 224.6599578857422 C262.9248046875 226.4094696044922 261.93255615234375 228.23731994628906 260.86041259765625 230.01905822753906 C260.828125 230.06666564941406 260.81280517578125 230.097412109375 260.7820739746094 230.14501953125 C260.2936096191406 230.94833374023438 259.5686340332031 231.39068603515625 259.4104309082031 231.3738250732422 C258.9219970703125 231.3108367919922 258.4642333984375 231.24786376953125 258.0234375 231.2002410888672 C255.5320281982422 230.87001037597656 253.5305938720703 230.60121154785156 251.52920532226562 230.4122772216797 C249.007080078125 230.1910858154297 246.50033569335938 229.98680114746094 243.97976684570312 229.78250122070312 C243.0658416748047 229.7041778564453 242.13502502441406 229.62429809570312 241.2211151123047 229.5459747314453 C238.92018127441406 229.3570556640625 236.6345977783203 229.16812133789062 234.3321533203125 228.9622802734375 C232.36148071289062 228.78871154785156 230.39230346679688 228.5844268798828 228.40625 228.37860107421875 C227.4600830078125 228.2834014892578 226.5154571533203 228.17431640625 225.5539093017578 228.07908630371094 C225.364990234375 228.0468292236328 225.19142150878906 228.031494140625 225.00247192382812 228.01611328125 C224.5140380859375 227.95314025878906 224.02560424804688 227.842529296875 223.53713989257812 227.73196411132812 C222.16551208496094 227.43243408203125 221.3299102783203 226.56613159179688 221.11026000976562 225.20985412597656 C220.84298706054688 223.60165405273438 220.63717651367188 221.9949951171875 220.43289184570312 220.3714599609375 C220.1963348388672 218.68492126464844 220.0381317138672 216.96612548828125 219.80311584472656 215.2642364501953 C219.75552368164062 214.8541259765625 219.69252014160156 214.46092224121094 219.6295623779297 214.05079650878906 C219.53431701660156 213.4993896484375 219.45599365234375 212.9479522705078 219.36228942871094 212.39651489257812 C218.7156524658203 208.42442321777344 218.0536346435547 204.45233154296875 217.39161682128906 200.48023986816406 C217.23341369628906 199.50335693359375 217.0767059326172 198.52493286132812 216.9031524658203 197.56338500976562 C216.77720642089844 196.77542114257812 216.63589477539062 195.97207641601562 216.50839233398438 195.18411254882812 C216.43006896972656 194.71102905273438 216.41317749023438 194.09661865234375 215.79876708984375 194.04901123046875 C215.48390197753906 194.03366088867188 215.08914184570312 194.28555297851562 214.8525848388672 194.5374755859375 C214.19056701660156 195.23019409179688 213.54393005371094 195.92446899414062 212.8988037109375 196.61874389648438 C212.26905822753906 197.31149291992188 211.65310668945312 197.99038696289062 211.0386962890625 198.68310546875 C210.43968200683594 199.34515380859375 209.87289428710938 200.03787231445312 209.2738494873047 200.716796875 C209.06956481933594 200.9840545654297 208.83302307128906 201.25286865234375 208.57957458496094 201.52011108398438 C207.24017333984375 202.9700927734375 206.59353637695312 203.0653533935547 205.06520080566406 201.9302215576172 C204.4185333251953 201.45713806152344 203.7734375 200.9686737060547 203.1421356201172 200.48023986816406 C202.4017791748047 199.88119506835938 201.6768035888672 199.26681518554688 200.9978790283203 198.60479736328125 C199.67385864257812 197.328369140625 198.28683471679688 196.0980224609375 196.86758422851562 194.9168701171875 C195.4022216796875 193.70343017578125 193.90460205078125 192.52066040039062 192.39166259765625 191.3702392578125 C191.3994140625 190.59762573242188 190.40560913085938 189.82501220703125 189.53933715820312 188.943359375 C188.4825439453125 187.88653564453125 188.43646240234375 186.8466796875 189.30276489257812 185.554931640625 C189.476318359375 185.28768920898438 189.66531372070312 185.01885986328125 189.86953735351562 184.7669677734375 C190.19979858398438 184.34149169921875 190.54693603515625 183.916015625 190.909423828125 183.49053955078125 C191.31954956054688 183.00210571289062 191.7127685546875 182.49676513671875 192.10751342773438 181.99295043945312 C193.80941772460938 179.8026123046875 195.4022216796875 177.53237915039062 196.83685302734375 175.16848754882812 C198.00265502929688 173.27767944335938 199.0594482421875 171.33773803710938 200.02098083496094 169.32095336914062 C200.28823852539062 168.75418090820312 200.5723876953125 168.17047119140625 200.85655212402344 167.61904907226562 C201.8488311767578 165.74362182617188 202.9532012939453 163.94647216796875 204.2449951171875 162.25994873046875 C205.42770385742188 160.73162841796875 206.76707458496094 159.39071655273438 208.247802734375 158.27249145507812 C209.6194610595703 157.21572875976562 211.11705017089844 156.34942626953125 212.75595092773438 155.67205810546875 C213.11843872070312 155.53073120117188 213.48095703125 155.38787841796875 213.8434600830078 155.24655151367188 C217.75254821777344 153.74899291992188 221.80299377441406 152.61386108398438 225.6337890625 150.9119873046875 C226.0285186767578 150.7537841796875 226.40638732910156 150.5802001953125 226.78424072265625 150.39126586914062 C227.3986358642578 150.09176635742188 227.98231506347656 150.18698120117188 228.53375244140625 150.51724243164062 C228.6597137451172 150.5802001953125 228.77027893066406 150.65853881835938 228.88088989257812 150.7537841796875 C230.14193725585938 151.76290893554688 231.3876495361328 152.83355712890625 232.69476318359375 153.7950439453125 C233.5457305908203 154.40948486328125 234.41201782226562 154.93017578125 235.31056213378906 155.3709716796875 C238.69898986816406 156.99453735351562 242.37158203125 157.37240600585938 246.23460388183594 156.96231079101562 C247.76292419433594 156.78872680664062 249.02398681640625 156.15896606445312 250.15908813476562 155.32339477539062 C250.71051025390625 154.91326904296875 251.24656677246094 154.472412109375 251.75038146972656 153.99932861328125 C252.3970489501953 153.41567993164062 252.88551330566406 152.67529296875 253.51527404785156 152.0609130859375 C253.9883270263672 151.58782958984375 254.61810302734375 151.50949096679688 255.24940490722656 151.69842529296875 C255.6118927001953 151.80902099609375 255.95901489257812 151.9825439453125 256.27392578125 152.18685913085938 C256.8406982421875 152.56472778320312 257.42437744140625 152.911865234375 258.008056640625 153.22674560546875 C259.0172119140625 153.8104248046875 260.05706787109375 154.31423950195312 261.12921142578125 154.73971557617188 C261.6176452636719 154.94400024414062 262.1060791015625 155.14981079101562 262.59454345703125 155.32339477539062 C264.4700012207031 156.01611328125 266.39306640625 156.55218505859375 268.36376953125 157.05755615234375 C270.57098388671875 157.62429809570312 272.5723876953125 158.44451904296875 274.3372802734375 159.53201293945312 C277.4261474609375 161.40750122070312 279.83770751953125 164.1031494140625 281.4781494140625 167.5867919921875 C281.84063720703125 168.31179809570312 282.14013671875 169.06906127929688 282.42431640625 169.87237548828125 C282.4872741699219 170.06130981445312 282.5502624511719 170.26712036132812 282.61322021484375 170.4560546875 C283.1646728515625 172.04736328125 283.6700134277344 173.62481689453125 284.158447265625 175.23147583007812 C284.8834228515625 177.58001708984375 285.56085205078125 179.9608154296875 286.3963928222656 182.277099609375 C286.7266540527344 183.19100952148438 287.07379150390625 184.10494995117188 287.46856689453125 185.00350952148438 C287.6897277832031 185.52420043945312 287.92626953125 186.01263427734375 288.1628112792969 186.51644897460938 C289.0091552734375 188.24755859375 288.72650146484375 189.00326538085938 287.03997802734375 189.85574340820312 Z"></path>
</svg>