<svg xmlns="http://www.w3.org/2000/svg" viewBox="0.0 0.0 512.0 512.0" height="512.0px" width="512.0px"><path fill="#F29481" fill-opacity="1.0"  filling="0" d="M254.200439453125 304.1080322265625 C254.4923095703125 304.18023681640625 255.09750366210938 304.29852294921875 255.68576049804688 304.4766845703125 C262.8235778808594 306.640869140625 269.7939453125 309.22137451171875 276.5799865722656 312.34716796875 C280.17266845703125 314.00146484375 280.160400390625 315.1365051269531 278.41241455078125 317.928955078125 C277.09918212890625 320.02716064453125 276.017822265625 322.2820129394531 274.97796630859375 324.5322265625 C274.3573913574219 325.87469482421875 273.92120361328125 327.32318115234375 273.5694580078125 328.76544189453125 C272.95037841796875 331.313720703125 273.41424560546875 333.712890625 274.98565673828125 335.83721923828125 C275.94561767578125 337.1351318359375 276.9148254394531 338.439208984375 278.00384521484375 339.62652587890625 C285.93115234375 348.27264404296875 291.57135009765625 358.28887939453125 295.6923828125 369.1990966796875 C298.28363037109375 376.0604248046875 301.0423583984375 382.8419189453125 304.392333984375 389.3759765625 C306.55352783203125 393.59228515625 305.61187744140625 394.0255126953125 302.1959228515625 395.547607421875 C301.0638427734375 396.052978515625 299.9793701171875 396.6627197265625 298.8612060546875 397.20196533203125 C297.151611328125 398.0252685546875 296.6156005859375 397.9207763671875 295.274658203125 396.53070068359375 C295.0166015625 396.263427734375 294.78314208984375 395.9700927734375 294.55120849609375 395.67822265625 C287.7359619140625 387.09814453125 280.002197265625 379.3475341796875 272.5986328125 371.298828125 C270.99969482421875 369.56005859375 269.40533447265625 367.8182373046875 267.8186340332031 366.07025146484375 C264.1153564453125 361.9921875 261.05255126953125 357.490234375 258.85150146484375 352.4244384765625 C257.8039245605469 350.0159912109375 256.45989990234375 347.7964782714844 254.77642822265625 345.7735595703125 C253.82415771484375 344.62774658203125 252.9532470703125 343.41424560546875 252.0577392578125 342.2207946777344 C248.68621826171875 337.72491455078125 247.4466552734375 332.7237243652344 248.15475463867188 327.12347412109375 C248.98114013671875 320.57855224609375 250.34356689453125 314.1442565917969 251.74749755859375 307.71307373046875 C251.9578857421875 306.74993896484375 252.29888916015625 305.80682373046875 252.672119140625 304.8929138183594 C252.861083984375 304.4305725097656 253.34487915039062 304.1909484863281 254.200439453125 304.1080322265625 Z"></path>
<path fill="#F29481" fill-opacity="1.0"  filling="0" d="M215.54852294921875 371.6182861328125 C215.67144775390625 365.348388671875 214.66070556640625 359.21356201171875 213.02642822265625 353.19708251953125 C210.35687255859375 343.3605041503906 207.5198974609375 333.570068359375 204.80422973632812 323.7458190917969 C203.87799072265625 320.3927001953125 202.94873046875 317.02734375 202.30517578125 313.61431884765625 C201.29757690429688 308.2767333984375 202.55401611328125 303.51666259765625 206.47232055664062 299.56304931640625 C209.21868896484375 296.79364013671875 212.46734619140625 294.73382568359375 215.760498046875 292.7247314453125 C216.88336181640625 292.0397033691406 218.11212158203125 291.936767578125 219.36090087890625 292.3084716796875 C221.0274658203125 292.8031005859375 222.69247436523438 293.30224609375 224.33599853515625 293.8675537109375 C230.32952880859375 295.92578125 236.32144165039062 297.98712158203125 242.29339599609375 300.1052551269531 C243.69268798828125 300.60137939453125 245.02130126953125 301.3048095703125 246.35763549804688 301.96380615234375 C246.79232788085938 302.1788330078125 247.17474365234375 302.52593994140625 247.53118896484375 302.8654479980469 C248.08868408203125 303.3968505859375 248.06723022460938 304.4459533691406 247.46200561523438 304.8453369140625 C246.63568115234375 305.39056396484375 245.76470947265625 305.87286376953125 244.89688110351562 306.35675048828125 C241.41632080078125 308.29364013671875 237.76220703125 309.86651611328125 234.1234130859375 311.47161865234375 C232.08050537109375 312.3732604980469 230.01611328125 313.2795104980469 228.11151123046875 314.429931640625 C224.97808837890625 316.32232666015625 224.1317138671875 318.44659423828125 224.96270751953125 322.01934814453125 C225.3543701171875 323.704345703125 225.8919677734375 325.3831787109375 226.58010864257812 326.9698791503906 C229.66131591796875 334.07232666015625 230.75344848632812 341.517333984375 230.56292724609375 349.19268798828125 C230.44775390625 353.7930908203125 230.24038696289062 358.391845703125 230.13592529296875 362.99371337890625 C230.0330810546875 367.477294921875 230.2296142578125 371.9500732421875 230.8563232421875 376.396728515625 C230.92544555664062 376.889892578125 230.97613525390625 377.38446044921875 231.0191650390625 377.880615234375 C231.36782836914062 381.8726806640625 231.5628662109375 382.26275634765625 226.82586669921875 383.1905517578125 C224.25613403320312 383.6927490234375 221.61575317382812 383.58984375 219.00762939453125 383.40093994140625 C216.571533203125 383.22589111328125 215.9156494140625 382.5838623046875 215.78814697265625 380.199951171875 C215.63458251953125 377.34295654296875 215.62225341796875 374.4798583984375 215.54852294921875 371.6182861328125 Z"></path>
<path fill="#000000" fill-opacity="1.0"  filling="0" d="M225.7890625 396.516845703125 C226.61544799804688 398.71026611328125 227.269775390625 400.6533203125 228.08688354492188 402.554931640625 C228.92404174804688 404.50250244140625 230.14669799804688 405.0845947265625 232.55206298828125 404.900390625 C234.057373046875 404.78521728515625 234.81613159179688 404.173828125 234.7669677734375 402.8529052734375 C234.6502685546875 399.7808837890625 234.55963134765625 396.70269775390625 234.23553466796875 393.63226318359375 C233.70098876953125 388.55426025390625 232.99908447265625 383.4808349609375 232.350830078125 378.407470703125 C232.28329467773438 377.8759765625 232.14962768554688 377.33984375 231.97149658203125 376.82080078125 C231.60894775390625 375.7608642578125 230.8624267578125 375.26171875 229.4754638671875 375.2540283203125 C225.0302734375 375.2294921875 220.58514404296875 375.20947265625 216.14605712890625 375.2586669921875 C213.94189453125 375.28326416015625 213.34130859375 375.77783203125 213.2122802734375 377.585693359375 C213.10784912109375 379.04339599609375 213.19842529296875 380.52099609375 213.17852783203125 381.9879150390625 C213.12939453125 385.6158447265625 212.6163330078125 389.13482666015625 210.86834716796875 392.426513671875 C209.24786376953125 395.4801025390625 206.93463134765625 397.9991455078125 203.62612915039062 399.84075927734375 C202.853515625 400.27081298828125 202.07476806640625 400.69476318359375 201.32669067382812 401.15252685546875 C200.35906982421875 401.7469482421875 199.99038696289062 402.55950927734375 200.39437866210938 403.59014892578125 C200.6478271484375 404.2337646484375 200.91046142578125 404.88037109375 201.23764038085938 405.5008544921875 C201.7491455078125 406.4716796875 202.6722412109375 407.0738525390625 203.90106201171875 406.98931884765625 C209.8023681640625 406.5838623046875 215.3934326171875 405.40264892578125 220.22256469726562 402.620849609375 C222.16256713867188 401.5042724609375 223.42364501953125 399.84075927734375 224.29763793945312 397.98065185546875 C224.51419067382812 397.5198974609375 224.56640625 396.9715576171875 225.7890625 396.516845703125 Z"></path>
<path fill="#000000" fill-opacity="1.0"  filling="0" d="M308.677734375 402.93426513671875 C310.474853515625 404.4395751953125 311.9970703125 405.812744140625 313.64215087890625 407.0692138671875 C315.3271484375 408.3548583984375 316.67724609375 408.26416015625 318.6832275390625 406.92327880859375 C319.938232421875 406.0845947265625 320.3006591796875 405.179931640625 319.60791015625 404.052490234375 C317.999755859375 401.43206787109375 316.4100341796875 398.7947998046875 314.6220703125 396.2772216796875 C311.6668701171875 392.11474609375 308.56414794921875 388.03814697265625 305.510498046875 383.9339599609375 C305.1910400390625 383.50390625 304.8116455078125 383.10296630859375 304.401611328125 382.7374267578125 C303.56591796875 381.9908447265625 302.67041015625 381.92340087890625 301.4586181640625 382.59765625 C297.572509765625 384.7557373046875 293.68951416015625 386.919921875 289.8448486328125 389.1395263671875 C287.93719482421875 390.2423095703125 287.654541015625 390.96728515625 288.4287109375 392.606201171875 C289.0538330078125 393.92724609375 289.857177734375 395.1697998046875 290.55914306640625 396.45849609375 C292.29632568359375 399.6441650390625 293.57421875 402.9619140625 293.66796875 406.688232421875 C293.7540283203125 410.144287109375 292.97369384765625 413.474365234375 290.995361328125 416.701416015625 C290.532958984375 417.45562744140625 290.06146240234375 418.2066650390625 289.635986328125 418.97320556640625 C289.08453369140625 419.9654541015625 289.161376953125 420.854736328125 290.02001953125 421.5537109375 C290.5560302734375 421.991455078125 291.101318359375 422.424560546875 291.692626953125 422.8055419921875 C292.6158447265625 423.39996337890625 293.714111328125 423.47369384765625 294.7431640625 422.7962646484375 C299.68603515625 419.547607421875 303.9791259765625 415.7767333984375 306.822265625 410.98291015625 C307.965087890625 409.058349609375 308.2476806640625 406.98931884765625 308.09716796875 404.9403076171875 C308.0572509765625 404.4349365234375 307.83447265625 403.92962646484375 308.677734375 402.93426513671875 Z"></path>
<path fill="#59B9C9" fill-opacity="1.0"  filling="0" d="M301.1282958984375 272.2898254394531 C301.123779296875 275.12677001953125 300.988525390625 277.82708740234375 300.74127197265625 280.43524169921875 C300.7166748046875 280.71783447265625 300.693603515625 281.00042724609375 300.6536865234375 281.2830810546875 C300.618408203125 281.77001953125 300.56927490234375 282.25689697265625 300.5185546875 282.72845458984375 C300.52008056640625 282.7745056152344 300.5062255859375 282.83905029296875 300.5062255859375 282.8851318359375 C300.4954833984375 283.0740661621094 300.4693603515625 283.2614440917969 300.4432373046875 283.46728515625 C300.31732177734375 284.6622619628906 300.1591796875 285.8265686035156 300.0008544921875 286.98931884765625 C299.802734375 288.405517578125 299.5877685546875 289.80633544921875 299.3726806640625 291.20721435546875 C299.14227294921875 292.6402587890625 298.94415283203125 294.07183837890625 298.7767333984375 295.4864501953125 C298.6754150390625 296.3988037109375 298.5723876953125 297.2943115234375 298.48486328125 298.1898193359375 C298.4234619140625 298.8656921386719 298.36199951171875 299.526123046875 298.31744384765625 300.18511962890625 C298.24676513671875 301.095947265625 298.1915283203125 302.02215576171875 298.13775634765625 302.9483642578125 C297.971923828125 306.229248046875 297.9918212890625 309.5040283203125 298.2022705078125 312.77569580078125 C298.2022705078125 312.79107666015625 298.2022705078125 312.79107666015625 298.2022705078125 312.79107666015625 C298.22216796875 312.97845458984375 298.2283935546875 313.1673889160156 298.248291015625 313.3547668457031 C298.4664306640625 316.35919189453125 298.858154296875 319.37432861328125 299.4356689453125 322.36956787109375 C299.4879150390625 322.587646484375 299.5262451171875 322.8211364746094 299.5323486328125 323.05615234375 C299.57080078125 323.3218994140625 299.57696533203125 323.58758544921875 299.5677490234375 323.8395080566406 C299.5401611328125 324.5767822265625 298.85205078125 325.25262451171875 298.09783935546875 325.2249450683594 L297.48486328125 325.19427490234375 C296.8260498046875 325.1481628417969 296.16400146484375 325.0406494140625 295.518798828125 324.9316101074219 C293.2041015625 324.55218505859375 290.9046630859375 324.12518310546875 288.6053466796875 323.66748046875 C288.40106201171875 323.6260070800781 288.1951904296875 323.58453369140625 287.9908447265625 323.54150390625 C285.3751220703125 323.0284729003906 282.75933837890625 322.4524841308594 280.17266845703125 321.86114501953125 C279.4953308105469 321.70599365234375 278.8317565917969 321.5355224609375 278.1697692871094 321.37884521484375 C277.6966552734375 321.26519775390625 277.2388916015625 321.1514892578125 276.78118896484375 321.037841796875 C276.166748046875 320.8965148925781 275.55084228515625 320.7398681640625 274.95184326171875 320.58319091796875 C273.1208801269531 320.11322021484375 271.29156494140625 319.6431884765625 269.47442626953125 319.12548828125 C268.7801513671875 318.9396667480469 268.0689697265625 318.73846435546875 267.37469482421875 318.55255126953125 C267.2012023925781 318.49420166015625 267.04296875 318.45123291015625 266.869384765625 318.392822265625 C266.85400390625 318.392822265625 266.837158203125 318.37750244140625 266.82177734375 318.3790283203125 C266.489990234375 318.29296875 266.142822265625 318.19317626953125 265.81109619140625 318.091796875 C265.6052551269531 318.0349426269531 265.40093994140625 317.9765625 265.1951904296875 317.9043884277344 C262.57318115234375 317.1563720703125 259.98193359375 316.3607177734375 257.38922119140625 315.5020751953125 C257.278564453125 315.472900390625 257.16802978515625 315.42987060546875 257.05743408203125 315.40069580078125 C256.99444580078125 315.38690185546875 256.93145751953125 315.3730773925781 256.88385009765625 315.3423156738281 C256.7886047363281 315.3132019042969 256.6933898925781 315.28399658203125 256.61505126953125 315.2547607421875 C254.79794311523438 314.6741943359375 253.01007080078125 314.07818603515625 251.20675659179688 313.45001220703125 C250.63690185546875 313.2610778808594 250.083984375 313.0552673339844 249.51412963867188 312.8509521484375 C248.88131713867188 312.648193359375 248.265380859375 312.42852783203125 247.64788818359375 312.2088928222656 C247.22085571289062 312.06292724609375 246.79388427734375 311.9017028808594 246.3668212890625 311.75579833984375 C245.7969970703125 311.551513671875 245.2271728515625 311.345703125 244.65731811523438 311.1413879394531 C242.94927978515625 310.5269470214844 241.25506591796875 309.9125671386719 239.5623779296875 309.28131103515625 C238.97720336914062 309.07696533203125 238.3919677734375 308.8573913574219 237.80517578125 308.63616943359375 C237.45651245117188 308.51947021484375 237.109375 308.3873596191406 236.76068115234375 308.2552490234375 C236.68081665039062 308.22607421875 236.60250854492188 308.19683837890625 236.52264404296875 308.1676940917969 C236.2061767578125 308.05096435546875 235.88983154296875 307.93267822265625 235.5733642578125 307.8005676269531 C235.1463623046875 307.63934326171875 234.73468017578125 307.4933776855469 234.30621337890625 307.31524658203125 C232.15426635742188 306.524169921875 230.00076293945312 305.70086669921875 227.86419677734375 304.879150390625 C227.75363159179688 304.8345947265625 227.62612915039062 304.79156494140625 227.51553344726562 304.7470397949219 C225.1884765625 303.8500061035156 222.87677001953125 302.95452880859375 220.5482177734375 302.0421142578125 C219.94613647460938 301.80712890625 219.36090087890625 301.570556640625 218.75875854492188 301.3355712890625 C218.34716796875 301.17425537109375 217.92013549804688 301.011474609375 217.5069580078125 300.8348388671875 C217.2227783203125 300.73193359375 216.95245361328125 300.62896728515625 216.66827392578125 300.51226806640625 C216.39950561523438 300.40936279296875 216.14605712890625 300.30645751953125 215.875732421875 300.20355224609375 C214.1815185546875 299.54150390625 212.4873046875 298.9117431640625 210.79461669921875 298.26513671875 C210.22476196289062 298.060791015625 209.63958740234375 297.8396301269531 209.0697021484375 297.6199951171875 C208.7056884765625 297.4878845214844 208.34161376953125 297.3572998046875 207.97763061523438 297.20989990234375 C207.58282470703125 297.0793151855469 207.18658447265625 296.9318542480469 206.79025268554688 296.77056884765625 C206.36328125 296.6246337890625 205.95162963867188 296.46337890625 205.52459716796875 296.30206298828125 C204.82879638671875 296.03790283203125 204.1160888671875 295.7890625 203.46484375 295.42962646484375 C202.48025512695312 294.9058837890625 202.47720336914062 293.6202392578125 203.46484375 293.01507568359375 C204.1898193359375 292.55731201171875 204.9962158203125 292.2224426269531 205.7703857421875 291.8277282714844 C209.73171997070312 289.81402587890625 213.66079711914062 287.73736572265625 217.50543212890625 285.4902038574219 C218.7711181640625 284.75286865234375 220.02288818359375 283.99871826171875 221.27169799804688 283.230712890625 C222.53738403320312 282.44580078125 223.770751953125 281.64556884765625 225.00262451171875 280.79925537109375 C225.57400512695312 280.4398193359375 226.14389038085938 280.0481262207031 226.69683837890625 279.65802001953125 C229.34487915039062 277.802490234375 231.88082885742188 275.82568359375 234.23858642578125 273.63226318359375 C234.26931762695312 273.6153869628906 234.300048828125 273.5831298828125 234.3154296875 273.5523681640625 C235.754638671875 272.2298889160156 237.0986328125 270.8167724609375 238.3765869140625 269.2945556640625 C238.42263793945312 269.2469482421875 238.45184326171875 269.19781494140625 238.4979248046875 269.15020751953125 C240.413330078125 266.8431701660156 241.9185791015625 264.374755859375 243.04144287109375 261.760498046875 C243.38238525390625 260.98333740234375 243.67425537109375 260.1768798828125 243.9522705078125 259.3705139160156 C244.21337890625 258.5487060546875 244.4576416015625 257.7116394042969 244.67263793945312 256.87451171875 C245.16876220703125 254.80856323242188 245.48980712890625 252.68429565429688 245.63726806640625 250.50164794921875 C245.7493896484375 248.74288940429688 245.79852294921875 246.98577880859375 245.83074951171875 245.21319580078125 C245.83389282226562 244.695556640625 245.852294921875 244.19329833984375 245.85382080078125 243.6756591796875 L245.85382080078125 243.6602783203125 C245.86767578125 242.9537353515625 245.88153076171875 242.26406860351562 245.89373779296875 241.55908203125 C245.94601440429688 239.29962158203125 246.094970703125 239.01388549804688 248.2607421875 238.50393676757812 C249.351318359375 238.2413330078125 250.44189453125 237.97711181640625 251.53240966796875 237.72979736328125 C252.123779296875 237.58847045898438 252.7320556640625 237.44869995117188 253.32492065429688 237.30743408203125 C257.562744140625 236.32131958007812 261.8021240234375 235.3336181640625 266.0230712890625 234.2845458984375 C266.06915283203125 234.26766967773438 266.10137939453125 234.26611328125 266.1474609375 234.25076293945312 C266.8955078125 234.05877685546875 267.64202880859375 233.86676025390625 268.3900146484375 233.659423828125 C268.9982604980469 233.51806640625 269.620361328125 233.3460693359375 270.22711181640625 233.17401123046875 C271.36370849609375 232.8775634765625 272.4849853515625 232.55194091796875 273.604736328125 232.2401123046875 C275.5032653808594 231.70562744140625 277.4017639160156 231.17108154296875 279.317138671875 230.65191650390625 C279.9238586425781 230.47988891601562 280.5152282714844 230.29248046875 281.12347412109375 230.197265625 C281.63800048828125 230.10513305664062 282.0604248046875 230.06362915039062 282.406005859375 230.08660888671875 C283.06494140625 230.11737060546875 283.479736328125 230.37234497070312 283.934326171875 230.972900390625 C284.09716796875 231.203369140625 284.260009765625 231.46600341796875 284.4412841796875 231.7916259765625 C284.4903564453125 231.868408203125 284.524169921875 231.94677734375 284.5733642578125 232.0235595703125 C284.8851318359375 232.57958984375 285.1968994140625 233.1202392578125 285.525634765625 233.67626953125 C286.65924072265625 235.68536376953125 287.80810546875 237.69293212890625 288.94171142578125 239.7020263671875 C289.1044921875 239.96466064453125 289.2535400390625 240.24267578125 289.40093994140625 240.52069091796875 C290.59906005859375 242.6219482421875 291.78173828125 244.72320556640625 292.9490966796875 246.84136962890625 C293.01519775390625 246.9488525390625 293.081298828125 247.07330322265625 293.145751953125 247.1807861328125 C293.37457275390625 247.55096435546875 293.57275390625 247.92269897460938 293.7862548828125 248.3082275390625 C293.884521484375 248.47869873046875 293.9827880859375 248.6630859375 294.08270263671875 248.848876953125 C294.147216796875 248.94107055664062 294.1978759765625 249.05010986328125 294.26239013671875 249.15765380859375 C294.52508544921875 249.6368408203125 294.80462646484375 250.1314697265625 295.0672607421875 250.61068725585938 C295.10107421875 250.6890869140625 295.148681640625 250.75042724609375 295.1824951171875 250.8272705078125 C296.03802490234375 252.37249755859375 296.782958984375 253.95306396484375 297.451171875 255.56582641601562 C297.68463134765625 256.1402893066406 297.919677734375 256.7132568359375 298.13775634765625 257.3045654296875 C298.30517578125 257.7239074707031 298.457275390625 258.1585693359375 298.593994140625 258.5948181152344 C298.8304443359375 259.24761962890625 299.0347900390625 259.9004211425781 299.2406005859375 260.5685729980469 C299.4617919921875 261.26898193359375 299.66912841796875 262.0001220703125 299.859619140625 262.7159118652344 C300.3802490234375 264.6619873046875 300.6337890625 266.6465148925781 300.80731201171875 268.49127197265625 C300.850341796875 268.9136962890625 300.8917236328125 269.3192138671875 300.9163818359375 269.7108154296875 L300.9178466796875 269.7891845703125 C300.9931640625 270.6800537109375 301.060791015625 271.50799560546875 301.1282958984375 272.2898254394531 Z"></path>
<path fill="#F29481" fill-opacity="1.0"  filling="0" d="M268.0736389160156 168.16744995117188 C267.9737548828125 164.70681762695312 267.7525634765625 161.25234985351562 267.5513916015625 157.79788208007812 C267.4945068359375 156.8271484375 267.49609375 155.85330200195312 267.47149658203125 154.88107299804688 C267.45001220703125 154.88107299804688 267.42999267578125 154.882568359375 267.40850830078125 154.882568359375 C267.22113037109375 151.17617797851562 267.0306396484375 147.47137451171875 266.847900390625 143.76498413085938 C266.68353271484375 140.453369140625 266.2948913574219 137.18325805664062 265.1321716308594 134.04669189453125 C264.350341796875 131.93319702148438 263.4195556640625 129.891845703125 261.9081115722656 128.18994140625 C260.2061767578125 126.27151489257812 258.08807373046875 124.97357177734375 255.66583251953125 124.08270263671875 C253.1436767578125 123.15493774414062 250.6400146484375 123.28549194335938 248.07952880859375 123.77706909179688 C246.09039306640625 124.15792846679688 244.22412109375 124.79998779296875 242.53762817382812 125.93972778320312 C239.4947509765625 127.99639892578125 237.72994995117188 130.8702392578125 237.02490234375 134.424560546875 C236.44888305664062 137.32452392578125 236.2369384765625 140.25369262695312 236.43658447265625 143.20281982421875 C236.4873046875 143.96005249023438 236.27227783203125 144.563720703125 235.8099365234375 145.13662719726562 C235.32150268554688 145.7418212890625 234.75006103515625 146.25482177734375 234.15719604492188 146.7479248046875 C233.8607177734375 146.99520874023438 233.55044555664062 147.22866821289062 233.31851196289062 147.54046630859375 C232.75787353515625 148.29312133789062 232.96063232421875 149.10107421875 233.80853271484375 149.50506591796875 C234.49050903320312 149.83062744140625 235.21240234375 149.84912109375 235.94512939453125 149.75845336914062 C236.819091796875 149.64944458007812 237.01727294921875 149.74462890625 237.2645263671875 150.60018920898438 C237.7867431640625 152.40347290039062 238.25677490234375 154.22207641601562 238.663818359375 156.05450439453125 C238.92031860351562 157.20806884765625 239.3197021484375 158.31088256835938 239.80352783203125 159.38766479492188 C240.00625610351562 159.83770751953125 240.30581665039062 160.18023681640625 240.70669555664062 160.46438598632812 C241.86944580078125 161.28768920898438 243.196533203125 161.64556884765625 244.57745361328125 161.86212158203125 C245.51895141601562 162.01116943359375 246.474365234375 162.08181762695312 247.40521240234375 162.30294799804688 C247.53732299804688 162.33367919921875 247.67245483398438 162.35671997070312 247.80303955078125 162.39361572265625 C248.82754516601562 162.677734375 249.15008544921875 163.061767578125 249.22842407226562 164.10931396484375 C249.30828857421875 165.1461181640625 249.3804931640625 166.1844482421875 249.45419311523438 167.22274780273438 C249.46957397460938 167.43170166015625 249.494140625 167.63906860351562 249.51412963867188 167.84793090820312 C248.71844482421875 172.04580688476562 248.6954345703125 182.93450927734375 255.3094482421875 179.884033203125 C258.67333984375 178.3326416015625 262.33514404296875 175.57400512695312 265.2120361328125 173.23776245117188 C266.374755859375 172.29461669921875 267.3133239746094 171.16567993164062 267.7663879394531 169.90155029296875 C267.9814453125 169.72030639648438 268.09661865234375 169.44537353515625 268.09820556640625 169.04757690429688 C268.10430908203125 168.75418090820312 268.08282470703125 168.46078491210938 268.0736389160156 168.16744995117188 Z"></path>
<path fill="#000000" fill-opacity="1.0"  filling="0" d="M278.96075439453125 155.68280029296875 C283.3936767578125 155.17593383789062 287.64227294921875 153.96405029296875 291.775634765625 152.32818603515625 C295.634033203125 150.79986572265625 299.24212646484375 148.80612182617188 302.6397705078125 146.4345703125 C307.11871337890625 143.30728149414062 311.275146484375 139.80517578125 315.00152587890625 135.80850219726562 C316.07208251953125 134.65960693359375 317.029052734375 133.42462158203125 317.7923583984375 132.05148315429688 C318.3822021484375 130.99163818359375 318.78314208984375 129.87493896484375 318.843017578125 128.6461181640625 C318.9228515625 126.98876953125 318.336181640625 125.591064453125 317.23638916015625 124.38375854492188 C316.365478515625 123.4283447265625 315.2718505859375 122.78631591796875 314.1182861328125 122.2318115234375 C313.4224853515625 121.89849853515625 312.70050048828125 121.6097412109375 312.0323486328125 121.227294921875 C310.015625 120.07376098632812 308.6224365234375 118.41946411132812 308.0264892578125 116.14312744140625 C307.8267822265625 115.378173828125 307.6209716796875 114.61474609375 307.30615234375 113.88214111328125 C306.1864013671875 111.2708740234375 304.16351318359375 109.99142456054688 301.357177734375 109.88079833984375 C299.39263916015625 109.802490234375 297.6016845703125 110.424560546875 295.87677001953125 111.29086303710938 C294.04888916015625 112.20944213867188 292.5220947265625 113.51654052734375 291.058349609375 114.91888427734375 C289.0860595703125 116.80975341796875 287.348876953125 118.89718627929688 285.67926025390625 121.04913330078125 C284.33062744140625 122.787841796875 282.9451904296875 124.49432373046875 281.2509460449219 125.92434692382812 C279.80096435546875 127.14852905273438 278.24346923828125 128.16384887695312 276.4018249511719 128.73831176757812 C274.07171630859375 129.46331787109375 271.7415771484375 129.38650512695312 269.39764404296875 128.890380859375 C267.4607238769531 128.47869873046875 265.57147216796875 127.9150390625 263.75592041015625 127.11627197265625 C261.051025390625 125.92587280273438 258.30621337890625 124.853759765625 255.40777587890625 124.2132568359375 C251.3096923828125 123.30853271484375 247.20550537109375 123.22866821289062 243.10897827148438 124.18865966796875 C241.3118896484375 124.60955810546875 239.59002685546875 125.286865234375 237.9757080078125 126.16397094726562 C235.60565185546875 127.45266723632812 234.59494018554688 129.58157348632812 234.67788696289062 132.200439453125 C234.72705078125 133.765625 235.48275756835938 135.1112060546875 236.455078125 136.30926513671875 C237.49954223632812 137.59640502929688 238.78521728515625 138.58096313476562 240.339599609375 139.20925903320312 C242.29034423828125 139.99868774414062 244.33935546875 140.39349365234375 246.400634765625 140.74368286132812 C247.9674072265625 141.00942993164062 249.5494384765625 141.21524047851562 251.01632690429688 141.87420654296875 C253.24044799804688 142.87411499023438 255.022216796875 144.34097290039062 256.0682373046875 146.59429931640625 C256.32470703125 147.14727783203125 256.6258239746094 147.68023681640625 256.91455078125 148.21942138671875 C258.55352783203125 151.2867431640625 261.103271484375 153.28976440429688 264.3487854003906 154.44943237304688 C266.93389892578125 155.37405395507812 269.62188720703125 155.810302734375 272.3559875488281 155.9393310546875 C274.563232421875 156.04379272460938 276.76739501953125 155.9346923828125 278.96075439453125 155.68280029296875 Z"></path>
<path fill="#F29481" fill-opacity="1.0"  filling="0" d="M344.7906494140625 268.906005859375 C345.9273681640625 269.6094970703125 347.0732421875 270.29608154296875 348.186767578125 271.03179931640625 C348.33734130859375 271.13165283203125 348.37725830078125 271.468017578125 348.386474609375 271.69842529296875 C348.40185546875 272.1469421386719 348.0469970703125 272.36968994140625 347.692138671875 272.38507080078125 C347.0869140625 272.4096374511719 346.451171875 272.4080810546875 345.87200927734375 272.25445556640625 C343.9688720703125 271.752197265625 342.09344482421875 271.14703369140625 340.19189453125 270.6385498046875 C339.0107421875 270.32220458984375 337.91552734375 269.6524658203125 336.62841796875 269.7431335449219 C336.4593505859375 269.6048583984375 336.2996826171875 269.4527893066406 336.1199951171875 269.3329772949219 C336.0892333984375 269.31304931640625 335.88958740234375 269.4681701660156 335.89727783203125 269.48199462890625 C336.09228515625 269.89208984375 336.4041748046875 269.7692565917969 336.71435546875 269.644775390625 C336.781982421875 270.85211181640625 338.0445556640625 270.9411926269531 338.6175537109375 271.6769104003906 C338.99688720703125 272.1638488769531 339.4930419921875 272.6507568359375 339.070556640625 273.306640625 C338.78643798828125 273.74896240234375 338.2349853515625 273.91949462890625 337.7496337890625 273.7520751953125 C332.3414306640625 271.8965759277344 326.9976806640625 269.89208984375 322.8504638671875 265.71875 C322.07476806640625 264.93695068359375 321.47265625 263.96466064453125 320.87664794921875 263.02618408203125 C319.28076171875 260.516357421875 317.69873046875 257.99578857421875 316.176513671875 255.43988037109375 C315.12890625 253.68121337890625 315.311767578125 253.26644897460938 317.2425537109375 252.37554931640625 C317.6925048828125 252.168212890625 318.14727783203125 251.96240234375 318.6141357421875 251.8011474609375 C323.10546875 250.2574462890625 322.4342041015625 250.12069702148438 325.26507568359375 253.2357177734375 C327.67962646484375 255.8914794921875 330.54583740234375 257.5595703125 334.1553955078125 258.20318603515625 C337.0860595703125 258.72540283203125 339.9952392578125 259.2906494140625 342.96588134765625 259.52105712890625 C343.9473876953125 259.5962829589844 344.9273681640625 259.75604248046875 345.8935546875 259.9495849609375 C346.54327392578125 260.08013916015625 346.6815185546875 260.6960754394531 346.2176513671875 261.3857421875 C345.8966064453125 261.86492919921875 344.677001953125 262.34417724609375 346.2452392578125 262.7850646972656 C348.02850341796875 263.2857666015625 348.58306884765625 263.73736572265625 348.29583740234375 264.37786865234375 C347.81964111328125 265.44537353515625 346.81201171875 264.99224853515625 346.02099609375 265.1566162109375 C345.7799072265625 265.20733642578125 345.53564453125 265.24261474609375 344.887451171875 265.3562927246094 C346.2191162109375 265.923095703125 347.26519775390625 266.31781005859375 348.2528076171875 266.82318115234375 C348.5108642578125 266.9552917480469 348.755126953125 267.46527099609375 348.704345703125 267.74786376953125 C348.650634765625 268.0396728515625 348.27587890625 268.389892578125 347.965576171875 268.49896240234375 C346.91650390625 268.86761474609375 345.7230224609375 268.4021911621094 344.698486328125 269.00579833984375 C344.5526123046875 268.853759765625 344.7430419921875 268.3054504394531 344.2222900390625 268.5987548828125 C344.414306640625 268.7001647949219 344.603271484375 268.8031005859375 344.7906494140625 268.906005859375 Z"></path>
<path fill="#F29481" fill-opacity="1.0"  filling="0" d="M240.30581665039062 97.97067260742188 C242.41937255859375 97.70803833007812 243.60052490234375 96.4976806640625 244.608154296875 95.0169677734375 C245.15802001953125 94.20747375488281 245.5435791015625 93.222900390625 246.51434326171875 92.800537109375 C246.80926513671875 92.67303466796875 247.28231811523438 92.66995239257812 247.54495239257812 92.82662963867188 C247.8076171875 92.9832763671875 248.076416015625 93.42718505859375 248.0472412109375 93.71441650390625 C247.98583984375 94.31500244140625 247.8414306640625 94.961669921875 247.53732299804688 95.47315979003906 C245.12420654296875 99.53125 242.16744995117188 102.92120361328125 237.14932250976562 103.72299194335938 C235.80682373046875 103.93804931640625 234.49203491210938 104.33587646484375 233.14651489257812 104.52325439453125 C229.66897583007812 105.0086669921875 227.1883544921875 106.78118896484375 225.73681640625 109.9945068359375 C225.22686767578125 111.12347412109375 224.70925903320312 112.25393676757812 224.10565185546875 113.33221435546875 C223.8843994140625 113.728515625 223.43438720703125 114.207763671875 223.03656005859375 114.26150512695312 C221.17645263671875 114.51031494140625 219.34860229492188 114.2476806640625 217.66973876953125 113.37673950195312 C217.21514892578125 113.14022827148438 217.1275634765625 112.52581787109375 217.3333740234375 112.04043579101562 C219.16738891601562 107.70431518554688 220.95062255859375 103.32980346679688 223.92434692382812 99.60653686523438 C225.752197265625 97.31790161132812 228.2313232421875 96.35479736328125 231.13894653320312 96.47921752929688 C231.5091552734375 96.49459838867188 231.886962890625 96.52224731445312 232.244873046875 96.61129760742188 C234.71630859375 97.22573852539062 236.5794677734375 96.2872314453125 238.1446533203125 94.42253112792969 C238.69607543945312 93.76666259765625 239.37493896484375 93.20294189453125 240.05694580078125 92.67764282226562 C240.44403076171875 92.37965393066406 241.00006103515625 92.25370788574219 241.39019775390625 92.68684387207031 C241.61444091796875 92.93568420410156 241.7542724609375 93.33659362792969 241.77420043945312 93.67758178710938 C241.8172607421875 94.44403076171875 241.42556762695312 95.09376525878906 241.1060791015625 95.7711181640625 C240.80499267578125 96.40859985351562 240.06314086914062 96.86630249023438 240.30581665039062 97.97067260742188 Z"></path>
<path fill="#FF6D66" fill-opacity="1.0"  filling="0" d="M254.39401245117188 177.8365478515625 C255.48455810546875 177.68145751953125 255.95458984375 176.88882446289062 256.57513427734375 176.30670166015625 C259.2047119140625 173.84295654296875 261.82672119140625 171.3699951171875 264.4501953125 168.90008544921875 C266.86474609375 166.62835693359375 269.704833984375 165.70059204101562 273.0057067871094 166.10305786132812 C274.2375793457031 166.25357055664062 275.486328125 166.35800170898438 276.72589111328125 166.34262084960938 C285.29217529296875 166.23666381835938 295.286865234375 175.40969848632812 297.3651123046875 181.96224975585938 C298.30670166015625 184.9298095703125 299.17608642578125 187.90963745117188 299.45562744140625 191.02157592773438 C299.623046875 192.87857055664062 299.7305908203125 194.74176025390625 299.827392578125 196.6033935546875 C300.08538818359375 201.59075927734375 301.59063720703125 206.03750610351562 304.9053955078125 209.91436767578125 C308.2322998046875 213.8050537109375 310.883544921875 218.1396484375 312.5269775390625 223.05947875976562 C313.910888671875 227.19744873046875 315.9354248046875 231.06048583984375 318.15185546875 234.80831909179688 C320.91357421875 239.47622680664062 322.0947265625 244.70938110351562 323.6767578125 249.80429077148438 C323.976318359375 250.76739501953125 323.6829833984375 251.54766845703125 322.88427734375 252.07757568359375 C320.8966064453125 253.39547729492188 318.717041015625 254.27560424804688 316.3778076171875 254.75332641601562 C315.258056640625 254.98211669921875 314.427001953125 254.52593994140625 313.88330078125 253.569091796875 C313.08447265625 252.16513061523438 312.2413330078125 250.77655029296875 311.5654296875 249.3143310546875 C309.494873046875 244.83535766601562 306.53350830078125 241.05831909179688 302.8271484375 237.82965087890625 C300.8533935546875 236.10931396484375 299.0762939453125 234.20465087890625 297.5125732421875 232.09732055664062 C295.875244140625 229.8916015625 294.5035400390625 227.55535888671875 293.46527099609375 224.996337890625 C291.1197509765625 219.21636962890625 288.17987060546875 213.75439453125 284.4058837890625 208.76544189453125 C283.9620361328125 208.1787109375 283.65789794921875 207.46136474609375 282.7408447265625 207.1280517578125 C281.751708984375 208.71939086914062 281.42608642578125 210.53033447265625 281.22021484375 212.3551025390625 C280.61199951171875 217.75869750976562 281.298583984375 223.014892578125 283.16632080078125 228.11749267578125 C283.42132568359375 228.8148193359375 283.7469482421875 229.49069213867188 283.94818115234375 230.20187377929688 C284.092529296875 230.71182250976562 283.87139892578125 231.24176025390625 283.40289306640625 231.46600341796875 C282.62255859375 231.83926391601562 281.794677734375 232.12030029296875 280.971435546875 232.390625 C274.8274230957031 234.4058837890625 268.52984619140625 235.84515380859375 262.2444763183594 237.327392578125 C257.77166748046875 238.382568359375 253.29116821289062 239.40252685546875 248.81063842773438 240.4239501953125 C248.20849609375 240.56063842773438 247.58798217773438 240.648193359375 246.9720458984375 240.69580078125 C246.14874267578125 240.75875854492188 245.49594116210938 240.36712646484375 245.13345336914062 239.6605224609375 C241.11065673828125 231.82696533203125 236.7054443359375 224.17001342773438 234.92520141601562 215.3702392578125 C234.174072265625 211.66232299804688 233.8837890625 207.9666748046875 234.3553466796875 204.25732421875 C235.058837890625 198.729248046875 234.18331909179688 193.46224975585938 232.98675537109375 188.0494384765625 C231.718017578125 182.30325317382812 228.40182495117188 178.25277709960938 224.35443115234375 174.54339599609375 C221.14263916015625 171.60037231445312 218.142822265625 168.4500732421875 215.00631713867188 165.43792724609375 C209.63958740234375 160.2816162109375 206.78106689453125 154.02236938476562 206.30487060546875 146.61737060546875 C206.209716796875 145.1351318359375 205.93780517578125 143.65902709960938 205.69204711914062 142.1905517578125 C204.84725952148438 137.14791870117188 205.32644653320312 132.26034545898438 207.51678466796875 127.62161254882812 C209.69329833984375 123.01519775390625 212.03726196289062 118.48855590820312 214.199951171875 113.87750244140625 C215.06625366210938 112.03125 216.29046630859375 111.23861694335938 218.31182861328125 111.53973388671875 C220.15350341796875 111.8131103515625 222.01971435546875 111.9344482421875 223.86138916015625 112.20477294921875 C225.3221435546875 112.41983032226562 225.89044189453125 112.98663330078125 225.79827880859375 114.4320068359375 C225.64163208007812 116.90802001953125 225.33285522460938 119.37637329101562 225.01953125 121.84011840820312 C224.84750366210938 123.19338989257812 224.6063232421875 124.548095703125 224.26690673828125 125.86907958984375 C223.137939453125 130.27584838867188 223.31304931640625 134.74563598632812 223.538818359375 139.21844482421875 C223.675537109375 141.918701171875 224.6693115234375 144.32107543945312 226.37738037109375 146.37774658203125 C228.93017578125 149.44818115234375 231.21731567382812 152.67837524414062 233.04513549804688 156.23883056640625 C233.96826171875 158.03598022460938 235.39825439453125 159.4598388671875 236.97576904296875 160.679443359375 C240.51318359375 163.41656494140625 243.970703125 166.29507446289062 248.001220703125 168.29644775390625 C250.03173828125 169.30563354492188 251.34042358398438 170.80624389648438 252.13607788085938 172.85836791992188 C252.629150390625 174.1317138671875 253.119140625 175.40655517578125 253.65362548828125 176.6614990234375 C253.84564208984375 177.09463500976562 254.16360473632812 177.4755859375 254.39401245117188 177.8365478515625 Z"></path></svg>