<svg xmlns="http://www.w3.org/2000/svg" viewBox="0.0 0.0 512.0 512.0" height="512.0px" width="512.0px"><path fill="#0586A3" fill-opacity="1.0"  filling="0" d="M127.14682006835938 370.4716796875 C127.40733337402344 372.8604736328125 121.08389282226562 382.6785888671875 117.39015197753906 383.55474853515625 C114.58110046386719 384.2219543457031 108.49977111816406 380.1767272949219 104.04167175292969 377.21044921875 C102.63839721679688 376.27655029296875 101.39485168457031 375.44952392578125 100.46586608886719 374.91009521484375 C96.58534240722656 372.6589660644531 73.73703002929688 358.950439453125 76.41456604003906 350.3857116699219 C79.09213256835938 341.82098388671875 85.61582946777344 344.45306396484375 89.1768798828125 346.166015625 C92.73794555664062 347.87896728515625 105.89715576171875 355.30340576171875 116.46240234375 356.6022033691406 L116.79415893554688 356.64276123046875 C127.03866577148438 357.8998107910156 127.52897644042969 357.96002197265625 127.14682006835938 370.4716796875 Z"></path>
<path fill="#FBC9BE" fill-opacity="1.0"  filling="0" d="M223.23159790039062 177.88925170898438 C234.35589599609375 183.56137084960938 233.1873321533203 196.0767059326172 226.15492248535156 198.1386260986328 C219.12249755859375 200.2005615234375 182.10488891601562 199.35269165039062 172.28060913085938 197.62252807617188 C162.45635986328125 195.8923797607422 142.24630737304688 189.5775909423828 129.544189453125 185.24851989746094 C119.11660766601562 181.69483947753906 120.33924865722656 175.13182067871094 133.09912109375 177.4886474609375 C137.1332550048828 178.2333221435547 140.98922729492188 178.9804229736328 144.61419677734375 179.6832733154297 C157.9847412109375 182.27235412597656 168.20713806152344 184.251953125 172.6074981689453 183.2799835205078 C178.2010040283203 182.04502868652344 217.36407470703125 178.02439880371094 223.23159790039062 177.88925170898438 Z"></path>
<path fill="#F7573F" fill-opacity="1.0"  filling="0" d="M283.4489440917969 147.6239013671875 C298.090087890625 146.40371704101562 309.7685852050781 170.63070678710938 288.3297119140625 180.56556701660156 C265.3229064941406 209.4989013671875 236.04058837890625 197.994873046875 227.50045776367188 183.3537139892578 C202.05320739746094 190.67367553710938 200.13629150390625 163.65850830078125 207.97970581054688 157.38424682617188 C200.13629150390625 138.56024169921875 217.85804748535156 132.54898071289062 226.22372436523438 135.68609619140625 C226.67471313476562 110.39617919921875 252.01254272460938 110.1331787109375 263.75372314453125 125.48828125 C272.29388427734375 118.6905517578125 291.98907470703125 126.18624877929688 283.4489440917969 147.6239013671875 Z"></path>
<path fill="#059DBF" fill-opacity="1.0"  filling="0" d="M129.27633666992188 368.05218505859375 C129.53683471679688 370.44097900390625 123.21340942382812 380.2578125 119.5196533203125 381.1352233886719 C116.71060180664062 381.8024597167969 110.63050842285156 377.7572326660156 106.17242431640625 374.7908935546875 C104.76791381835938 373.85577392578125 103.52433776855469 373.02880859375 102.59538269042969 372.4893798828125 C98.71484375 370.23822021484375 75.86651611328125 356.52972412109375 78.54408264160156 347.9649658203125 C80.84071350097656 340.61798095703125 89.31451416015625 345.35504150390625 93.92497253417969 347.9317932128906 C94.68930053710938 348.35943603515625 95.34793090820312 348.7280578613281 95.85418701171875 348.97137451171875 C99.41525268554688 350.684326171875 108.02546691894531 352.88262939453125 118.59066772460938 354.18145751953125 L118.92247009277344 354.2220458984375 C129.16818237304688 355.4803161621094 129.6584930419922 355.54052734375 129.27633666992188 368.05218505859375 Z"></path>
<path fill="#FBC9BE" fill-opacity="1.0"  filling="0" d="M129.27508544921875 368.05218505859375 C119.40534973144531 372.4709167480469 107.33363342285156 360.86614990234375 107.50936889648438 355.71502685546875 C107.61503601074219 352.6282958984375 109.69538879394531 352.92071533203125 112.20828247070312 353.27337646484375 C113.85978698730469 353.5056457519531 115.69805908203125 353.763671875 117.28446960449219 353.1050720214844 L130.95611572265625 338.42706298828125 L141.35174560546875 349.41741943359375 C137.14923095703125 355.58721923828125 132.27212524414062 360.3328552246094 129.27508544921875 368.05218505859375 Z"></path>
<path fill="#244191" fill-opacity="1.0"  filling="0" d="M130.96592712402344 364.33135986328125 C126.79046630859375 362.0580749511719 121.28541564941406 357.50048828125 117.78828430175781 352.8494567871094 C117.75633239746094 352.78680419921875 117.73173522949219 352.7216796875 117.70101928710938 352.65899658203125 L130.95611572265625 338.42828369140625 L141.35174560546875 349.4186706542969 C137.86810302734375 354.53289794921875 133.9211883544922 358.6690368652344 130.96592712402344 364.33135986328125 Z"></path>
<path fill="#0586A3" fill-opacity="1.0"  filling="0" d="M354.258544921875 372.83343505859375 C353.87518310546875 360.32177734375 354.3666687011719 360.2615661621094 364.6111755371094 359.0032958984375 L364.94293212890625 358.9627685546875 C375.5081787109375 357.66387939453125 388.6673583984375 350.239501953125 392.22845458984375 348.52655029296875 C395.78826904296875 346.8135986328125 402.31201171875 344.1815185546875 404.989501953125 352.7462158203125 C407.6670837402344 361.31097412109375 384.81878662109375 375.01947021484375 380.9382019042969 377.2706298828125 C380.010498046875 377.808837890625 378.7706604003906 378.63458251953125 377.3697814941406 379.5660400390625 C372.9117126464844 382.5335693359375 366.8242492675781 386.5837097167969 364.0140075683594 385.9164733886719 C360.3214111328125 385.04034423828125 353.998046875 375.22222900390625 354.258544921875 372.83343505859375 Z"></path>
<path fill="#059DBF" fill-opacity="1.0"  filling="0" d="M352.1290283203125 370.4139404296875 C351.74688720703125 357.90228271484375 352.2371826171875 357.8420715332031 362.48291015625 356.58380126953125 L362.8146667480469 356.5432434082031 C373.3798828125 355.244384765625 381.9900817871094 353.04608154296875 385.5511169433594 351.3331298828125 C386.05865478515625 351.0898132324219 386.7172546386719 350.72119140625 387.48284912109375 350.2923278808594 C392.094482421875 347.71551513671875 400.56463623046875 342.98095703125 402.86126708984375 350.32672119140625 C405.538818359375 358.8914794921875 382.69049072265625 372.5999755859375 378.8099670410156 374.85113525390625 C377.8797607421875 375.39056396484375 376.6374206542969 376.217529296875 375.23291015625 377.15264892578125 C370.77484130859375 380.11895751953125 364.6947021484375 384.1642150878906 361.8857116699219 383.4969787597656 C358.1919250488281 382.620849609375 351.8684997558594 372.802734375 352.1290283203125 370.4139404296875 Z"></path>
<path fill="#FBC9BE" fill-opacity="1.0"  filling="0" d="M352.1290283203125 370.4139404296875 C349.1319580078125 362.6946105957031 344.2548828125 357.948974609375 340.0523681640625 351.7791748046875 L350.447998046875 340.7887878417969 L364.1196594238281 355.466796875 C365.70599365234375 356.12542724609375 367.5443420410156 355.8674011230469 369.1958312988281 355.6351318359375 C371.7087097167969 355.2825012207031 373.7890930175781 354.99005126953125 373.8947448730469 358.0767822265625 C374.07171630859375 363.2266845703125 361.9987487792969 374.8326721191406 352.1290283203125 370.4139404296875 Z"></path>
<path fill="#244191" fill-opacity="1.0"  filling="0" d="M348.1734924316406 364.34979248046875 C345.217041015625 358.6875 341.2713623046875 354.5513916015625 337.7876892089844 349.43707275390625 L349.630859375 336.7779846191406 C350.96533203125 338.1456298828125 363.1354064941406 351.3282165527344 362.5750427246094 352.42303466796875 C359.0779113769531 357.0740661621094 352.3477478027344 362.0777587890625 348.1734924316406 364.34979248046875 Z"></path>
<path fill="#3554A6" fill-opacity="1.0"  filling="0" d="M226.49530029296875 275.76068115234375 C226.11314392089844 275.6181640625 225.7027130126953 275.47808837890625 225.27017211914062 275.3404541015625 C225.2959747314453 253.88929748535156 232.21778869628906 236.41575622558594 243.48220825195312 221.44650268554688 C255.22708129882812 225.52490234375 266.79254150390625 230.3983154296875 266.81097412109375 231.08767700195312 C266.8699645996094 233.20367431640625 266.86627197265625 235.65020751953125 266.8625793457031 238.1114959716797 C266.855224609375 243.1065673828125 266.84783935546875 248.164306640625 267.3578186035156 250.63909912109375 C268.299072265625 255.21270751953125 311.90301513671875 287.0545959472656 320.12738037109375 299.7603759765625 C322.9376525878906 304.10174560546875 329.1246643066406 309.1189270019531 335.8474426269531 314.56988525390625 C348.80267333984375 325.07366943359375 363.742431640625 337.1871643066406 360.3153076171875 349.17291259765625 C357.2445068359375 352.14044189453125 353.3037414550781 356.2225341796875 345.3927001953125 360.6339111328125 C334.1664123535156 361.08734130859375 328.3824462890625 354.1138916015625 318.6380920410156 342.3653259277344 C315.5119934082031 338.5941467285156 311.97674560546875 334.3326721191406 307.7238464355469 329.66693115234375 C300.30560302734375 321.52978515625 299.0928039550781 315.7679443359375 294.2414855957031 313.45904541015625 C265.0169677734375 299.553955078125 235.7223358154297 279.2234802246094 226.49530029296875 275.76068115234375 Z"></path>
<path fill="#3554A6" fill-opacity="1.0"  filling="0" d="M229.4640655517578 221.49566650390625 L248.38389587402344 275.14630126953125 C236.253173828125 279.7100524902344 209.572265625 299.0710144042969 179.69400024414062 315.8404541015625 C174.99749755859375 318.47747802734375 171.894775390625 326.6182556152344 168.1334228515625 330.4902038574219 C164.42611694335938 334.3056640625 160.89088439941406 338.536376953125 157.48709106445312 342.608642578125 C148.69993591308594 353.12103271484375 140.79510498046875 362.5791015625 133.11509704589844 361.1143493652344 C128.89541625976562 358.9295654296875 123.12861633300781 354.2171325683594 119.51103210449219 349.4051208496094 C112.93698120117188 336.5936584472656 136.65896606445312 314.86724853515625 149.0206756591797 303.54754638671875 C151.95748901367188 300.8576965332031 154.25289916992188 298.7552490234375 155.34774780273438 297.4993896484375 C161.05307006835938 290.95849609375 205.89813232421875 255.8098907470703 206.02716064453125 251.23509216308594 C206.1562042236328 246.66024780273438 207.02249145507812 239.89572143554688 207.206787109375 232.51431274414062 C206.92539978027344 230.04196166992188 218.0288543701172 225.4216766357422 229.4640655517578 221.49566650390625 Z"></path>
<path fill="#FBC9BE" fill-opacity="1.0"  filling="0" d="M275.932373046875 181.57565307617188 C281.7998962402344 181.71080017089844 320.9629821777344 185.7314453125 326.5564880371094 186.96636962890625 C332.14996337890625 188.20254516601562 356.3929443359375 183.993896484375 366.06488037109375 180.03350830078125 C378.07391357421875 175.1170654296875 379.79052734375 184.03692626953125 369.6197509765625 188.80221557617188 C358.79156494140625 193.87591552734375 336.70758056640625 199.57876586914062 326.8833312988281 201.30894470214844 C317.05908203125 203.03909301757812 280.0414733886719 203.886962890625 273.0090637207031 201.82382202148438 C265.9765930175781 199.7631072998047 264.80804443359375 187.24777221679688 275.932373046875 181.57565307617188 Z"></path>
<path fill="#FFFFFF" fill-opacity="1.0"  filling="0" d="M239.78228759765625 254.73716735839844 C239.7490997314453 254.9546661376953 239.7490997314453 254.9546661376953 239.67047119140625 255.44741821289062 C237.31610107421875 270.35272216796875 237.31610107421875 270.35272216796875 245.32420349121094 275.8675842285156 C245.93121337890625 276.2853698730469 245.93121337890625 276.2853698730469 245.51341247558594 276.8924255371094 C245.09564208984375 277.49945068359375 245.09564208984375 277.49945068359375 244.48858642578125 277.0816650390625 C236.02093505859375 271.249755859375 236.02093505859375 271.249755859375 238.05459594726562 256.30877685546875 C233.9246063232422 261.3702087402344 233.9246063232422 261.3702087402344 232.5631103515625 265.0025634765625 C230.50608825683594 270.4928283691406 230.50608825683594 270.4928283691406 232.90591430664062 276.18951416015625 C233.19223022460938 276.86907958984375 233.19223022460938 276.86907958984375 232.51271057128906 277.1553649902344 C231.8332061767578 277.4416809082031 231.8332061767578 277.4416809082031 231.54689025878906 276.76214599609375 C228.91970825195312 270.5235595703125 228.91970825195312 270.5235595703125 231.1831512451172 264.4852294921875 C232.8199005126953 260.1168518066406 232.8199005126953 260.1168518066406 238.10377502441406 253.95196533203125 C238.58421325683594 253.39163208007812 238.58421325683594 253.39163208007812 239.14334106445312 253.870849609375 C239.15931701660156 253.88436889648438 239.15931701660156 253.88436889648438 239.17404174804688 253.8978729248047 C239.8941192626953 254.0133819580078 239.8941192626953 254.0133819580078 239.78228759765625 254.73716735839844 Z"></path>
<path fill="#FB9300" fill-opacity="1.0"  filling="0" d="M272.60845947265625 244.47177124023438 C246.9117889404297 264.0809631347656 213.2709197998047 256.13671875 202.28302001953125 243.28843688964844 C207.354248046875 235.51258850097656 211.1918182373047 211.50306701660156 210.34637451171875 208.12261962890625 C209.5009765625 204.740966796875 199.67550659179688 202.44558715820312 194.0402069091797 201.3249053955078 C195.44349670410156 193.56011962890625 195.1731719970703 188.02191162109375 193.1542510986328 178.2234649658203 C208.52655029296875 175.30628967285156 259.0585021972656 174.76686096191406 293.44647216796875 180.08018493652344 C289.71826171875 187.2072296142578 290.96429443359375 198.47039794921875 293.90972900390625 205.38365173339844 C293.4157409667969 205.38365173339844 292.61700439453125 205.3406219482422 291.6204528808594 205.2877960205078 C287.159912109375 205.05062866210938 278.74017333984375 204.60333251953125 275.9765930175781 206.81396484375 C272.59619140625 209.519775390625 268.0447082519531 237.54010009765625 272.60845947265625 244.47177124023438 Z"></path>
<path fill="#FFFFFF" fill-opacity="1.0"  filling="0" d="M291.52459716796875 186.1086883544922 C268.4317626953125 184.74224853515625 268.4317626953125 184.74224853515625 241.4755859375 183.85507202148438 C210.79983520507812 182.84498596191406 210.79983520507812 182.84498596191406 194.10166931152344 183.30332946777344 C193.97879028320312 182.54640197753906 193.84237670898438 181.76611328125 193.69125366210938 180.95631408691406 C210.5270233154297 180.47586059570312 210.5270233154297 180.47586059570312 241.5530242919922 181.49697875976562 C268.7524719238281 182.39279174804688 268.7524719238281 182.39279174804688 292.0284118652344 183.7751922607422 C291.8232421875 184.53211975097656 291.6573486328125 185.31118774414062 291.52459716796875 186.1086883544922 Z"></path>
<path fill="#FFFFFF" fill-opacity="1.0"  filling="0" d="M291.2149353027344 193.510986328125 C268.8041076660156 192.20846557617188 268.8041076660156 192.20846557617188 242.79898071289062 191.3531951904297 C211.62924194335938 190.3271484375 211.62924194335938 190.3271484375 194.89056396484375 190.8162078857422 C194.86473083496094 190.04452514648438 194.8180389404297 189.2630157470703 194.751708984375 188.4618377685547 C211.60592651367188 187.96539306640625 211.60592651367188 187.96539306640625 242.8764190673828 188.99513244628906 C268.7868957519531 189.84791564941406 268.7868957519531 189.84791564941406 291.13507080078125 191.14308166503906 C291.13629150390625 191.93072509765625 291.163330078125 192.7220916748047 291.2149353027344 193.510986328125 Z"></path>
<path fill="#FFFFFF" fill-opacity="1.0"  filling="0" d="M292.6993408203125 201.9700469970703 C268.2117919921875 200.46475219726562 268.2117919921875 200.46475219726562 239.2698974609375 199.51243591308594 C210.8551025390625 198.57608032226562 210.8551025390625 198.57608032226562 194.43344116210938 198.90049743652344 C194.5465087890625 198.09686279296875 194.64112854003906 197.31288146972656 194.71482849121094 196.53750610351562 C211.18441772460938 196.2266082763672 211.18441772460938 196.2266082763672 239.3472900390625 197.15435791015625 C267.8726501464844 198.09315490722656 267.8726501464844 198.09315490722656 292.0824890136719 199.56895446777344 C292.2655944824219 200.3922576904297 292.47198486328125 201.19589233398438 292.6993408203125 201.9700469970703 Z"></path>
<path fill="#FFFFFF" fill-opacity="1.0"  filling="0" d="M274.712158203125 208.83534240722656 C259.9088134765625 208.9815673828125 259.9088134765625 208.9815673828125 240.39178466796875 208.33152770996094 C222.9723358154297 207.7503204345703 222.9723358154297 207.7503204345703 209.63369750976562 206.90489196777344 C208.6961212158203 205.89483642578125 206.98440551757812 205.00148010253906 204.95196533203125 204.22610473632812 C219.82659912109375 205.28533935546875 219.82659912109375 205.28533935546875 240.4704132080078 205.9734649658203 C261.1646423339844 206.662841796875 261.1646423339844 206.662841796875 276.5123596191406 206.4551544189453 C276.31573486328125 206.56698608398438 276.1363220214844 206.68617248535156 275.9765930175781 206.81396484375 C275.5661926269531 207.14205932617188 275.1385803222656 207.8437042236328 274.712158203125 208.83534240722656 Z"></path>
<path fill="#FFFFFF" fill-opacity="1.0"  filling="0" d="M272.3786926269531 217.2710418701172 C255.9361114501953 217.5032958984375 255.9361114501953 217.5032958984375 235.29348754882812 216.7512664794922 C220.85264587402344 216.225341796875 220.85264587402344 216.225341796875 209.96424865722656 215.52371215820312 C210.07237243652344 214.69424438476562 210.16455078125 213.90904235839844 210.23826599121094 213.1791534423828 C221.03819274902344 213.87095642089844 221.03819274902344 213.87095642089844 235.37950134277344 214.3931884765625 C256.30596923828125 215.15626525878906 256.30596923828125 215.15626525878906 272.8787841796875 214.9043731689453 C272.7055358886719 215.66253662109375 272.5384521484375 216.45266723632812 272.3786926269531 217.2710418701172 Z"></path>
<path fill="#FFFFFF" fill-opacity="1.0"  filling="0" d="M271.2862854003906 224.2850341796875 C258.4452819824219 225.71905517578125 258.4452819824219 225.71905517578125 239.58935546875 225.36514282226562 C220.71011352539062 225.01124572753906 220.71011352539062 225.01124572753906 208.69244384765625 223.25408935546875 C208.84478759765625 222.47132873535156 208.98858642578125 221.69717407226562 209.1237335205078 220.9365692138672 C220.9423370361328 222.65687561035156 220.9423370361328 222.65687561035156 239.63360595703125 223.007080078125 C258.78936767578125 223.3646697998047 258.78936767578125 223.3646697998047 271.6008605957031 221.87660217285156 C271.48779296875 222.67039489746094 271.3821105957031 223.47525024414062 271.2862854003906 224.2850341796875 Z"></path>
<path fill="#FFFFFF" fill-opacity="1.0"  filling="0" d="M271.86749267578125 242.9652557373047 C256.28265380859375 252.79811096191406 256.28265380859375 252.79811096191406 234.51446533203125 251.499267578125 C221.4068145751953 250.7177734375 221.4068145751953 250.7177734375 209.83889770507812 245.6206817626953 C206.1856689453125 244.01097106933594 206.1856689453125 244.01097106933594 202.98342895507812 242.1001739501953 C203.32994079589844 241.45506286621094 203.6703338623047 240.73744201660156 204.00332641601562 239.96083068847656 C207.16134643554688 241.86302185058594 207.16134643554688 241.86302185058594 210.79000854492188 243.46168518066406 C221.96961975097656 248.38670349121094 221.96961975097656 248.38670349121094 234.65574645996094 249.14366149902344 C256.06634521484375 250.421630859375 256.06634521484375 250.421630859375 271.2223815917969 240.569091796875 C271.3919677734375 241.45751953125 271.60577392578125 242.26361083984375 271.86749267578125 242.9652557373047 Z"></path>
<path fill="#FFFFFF" fill-opacity="1.0"  filling="0" d="M270.8365478515625 237.66421508789062 C256.3194885253906 242.69615173339844 256.3194885253906 242.69615173339844 236.8466796875 241.94781494140625 C218.30166625976562 241.235107421875 218.30166625976562 241.235107421875 205.43978881835938 236.11346435546875 C205.681884765625 235.38478088378906 205.9165802001953 234.62905883789062 206.1451416015625 233.8561553955078 C218.66537475585938 238.88809204101562 218.66537475585938 238.88809204101562 236.9364013671875 239.59097290039062 C256.3993835449219 240.3380889892578 256.3993835449219 240.3380889892578 270.7038269042969 235.2090606689453 C270.7271423339844 236.0581817626953 270.7713928222656 236.87901306152344 270.8365478515625 237.66421508789062 Z"></path>
<path fill="#FFFFFF" fill-opacity="1.0"  filling="0" d="M270.7394714355469 231.0667724609375 C256.7262268066406 233.97412109375 256.7262268066406 233.97412109375 238.26966857910156 233.56492614746094 C219.9273681640625 233.159423828125 219.9273681640625 233.159423828125 207.20556640625 229.95716857910156 C207.39605712890625 229.19900512695312 207.58038330078125 228.4334716796875 207.756103515625 227.66546630859375 C220.20504760742188 230.80503845214844 220.20504760742188 230.80503845214844 238.32249450683594 231.20687866210938 C256.9289855957031 231.61851501464844 256.9289855957031 231.61851501464844 270.8746337890625 228.62884521484375 C270.81689453125 229.44845581054688 270.7713928222656 230.26315307617188 270.7394714355469 231.0667724609375 Z"></path>
<path fill="#FBC9BE" fill-opacity="1.0"  filling="0" d="M240.57241821289062 153.1031036376953 L261.47308349609375 155.389892578125 L258.3211975097656 183.56875610351562 C257.59130859375 190.09983825683594 251.82823181152344 197.5955047607422 247.08013916015625 197.33621215820312 C241.3994140625 197.0277862548828 236.697998046875 187.7454376220703 237.42178344726562 181.28073120117188 Z"></path>
<path fill="#E6B3A8" fill-opacity="1.0"  filling="0" d="M259.0130310058594 176.876708984375 C258.6382141113281 180.22642517089844 258.58782958984375 181.95655822753906 258.21307373046875 185.3074951171875 C247.7092742919922 192.22933959960938 241.7287139892578 187.8732452392578 237.54954528808594 179.6144561767578 C237.73757934570312 177.9396209716797 237.92434692382812 176.2647705078125 238.1123504638672 174.58990478515625 C244.79702758789062 175.99073791503906 252.32833862304688 175.4746551513672 259.0130310058594 176.876708984375 Z"></path>
<path fill="#FBC9BE" fill-opacity="1.0"  filling="0" d="M257.1661376953125 132.45925903320312 C272.95867919921875 134.44869995117188 273.6824645996094 148.20265197753906 270.42242431640625 161.97381591796875 C267.2570495605469 175.34808349609375 257.6650390625 186.27825927734375 248.11355590820312 184.4092559814453 C240.65721130371094 182.95065307617188 234.05364990234375 173.24314880371094 233.36428833007812 162.9015655517578 C232.29151916503906 146.81658935546875 240.361083984375 130.34207153320312 257.1661376953125 132.45925903320312 Z"></path>
<path fill="#C99387" fill-opacity="1.0"  filling="0" d="M241.65869140625 168.29722595214844 C248.00050354003906 166.80914306640625 256.1474609375 167.19007873535156 261.6094665527344 169.15493774414062 C258.73651123046875 181.00547790527344 244.1531524658203 181.1136016845703 241.65869140625 168.29722595214844 Z"></path>
<path fill="#FFFFFF" fill-opacity="1.0"  filling="0" d="M244.3706512451172 168.4925994873047 C248.97494506835938 167.62384033203125 254.4873504638672 167.9003143310547 259.191162109375 169.07135009765625 C255.55270385742188 170.0150909423828 248.63087463378906 169.9376678466797 244.3706512451172 168.4925994873047 Z"></path>
<path fill="#2B363D" fill-opacity="1.0"  filling="0" d="M239.38172912597656 153.97311401367188 C240.9263153076172 152.77993774414062 240.9263153076172 152.77993774414062 243.58177185058594 153.07237243652344 C245.9484100341797 153.33290100097656 245.9484100341797 153.33290100097656 247.50408935546875 154.47445678710938 C247.74122619628906 154.64894104003906 247.74122619628906 154.64894104003906 247.77316284179688 154.85537719726562 C247.8051300048828 155.06060791015625 247.8051300048828 155.06060791015625 247.63064575195312 155.29898071289062 C247.2816619873047 155.77452087402344 247.2816619873047 155.77452087402344 246.80612182617188 155.425537109375 C245.50604248046875 154.4707489013672 245.50604248046875 154.4707489013672 243.45272827148438 154.2446746826172 C241.27037048339844 154.0038299560547 241.27037048339844 154.0038299560547 240.10179138183594 154.90699768066406 C239.63607788085938 155.2670440673828 239.63607788085938 155.2670440673828 239.27481079101562 154.80007934570312 C239.0954132080078 154.56785583496094 239.0954132080078 154.56785583496094 239.1212158203125 154.36016845703125 C239.14825439453125 154.1537322998047 239.14825439453125 154.1537322998047 239.38172912597656 153.97311401367188 Z"></path>
<path fill="#DEA699" fill-opacity="1.0"  filling="0" d="M251.48170471191406 163.57984924316406 C255.9078369140625 162.3596649169922 254.8940887451172 159.49411010742188 253.55470275878906 155.71063232421875 C253.51292419433594 155.59141540527344 253.46990966796875 155.4710235595703 253.42689514160156 155.34934997558594 C256.5492858886719 158.4361114501953 258.2658996582031 163.2247314453125 251.48170471191406 163.57984924316406 Z"></path>
<path fill="#F7573F" fill-opacity="1.0"  filling="0" d="M259.3890075683594 149.1734161376953 C258.1049499511719 149.55064392089844 257.52984619140625 147.59686279296875 258.8151550292969 147.21963500976562 C261.3194885253906 146.48233032226562 266.6401672363281 147.56980895996094 268.25238037109375 149.7275848388672 C269.04986572265625 150.79420471191406 268.0041809082031 151.50567626953125 267.2054138183594 150.43783569335938 C266.11669921875 148.9829559326172 261.0798645019531 148.67575073242188 259.3890075683594 149.1734161376953 Z"></path>
<path fill="#F7573F" fill-opacity="1.0"  filling="0" d="M248.46868896484375 146.50323486328125 C249.6950225830078 147.03529357910156 248.886474609375 148.89938354492188 247.66134643554688 148.36854553222656 C245.8673095703125 147.59317016601562 240.89804077148438 147.17416381835938 239.31658935546875 148.34027099609375 C238.24139404296875 149.13165283203125 237.68597412109375 148.19773864746094 238.7599334716797 147.40762329101562 C240.920166015625 145.8151092529297 246.0209197998047 145.4452362060547 248.46868896484375 146.50323486328125 Z"></path>
<path fill="#2B363D" fill-opacity="1.0"  filling="0" d="M266.4165344238281 157.27610778808594 C265.4298400878906 156.1775665283203 265.4298400878906 156.1775665283203 263.2400817871094 156.0215301513672 C261.17938232421875 155.8740692138672 261.17938232421875 155.8740692138672 259.72943115234375 156.57937622070312 C259.19854736328125 156.83621215820312 259.19854736328125 156.83621215820312 258.9405212402344 156.30657958984375 C258.8114929199219 156.04116821289062 258.8114929199219 156.04116821289062 258.8802795410156 155.8445587158203 C258.9478759765625 155.646728515625 258.9478759765625 155.646728515625 259.2132873535156 155.51771545410156 C260.9483947753906 154.6747283935547 260.9483947753906 154.6747283935547 263.3236389160156 154.8443145751953 C265.9889221191406 155.03477478027344 265.9889221191406 155.03477478027344 267.2939147949219 156.4872283935547 C267.4905090332031 156.70718383789062 267.4905090332031 156.70718383789062 267.4794616699219 156.91485595703125 C267.4683837890625 157.12374877929688 267.4683837890625 157.12374877929688 267.2496643066406 157.3203582763672 C266.81097412109375 157.7147979736328 266.81097412109375 157.7147979736328 266.4165344238281 157.27610778808594 Z"></path>
<path fill="#F7573F" fill-opacity="1.0"  filling="0" d="M272.06658935546875 130.92941284179688 C269.68145751953125 144.99917602539062 244.80685424804688 157.1397247314453 225.96568298339844 155.7081756591797 C207.125732421875 154.27783203125 236.05535888671875 117.09805297851562 272.06658935546875 130.92941284179688 Z"></path>
<path fill="#FBC9BE" fill-opacity="1.0"  filling="0" d="M376.5342102050781 177.471435546875 C377.6954650878906 176.81649780273438 378.7546691894531 176.16769409179688 379.7044982910156 175.58770751953125 C382.46807861328125 173.8968505859375 384.30517578125 172.77252197265625 385.0289306640625 173.6842803955078 C386.85491943359375 175.987060546875 367.9043273925781 195.6220703125 360.819091796875 188.98284912109375 C356.6620788574219 185.08753967285156 360.7698974609375 169.32081604003906 364.7414245605469 169.05047607421875 C366.7517395019531 168.91285705566406 365.7269287109375 172.61032104492188 364.0975341796875 176.50314331054688 C365.95916748046875 174.50389099121094 367.6844177246094 172.5120086669922 369.25360107421875 170.69952392578125 C373.376220703125 165.93914794921875 376.42486572265625 162.4186553955078 378.0566711425781 163.2702178955078 C379.3506164550781 163.94480895996094 376.2552795410156 169.27166748046875 373.0898742675781 173.62652587890625 C374.1490783691406 172.74424743652344 375.2156982421875 171.77964782714844 376.2528381347656 170.84329223632812 C379.68731689453125 167.74058532714844 382.7900390625 164.93768310546875 384.1662902832031 166.38766479492188 C385.48968505859375 167.78236389160156 381.78607177734375 171.78456115722656 378.274169921875 175.57908630371094 C377.679443359375 176.22052001953125 377.0920715332031 176.85581970214844 376.5342102050781 177.471435546875 Z"></path>
<path fill="#E6B5AA" fill-opacity="1.0"  filling="0" d="M369.0520935058594 186.65548706054688 C370.09161376953125 183.7628936767578 366.9655456542969 176.59654235839844 365.25994873046875 175.2362518310547 C367.9866943359375 176.10256958007812 371.449462890625 183.13128662109375 369.0520935058594 186.65548706054688 Z"></path>
<path fill="#E6B5AA" fill-opacity="1.0"  filling="0" d="M377.4373779296875 182.38050842285156 C376.827880859375 179.76560974121094 371.16802978515625 173.35987854003906 369.0790710449219 172.73318481445312 C371.929931640625 172.52059936523438 378.4118347167969 178.94232177734375 377.4373779296875 182.38050842285156 Z"></path>
<path fill="#FBC9BE" fill-opacity="1.0"  filling="0" d="M115.88117980957031 170.45008850097656 C115.32453918457031 169.83445739746094 114.73716735839844 169.20037841796875 114.14366149902344 168.5589599609375 C110.63174438476562 164.76443481445312 106.92691040039062 160.760986328125 108.24908447265625 159.36631774902344 C109.62535095214844 157.91632080078125 112.72805786132812 160.71920776367188 116.16258239746094 163.82191467285156 C117.19967651367188 164.75827026367188 118.26625061035156 165.722900390625 119.32548522949219 166.6051483154297 C116.16011047363281 162.2502899169922 113.06353759765625 156.92344665527344 114.35743713378906 156.24884033203125 C115.98809814453125 155.3972930908203 119.03672790527344 158.9178009033203 123.15936279296875 163.67816162109375 C124.728515625 165.4906463623047 126.45378112792969 167.48377990722656 128.31661987304688 169.48301696777344 C126.687255859375 165.59019470214844 125.66241455078125 161.89271545410156 127.67271423339844 162.03033447265625 C131.64422607421875 162.30068969726562 135.75210571289062 178.06739807128906 131.59506225585938 181.96270751953125 C124.50981140136719 188.60189819335938 105.55924987792969 168.9669189453125 107.38525390625 166.66415405273438 C108.1090087890625 165.7511444091797 109.94606018066406 166.87550354003906 112.70965576171875 168.56507873535156 C113.65948486328125 169.14633178710938 114.71995544433594 169.7951202392578 115.88117980957031 170.45008850097656 Z"></path>
<path fill="#E6B5AA" fill-opacity="1.0"  filling="0" d="M123.36334228515625 179.6341552734375 C120.96595764160156 176.10992431640625 124.4287109375 169.08119201660156 127.1541748046875 168.21490478515625 C125.4498291015625 169.57516479492188 122.32374572753906 176.74154663085938 123.36334228515625 179.6341552734375 Z"></path>
<path fill="#E6B5AA" fill-opacity="1.0"  filling="0" d="M114.97799682617188 175.35914611816406 C114.00355529785156 171.92095947265625 120.4854736328125 165.49925231933594 123.33628845214844 165.7118377685547 C121.24736022949219 166.33851623535156 115.58624267578125 172.74424743652344 114.97799682617188 175.35914611816406 Z"></path>
<path fill="#0586A3" fill-opacity="1.0"  filling="0" d="M81.38630676269531 356.0836486816406 C79.07002258300781 353.2168884277344 77.78836059570312 350.3857116699219 78.54408264160156 347.9649658203125 C80.23368835449219 342.5606994628906 85.26437377929688 343.69488525390625 89.64137268066406 345.69781494140625 C88.37693786621094 350.1080322265625 85.37129211425781 353.8153076171875 81.38630676269531 356.0836486816406 Z"></path>
<path fill="#0586A3" fill-opacity="1.0"  filling="0" d="M400.88531494140625 357.3026123046875 C397.34027099609375 354.9630126953125 394.7008056640625 351.43145751953125 393.58258056640625 347.3026428222656 C397.45208740234375 345.8699035644531 401.40264892578125 345.6609802246094 402.86126708984375 350.32672119140625 C403.5162048339844 352.425537109375 402.6388244628906 354.8315124511719 400.88531494140625 357.3026123046875 Z"></path>
<path fill="#FB9300" fill-opacity="1.0"  filling="0" d="M214.1937713623047 176.3090057373047 C216.60711669921875 187.09909057617188 215.31198120117188 199.6402130126953 210.1510009765625 207.66552734375 C207.79173278808594 204.9425048828125 196.2520751953125 201.8385467529297 190.96453857421875 202.26002502441406 C192.74874877929688 197.43331909179688 193.05348205566406 187.89166259765625 190.74703979492188 178.49012756347656 C194.418701171875 177.1261444091797 204.84381103515625 176.4441680908203 214.1937713623047 176.3090057373047 Z"></path>
<path fill="#FFFFFF" fill-opacity="1.0"  filling="0" d="M209.06106567382812 176.43679809570312 C211.39576721191406 184.32937622070312 211.39576721191406 184.32937622070312 211.40931701660156 193.31927490234375 C211.4215850830078 202.20472717285156 211.4215850830078 202.20472717285156 209.14952087402344 206.81887817382812 C208.58920288085938 206.4391632080078 207.88510131835938 206.0607147216797 207.07778930664062 205.6920623779297 C209.06228637695312 201.60385131835938 209.06228637695312 201.60385131835938 209.0500030517578 193.32296752929688 C209.0364990234375 184.34658813476562 209.0364990234375 184.34658813476562 206.6268310546875 176.53631591796875 C207.43292236328125 176.4994659423828 208.24514770507812 176.46629333496094 209.06106567382812 176.43679809570312 Z"></path>
<path fill="#FFFFFF" fill-opacity="1.0"  filling="0" d="M202.93551635742188 176.74400329589844 C205.37832641601562 184.79019165039062 205.37832641601562 184.79019165039062 205.39187622070312 193.9877471923828 C205.40170288085938 200.38980102539062 205.40170288085938 200.38980102539062 204.22450256347656 204.5738525390625 C203.50323486328125 204.3280792236328 202.7499542236328 204.09339904785156 201.97825622558594 203.87466430664062 C203.0411834716797 200.0580291748047 203.0411834716797 200.0580291748047 203.03256225585938 193.99142456054688 C203.02029418945312 184.85162353515625 203.02029418945312 184.85162353515625 200.52212524414062 176.92340087890625 C201.30490112304688 176.8582763671875 202.1109619140625 176.79806518554688 202.93551635742188 176.74400329589844 Z"></path>
<path fill="#FFFFFF" fill-opacity="1.0"  filling="0" d="M196.53836059570312 177.3289031982422 C198.69371032714844 184.94992065429688 198.69371032714844 184.94992065429688 198.70596313476562 193.58714294433594 C198.71458435058594 199.04302978515625 198.71458435058594 199.04302978515625 197.86056518554688 202.887939453125 C197.0704345703125 202.7331085205078 196.2913818359375 202.60162353515625 195.53811645507812 202.49716186523438 C196.35403442382812 198.90908813476562 196.35403442382812 198.90908813476562 196.3466796875 193.59085083007812 C196.3343963623047 185.10720825195312 196.3343963623047 185.10720825195312 194.1815185546875 177.6680450439453 C194.9065399169922 177.54640197753906 195.69541931152344 177.433349609375 196.53836059570312 177.3289031982422 Z"></path>
<path fill="#FB9300" fill-opacity="1.0"  filling="0" d="M275.2835388183594 177.7774200439453 C284.9787902832031 178.6387939453125 296.76666259765625 180.06790161132812 300.6300048828125 182.1715850830078 C296.9202575683594 191.11233520507812 295.56121826171875 202.40870666503906 296.5909423828125 207.4504852294922 C291.4287414550781 206.2302703857422 277.5236511230469 206.35440063476562 274.77728271484375 208.68788146972656 C270.89794921875 199.96954345703125 271.25799560546875 188.0747528076172 275.2835388183594 177.7774200439453 Z"></path>
<path fill="#FFFFFF" fill-opacity="1.0"  filling="0" d="M282.9488220214844 178.54908752441406 C279.416015625 185.8629150390625 279.416015625 185.8629150390625 278.0459289550781 194.6770782470703 C276.743408203125 203.0673370361328 276.743408203125 203.0673370361328 278.1847229003906 207.4209747314453 C277.302490234375 207.59791564941406 276.5307922363281 207.8080596923828 275.9126892089844 208.05503845214844 C274.3435363769531 203.14352416992188 274.3435363769531 203.14352416992188 275.7148742675781 194.3158416748047 C277.0677795410156 185.60365295410156 277.0677795410156 185.60365295410156 280.4666442871094 178.2775421142578 C281.29364013671875 178.36477661132812 282.123046875 178.45448303222656 282.9488220214844 178.54908752441406 Z"></path>
<path fill="#FFFFFF" fill-opacity="1.0"  filling="0" d="M283.5152893066406 206.7967529296875 C282.7091979980469 206.84469604492188 281.9202880859375 206.9061279296875 281.16583251953125 206.98477172851562 C280.5268249511719 202.5537109375 280.5268249511719 202.5537109375 281.5614929199219 195.8923797607422 C282.9930725097656 186.67886352539062 282.9930725097656 186.67886352539062 286.7126159667969 179.01358032226562 C287.5469665527344 179.1254119873047 288.3690490722656 179.23968505859375 289.1726989746094 179.360107421875 C285.33392333984375 186.97621154785156 285.33392333984375 186.97621154785156 283.8925476074219 196.25364685058594 C282.88739013671875 202.7269744873047 282.88739013671875 202.7269744873047 283.5152893066406 206.7967529296875 Z"></path>
<path fill="#FFFFFF" fill-opacity="1.0"  filling="0" d="M290.0930480957031 206.73777770996094 C289.32012939453125 206.70826721191406 288.5251159667969 206.6910858154297 287.72271728515625 206.68739318847656 C287.29998779296875 202.50086975097656 287.29998779296875 202.50086975097656 288.230224609375 196.51292419433594 C289.6249084472656 187.5365447998047 289.6249084472656 187.5365447998047 293.19085693359375 180.03103637695312 C294.0276794433594 180.1883087158203 294.8251647949219 180.35174560546875 295.5722961425781 180.5225372314453 C291.9522399902344 187.92483520507812 291.9522399902344 187.92483520507812 290.56121826171875 196.87420654296875 C289.6383972167969 202.81912231445312 289.6383972167969 202.81912231445312 290.0930480957031 206.73777770996094 Z"></path></svg>