<svg xmlns="http://www.w3.org/2000/svg" viewBox="0.0 0.0 512.0 512.0" height="512.0px" width="512.0px"><path fill="#E5AA8C" fill-opacity="1.0"  filling="0" d="M271.113525390625 210.09197998046875 C270.73675537109375 208.4586181640625 270.20562744140625 206.8411865234375 269.32171630859375 205.41680908203125 C267.0080871582031 201.692138671875 262.9279479980469 198.84332275390625 258.5443115234375 198.7421875 C254.10208129882812 198.63967895507812 249.6638641357422 200.79486083984375 247.00015258789062 204.35183715820312 C246.46499633789062 205.06671142578125 245.99508666992188 205.83480834960938 245.38406372070312 206.48443603515625 C244.12074279785156 207.8262939453125 242.2624053955078 208.58636474609375 240.42135620117188 208.5118408203125 C240.11782836914062 208.49984741210938 239.79302978515625 208.4705810546875 239.53077697753906 208.625 C239.26852416992188 208.77810668945312 239.1194305419922 209.14813232421875 239.2552032470703 209.41970825195312 C239.5946807861328 210.10000610351562 239.93280029296875 210.78155517578125 240.2722625732422 211.463134765625 C240.4439697265625 211.80657958984375 240.63035583496094 211.94366455078125 240.42800903320312 212.37765502929688 C240.2948760986328 212.66387939453125 239.99136352539062 212.82626342773438 239.69850158691406 212.94073486328125 C239.40431213378906 213.05523681640625 239.09014892578125 213.14706420898438 238.85984802246094 213.36276245117188 C238.49510192871094 213.704833984375 238.5496826171875 214.19342041015625 238.3007354736328 214.57012939453125 C238.11172485351562 214.857666015625 237.67242431640625 214.784423828125 237.4021759033203 215.10394287109375 C236.98419189453125 215.59649658203125 237.12928771972656 216.33929443359375 236.9615478515625 216.963623046875 C236.795166015625 217.5826416015625 236.43174743652344 218.1563720703125 235.93121337890625 218.54776000976562 C235.3681182861328 218.98837280273438 234.9620819091797 219.57147216796875 234.65060424804688 220.21707153320312 C233.03318786621094 223.56768798828125 240.77276611328125 226.85311889648438 240.77276611328125 226.85311889648438 C240.77276611328125 226.85311889648438 239.11544799804688 232.73834228515625 237.8907470703125 234.44625854492188 C237.41683959960938 235.10787963867188 236.73126220703125 235.3994140625 236.0683135986328 235.51522827148438 C236.68333435058594 239.95745849609375 241.26931762695312 243.3306884765625 244.93011474609375 245.270263671875 C247.85211181640625 246.81845092773438 250.95779418945312 247.70904541015625 254.1473388671875 248.0565185546875 C253.24746704101562 246.73992919921875 252.68968200683594 245.18905639648438 252.1745147705078 243.66351318359375 C252.06002807617188 243.32269287109375 251.94288635253906 242.97393798828125 251.94288635253906 242.61318969726562 C251.94288635253906 242.23117065429688 252.07598876953125 241.8624267578125 252.22242736816406 241.51092529296875 C252.90533447265625 239.87094116210938 254.07681274414062 238.16561889648438 255.398681640625 236.97955322265625 C257.8374328613281 234.78976440429688 261.12152099609375 233.81930541992188 263.8478088378906 232.00088500976562 C267.25433349609375 229.73117065429688 269.69708251953125 226.14892578125 270.88055419921875 222.231201171875 C272.06396484375 218.3134765625 272.03204345703125 214.08160400390625 271.113525390625 210.09197998046875 Z"></path>
<path fill="#473D38" fill-opacity="1.0"  filling="0" d="M255.90719604492188 236.51226806640625 C254.31509399414062 236.26068115234375 253.15560913085938 234.728515625 252.8946990966797 233.13775634765625 C252.63377380371094 231.54827880859375 253.09971618652344 229.92684936523438 253.7173614501953 228.43856811523438 C254.0035858154297 227.746337890625 254.36965942382812 227.01953125 255.03526306152344 226.67605590820312 C255.52914428710938 226.42047119140625 256.1095275878906 226.42047119140625 256.6619873046875 226.3565673828125 C258.389892578125 226.1568603515625 260.1284484863281 225.14251708984375 260.70086669921875 223.49981689453125 C261.27191162109375 221.85708618164062 260.20831298828125 219.70587158203125 258.47509765625 219.5621337890625 C257.41009521484375 219.47293090820312 256.0057067871094 219.95083618164062 255.4892120361328 219.01504516601562 C255.0392608642578 218.2003173828125 255.86993408203125 217.3031005859375 256.54083251953125 216.66012573242188 C259.1885986328125 214.12548828125 260.43328857421875 210.21044921875 259.7384033203125 206.61090087890625 C259.04351806640625 203.0126953125 255.8832244873047 201.3646240234375 252.48202514648438 199.99880981445312 C259.586669921875 195.90670776367188 266.46759033203125 200.19317626953125 271.0535888671875 205.466064453125 C276.6845703125 211.9383544921875 274.4827575683594 221.81851196289062 269.5759582519531 226.79586791992188 C270.87255859375 226.428466796875 272.60443115234375 227.19790649414062 273.452392578125 228.24420166015625 C274.30169677734375 229.29055786132812 274.67047119140625 230.64437866210938 274.88214111328125 231.97555541992188 C275.0951232910156 233.32009887695312 275.16168212890625 234.7418212890625 274.63848876953125 235.99847412109375 C274.3003845214844 236.81048583984375 273.72930908203125 237.51068115234375 273.06903076171875 238.09243774414062 C271.1680908203125 239.7684326171875 268.45111083984375 240.47393798828125 265.9737243652344 239.934814453125 C263.4963684082031 239.39569091796875 261.3198547363281 237.62387084960938 260.2881774902344 235.30755615234375 C260.14971923828125 236.37118530273438 259.2485046386719 236.9422607421875 258.204833984375 237.19256591796875 C257.5725402832031 237.34429931640625 256.25067138671875 237.06744384765625 255.90719604492188 236.51226806640625 Z"></path>
<path fill="#C98867" fill-opacity="1.0"  filling="0" d="M240.613037109375 226.26739501953125 C242.76292419433594 227.44680786132812 242.76292419433594 227.44680786132812 245.1551055908203 228.02056884765625 C245.47857666015625 228.09780883789062 245.47857666015625 228.09780883789062 245.4013671875 228.42129516601562 C245.36276245117188 228.58367919921875 245.36276245117188 228.58367919921875 245.26290893554688 228.64495849609375 C245.1617431640625 228.7061767578125 245.1617431640625 228.7061767578125 245.0006866455078 228.66757202148438 C242.52064514160156 228.07382202148438 242.52064514160156 228.07382202148438 240.29354858398438 226.85043334960938 C240.0020294189453 226.690673828125 240.0020294189453 226.690673828125 240.16175842285156 226.39920043945312 C240.24163818359375 226.25271606445312 240.24163818359375 226.25271606445312 240.3547821044922 226.21945190429688 C240.4679412841797 226.18753051757812 240.4679412841797 226.18753051757812 240.613037109375 226.26739501953125 Z"></path>
<path fill="#473D38" fill-opacity="1.0"  filling="0" d="M247.98390197753906 210.36221313476562 C247.33692932128906 211.10104370117188 246.41441345214844 211.3499755859375 245.92320251464844 210.92001342773438 C245.4306640625 210.48867797851562 245.5557861328125 209.5408935546875 246.2027587890625 208.80337524414062 C246.84971618652344 208.0645751953125 247.77224731445312 207.81561279296875 248.26344299316406 208.24563598632812 C248.75466918945312 208.67559814453125 248.62953186035156 209.6234130859375 247.98390197753906 210.36221313476562 Z"></path>
<path fill="#473D38" fill-opacity="1.0"  filling="0" d="M247.34625244140625 206.322021484375 C249.1234130859375 207.09011840820312 250.51583862304688 208.69424438476562 251.02835083007812 210.5618896484375 C251.05630493164062 210.6617431640625 251.27593994140625 210.62844848632812 251.37046813964844 210.58319091796875 C251.46365356445312 210.53793334960938 251.51824951171875 210.4381103515625 251.55551147460938 210.3409423828125 C251.87632751464844 209.53155517578125 251.536865234375 208.61569213867188 251.11752319335938 207.8529052734375 C250.69822692871094 207.09011840820312 250.19102478027344 206.36727905273438 249.54806518554688 205.78021240234375 C249.3004608154297 205.553955078125 249.02090454101562 205.34356689453125 248.69210815429688 205.27838134765625 C248.01585388183594 205.145263671875 247.57920837402344 205.675048828125 247.34625244140625 206.322021484375 Z"></path>
<path fill="#C98867" fill-opacity="1.0"  filling="0" d="M238.35665893554688 214.50357055664062 C239.51345825195312 215.62448120117188 239.51345825195312 215.62448120117188 240.48524475097656 216.10769653320312 C241.78448486328125 216.75332641601562 241.78448486328125 216.75332641601562 242.9639434814453 216.51504516601562 C243.127685546875 216.48171997070312 243.127685546875 216.48171997070312 243.22618103027344 216.54696655273438 C243.3233642578125 216.61221313476562 243.3233642578125 216.61221313476562 243.3566436767578 216.77459716796875 C243.4232177734375 217.1007080078125 243.4232177734375 217.1007080078125 243.09706115722656 217.16732788085938 C241.69264221191406 217.45217895507812 241.69264221191406 217.45217895507812 240.18972778320312 216.70407104492188 C239.124755859375 216.17425537109375 239.124755859375 216.17425537109375 237.89340209960938 214.98281860351562 C237.65379333496094 214.75119018554688 237.65379333496094 214.75119018554688 237.88540649414062 214.51156616210938 C238.001220703125 214.39178466796875 238.001220703125 214.39178466796875 238.1197052001953 214.39044189453125 C238.23684692382812 214.38775634765625 238.23684692382812 214.38775634765625 238.35665893554688 214.50357055664062 Z"></path>
<path fill="#C98867" fill-opacity="1.0"  filling="0" d="M255.7407989501953 220.63641357421875 C257.0027770996094 219.72589111328125 257.0027770996094 219.72589111328125 258.50567626953125 220.460693359375 C258.9676208496094 220.68698120117188 258.9676208496094 220.68698120117188 259.231201171875 221.0224609375 C259.5493469238281 221.428466796875 259.5493469238281 221.428466796875 259.61859130859375 222.03948974609375 C259.89678955078125 224.51950073242188 259.89678955078125 224.51950073242188 257.28497314453125 225.3621826171875 C255.32412719726562 225.99447631835938 255.32412719726562 225.99447631835938 253.23812866210938 224.70986938476562 C253.09571838378906 224.62203979492188 253.09571838378906 224.62203979492188 253.06907653808594 224.507568359375 C253.04246520996094 224.39306640625 253.04246520996094 224.39306640625 253.1289825439453 224.251953125 C253.3033905029297 223.96844482421875 253.3033905029297 223.96844482421875 253.5869140625 224.14279174804688 C255.4119873046875 225.26766967773438 255.4119873046875 225.26766967773438 257.0799560546875 224.728515625 C259.17529296875 224.05227661132812 259.17529296875 224.05227661132812 258.95831298828125 222.11407470703125 C258.910400390625 221.690673828125 258.910400390625 221.690673828125 258.70672607421875 221.4324951171875 C258.53900146484375 221.21817016601562 258.53900146484375 221.21817016601562 258.21282958984375 221.05972290039062 C257.0679931640625 220.499267578125 257.0679931640625 220.499267578125 256.1295166015625 221.1768798828125 C255.860595703125 221.3712158203125 255.860595703125 221.3712158203125 255.6649169921875 221.10101318359375 C255.5677490234375 220.966552734375 255.5677490234375 220.966552734375 255.5863800048828 220.85076904296875 C255.60501098632812 220.73358154296875 255.60501098632812 220.73358154296875 255.7407989501953 220.63641357421875 Z"></path>
<path fill="#E1CDE8" fill-opacity="1.0"  filling="0" d="M205.541259765625 295.8212585449219 C205.541259765625 295.8212585449219 204.18341064453125 306.8662109375 205.541259765625 309.2158203125 C205.541259765625 309.2158203125 175.66513061523438 299.5845642089844 159.70803833007812 302.5185546875 C143.75091552734375 305.4525146484375 145.78768920898438 321.07012939453125 146.807373046875 326.50274658203125 C147.82571411132812 331.93536376953125 159.0291290283203 379.8053283691406 159.0291290283203 379.8053283691406 L173.96783447265625 379.8053283691406 C173.96783447265625 379.8053283691406 173.62840270996094 364.18768310546875 174.3072967529297 354.002685546875 C174.98622131347656 343.81768798828125 170.23382568359375 325.484375 170.23382568359375 325.484375 C170.23382568359375 325.484375 196.71539306640625 338.7244873046875 209.61605834960938 341.10205078125 C222.51669311523438 343.478271484375 232.36358642578125 341.78094482421875 232.36358642578125 341.78094482421875 C232.36358642578125 341.78094482421875 250.357421875 355.3605041503906 271.4063720703125 365.54681396484375 C292.455322265625 375.73187255859375 303.6600036621094 377.4291687011719 308.07293701171875 376.0713195800781 C312.4858703613281 374.7135009765625 373.2578125 379.8053283691406 373.2578125 379.8053283691406 L375.6340026855469 365.54681396484375 C375.6340026855469 365.54681396484375 351.1891784667969 354.6829528808594 342.701416015625 354.6829528808594 C334.2137145996094 354.6829528808594 318.5960693359375 356.040771484375 314.5225830078125 356.38018798828125 C310.4477844238281 356.7196960449219 293.8131103515625 340.97686767578125 284.9859313964844 337.81396484375 C276.15875244140625 334.65106201171875 263.5975341796875 328.2013854980469 263.5975341796875 328.2013854980469 C263.5975341796875 328.2013854980469 263.93701171875 324.80682373046875 256.128173828125 315.3006896972656 C248.31936645507812 305.79461669921875 239.49215698242188 302.739501953125 239.49215698242188 302.739501953125 L236.43707275390625 292.5544738769531 L205.541259765625 295.8212585449219 Z"></path>
<path fill="#E1CDE8" fill-opacity="1.0"  filling="0" d="M203.1291046142578 280.9038391113281 L237.69638061523438 285.59765625 C237.69638061523438 285.59765625 242.1772003173828 273.0085144042969 245.59173583984375 266.60675048828125 C249.00624084472656 260.20501708984375 255.2202911376953 251.9661865234375 255.43328857421875 247.6983642578125 C255.6462860107422 243.43057250976562 240.0432891845703 235.025390625 237.9093780517578 234.599365234375 C235.7754669189453 234.17205810546875 233.6442108154297 236.09295654296875 230.5491485595703 238.2269287109375 C227.45413208007812 240.36080932617188 212.9440460205078 245.6949462890625 211.23744201660156 251.24337768554688 C209.53085327148438 256.79180908203125 209.74383544921875 258.71142578125 209.9568328857422 261.4856262207031 C210.16981506347656 264.2598571777344 203.1291046142578 280.9038391113281 203.1291046142578 280.9038391113281 Z"></path>
<path fill="#E5AA8C" fill-opacity="1.0"  filling="0" d="M274.02349853515625 184.10427856445312 C273.1768798828125 184.5289306640625 272.4540100097656 185.16390991210938 271.9228515625 185.94802856445312 C267.14251708984375 193.00204467773438 242.77890014648438 228.92050170898438 240.47059631347656 231.61349487304688 C237.9093780517578 234.6007080078125 225.74752807617188 243.349365234375 228.0944366455078 251.45770263671875 C230.4413299560547 259.5660400390625 243.5856170654297 261.9129333496094 249.0701446533203 257.64508056640625 C254.55470275878906 253.37725830078125 256.05096435546875 244.84295654296875 257.9705505371094 241.00112915039062 C259.8888244628906 237.16058349609375 276.31982421875 203.2322998046875 278.02642822265625 200.24508666992188 C279.7330017089844 197.25790405273438 315.79522705078125 173.57315063476562 315.79522705078125 173.57315063476562 L336.9200439453125 171.60031127929688 C336.9200439453125 171.60031127929688 337.2328796386719 168.1724853515625 328.81036376953125 171.01327514648438 C328.81036376953125 171.01327514648438 342.4671630859375 168.02606201171875 344.17376708984375 166.53244018554688 C345.8803405761719 165.03887939453125 345.2400207519531 161.34075927734375 342.89312744140625 160.8428955078125 C340.54620361328125 160.34503173828125 336.49139404296875 159.49172973632812 336.49139404296875 159.49172973632812 C336.49139404296875 159.49172973632812 338.41229248046875 157.57080078125 336.70440673828125 157.57080078125 C334.9977722167969 157.57080078125 333.9301452636719 157.14349365234375 328.383056640625 158.42410278320312 C322.8346252441406 159.70474243164062 318.9941101074219 159.27743530273438 314.0859680175781 162.90493774414062 C309.7315979003906 166.1224365234375 280.5437316894531 180.83090209960938 274.02349853515625 184.10427856445312 Z"></path>
<path fill="#E5AA8C" fill-opacity="1.0"  filling="0" d="M159.0291290283203 379.80401611328125 C159.0291290283203 379.80401611328125 160.372314453125 383.5726318359375 159.0291290283203 384.97039794921875 C157.68594360351562 386.36944580078125 149.75332641601562 393.2610778808594 146.12713623046875 394.56036376953125 C142.50225830078125 395.859619140625 139.80526733398438 397.45703125 137.10824584960938 397.65667724609375 C134.41122436523438 397.8564453125 132.11358642578125 400.05426025390625 133.412841796875 401.45330810546875 C134.71209716796875 402.8524169921875 138.70703125 402.5515441894531 143.30230712890625 402.05230712890625 C147.89761352539062 401.5531311035156 157.2719268798828 398.556640625 159.62684631347656 398.7563171386719 C161.98170471191406 398.95599365234375 164.4790496826172 401.65301513671875 170.17259216308594 401.053955078125 C175.8661346435547 400.4549560546875 177.26524353027344 396.95782470703125 176.56503295898438 394.8612365722656 C175.8661346435547 392.76324462890625 173.3688201904297 388.46881103515625 173.4686279296875 386.57049560546875 C173.5684814453125 384.67218017578125 173.96783447265625 379.8053283691406 173.96783447265625 379.8053283691406 L159.0291290283203 379.8053283691406 L159.0291290283203 379.80401611328125 Z"></path>
<path fill="#E5AA8C" fill-opacity="1.0"  filling="0" d="M373.2564697265625 379.80401611328125 C373.2564697265625 379.80401611328125 376.27960205078125 381.6397705078125 377.22344970703125 383.2930908203125 C378.1672668457031 384.9464111328125 379.82061767578125 399.2328796386719 379.82061767578125 399.2328796386719 C379.82061767578125 399.2328796386719 378.1739196777344 400.5321350097656 375.6326904296875 400.8862609863281 C373.0914001464844 401.2403259277344 370.7298583984375 400.76776123046875 371.319580078125 402.8936767578125 C371.9093017578125 405.01959228515625 375.80572509765625 404.31005859375 377.931640625 404.54705810546875 C380.0562438964844 404.783935546875 380.64727783203125 406.31884765625 382.0636901855469 405.96343994140625 C383.4800720214844 405.60931396484375 384.77935791015625 405.60931396484375 387.02239990234375 404.42852783203125 C389.2655029296875 403.24774169921875 392.4537353515625 401.477294921875 391.98114013671875 396.75421142578125 C391.508544921875 392.03106689453125 390.5647277832031 388.2531433105469 390.80035400390625 386.2456970214844 C391.0359802246094 384.23828125 394.9324035644531 378.8069152832031 394.9324035644531 376.3282470703125 C394.9324035644531 373.8495178222656 395.16802978515625 371.0154113769531 392.9249267578125 370.188720703125 C390.681884765625 369.362060546875 389.38262939453125 368.2998046875 385.95880126953125 369.362060546875 C382.5349426269531 370.4243469238281 375.20135498046875 368.12005615234375 375.20135498046875 368.12005615234375 L373.2564697265625 379.80401611328125 Z"></path>
<path fill="#E5AA8C" fill-opacity="1.0"  filling="0" d="M204.1368408203125 281.04095458984375 C204.1368408203125 281.04095458984375 203.10914611816406 284.6817626953125 204.1368408203125 288.48370361328125 C205.16452026367188 292.28692626953125 205.541259765625 295.8212585449219 205.541259765625 295.8212585449219 L236.4357452392578 292.55181884765625 L237.69638061523438 285.5989990234375 L204.1368408203125 281.04095458984375 Z"></path>
<path fill="#C98867" fill-opacity="1.0"  filling="0" d="M240.8726348876953 230.04400634765625 L264.4002685546875 196.62420654296875 C264.49609375 196.48846435546875 264.49609375 196.48846435546875 264.6119079589844 196.46847534179688 C264.72772216796875 196.44854736328125 264.72772216796875 196.44854736328125 264.863525390625 196.54437255859375 C265.13507080078125 196.73471069335938 265.13507080078125 196.73471069335938 264.9433898925781 197.00759887695312 L253.21551513671875 213.6676025390625 L241.41575622558594 230.4273681640625 C241.31991577148438 230.56317138671875 241.31991577148438 230.56317138671875 241.2041015625 230.58316040039062 C241.08827209472656 230.60308837890625 241.08827209472656 230.60308837890625 240.95249938964844 230.50726318359375 C240.68092346191406 230.31689453125 240.68092346191406 230.31689453125 240.8726348876953 230.04400634765625 Z"></path>
<path fill="#C98867" fill-opacity="1.0"  filling="0" d="M279.05810546875 199.58084106445312 C268.2181396484375 218.96444702148438 268.2181396484375 218.96444702148438 263.7666015625 229.89495849609375 C263.64013671875 230.2037353515625 263.64013671875 230.2037353515625 263.3326416015625 230.07861328125 C263.17822265625 230.01470947265625 263.17822265625 230.01470947265625 263.1329345703125 229.90692138671875 C263.08636474609375 229.79776000976562 263.08636474609375 229.79776000976562 263.14892578125 229.64462280273438 C267.61773681640625 218.67556762695312 267.61773681640625 218.67556762695312 278.4776916503906 199.25601196289062 C278.6401062011719 198.9658203125 278.6401062011719 198.9658203125 278.9302978515625 199.12823486328125 C279.0754089355469 199.20944213867188 279.0754089355469 199.20944213867188 279.10736083984375 199.32257080078125 C279.1392822265625 199.43572998046875 279.1392822265625 199.43572998046875 279.05810546875 199.58084106445312 Z"></path>
<path fill="#C98867" fill-opacity="1.0"  filling="0" d="M242.5858612060547 236.43643188476562 C243.4405059814453 240.29425048828125 243.4405059814453 240.29425048828125 240.6702880859375 243.75802612304688 C238.44317626953125 246.54159545898438 238.44317626953125 246.54159545898438 234.35507202148438 248.01119995117188 C234.04090881347656 248.1243896484375 234.04090881347656 248.1243896484375 233.9290771484375 247.8115234375 C233.87184143066406 247.65447998046875 233.87184143066406 247.65447998046875 233.92242431640625 247.54794311523438 C233.9730224609375 247.44146728515625 233.9730224609375 247.44146728515625 234.12876892089844 247.38552856445312 C238.04116821289062 245.978515625 238.04116821289062 245.978515625 240.151123046875 243.34268188476562 C242.72166442871094 240.12652587890625 242.72166442871094 240.12652587890625 241.93626403808594 236.58023071289062 C241.90029907226562 236.41781616210938 241.90029907226562 236.41781616210938 241.96287536621094 236.31793212890625 C242.0267791748047 236.21945190429688 242.0267791748047 236.21945190429688 242.18917846679688 236.18350219726562 C242.5139923095703 236.11160278320312 242.5139923095703 236.11160278320312 242.5858612060547 236.43643188476562 Z"></path>
<path fill="#C6AED1" fill-opacity="1.0"  filling="0" d="M167.47824096679688 315.4764404296875 C172.0988311767578 326.4175720214844 172.0988311767578 326.4175720214844 173.76681518554688 338.18670654296875 C173.83738708496094 338.681884765625 173.83738708496094 338.681884765625 173.343505859375 338.7511291503906 C173.0959014892578 338.78704833984375 173.0959014892578 338.78704833984375 172.95480346679688 338.6805725097656 C172.81369018554688 338.5740661621094 172.81369018554688 338.5740661621094 172.77908325195312 338.32781982421875 C171.12840270996094 326.68646240234375 171.12840270996094 326.68646240234375 166.55972290039062 315.8651123046875 C166.4625244140625 315.63482666015625 166.4625244140625 315.63482666015625 166.52777099609375 315.47113037109375 C166.5943145751953 315.307373046875 166.5943145751953 315.307373046875 166.82461547851562 315.21148681640625 C167.28521728515625 315.0172119140625 167.28521728515625 315.0172119140625 167.47824096679688 315.4764404296875 Z"></path>
<path fill="#C6AED1" fill-opacity="1.0"  filling="0" d="M226.1335906982422 331.4974365234375 C229.39102172851562 337.39599609375 229.39102172851562 337.39599609375 231.51560974121094 339.9984436035156 C235.08456420898438 344.36480712890625 235.08456420898438 344.36480712890625 239.32177734375 345.8810729980469 C239.55740356445312 345.96490478515625 239.55740356445312 345.96490478515625 239.63327026367188 346.1246337890625 C239.70782470703125 346.28436279296875 239.70782470703125 346.28436279296875 239.62396240234375 346.5186767578125 C239.4562225341797 346.98858642578125 239.4562225341797 346.98858642578125 238.98631286621094 346.82086181640625 C234.48684692382812 345.21142578125 234.48684692382812 345.21142578125 230.7435302734375 340.62945556640625 C228.5603485107422 337.9590759277344 228.5603485107422 337.9590759277344 225.2602996826172 331.97930908203125 C225.0180206298828 331.5426940917969 225.0180206298828 331.5426940917969 225.45599365234375 331.3017578125 C225.67431640625 331.18060302734375 225.67431640625 331.18060302734375 225.8433837890625 331.2298583984375 C226.01377868652344 331.27911376953125 226.01377868652344 331.27911376953125 226.1335906982422 331.4974365234375 Z"></path>
<path fill="#C6AED1" fill-opacity="1.0"  filling="0" d="M213.5337677001953 314.14923095703125 C209.01968383789062 311.1899719238281 209.01968383789062 311.1899719238281 204.00770568847656 309.20245361328125 C203.7747344970703 309.1106262207031 203.7747344970703 309.1106262207031 203.70553588867188 308.94818115234375 C203.63497924804688 308.78582763671875 203.63497924804688 308.78582763671875 203.72682189941406 308.55419921875 C203.911865234375 308.089599609375 203.911865234375 308.089599609375 204.3751220703125 308.2733154296875 C209.48294067382812 310.29937744140625 209.48294067382812 310.29937744140625 214.08221435546875 313.3132629394531 C214.49888610839844 313.58746337890625 214.49888610839844 313.58746337890625 214.2259979248047 314.00543212890625 C214.08888244628906 314.213134765625 214.08888244628906 314.213134765625 213.9158172607422 314.24908447265625 C213.7427520751953 314.2850036621094 213.7427520751953 314.2850036621094 213.5337677001953 314.14923095703125 Z"></path>
<path fill="#C6AED1" fill-opacity="1.0"  filling="0" d="M210.59048461914062 261.4643249511719 C210.65838623046875 263.8817443847656 210.65838623046875 263.8817443847656 213.26620483398438 265.0013122558594 C215.24969482421875 265.85595703125 215.24969482421875 265.85595703125 218.133056640625 265.2848815917969 C218.62295532226562 265.18768310546875 218.62295532226562 265.18768310546875 218.7201385498047 265.6776123046875 C218.76805114746094 265.9225158691406 218.76805114746094 265.9225158691406 218.6695556640625 266.0689392089844 C218.5723876953125 266.21539306640625 218.5723876953125 266.21539306640625 218.32740783691406 266.2646484375 C215.13919067382812 266.8955993652344 215.13919067382812 266.8955993652344 212.87216186523438 265.9197998046875 C209.6786346435547 264.54736328125 209.6786346435547 264.54736328125 209.59210205078125 261.4936218261719 C209.58543395996094 261.2433166503906 209.58543395996094 261.2433166503906 209.7065887451172 261.1155700683594 C209.82772827148438 260.9864196777344 209.82772827148438 260.9864196777344 210.07662963867188 260.979736328125 C210.57583618164062 260.96649169921875 210.57583618164062 260.96649169921875 210.59048461914062 261.4643249511719 Z"></path></svg>