<svg xmlns="http://www.w3.org/2000/svg" viewBox="0.0 0.0 512.0 512.0" height="512.0px" width="512.0px"><path fill="#FCAC9F" fill-opacity="1.0"  filling="0" d="M250.94656372070312 175.16055297851562 C248.53811645507812 174.862548828125 246.2540740966797 174.1898193359375 244.16204833984375 172.95950317382812 C240.4556884765625 170.7799072265625 236.7600555419922 168.57882690429688 233.07058715820312 166.36849975585938 C232.35789489746094 165.94149780273438 231.65438842773438 165.47454833984375 231.03077697753906 164.93081665039062 C230.59609985351562 164.55294799804688 230.77581787109375 163.97543334960938 231.17208862304688 163.70046997070312 C231.75115966796875 163.29959106445312 232.40859985351562 162.94476318359375 233.08441162109375 162.75888061523438 C235.04127502441406 162.2213134765625 237.02272033691406 161.76663208007812 238.9995574951172 161.29971313476562 C239.92884826660156 161.080078125 240.901123046875 161.00018310546875 241.79505920410156 160.68682861328125 C244.15435791015625 159.86199951171875 245.93612670898438 158.39361572265625 246.9053497314453 155.98974609375 C247.4951629638672 154.529052734375 247.85919189453125 153.04525756835938 248.06346130371094 151.49234008789062 C248.62875366210938 147.20843505859375 248.64871215820312 142.90457153320312 248.7469940185547 138.59609985351562 C248.84837341308594 134.17239379882812 249.05419921875 129.74871826171875 249.3429718017578 125.33425903320312 C249.5564727783203 122.07025146484375 250.55795288085938 119.0458984375 252.28594970703125 116.20889282226562 C255.65130615234375 110.68084716796875 260.91058349609375 109.10641479492188 267.1943664550781 110.41357421875 C271.4705505371094 111.30290222167969 274.1109313964844 113.95559692382812 275.4273376464844 118.06744384765625 C276.0140686035156 119.89834594726562 276.4503173828125 121.7523193359375 276.7145080566406 123.65234375 C276.8619384765625 124.71832275390625 276.96026611328125 125.79354858398438 277.14764404296875 126.85336303710938 C277.6345520019531 129.59207153320312 278.37799072265625 132.2186279296875 280.4408264160156 134.27224731445312 C280.7710876464844 134.6009521484375 280.9753723144531 135.13394165039062 280.57757568359375 135.5517578125 C280.36712646484375 135.77291870117188 279.98004150390625 135.85430908203125 279.6575012207031 135.93264770507812 C279.4332580566406 135.9864501953125 279.1813049316406 135.93264770507812 278.9432373046875 135.91729736328125 C278.70361328125 135.90350341796875 278.4639892578125 135.89273071289062 278.22747802734375 135.85586547851562 C277.2920227050781 135.70687866210938 276.9510498046875 136.273681640625 276.78668212890625 137.04782104492188 C276.3151550292969 139.2703857421875 275.85894775390625 141.49606323242188 275.3735656738281 143.71713256835938 C275.219970703125 144.41757202148438 275.03411865234375 145.1148681640625 274.8006286621094 145.792236328125 C274.0910339355469 147.85818481445312 272.9482116699219 149.4202880859375 270.4783020019531 149.4049072265625 C270.1265563964844 149.40341186523438 269.770263671875 149.5185546875 269.4200439453125 149.5938720703125 C268.0821838378906 149.88113403320312 267.7458190917969 150.22207641601562 267.7304382324219 151.46319580078125 C267.7181396484375 152.4185791015625 267.8087463378906 153.37548828125 267.8241271972656 154.3323974609375 C267.86248779296875 156.71780395507812 268.89935302734375 158.455078125 271.1173095703125 159.42120361328125 C275.6024475097656 161.37493896484375 279.7434997558594 164.09674072265625 284.505126953125 165.4361572265625 C284.8476257324219 165.53289794921875 285.1993713378906 165.65737915039062 285.4942626953125 165.84780883789062 C285.64788818359375 165.94613647460938 285.77996826171875 166.23336791992188 285.7554016113281 166.41152954101562 C285.7277526855469 166.61737060546875 285.55419921875 166.9091796875 285.3760070800781 166.97216796875 C283.5804138183594 167.6173095703125 281.7387390136719 168.14413452148438 279.9708251953125 168.8568115234375 C277.5301208496094 169.8414306640625 275.16314697265625 171.00112915039062 272.7301330566406 172.005615234375 C265.7397766113281 174.89178466796875 258.460693359375 175.86563110351562 250.94656372070312 175.16055297851562 Z"></path>
<path fill="#F27300" fill-opacity="1.0"  filling="0" d="M232.11827087402344 149.69061279296875 C226.8759002685547 149.38955688476562 221.63967895507812 149.01019287109375 216.41268920898438 148.52020263671875 C215.68463134765625 148.45260620117188 214.9550018310547 148.406494140625 214.2269287109375 148.33743286132812 C213.7630615234375 148.2928466796875 213.7430877685547 148.26211547851562 213.84756469726562 147.75375366210938 C214.8290557861328 142.96755981445312 217.37574768066406 139.64364624023438 221.5413818359375 137.83880615234375 C222.4552764892578 137.44256591796875 223.40914916992188 137.19677734375 224.35687255859375 136.93109130859375 C225.60714721679688 136.58084106445312 226.829833984375 136.14004516601562 228.04632568359375 135.65927124023438 C229.55776977539062 135.06173706054688 230.37490844726562 133.8682861328125 230.82188415527344 132.24624633789062 C231.1859130859375 130.9222412109375 231.34259033203125 129.56594848632812 231.49005126953125 128.20657348632812 C231.75271606445312 125.79354858398438 232.20733642578125 123.42657470703125 233.04293823242188 121.15939331054688 C233.63278198242188 119.557373046875 234.39462280273438 118.05209350585938 235.44830322265625 116.7587890625 C237.37600708007812 114.39181518554688 239.75680541992188 113.24287414550781 242.64601135253906 113.55928039550781 C243.1544189453125 113.61459350585938 243.652099609375 113.73593139648438 244.13746643066406 113.89569091796875 C245.423095703125 114.32269287109375 246.5919952392578 114.01856994628906 247.6610565185547 113.15379333496094 C248.14642333984375 112.76058959960938 248.60263061523438 112.32281494140625 249.0526885986328 111.88198852539062 C249.7715301513672 111.17848205566406 250.51341247558594 110.51033020019531 251.2952117919922 109.89131164550781 C253.6345672607422 108.03584289550781 256.2457580566406 107.02056884765625 259.0719909667969 106.61659240722656 C260.34686279296875 106.43379211425781 261.6033020019531 106.06976318359375 262.8905029296875 106.00372314453125 C265.55548095703125 105.86546325683594 268.2112121582031 105.90232849121094 270.7978210449219 106.6795654296875 C272.28619384765625 107.12652587890625 273.50885009765625 108.06655883789062 274.5348815917969 109.30302429199219 C275.83892822265625 110.87590026855469 276.1293029785156 112.71910095214844 275.5148620605469 114.74356079101562 C275.0863037109375 116.15359497070312 274.3951416015625 117.40542602539062 273.5011901855469 118.53439331054688 C271.9436950683594 120.49740600585938 270.0144348144531 121.89364624023438 267.9516296386719 123.09786987304688 C265.78125 124.363525390625 263.5325622558594 125.4356689453125 261.2930603027344 126.53387451171875 C260.78466796875 126.78268432617188 260.2885437011719 127.06686401367188 259.7862243652344 127.32955932617188 C257.22113037109375 128.67355346679688 255.74195861816406 130.93145751953125 255.09376525878906 133.92819213867188 C254.71743774414062 135.67001342773438 254.45016479492188 137.43023681640625 254.13221740722656 139.18280029296875 C253.48402404785156 142.75405883789062 252.4917755126953 146.19931030273438 250.97113037109375 149.45718383789062 C250.92044067382812 149.56619262695312 250.8574676513672 149.67062377929688 250.8159942626953 149.78274536132812 C250.6639404296875 150.2052001953125 250.40127563476562 150.33575439453125 249.98655700683594 150.32037353515625 C246.88690185546875 150.20980834960938 243.78724670410156 150.09457397460938 240.6860809326172 150.04391479492188 C237.82452392578125 150.00088500976562 234.97215270996094 149.86260986328125 232.11827087402344 149.69061279296875 Z"></path>
<path fill="#000000" fill-opacity="1.0"  filling="0" d="M266.06231689453125 132.89755249023438 C263.2222595214844 132.54733276367188 261.0534362792969 130.69952392578125 260.6156921386719 128.32949829101562 C260.116455078125 125.63381958007812 261.5941162109375 122.66473388671875 264.0455627441406 121.4359130859375 C266.4248046875 120.24395751953125 269.3739318847656 120.82150268554688 271.22332763671875 122.8858642578125 C271.6963806152344 123.41424560546875 272.026611328125 124.06707763671875 272.4813232421875 124.61541748046875 C272.9405212402344 125.16995239257812 273.9404602050781 125.10693359375 274.33984375 124.52020263671875 C274.5395202636719 124.226806640625 274.6623840332031 123.88275146484375 274.819091796875 123.5601806640625 C275.8635559082031 121.38983154296875 277.8219299316406 121.0042724609375 279.93548583984375 120.99661254882812 C281.0660095214844 120.99200439453125 282.0137023925781 121.528076171875 282.77398681640625 122.33755493164062 C284.5188903808594 124.19302368164062 284.4974365234375 128.07757568359375 282.724853515625 129.91156005859375 C280.8140563964844 131.88995361328125 277.85882568359375 132.20477294921875 275.8282165527344 129.80404663085938 C275.1308898925781 128.980712890625 275.1108703613281 127.23886108398438 273.4643249511719 127.5338134765625 C272.15106201171875 127.768798828125 272.4029541015625 129.26336669921875 271.8008117675781 130.10513305664062 C270.3523864746094 132.12957763671875 268.4400634765625 133.0787353515625 266.06231689453125 132.89755249023438 Z"></path>
<path fill="#F29481" fill-opacity="1.0"  filling="0" d="M334.6370849609375 161.90338134765625 C335.08251953125 162.12149047851562 335.53564453125 162.23666381835938 335.9856872558594 161.9310302734375 C336.6783752441406 161.46096801757812 337.34808349609375 160.95867919921875 338.0531311035156 160.5086669921875 C338.6475830078125 160.12930297851562 339.2773132324219 159.69000244140625 340.0130615234375 160.1507568359375 C340.49383544921875 160.453369140625 340.25115966796875 161.39801025390625 339.41864013671875 162.3319091796875 C338.7826843261719 163.04458618164062 338.09307861328125 163.70968627929688 337.41259765625 164.3824462890625 C336.73675537109375 165.04913330078125 336.0425109863281 165.69732666015625 335.3574523925781 166.35317993164062 C335.88275146484375 167.21026611328125 336.4141845703125 166.66033935546875 336.8873291015625 166.52212524414062 C337.45867919921875 166.35467529296875 337.99627685546875 166.05209350585938 338.5738220214844 165.92611694335938 C338.8779296875 165.860107421875 339.3172607421875 165.94305419921875 339.5538330078125 166.13351440429688 C339.9931335449219 166.4898681640625 339.85333251953125 166.97830200195312 339.5753173828125 167.40838623046875 C339.4462585449219 167.60806274414062 339.3264465332031 167.8338623046875 339.1467590332031 167.9813232421875 C335.27294921875 171.151611328125 332.0427551269531 175.12063598632812 327.46392822265625 177.41851806640625 C327.25042724609375 177.5260009765625 327.056884765625 177.67654418945312 326.8387451171875 177.770263671875 C323.77142333984375 179.08969116210938 322.4565734863281 181.5257568359375 322.0141906738281 184.74676513671875 C321.5426330566406 188.1766357421875 320.80230712890625 191.5758056640625 320.0788269042969 194.96575927734375 C319.530517578125 197.53704833984375 318.8346862792969 200.07757568359375 318.1849365234375 202.62582397460938 C317.1220703125 206.79757690429688 316.0376281738281 210.96322631835938 314.9747009277344 215.13345336914062 C314.3787536621094 217.47125244140625 313.354248046875 219.62777709960938 312.2221984863281 221.7366943359375 C311.7122497558594 222.68441772460938 311.10400390625 223.57223510742188 310.2300109863281 224.24807739257812 C308.36376953125 225.69189453125 306.34393310546875 226.08663940429688 304.1904296875 225.02218627929688 C302.58380126953125 224.22808837890625 301.03399658203125 223.32644653320312 299.7099304199219 222.07925415039062 C297.25543212890625 219.767578125 295.22637939453125 217.10107421875 293.3125 214.35321044921875 C292.1636047363281 212.70193481445312 292.34332275390625 211.83258056640625 293.94073486328125 210.74200439453125 C296.3107604980469 209.12460327148438 298.7115478515625 207.54864501953125 301.1353759765625 206.01266479492188 C302.5807189941406 205.095703125 302.677490234375 205.15249633789062 304.2226867675781 206.3905029296875 C304.995361328125 207.00958251953125 305.491455078125 206.95425415039062 305.7771911621094 206.09103393554688 C306.45147705078125 204.04812622070312 307.15032958984375 202.0052490234375 307.6572570800781 199.91937255859375 C308.9551696777344 194.57406616210938 310.14556884765625 189.20269775390625 311.3912658691406 183.84359741210938 C312.53399658203125 178.92532348632812 314.1683044433594 174.24050903320312 316.937744140625 169.928955078125 C319.462890625 165.99832153320312 321.3844299316406 161.734375 322.33984375 157.0987548828125 C322.4826965332031 156.406005859375 322.7377014160156 155.71633911132812 323.0648193359375 155.08969116210938 C323.1938781738281 154.8408203125 323.66693115234375 154.6427001953125 323.9757080078125 154.6534423828125 C324.284423828125 154.6641845703125 324.76519775390625 154.89923095703125 324.854248046875 155.14804077148438 C325.1307373046875 155.92526245117188 325.3488464355469 156.74853515625 325.4225769042969 157.56875610351562 C325.5393371582031 158.8743896484375 325.5208740234375 160.19381713867188 325.56390380859375 161.50860595703125 C325.4855651855469 161.64837646484375 324.8773193359375 161.66064453125 325.4609680175781 161.95712280273438 C325.4686584472656 161.78512573242188 325.4763488769531 161.61154174804688 325.4855651855469 161.43951416015625 C326.044677734375 161.73593139648438 326.3687438964844 161.3780517578125 326.6221923828125 160.980224609375 C327.7742004394531 159.17233276367188 328.8955078125 157.34451293945312 330.04595947265625 155.53662109375 C330.87542724609375 154.234130859375 331.5973205566406 152.84713745117188 332.7846374511719 151.80874633789062 C333.1548156738281 151.48464965820312 333.675537109375 151.2281494140625 334.06256103515625 151.526123046875 C334.3913269042969 151.77960205078125 334.6155700683594 152.30950927734375 334.6693115234375 152.74420166015625 C334.77374267578125 153.58282470703125 334.5065002441406 154.38925170898438 334.1701354980469 155.16644287109375 C333.7016296386719 156.247802734375 333.2638854980469 157.34451293945312 332.79541015625 158.47805786132812 C333.7461853027344 158.713134765625 334.0580139160156 157.986572265625 334.5295715332031 157.58413696289062 C335.4311828613281 156.81304931640625 336.2913513183594 155.99130249023438 337.20831298828125 155.23861694335938 C337.4571838378906 155.03436279296875 337.88726806640625 154.87155151367188 338.1545104980469 155.2432861328125 C338.34649658203125 155.510498046875 338.52008056640625 155.86688232421875 338.5154724121094 156.18023681640625 C338.5093078613281 156.5135498046875 338.3326416015625 156.87451171875 338.14373779296875 157.16632080078125 C337.0562438964844 158.85903930664062 336.1469421386719 160.685302734375 334.5663757324219 162.00625610351562 C334.86895751953125 161.94329833984375 334.8828125 162.17062377929688 334.698486328125 162.1429443359375 C334.234619140625 162.07388305664062 334.7307434082031 162.37338256835938 334.6370849609375 161.90338134765625 Z"></path>
<path fill="#F29481" fill-opacity="1.0"  filling="0" d="M151.2017822265625 261.77252197265625 C150.26483154296875 261.3655090332031 149.69189453125 262.2302551269531 148.92543029785156 262.4253845214844 C148.4769287109375 262.5390319824219 147.979248046875 262.78167724609375 147.70736694335938 262.1934509277344 C147.48159790039062 261.7049560546875 147.7611541748047 261.30096435546875 148.10061645507812 260.95074462890625 C149.50296020507812 259.50079345703125 151.08352661132812 258.2643127441406 152.7285919189453 257.1046142578125 C153.0634002685547 256.79437255859375 153.40440368652344 256.49481201171875 153.73924255371094 256.2060546875 C153.47967529296875 256.2767333984375 153.448974609375 256.2383117675781 153.639404296875 256.10009765625 C153.64402770996094 256.16461181640625 153.64865112304688 256.23065185546875 153.6532440185547 256.2951965332031 C153.1463623046875 256.4149475097656 152.75161743164062 256.63616943359375 152.80078125 257.2521057128906 C152.3968048095703 256.9018859863281 151.96670532226562 256.86962890625 151.49363708496094 257.1123046875 C150.645751953125 257.5455017089844 149.80709838867188 258.01239013671875 148.92543029785156 258.3641662597656 C148.664306640625 258.4685974121094 148.189697265625 258.33038330078125 147.9500732421875 258.13531494140625 C147.40939331054688 257.69598388671875 147.83946228027344 257.21673583984375 148.15283203125 256.947998046875 C150.70718383789062 254.7530517578125 153.3660125732422 252.73165893554688 156.82354736328125 252.152587890625 C156.97561645507812 252.12646484375 157.123046875 251.83157348632812 157.19680786132812 251.63494873046875 C157.29971313476562 251.3599853515625 157.14303588867188 251.19256591796875 156.83889770507812 251.1373291015625 C155.66693115234375 250.92681884765625 154.4903564453125 250.73025512695312 153.32762145996094 250.476806640625 C152.9989013671875 250.40460205078125 152.61029052734375 250.171142578125 152.73165893554688 249.7425537109375 C152.81765747070312 249.43844604492188 153.02963256835938 249.03912353515625 153.28921508789062 248.93313598632812 C155.82362365722656 247.88714599609375 158.53004455566406 247.59063720703125 160.94772338867188 248.83331298828125 C164.19326782226562 250.50140380859375 166.9012451171875 249.80557250976562 169.64146423339844 247.89324951171875 C173.28488159179688 245.349609375 176.68247985839844 242.52188110351562 179.66387939453125 239.22866821289062 C181.5101318359375 237.19036865234375 183.3134002685547 235.1060791015625 184.99993896484375 232.93569946289062 C188.6771240234375 228.20477294921875 192.65074157714844 223.7442626953125 196.90855407714844 219.53253173828125 C199.28933715820312 217.17788696289062 201.64248657226562 214.79705810546875 203.49798583984375 211.9769287109375 C203.95416259765625 211.28268432617188 204.55474853515625 210.6790771484375 205.1199951171875 210.06158447265625 C206.28121948242188 208.7958984375 206.5331268310547 208.73602294921875 207.75115966796875 209.79736328125 C210.27328491210938 211.99542236328125 212.7354736328125 214.26406860351562 215.2499237060547 216.47280883789062 C216.02406311035156 217.1533203125 216.0593719482422 217.91665649414062 215.62777709960938 218.71844482421875 C213.06573486328125 223.46624755859375 210.4407196044922 228.21246337890625 206.1782989501953 231.67926025390625 C200.05426025390625 236.658935546875 193.9993438720703 241.73388671875 187.2486572265625 245.89337158203125 C183.583740234375 248.14974975585938 180.04019165039062 250.6058349609375 176.44595336914062 252.97589111328125 C175.13726806640625 253.839111328125 173.9668426513672 254.84982299804688 173.0621337890625 256.147705078125 C171.51229858398438 258.3718566894531 169.40338134765625 259.91552734375 166.95962524414062 261.0060729980469 C164.87680053710938 261.93536376953125 162.88613891601562 263.0090637207031 160.99993896484375 264.29620361328125 C160.42239379882812 264.6909484863281 159.73118591308594 264.9551696777344 159.05690002441406 265.1563720703125 C158.77734375 265.23931884765625 158.361083984375 265.0596008300781 158.0784454345703 264.88446044921875 C157.7205810546875 264.663330078125 157.81581115722656 264.2501220703125 157.91871643066406 263.9122009277344 C158.37799072265625 262.4007568359375 159.8463897705078 261.52374267578125 160.47769165039062 260.03533935546875 C158.16445922851562 260.2242431640625 158.029296875 260.24267578125 156.54092407226562 261.24114990234375 C155.54867553710938 261.90771484375 154.62863159179688 262.6849060058594 153.6194305419922 263.32391357421875 C153.02809143066406 263.69720458984375 152.3399658203125 263.9383239746094 151.6687469482422 264.1548767089844 C151.0528106689453 264.35455322265625 150.61196899414062 263.7939453125 150.79934692382812 263.0520324707031 C150.91302490234375 262.60198974609375 151.03590393066406 262.155029296875 151.1557159423828 261.7065124511719 C151.55813598632812 261.6435546875 151.95901489257812 261.57904052734375 152.35687255859375 261.51605224609375 C152.09573364257812 261.4699401855469 152.14796447753906 261.2947998046875 152.27392578125 261.37164306640625 C152.67788696289062 261.61895751953125 152.29388427734375 261.10595703125 152.28160095214844 261.5836181640625 C151.879150390625 261.4039306640625 151.45062255859375 261.08441162109375 151.2017822265625 261.77252197265625 Z"></path>
<path fill="#000000" fill-opacity="1.0"  filling="0" d="M176.5150604248047 239.22564697265625 C176.8299560546875 237.29638671875 177.8575439453125 236.405517578125 179.28909301757812 236.437744140625 C180.71603393554688 236.47000122070312 181.54547119140625 237.83087158203125 180.58856201171875 238.872314453125 C179.61471557617188 239.93215942382812 179.6024169921875 240.94747924804688 179.85586547851562 242.160888671875 C180.27366638183594 244.1607666015625 180.79896545410156 246.12069702148438 181.85574340820312 247.89324951171875 C182.5438690185547 249.0467529296875 183.06610107421875 249.06524658203125 183.87252807617188 247.9915771484375 C184.0860137939453 247.7073974609375 184.24884033203125 247.377197265625 184.48843383789062 247.119140625 C184.9338836669922 246.63677978515625 185.5098876953125 246.45556640625 186.09817504882812 246.787353515625 C186.66033935546875 247.103759765625 186.9168701171875 247.67974853515625 186.83392333984375 248.31106567382812 C186.67724609375 249.518310546875 186.2686767578125 250.6319580078125 185.35321044921875 251.4967041015625 C184.3041229248047 252.48895263671875 182.9908447265625 252.679443359375 181.7420654296875 251.92831420898438 C181.13690185546875 251.56427001953125 180.505615234375 251.13882446289062 180.0816650390625 250.5904541015625 C177.3936767578125 247.114501953125 176.67327880859375 243.03640747070312 176.5150604248047 239.22564697265625 Z"></path>
<path fill="#000000" fill-opacity="1.0"  filling="0" d="M172.8179168701172 242.23001098632812 C173.0452423095703 242.32525634765625 173.5045166015625 242.46963500976562 173.9130859375 242.70004272460938 C174.4967803955078 243.02871704101562 174.63499450683594 244.08856201171875 174.16192626953125 244.5877685546875 C173.9253692626953 244.83660888671875 173.62893676757812 245.12075805664062 173.31558227539062 245.18682861328125 C172.2081298828125 245.41876220703125 172.12059020996094 246.21136474609375 172.17124938964844 247.0899658203125 C172.2695770263672 248.79339599609375 172.84402465820312 250.36163330078125 173.68267822265625 251.82388305664062 C174.03134155273438 252.43212890625 174.44915771484375 253.07113647460938 174.9990234375 253.47509765625 C175.72402954101562 254.008056640625 176.2754364013672 253.13104248046875 176.93130493164062 252.96514892578125 C177.96197509765625 252.70245361328125 178.88818359375 253.5595703125 178.6854248046875 254.56719970703125 C178.29376220703125 256.51019287109375 176.43673706054688 257.6115417480469 174.63807678222656 256.9403076171875 C173.48455810546875 256.51019287109375 172.5859832763672 255.73297119140625 171.884033203125 254.73306274414062 C170.04852294921875 252.12030029296875 169.06698608398438 249.21881103515625 169.02398681640625 246.02084350585938 C169.0163116455078 245.43414306640625 169.10540771484375 244.82275390625 169.27590942382812 244.2606201171875 C169.74591064453125 242.71075439453125 170.93017578125 242.00421142578125 172.8179168701172 242.23001098632812 Z"></path>
<path fill="#5E6BEA" fill-opacity="1.0"  filling="0" d="M228.11700439453125 200.55987548828125 C227.3290252685547 201.25567626953125 226.96499633789062 202.26483154296875 226.4427490234375 203.17108154296875 C223.8745574951172 207.6331787109375 221.20806884765625 212.0291748046875 217.87802124023438 215.9813232421875 C217.41567993164062 216.52969360351562 216.94259643554688 217.07186889648438 216.44337463378906 217.58642578125 C216.08090209960938 217.96124267578125 215.61546325683594 218.06723022460938 215.1531524658203 217.781494140625 C214.44198608398438 217.34375 213.69395446777344 216.93670654296875 213.06265258789062 216.3975830078125 C210.79090881347656 214.45449829101562 208.53298950195312 212.49307250976562 206.33035278320312 210.4732666015625 C205.13381958007812 209.37493896484375 205.09388732910156 209.10003662109375 205.9064178466797 207.69305419921875 C208.79103088378906 202.69488525390625 210.93991088867188 197.37265014648438 212.78465270996094 191.93368530273438 C214.2054443359375 187.74505615234375 215.4081268310547 183.48416137695312 216.9671630859375 179.33544921875 C219.21893310546875 173.34194946289062 222.95758056640625 168.50970458984375 227.91116333007812 164.50994873046875 C229.51475524902344 163.21511840820312 231.0261688232422 162.8541259765625 232.82791137695312 163.87713623046875 C233.96914672851562 164.52532958984375 235.12115478515625 165.15045166015625 236.25930786132812 165.80328369140625 C238.74765014648438 167.22866821289062 241.16683959960938 168.79232788085938 243.7273406982422 170.07180786132812 C252.1154327392578 174.2635498046875 260.74163818359375 174.42330932617188 269.4799499511719 171.24993896484375 C270.7056884765625 170.80447387695312 271.8392639160156 170.09481811523438 273.00201416015625 169.4835205078125 C276.08782958984375 167.85842895507812 279.2949523925781 166.598876953125 282.7371826171875 165.92767333984375 C285.6708679199219 165.35629272460938 288.1561584472656 166.03826904296875 290.29888916015625 168.142578125 C291.94549560546875 169.760009765625 293.2756652832031 171.5863037109375 294.18804931640625 173.69216918945312 C295.6625671386719 177.095947265625 296.99273681640625 180.55038452148438 297.8345031738281 184.1845703125 C299.4027404785156 190.95220947265625 301.19989013671875 197.64764404296875 304.4024353027344 203.87762451171875 C305.1028137207031 205.24005126953125 304.9938049316406 205.69781494140625 303.7911376953125 206.66238403320312 C300.5086669921875 209.2935791015625 296.9298095703125 211.45782470703125 293.085205078125 213.16738891601562 C292.08831787109375 213.6097412109375 291.54150390625 213.40390014648438 291.01776123046875 212.431640625 C288.97332763671875 208.6300048828125 287.19464111328125 204.7132568359375 285.9596862792969 200.56600952148438 C285.760009765625 199.89474487304688 285.7369384765625 199.14981079101562 285.1501770019531 198.65216064453125 C284.5773010253906 198.44329833984375 284.54656982421875 198.94244384765625 284.4851379394531 199.22662353515625 C282.4544982910156 208.38119506835938 279.0093078613281 217.05191040039062 275.4303894042969 225.67352294921875 C274.4227600097656 228.10345458984375 273.2984313964844 230.47805786132812 272.63641357421875 233.04473876953125 C272.2324523925781 234.61297607421875 271.7071533203125 234.9371337890625 270.0359802246094 234.8480224609375 C264.1531066894531 234.53775024414062 258.4130554199219 233.32275390625 252.6945343017578 232.01254272460938 C248.61337280273438 231.0771484375 244.53836059570312 230.1002197265625 240.4925537109375 229.02508544921875 C237.49118041992188 228.22784423828125 234.52365112304688 227.2908935546875 231.57144165039062 226.3232421875 C230.11380004882812 225.84396362304688 229.89413452148438 225.37393188476562 230.19366455078125 223.90090942382812 C230.62374877929688 221.79510498046875 231.2489013671875 219.73837280273438 231.2903594970703 217.549560546875 C231.36256408691406 213.69573974609375 230.961669921875 209.90951538085938 230.0308380126953 206.1739501953125 C229.65452575683594 204.66561889648438 229.31045532226562 203.14956665039062 228.9525909423828 201.6365966796875 C228.84506225585938 201.16506958007812 228.75289916992188 200.6904296875 228.11700439453125 200.55987548828125 Z"></path>
<path fill="#000000" fill-opacity="1.0"  filling="0" d="M280.38092041015625 171.36663818359375 C279.4285888671875 170.86593627929688 278.90020751953125 171.29443359375 278.4117736816406 172.1607666015625 C275.8082580566406 176.77032470703125 274.8006286621094 177.13128662109375 269.8578186035156 175.33108520507812 C269.21881103515625 175.09915161132812 268.72119140625 175.1805419921875 268.3218078613281 175.76730346679688 C267.9178161621094 176.358642578125 267.5184326171875 176.95925903320312 267.0530700683594 177.50143432617188 C264.9518127441406 179.952880859375 262.5218811035156 180.34457397460938 259.68487548828125 178.90689086914062 C258.5205993652344 178.31707763671875 257.8677673339844 176.6566162109375 256.4792175292969 176.8978271484375 C255.38560485839844 177.08670043945312 254.45938110351562 178.10198974609375 253.39646911621094 178.62734985351562 C250.46578979492188 180.07882690429688 247.38302612304688 179.3538818359375 245.38623046875 176.78411865234375 C245.02220153808594 176.315673828125 244.73036193847656 175.7841796875 244.46466064453125 175.25271606445312 C244.05606079101562 174.43560791015625 243.48928833007812 174.4140625 242.69515991210938 174.67672729492188 C241.796630859375 174.97470092773438 240.8519744873047 175.20361328125 239.91038513183594 175.29730224609375 C236.8460693359375 175.59988403320312 234.83236694335938 174.398681640625 233.6312255859375 171.64007568359375 C233.48837280273438 171.3128662109375 233.36550903320312 170.96731567382812 233.3025360107422 170.61862182617188 C233.08595275878906 169.39749145507812 232.43621826171875 168.78155517578125 231.13829040527344 168.70938110351562 C229.3058624267578 168.60800170898438 227.6546630859375 167.915283203125 226.2108154296875 166.77398681640625 C225.02809143066406 165.84011840820312 224.1648712158203 164.70809936523438 224.51663208007812 163.0906982421875 C224.84991455078125 161.5516357421875 225.91590881347656 160.64688110351562 227.3612823486328 160.13693237304688 C229.57159423828125 159.35818481445312 232.15052795410156 159.86968994140625 233.47915649414062 161.7896728515625 C236.6049346923828 166.30401611328125 241.4433135986328 168.1748046875 246.15272521972656 170.1424560546875 C250.63934326171875 172.01638793945312 255.41017150878906 172.46182250976562 260.23626708984375 171.54638671875 C267.06842041015625 170.25 273.728515625 168.422119140625 279.91705322265625 165.1351318359375 C281.2856140136719 164.4085693359375 282.6787414550781 163.72811889648438 284.20404052734375 163.33953857421875 C285.31610107421875 163.056884765625 286.32220458984375 163.00930786132812 287.1838684082031 163.90936279296875 C288.13311767578125 164.901611328125 288.13775634765625 166.0474853515625 287.71380615234375 167.24557495117188 C286.5663757324219 170.49267578125 283.8369140625 172.02249145507812 280.38092041015625 171.36663818359375 Z"></path>
<path fill="#C15BAE" fill-opacity="1.0"  filling="0" d="M248.5073699951172 283.22125244140625 C257.32403564453125 284.09832763671875 266.14373779296875 284.7725830078125 275.0111083984375 283.9508056640625 C278.6083679199219 283.6175537109375 279.1367492675781 284.28265380859375 277.992431640625 287.6925354003906 C275.21075439453125 295.9761962890625 272.8315124511719 304.3765869140625 270.53668212890625 312.80615234375 C269.5582580566406 316.3973388671875 268.9300537109375 320.04840087890625 268.2834167480469 323.7025146484375 C267.04998779296875 330.66827392578125 265.5078430175781 337.538818359375 262.6938781738281 344.08062744140625 C260.9858703613281 348.052734375 259.1472473144531 351.96343994140625 256.5775451660156 355.43011474609375 C249.1263885498047 365.4801940917969 243.3648681640625 376.485595703125 237.8997802734375 387.6768798828125 C235.59115600585938 392.40478515625 233.10284423828125 397.0450439453125 231.06765747070312 401.906494140625 C230.24127197265625 403.878662109375 229.68064880371094 404.2135009765625 227.78213500976562 403.59600830078125 C224.59339904785156 402.560791015625 221.21881103515625 402.19525146484375 218.1283721923828 400.83587646484375 C217.36192321777344 400.49951171875 216.56781005859375 400.22296142578125 215.81671142578125 399.857421875 C214.18392944335938 399.0648193359375 213.94125366210938 398.5472412109375 214.3989715576172 396.7147216796875 C214.77528381347656 395.2064208984375 215.2207489013672 393.7149658203125 215.63084411621094 392.2142333984375 C217.681396484375 384.71246337890625 219.7181396484375 377.20758056640625 222.29400634765625 369.86236572265625 C223.92372131347656 365.21600341796875 226.04031372070312 360.80462646484375 228.4779510498047 356.53765869140625 C229.7835693359375 354.2535705566406 231.12600708007812 351.9864501953125 232.36709594726562 349.6671142578125 C236.00897216796875 342.8580322265625 238.3728790283203 335.6280517578125 239.72763061523438 328.0172119140625 C241.69215393066406 316.9748229980469 241.77203369140625 305.8787536621094 241.11155700683594 294.73974609375 C240.92721557617188 291.635498046875 240.72601318359375 288.5296936035156 240.64154052734375 285.4207763671875 C240.57240295410156 282.86029052734375 241.28665161132812 282.26739501953125 243.88865661621094 282.55462646484375 C245.43231201171875 282.72662353515625 246.9683074951172 282.9954833984375 248.5073699951172 283.22125244140625 Z"></path>
<path fill="#D86FC2" fill-opacity="1.0"  filling="0" d="M218.87796020507812 257.93719482421875 C220.1236572265625 250.96673583984375 221.52908325195312 246.15451049804688 223.50900268554688 241.50506591796875 C225.66400146484375 236.4423828125 228.18765258789062 231.53482055664062 229.87417602539062 226.27407836914062 C230.31346130371094 224.905517578125 230.898681640625 224.56912231445312 232.34561157226562 224.8778076171875 C236.09190368652344 225.67654418945312 239.83053588867188 226.5213623046875 243.5491943359375 227.44293212890625 C250.52569580078125 229.17401123046875 257.56060791015625 230.61941528320312 264.6184997558594 231.968017578125 C266.2635498046875 232.28289794921875 267.91168212890625 232.6162109375 269.52447509765625 233.064697265625 C270.814697265625 233.42413330078125 271.278564453125 234.1905517578125 271.1019287109375 235.49005126953125 C270.9575500488281 236.55450439453125 270.6657409667969 237.59893798828125 270.46759033203125 238.6588134765625 C269.23114013671875 245.23287963867188 271.11578369140625 248.95156860351562 277.2797546386719 251.5120849609375 C280.81103515625 252.97894287109375 284.4759216308594 254.11712646484375 288.2145080566406 254.99114990234375 C292.7595520019531 256.052490234375 297.3030700683594 257.1292724609375 301.8204040527344 258.30267333984375 C307.0428161621094 259.6590576171875 312.0594177246094 261.63739013671875 317.0298767089844 263.70635986328125 C319.6917724609375 264.81536865234375 322.07257080078125 266.434326171875 324.31976318359375 268.2483215332031 C327.57147216796875 270.871826171875 329.91387939453125 274.1127624511719 331.303955078125 278.0633850097656 C332.2209167480469 280.66839599609375 332.9182434082031 283.3272705078125 333.4681701660156 286.0260009765625 C336.7828063964844 302.30450439453125 342.16961669921875 317.8687744140625 349.4609680175781 332.7879638671875 C350.7742614746094 335.47442626953125 351.9278259277344 338.2423095703125 353.0752258300781 341.00555419921875 C353.9046325683594 343.00238037109375 353.78021240234375 343.3341369628906 351.8049011230469 344.4017028808594 C349.91107177734375 345.42462158203125 347.958740234375 346.34161376953125 346.01116943359375 347.26324462890625 C344.28314208984375 348.08197021484375 342.5274963378906 348.84381103515625 340.7825622558594 349.6271667480469 C339.87945556640625 350.03265380859375 339.1697998046875 349.84063720703125 338.6798095703125 348.9451904296875 C338.5661315917969 348.7378234863281 338.392578125 348.56268310546875 338.25433349609375 348.36761474609375 C331.09814453125 338.1778259277344 323.4335021972656 328.3443298339844 316.8517150878906 317.75048828125 C313.9363708496094 313.0580749511719 311.54791259765625 308.10137939453125 309.2992248535156 303.0694580078125 C308.0289001464844 300.22784423828125 306.724853515625 297.40777587890625 305.2902526855469 294.639892578125 C302.9324645996094 290.091796875 299.1247253417969 287.80621337890625 294.23565673828125 286.9905700683594 C289.00250244140625 286.1166076660156 283.74169921875 286.21490478515625 278.4762878417969 286.50830078125 C273.101806640625 286.8062744140625 267.77191162109375 287.67108154296875 262.3774719238281 287.7432556152344 C254.57919311523438 287.84771728515625 246.8131866455078 287.50823974609375 239.1270294189453 286.1089172363281 C237.13023376464844 285.7464599609375 235.15032958984375 285.227294921875 233.2057647705078 284.64208984375 C226.06491088867188 282.4916687011719 221.6304473876953 277.69317626953125 219.74424743652344 270.53546142578125 C218.47706604003906 265.7200622558594 218.33111572265625 260.838623046875 218.87796020507812 257.93719482421875 Z"></path>
<path fill="#000000" fill-opacity="1.0"  filling="0" d="M217.1607208251953 414.72894287109375 C215.9042510986328 415.59063720703125 215.61087036132812 417.0821533203125 214.81370544433594 418.235595703125 C213.76461791992188 419.7532958984375 213.2623291015625 420.0343017578125 211.53587341308594 419.604248046875 C210.37924194335938 419.3170166015625 209.2272491455078 418.96063232421875 208.1290283203125 418.5029296875 C205.7681884765625 417.521484375 205.359619140625 416.748779296875 205.97862243652344 414.3603515625 C206.42868041992188 412.626220703125 206.9708709716797 410.91046142578125 207.5607147216797 409.21783447265625 C209.40696716308594 403.909423828125 211.1841278076172 398.5794677734375 212.5926513671875 393.13275146484375 C212.71090698242188 392.673583984375 212.84915161132812 392.209716796875 213.05653381347656 391.7857666015625 C213.33299255371094 391.2174072265625 213.81683349609375 390.8319091796875 214.46963500976562 390.8519287109375 C215.1823272705078 390.8734130859375 215.899658203125 390.96087646484375 216.60311889648438 391.08837890625 C221.91001892089844 392.04376220703125 227.06021118164062 393.61663818359375 232.2288818359375 395.1112060546875 C232.68658447265625 395.2432861328125 233.11668395996094 395.467529296875 233.5605926513672 395.6441650390625 C234.44837951660156 395.9974365234375 234.84005737304688 396.6917724609375 234.84312438964844 397.60565185546875 C234.84620666503906 398.3214111328125 234.787841796875 399.0386962890625 234.74021911621094 399.7559814453125 C234.67724609375 400.71142578125 234.59121704101562 401.66375732421875 234.5282440185547 402.619140625 C234.19955444335938 407.525146484375 235.66796875 411.80438232421875 238.94580078125 415.48162841796875 C241.10693359375 417.90545654296875 243.43399047851562 420.1187744140625 246.30784606933594 421.6932373046875 C246.62118530273438 421.865234375 246.93911743164062 422.0341796875 247.23866271972656 422.23077392578125 C248.64564514160156 423.1539306640625 248.8299560546875 423.745361328125 248.14491271972656 425.18603515625 C247.88836669921875 425.7252197265625 247.61343383789062 426.259765625 247.3016357421875 426.76812744140625 C245.9591522216797 428.95233154296875 245.35398864746094 429.2611083984375 242.89944458007812 428.606689453125 C236.08421325683594 426.78814697265625 229.34271240234375 424.7144775390625 222.66574096679688 422.4412841796875 C221.98988342285156 422.2108154296875 221.36318969726562 421.83758544921875 220.69810485839844 421.5733642578125 C218.95321655273438 420.880615234375 218.12684631347656 419.5704345703125 217.91026306152344 417.7410888671875 C217.78277587890625 416.7242431640625 218.2097930908203 415.5430908203125 217.1607208251953 414.72894287109375 Z"></path>
<path fill="#000000" fill-opacity="1.0"  filling="0" d="M350.40106201171875 363.10400390625 C349.87261962890625 364.53399658203125 350.4962463378906 365.92108154296875 350.5116271972656 367.3218994140625 C350.53314208984375 369.16656494140625 350.2843017578125 369.6857604980469 348.626953125 370.3323974609375 C347.51641845703125 370.76556396484375 346.3705749511719 371.1403503417969 345.2093811035156 371.4030456542969 C342.7148742675781 371.9667053222656 341.9345703125 371.57196044921875 341.06060791015625 369.264892578125 C340.4246826171875 367.5891418457031 339.87786865234375 365.87646484375 339.3802185058594 364.1546325683594 C337.818115234375 358.75408935546875 336.18994140625 353.3780517578125 334.1916198730469 348.1203308105469 C334.02264404296875 347.6764221191406 333.8675537109375 347.21868896484375 333.7906799316406 346.7533264160156 C333.68939208984375 346.12969970703125 333.85986328125 345.5352783203125 334.4035949707031 345.17425537109375 C334.99798583984375 344.779541015625 335.6339416503906 344.4369812011719 336.28057861328125 344.1343994140625 C341.1635437011719 341.8473205566406 346.27532958984375 340.1546325683594 351.3579406738281 338.38824462890625 C351.8080139160156 338.2315673828125 352.2872619628906 338.16705322265625 352.75262451171875 338.05487060546875 C353.68194580078125 337.83062744140625 354.4023132324219 338.1701354980469 354.9322204589844 338.91357421875 C355.3484802246094 339.49725341796875 355.7156066894531 340.1162109375 356.09039306640625 340.7275695800781 C356.59112548828125 341.543212890625 357.0718688964844 342.37109375 357.57110595703125 343.18670654296875 C360.13775634765625 347.3799743652344 363.8087463378906 350.02496337890625 368.6087646484375 351.1308898925781 C371.7744445800781 351.8604736328125 374.95245361328125 352.3213195800781 378.2072448730469 351.9449462890625 C378.5635986328125 351.90350341796875 378.9199523925781 351.85894775390625 379.27783203125 351.84661865234375 C380.9597473144531 351.7867431640625 381.4512939453125 352.1630859375 381.7261962890625 353.734375 C381.8291320800781 354.32269287109375 381.91363525390625 354.9171142578125 381.9519958496094 355.51312255859375 C382.11944580078125 358.07208251953125 381.8045349121094 358.6726379394531 379.420654296875 359.557373046875 C372.8081970214844 362.01190185546875 366.108154296875 364.2145080566406 359.3436279296875 366.217529296875 C358.6585693359375 366.42022705078125 357.9320373535156 366.4770812988281 357.2362060546875 366.64599609375 C355.4114685058594 367.0899658203125 353.97991943359375 366.4970703125 352.74652099609375 365.1300048828125 C352.06292724609375 364.37274169921875 351.7281188964844 363.16082763671875 350.40106201171875 363.10400390625 Z"></path></svg>